<?xml version="1.0" encoding="utf-8"?>
<!-- Generator: Adobe Illustrator 25.2.3, SVG Export Plug-In . SVG Version: 6.00 Build 0)  -->
<svg version="1.1" id="Ebene_1" xmlns="http://www.w3.org/2000/svg" xmlns:xlink="http://www.w3.org/1999/xlink" x="0px" y="0px"
	 viewBox="0 0 604.6 757.6" style="enable-background:new 0 0 604.6 757.6;" xml:space="preserve">
<path d="M127.1,546.4c2.1,0.5,3.8,0.3,5.4,0.1c6.4-0.9,12.7-2,19.1-2.9c9.4-1.3,18.8-2.5,28.2-3.7c7.4-1,14.8-1.9,22.2-3
	c7.3-1,14.5-2.1,21.8-3.1c5.5-0.8,9.9-3.6,14-7.1c2.5-2,4.3-4.6,5.8-7.4c2.5-4.7,4.6-9.5,5.2-14.9c0.5-4.6-0.3-8.9-1.7-13.1
	c-1.7-5.1-4.3-9.8-7.6-14c-3-3.8-5.4-8-7.6-12.2c-2.4-4.6-3.5-9.5-3.3-14.6c0.2-6.3,1.5-12.3,4.6-17.8c0.2-0.4,0.5-0.9,0.8-1.3
	c2.4-5.3,4.7-10.6,7.2-15.9c2.9-6.3,5.8-12.6,8.8-18.9c1.9-3.9,3.5-7.8,5.2-11.8c2-4.6,4.2-9.2,6.4-13.8c2.9-6,6-12,8.7-18.1
	c3.3-7.4,6.1-15,9.3-22.4c3.9-9.1,7.9-18.1,11.8-27.2c0.4-0.8,0.9-1.5,1.2-2.4c0.2-0.7,0.2-1.5-0.9-2c-0.3,0.1-0.9,0.1-1.3,0.3
	c-3.8,2-7.9,3.4-12,4.6c-2.4,0.7-4.8,1.7-7.1,2.5c-7.6,2.8-15.1,5.7-22.8,8.5c-7.4,2.7-14.8,5.2-22.2,7.9c-10,3.6-20,7.2-30,10.7
	c-5.5,2-11,3.9-16.5,5.9c-4.9,1.8-9.7,3.7-14.6,5.3c-8.1,2.5-16.2,5.1-24.8,5.1c-0.4,0-0.8,0.1-1.1,0.1c-5.8,0.8-11.6,0-17.4-0.5
	c-3.4-0.3-6.8-1-10.1-1.5c-0.9-0.1-1.8-0.3-2.6-0.6c-4.2-1.5-8.3-3-12.5-4.5c-1.9-0.7-3.8-1.5-5.6-2.4c-5.4-2.8-10.4-6.2-15.2-10
	c-5.6-4.4-10.5-9.5-15.4-14.6c-4.1-4.3-8-8.8-12-13.2c-0.4-0.5-0.7-1.1-1.7-0.8c0,0.9,0.1,1.9,0,2.8c-0.5,3.8-1.1,7.5-1.7,11.3
	c-1,7-2,14-3.1,21c-0.6,3.9-1.3,7.7-1.9,11.6c-1.1,7.6-2.2,15.3-3.3,22.9c-0.9,5.8-1.8,11.5-2.7,17.2c-1.1,7.4-2.2,14.8-3.3,22.2
	c-1,6.9-2,13.8-3.2,20.7c-0.3,1.6-0.1,3,0.4,4.5c2.6,7.3,5.2,14.5,7.7,21.8c3.4,9.9,7.4,19.6,10.8,29.6c2.6,7.8,5.5,15.5,8.3,23.2
	c0.4,1,0.4,2.3,2,3c0.2-0.3,0.4-0.8,0.8-1.2c5.2-5.9,10.4-11.8,15.6-17.6c5.7-6.3,11.3-12.6,17-18.9c4.4-4.9,8.9-9.7,13.3-14.6
	c6-6.6,12-13,17.9-19.7c3.7-4.1,7.9-7.5,12.5-10.4c0.9-0.6,2-1,3.1-1.4c4.2-1.8,8.6-1.8,13-2.2c2.1-0.2,4.1,0.1,6,0.7
	c2.6,0.9,5.3,1.8,7.6,3.3c2.8,1.8,5.5,3.5,7.7,6.1c2.7,3.2,3.8,7.1,4.8,11c0.7,2.8,0.4,5.5-0.1,8.3c-1,5.2-3.5,9.8-6,14.3
	c-4.4,7.8-9,15.5-13.5,23.3c-3.8,6.6-7.4,13.3-11.1,19.9c-2.7,4.7-5.4,9.4-8.2,14.1c-2.2,3.7-4.3,7.4-6.7,11
	C129.4,541.5,128.4,543.7,127.1,546.4L127.1,546.4z M419.4,226.3c-16.6,3.1-32.1,7.1-48.4,9.4c0.5,0.6,0.7,1.1,1.1,1.2
	c5.5,2.1,11.1,4.2,16.7,6.3l24.3,9.6c6.3,2.5,12.6,5.2,19,7.7c8.4,3.3,16.8,6.4,25.1,9.7c1.3,0.5,2.7,0.7,4.1,0.8
	c4.8,0,9.6,0.1,14.4,0.2c11.3,0.3,22.5,0.6,33.8,0.9c2.9,0.1,5.8,0.3,8.7,0.4c4.6,0.2,9.2-0.2,13.4-2.2c3.2-1.6,6.4-3.2,9.3-5.1
	c4.7-3.1,9.2-6.4,12.4-11c2-2.9,4-5.9,5.5-9.1s2.8-6.4,2.1-10.2c-1.1-6.6-1.7-13.3-2.5-20c-0.8-5.9-1.6-11.8-2.3-17.7
	c-0.7-5.1-1.3-10.3-2-15.4c-0.9-6.6-1.9-13.3-2.7-19.9c-1.2-8.9-2.2-17.8-3.4-26.7c-1.5-11-3-22.1-4.7-33.1
	c-0.8-5.3-1.8-10.5-2.9-15.7c-0.5-2.4-1.2-4.7-1.8-7c-1.6-6.4-3.2-12.8-4.7-19.2c-0.9-3.8-1.9-7.6-2.8-11.4c-1-3.9-1.9-7.9-2.9-11.8
	c-0.2-0.7-0.7-1.3-1.1-2c-2,0-3.9,0.1-5.8,0c-5.2-0.3-10.4-0.6-15.5-0.9c-2.1-0.1-4.3-0.1-6.5-0.2c-4.4-0.2-8.8-0.4-13.3-0.6
	c-5.3-0.2-10.6-0.2-16-0.3c-7-0.1-13.9-0.6-20.9-0.4c-7.9,0.2-15.6-1.1-23.3-2.6c-0.4-0.1-0.9,0-1.6,0c0.2,0.8,0.2,1.3,0.4,1.7
	c1,2.4,2.1,4.9,3.2,7.3c2.2,4.8,4.3,9.7,6.6,14.5c2.9,6.2,6.8,11.8,11.8,16.6c5.1,5,7.8,11.2,7.3,18.4c-0.2,2.8-0.7,5.6-1.5,8.2
	c-1.6,5-4.5,9.3-8.9,12.5c-4.9,3.5-10.2,6.1-15.9,8c-1.4,0.5-2.9,0.9-4.3,1.4c-6.5,2.2-12.9,4.5-19.4,6.6c-8.1,2.6-16,5.5-23.4,9.8
	c-3.2,1.9-6,4.3-8.7,6.6c-6.4,5.3-8.5,12.9-10.1,20.7c-0.1,0.4,0,0.8-0.1,1.1c-0.3,4,0.2,7.9,1.2,11.7c1.6,6,4.5,11.2,9.3,15.3
	c3.9,3.3,7.9,6.3,12,9.3c5.7,4.2,11.5,8.3,17.2,12.5c5.5,4,11,8.1,16.5,12.1C418.1,224.8,418.4,225.3,419.4,226.3L419.4,226.3z
	 M424.7,600.6c-1.3,0-2.3-0.1-3.3,0c-4.3,0.7-8.6,0.3-12.9,0.1c-3.3-0.2-6.6-0.2-9.9-0.3c-4.8-0.2-9.6-0.3-14.4-0.4
	c-0.5,0-1,0.1-1.5,0c-2.5,0-5,0-7.6-0.1c-1.4,0-2.8-0.2-4.2-0.2c-6.5-0.1-12.9-0.1-19.4-0.1c-11.5,0-23.1,0.1-34.6,0.1
	c-4.4,0-8.9,0.2-13.3-0.6c-3.2-0.6-5.9-2-8.1-4.5c-3.7-4.1-4-9.4-0.5-13.7c0.8-1,1.7-1.9,2.5-2.9c1.4-1.8,2.9-3.6,3.9-5.6
	c1.4-2.9,2.4-6,0.5-9.1c-1.7-2.8-3.6-5.4-7.1-6.3c-1.5-0.4-2.9-1-4.3-1.4c-4.7-1.3-9.5-0.9-14.3-1c-2.8,1.3-5.7,0.8-8.6,1.1
	c-3,0.4-6.1,0.5-9.1,0.9c-6.6,0.9-13.3,2-19.9,2.8c-10.1,1.1-18.9,5.3-27,11.3c-3.1,2.3-5.6,5.1-8.3,7.8c-3.8,3.7-6.4,8.2-8.8,12.7
	c-2.8,5.1-4.7,10.7-6.3,16.3c-0.2,0.8-0.4,1.7-0.5,2.6c-0.7,7.1-0.8,14.1-0.7,21.2c0.1,7,0.4,13.9,0.6,20.9
	c0.2,9.1,0.4,18.2,0.6,27.4c0.1,4.4,0.2,8.9,0.3,13.3c0.2,8.4,0.4,16.7,0.5,25.1c0.1,7.7,0,15.5-0.1,23.2c0,4.9-0.1,9.9-0.1,14.8
	c0,0.6,0.2,1.2,0.4,1.7c0.4,0,0.5,0,0.6-0.1c3.7-2.7,7.3-5.4,10.9-8.1c4.9-3.6,9.8-7.2,14.8-10.7c7.4-5.2,14.8-10.2,22.2-15.3
	c6.3-4.3,12.5-8.6,18.8-12.9c1.5-1,3.1-1.7,4.8-2.3c3.2-1.2,6.5-2.1,9.7-3.2l26.1-8.1c5.8-1.8,11.6-3.6,17.4-5.3
	c1.2-0.4,2-0.9,2.6-2c0.4-0.8,1-1.4,1.5-2.2c3.4-5,7.6-9.4,11.1-14.5c3.3-4.8,7-9.3,10.6-13.9c2.8-3.7,5.6-7.5,8.5-11.2
	c0.3-0.4,0.9-0.7,1.5-1.2c0.3,1,0.5,1.6,0.6,2.2c1,7.5,2.9,14.9,3.6,22.5c0.3,3.2,0,6.1-1.1,8.9c-1.4,3.4-2.9,6.7-4.4,10.1
	c-1.1,2.6-2.1,5.1-3.2,7.7c-0.7,1.8-0.4,2.5,1.4,3.2c1.4,0.6,2.9,1.1,4.2,1.7c7.8,3.6,15.6,7.2,23.4,10.9c4.9,2.3,9.8,4.7,14.8,6.8
	c4.9,2.1,9.5,4.7,14.3,6.9c4.6,2.1,9.2,4.2,14.2,5.2c5.2,1,10.1,0.4,14.9-1.4c4.9-1.8,9.2-4.8,12.5-8.9c1.6-1.9,3.5-3.6,4.4-6.1
	c0.7-1.9,1.5-3.8,2.1-5.7c0.4-1.3,0.7-2.8,0.5-4.1c-1.1-6.3-1-12.9-3-19.1c-0.3-0.8-0.2-1.8-0.3-2.6c-0.1-0.8-0.1-1.5-0.3-2.2
	c-1.5-4.9-2.2-10.1-4.2-15c-1-2.3-1.2-4.9-1.9-7.3c-1-3.9-2.5-7.7-3.7-11.6c-1.8-5.7-3.5-11.4-5.3-17.1c-1.3-4.4-2.4-8.8-3.9-13.1
	c-1.8-5.4-3.8-10.7-4.6-16.4C425.4,601.8,425.1,601.4,424.7,600.6L424.7,600.6z M265.5,87.9c0-1.4-0.9-1.7-1.6-2.1
	c-2.9-1.5-5.9-2.9-8.9-4.4c-4.4-2.2-8.9-4.4-13.1-6.8c-3.1-1.8-6.2-3.4-9.4-4.8c-5.1-2.2-10.3-4.3-15.4-6.5
	c-9.6-4.2-19.3-8.4-28.9-12.6c-0.7-0.3-1.5-0.6-2.2-0.5c-5.1,0.4-10.1,0-15.2,0c-17-0.2-34-0.2-50.9-0.3c-5.2,0-10.4,0.2-15.6,0.4
	c-4,0.1-7.7,1.5-11.3,3c-3.3,1.3-6.2,3.4-9.3,5.2c-6.3,3.5-10.2,8.9-12.9,15.3c-0.4,0.9-0.6,1.9-0.7,2.9c-0.8,6.3,0.5,12.4,2,18.4
	c0.9,3.5,2.2,7,3.3,10.5c2.3,7.4,4.6,14.7,6.9,22.1c0.6,1.8,1.2,3.6,1.7,5.4c0.3,0.9,0.6,2-0.5,3c-3.1-0.1-6.4-0.7-9.6-1.1
	c-3.1-0.4-6.3-0.9-9.4-1.4c-3.3-0.5-6.5-1-9.8-1.5c-3.2-0.5-6.5-1-9.7-1.5c-3.3-0.5-6.5-1-9.8-1.5c-3.1-0.5-6.2-1.2-9.4-1.4
	s-6.2-2.1-9.6-1.6c-0.4,1.7,0.5,2.3,1.5,2.9c5,3,10,6,14.9,9c3,1.9,5.9,3.9,8.9,5.8c5.1,3.3,10.3,6.4,15.4,9.7
	c9.3,6,18.5,12,27.7,18c0.6,0.4,1.3,0.8,1.9,1.3c3,2.3,5.1,5.1,6.2,8.8c1.3,4.3,1.4,8.4,0.2,12.7c-1.1,3.9-2.9,7.3-5.3,10.4
	c-2.7,3.5-6.4,5.8-10.5,7.3c-9.4,3.5-18.8,6.8-28.2,10.1c-3.1,1.1-6.2,2.1-9.3,3.3c-2.2,0.9-4.5,1.7-6.9,2.1c-0.5,0.1-1,0.5-1.5,0.8
	c0.2,0.5,0.2,0.8,0.3,1c2.6,2.5,5.4,5,7.9,7.6c3.9,4,7.5,8.2,11.4,12.2c6.2,6.5,12.5,13,18.6,19.5c4,4.2,8.3,8.1,11.6,13
	c0.3,0.4,1,0.6,1.6,0.9c0.8-0.7,1.5-1.2,2.1-1.8c2.2-2.5,4.8-4.4,7.5-6.4c2.3-1.7,4.6-3.5,6.9-5.4c5.8-4.7,11.5-9.5,17.3-14.2
	c2.2-1.8,4.5-3.6,6.8-5.5c3.1-2.6,6.2-5.2,9.3-7.8c7.9-6.5,15.9-12.9,23.8-19.4c6.4-5.2,12.7-10.4,19.1-15.7
	c1.4-1.2,2.9-1.8,4.8-1.9c4.3-0.1,8.6-0.4,12.9-0.7c5.2-0.3,10.4-0.3,15.5-0.8c5.3-0.5,10.6-0.4,15.8-1c7.4-0.8,14.9-1,22.3-1.4
	c2.1-0.1,4.3,0,6.5-0.2c10.9-0.8,21.7-1.6,32.6-1.9c0.3,0,0.5,0,0.7-0.1c0.3-0.2,0.6-0.5,0.7-0.8s-0.1-0.8-0.3-1
	c-0.2-0.3-0.6-0.4-0.9-0.6c-2.7-2.1-5.5-4-8.1-6.3c-4.3-3.7-8.4-7.7-12.6-11.5c-3.3-3-6.6-5.9-9.9-8.9c-6.5-5.8-13-11.7-19.5-17.5
	c-7.3-6.5-14.6-12.9-21.9-19.4c-0.9-0.8-2.1-1.5-2.5-3.4C229.6,115,247.7,101.5,265.5,87.9L265.5,87.9z M380.7,308.6
	c-0.2,0.6-0.3,0.8-0.3,1.1c0.1,4.7,0.4,9.3,0.3,14c-0.1,8.1-0.4,16.2-0.6,24.3c-0.1,2.9-0.1,5.8-0.1,8.7c0,4.8,0.2,9.6-0.1,14.4
	c-0.6,10.6-0.3,21.2-0.6,31.9c-0.1,5.3-0.2,10.6-0.1,15.9c0,2.3-0.7,4.1-2.2,5.8c-4.2,4.9-8.3,9.9-12.4,14.8
	c-4.2,5.1-8.3,10.2-12.6,15.2c-3.2,3.9-6.6,7.7-9.8,11.5c-1.7,2-3,4.5-4.8,6.3c-3.6,3.6-6.4,7.8-9.1,12.1c-1.6,2.6-2.3,5.3-2.4,8.3
	c0,1.1,0.2,2.3,0.6,3.3c2,5.5,9.8,10.2,16,9c7.9-1.5,15.9-3.1,23.7-5.1c2.5-0.6,4.9-1.1,7.4-1.6c1.7-0.4,3.5-0.6,5.2-1
	c5.5-1.3,11-2.8,16.6-4.1c4.3-1,8.7-1.8,13-2.8c4.9-1.1,9.9-2.2,14.8-3.4c1-0.2,1.2-0.2,2.9,0.2c-1.4,1.4-2.8,2.6-4.2,3.9
	c-1.8,1.8-3.7,3.5-5.3,5.4c-5.3,6.8-6.4,14.2-2.5,22c2.8,5.5,7.3,9,13.6,9.8c2.3,0.3,4.5,0.3,6.8,0.4c3.3,0,6.5-0.3,9.8-0.7
	c8.4-1,16.9-1.8,25.3-2.7c5.9-0.7,11.8-1,17.7-1.9c5.5-0.8,11-1.3,16.6-2c6.1-0.8,12.3-1.7,18.4-2.6c7.6-1.1,15.3-2.3,22.9-3.4
	c0.9-0.1,1.7-0.3,2.6-0.5c6.4-1,12.8-1.9,19.1-2.9c0.7-0.1,1.4-0.4,2.2-0.7c0.1-1,0.3-1.9,0.4-2.7c0.2-5.4,0.4-10.9,0.6-16.3
	c0.3-7.6,0.7-15.2,1-22.8c0.1-2,0.1-4,0.1-6.1c0.3-10.8,0.7-21.5,1-32.3s0.5-21.5,0.9-32.3c0.3-6.6-0.4-13.1-2.1-19.5
	c-3.8-14.3-7.4-28.7-11-43c-2.3-9.1-4.6-18.2-6.8-27.3c-0.4-1.6-1.2-2.4-2.8-2.6c-4.4-0.7-8.7-1.6-12.9-3c-1.6-0.5-3.2-0.7-4.7-0.7
	c-1.1,0.8-0.8,1.7-0.6,2.5c1.3,8.6,2.1,17.3,2.6,26.1c0.3,5.4,0.8,10.8,1,16.3c0.3,9.1,0.9,18.2,1.4,27.3c0.1,1.8-0.5,2.8-2.1,3.6
	c-8.3,4.3-16.6,8.7-24.9,12.9c-6,3-12.2,5.5-18,8.9c-4.1,2.4-8.5,3.2-13,3.9c-5.5,0.9-11.1,0.3-16.5-1.3c-3.3-1-6.6-1.8-9.4-3.9
	c-3.3-2.4-6.4-5-9.5-7.5c-0.9-0.7-1.5-1.7-2.2-2.6c-4-5.7-8-11.4-12-17.1c-1.1-1.7-1.9-3.6-3.2-5.1c-3.3-3.9-6-8.1-8.9-12.3
	c-6.8-9.8-14.9-18.5-22.1-28c-2-2.6-4.1-5.2-6.1-7.8c-2.5-3.3-5-6.7-7.5-10C381.7,308.9,381.3,308.8,380.7,308.6L380.7,308.6z
	 M581.9,743.1c0.1-0.1,0.1-0.2,0.2-0.3c-0.2,0.1-0.3,0.1-0.5,0.2C581.7,743,581.8,743.1,581.9,743.1z M461.3,613.9
	c-0.2,0-0.3,0-0.4-0.1c0.1,0.1,0.1,0.2,0.2,0.2C461.1,614,461.2,613.9,461.3,613.9L461.3,613.9z M184.7,666.2l-0.3,0.1l0.3,0.1
	V666.2z"/>
<path d="M424.7,600.6c0.3,0.8,0.7,1.2,0.7,1.7c0.9,5.7,2.8,11,4.6,16.4c1.5,4.3,2.6,8.7,3.9,13.1c1.7,5.7,3.5,11.4,5.3,17.1
	c1.2,3.9,2.6,7.7,3.7,11.6c0.6,2.4,0.9,5,1.9,7.3c2,4.8,2.7,10,4.2,15c0.2,0.7,0.2,1.5,0.3,2.2c0.1,0.9,0,1.8,0.3,2.6
	c1.9,6.2,1.9,12.7,3,19.1c0.2,1.3-0.1,2.8-0.5,4.1c-0.6,1.9-1.4,3.8-2.1,5.7c-0.9,2.5-2.8,4.2-4.4,6.1c-3.4,4.1-7.6,7.1-12.5,8.9
	c-4.8,1.7-9.7,2.4-14.9,1.4c-5.1-1-9.6-3-14.2-5.2c-4.8-2.2-9.5-4.8-14.3-6.9c-5-2.1-9.9-4.5-14.8-6.8c-7.8-3.7-15.6-7.3-23.4-10.9
	c-1.4-0.6-2.8-1.1-4.2-1.7c-1.8-0.8-2.1-1.5-1.4-3.2c1-2.6,2.1-5.2,3.2-7.7c1.4-3.4,3-6.7,4.4-10.1c1.1-2.8,1.5-5.7,1.1-8.9
	c-0.8-7.6-2.6-15-3.6-22.5c-0.1-0.6-0.3-1.2-0.6-2.2c-0.7,0.5-1.2,0.8-1.5,1.2c-2.8,3.7-5.6,7.5-8.5,11.2
	c-3.5,4.6-7.3,9.1-10.6,13.9c-3.4,5-7.7,9.4-11.1,14.5c-0.5,0.7-1.1,1.4-1.5,2.2c-0.6,1.1-1.4,1.7-2.6,2c-5.8,1.7-11.6,3.5-17.4,5.3
	c-8.7,2.7-17.4,5.4-26.1,8.1c-3.3,1-6.5,2-9.7,3.2c-1.7,0.6-3.3,1.3-4.8,2.3c-6.3,4.2-12.6,8.6-18.8,12.9
	c-7.4,5.1-14.8,10.2-22.2,15.3c-5,3.5-9.9,7.1-14.8,10.7c-3.7,2.7-7.3,5.4-10.9,8.1c-0.1,0.1-0.2,0-0.6,0.1
	c-0.1-0.5-0.4-1.1-0.4-1.7c0-4.9,0-9.9,0.1-14.8c0-7.7,0.1-15.5,0.1-23.2c-0.1-8.4-0.3-16.7-0.5-25.1c-0.1-4.4-0.2-8.9-0.3-13.3
	c-0.2-9.1-0.4-18.2-0.6-27.4c-0.2-7-0.5-13.9-0.6-20.9c-0.1-7.1,0-14.2,0.6-21.3c0.1-0.9,0.3-1.7,0.5-2.6c1.6-5.6,3.5-11.2,6.3-16.3
	c2.5-4.5,5.1-9,8.8-12.7c2.7-2.7,5.2-5.5,8.3-7.8c8.1-6,16.9-10.1,27-11.3c6.7-0.7,13.3-1.8,19.9-2.7c3-0.4,6.1-0.6,9.1-0.9
	c2.9-0.4,5.9,0.1,8.6-1.1c4.8,0.1,9.6-0.3,14.3,1.2c1.4,0.5,2.9,1.1,4.3,1.4c3.5,0.9,5.4,3.5,7.1,6.3c1.9,3,0.9,6.2-0.5,9.1
	c-1,2-2.5,3.8-3.9,5.6c-0.8,1-1.7,1.9-2.5,2.9c-3.5,4.3-3.2,9.6,0.5,13.7c2.2,2.5,4.9,3.9,8.1,4.5c4.4,0.8,8.8,0.6,13.3,0.6
	c11.5,0,23-0.1,34.6-0.1c6.5,0,12.9,0.1,19.4,0.1c1.4,0,2.8,0.2,4.2,0.2c2.5,0.1,5,0.1,7.6,0.1c0.5,0,1-0.1,1.5,0
	c4.8,0.1,9.6,0.3,14.4,0.4l9.9,0.3c4.3,0.2,8.6,0.5,12.9-0.1C422.4,600.5,423.5,600.6,424.7,600.6L424.7,600.6z"/>
</svg>
