<?xml version="1.0" encoding="utf-8"?>
<!-- Generator: Adobe Illustrator 25.2.3, SVG Export Plug-In . SVG Version: 6.00 Build 0)  -->
<svg version="1.1" xmlns="http://www.w3.org/2000/svg" xmlns:xlink="http://www.w3.org/1999/xlink" x="0px" y="0px"
	 viewBox="0 0 50.1 47.9" style="enable-background:new 0 0 50.1 47.9;" xml:space="preserve">
<style type="text/css">
	.st0{fill:#1F1FFF;}
	.st1{fill:#585957;stroke:#000000;stroke-width:0.5;stroke-miterlimit:10;}
	.st2{fill:#FF9A93;stroke:#000000;stroke-width:0.5;stroke-miterlimit:10;}
	.st3{fill:#F0F0F0;}
	.st4{fill:#ABBEBD;stroke:#000000;stroke-width:0.5;stroke-miterlimit:10;}
	.st5{fill:#FFFFFF;stroke:#000000;stroke-width:0.5;stroke-miterlimit:10;}
	.st6{fill:none;stroke:#000000;stroke-width:0.5;stroke-miterlimit:10;}
	.st7{fill:#F14564;}
	.st8{fill:#AFDCDC;stroke:#000000;stroke-width:0.5;stroke-miterlimit:10;}
	.st9{fill:#75C9DF;}
	.st10{opacity:0.23;fill:#585957;}
	.st11{fill:#8DCBC3;}
	.st12{fill:#AFDCDC;}
	.st13{fill:#F9EEDB;}
	.st14{opacity:0.44;}
	.st15{fill:none;stroke:#FF0000;stroke-miterlimit:10;}
	.st16{fill:#002CA4;}
	.st17{fill:#0050E3;}
	.st18{fill:#FFA8A7;}
	.st19{fill:#FFCFD0;}
	.st20{fill:#0050E3;stroke:#1B1464;stroke-miterlimit:10;}
	.st21{fill:#00BAA5;}
	.st22{fill:#C7EAD7;}
	.st23{fill:#FF3627;}
	.st24{fill:#D80000;}
	.st25{fill:#1B9787;}
	.st26{fill:#FEFD87;}
	.st27{fill:#002D82;}
	.st28{fill:#00106A;}
	.st29{fill:#E492B8;}
	.st30{fill:#22B573;stroke:#000000;stroke-width:0.5;stroke-miterlimit:10;}
	.st31{fill:#FFD900;}
	.st32{fill:#DAB312;stroke:#000000;stroke-width:0.5;stroke-miterlimit:10;}
	.st33{fill:#FF9A93;}
	.st34{fill:#FEFEC3;}
	.st35{fill:#FFBECA;}
	.st36{fill:#FFA5AE;}
	.st37{fill:#FFFFFF;}
	.st38{fill:#8FBC9C;}
	.st39{fill:none;stroke:#000000;stroke-width:0.25;stroke-miterlimit:10;}
	.st40{opacity:0.32;fill:#585957;}
	.st41{fill:none;stroke:#000000;stroke-width:2;stroke-miterlimit:10;}
	.st42{fill:#FEFEC3;stroke:#000000;stroke-width:0.5;stroke-miterlimit:10;}
	.st43{opacity:0.84;}
	.st44{fill:#FF1D25;}
	.st45{opacity:0.53;fill:#FF0000;stroke:#1F1FFF;stroke-miterlimit:10;}
	.st46{fill:#FCF6ED;stroke:#000000;stroke-miterlimit:10;}
	.st47{fill:#7F7F7F;stroke:#000000;stroke-miterlimit:10;}
	.st48{opacity:0.12;}
	.st49{fill:#008072;stroke:#000000;stroke-width:0.75;stroke-miterlimit:10;}
	.st50{fill:#FFE7A0;stroke:#000000;stroke-width:0.75;stroke-miterlimit:10;}
	.st51{fill:#FFA5AE;stroke:#000000;stroke-width:0.75;stroke-miterlimit:10;}
	.st52{fill:none;stroke:#000000;stroke-width:3;stroke-miterlimit:10;}
	.st53{fill:#FFA5AE;stroke:#000000;stroke-width:0.1;stroke-miterlimit:10;}
	.st54{fill:#FF0000;}
	.st55{fill:#ABBEBD;stroke:#000000;stroke-width:0.25;stroke-miterlimit:10;}
	.st56{opacity:0.6;fill:#FFFFFF;}
	.st57{fill:#FF4A3D;}
	.st58{fill:none;stroke:#000000;stroke-width:0.75;stroke-miterlimit:10;}
	.st59{fill:#FEF7EF;stroke:#000000;stroke-width:0.75;stroke-miterlimit:10;}
	.st60{fill:none;stroke:#000000;stroke-width:0.75;stroke-linecap:round;stroke-miterlimit:10;}
	.st61{fill:#FFFFFF;stroke:#000000;stroke-width:0.75;stroke-miterlimit:10;}
	.st62{fill:#DBDAD2;stroke:#000000;stroke-width:0.5;stroke-miterlimit:10;}
	.st63{fill:#FF4A3D;stroke:#000000;stroke-width:0.5;stroke-linecap:round;stroke-miterlimit:10;}
	.st64{fill:none;stroke:#000000;stroke-width:0.5;stroke-linecap:round;stroke-miterlimit:10;}
	.st65{fill:#F9EEDB;stroke:#000000;stroke-width:0.5;stroke-miterlimit:10;}
	.st66{fill:#7F7F7F;stroke:#000000;stroke-width:0.5;stroke-miterlimit:10;}
	.st67{fill:#7FDCD2;stroke:#000000;stroke-width:0.5;stroke-miterlimit:10;}
</style>
<g id="Ebene_2">
</g>
<g id="Ebene_1">
	<g>
		<g>
			<circle class="st35" cx="11" cy="34.2" r="9"/>
			<path class="st36" d="M18,32.5c0,5-4,9-9,9c-1.8,0-3.4-0.5-4.8-1.4c1.6,1.9,4.1,3.1,6.8,3.1c5,0,9-4,9-9c0-3.2-1.7-6-4.2-7.6
				C17.2,28.2,18,30.3,18,32.5z"/>
		</g>
		<g>
			<g>
				<path d="M11,25.2c5,0,9,4,9,9s-4,9-9,9s-9-4-9-9S6,25.2,11,25.2 M11,24.7c-5.2,0-9.5,4.3-9.5,9.5c0,5.2,4.3,9.5,9.5,9.5
					s9.5-4.3,9.5-9.5C20.5,29,16.2,24.7,11,24.7L11,24.7z"/>
			</g>
		</g>
		<ellipse transform="matrix(0.821 -0.5709 0.5709 0.821 -15.2812 9.056)" class="st37" cx="6.8" cy="28.9" rx="3.1" ry="1.2"/>
	</g>
	<g>
		<g>
			<circle class="st35" cx="23.6" cy="13" r="9"/>
			<path class="st36" d="M30.7,11.3c0,5-4,9-9,9c-1.8,0-3.4-0.5-4.8-1.4c1.6,1.9,4.1,3.1,6.8,3.1c5,0,9-4,9-9c0-3.2-1.7-6-4.2-7.6
				C29.8,7,30.7,9,30.7,11.3z"/>
		</g>
		<g>
			<g>
				<path d="M23.6,4c5,0,9,4,9,9s-4,9-9,9c-5,0-9-4-9-9S18.7,4,23.6,4 M23.6,3.5c-5.2,0-9.5,4.3-9.5,9.5c0,5.2,4.3,9.5,9.5,9.5
					c5.2,0,9.5-4.3,9.5-9.5C33.1,7.8,28.9,3.5,23.6,3.5L23.6,3.5z"/>
			</g>
		</g>
		<ellipse transform="matrix(0.821 -0.5709 0.5709 0.821 -0.9032 12.4886)" class="st37" cx="19.5" cy="7.7" rx="3.1" ry="1.2"/>
	</g>
	<g>
		<g>
			<circle class="st35" cx="37.3" cy="33.7" r="9"/>
			<path class="st36" d="M44.4,32c0,5-4,9-9,9c-1.8,0-3.4-0.5-4.8-1.4c1.6,1.9,4.1,3.1,6.8,3.1c5,0,9-4,9-9c0-3.2-1.7-6-4.2-7.6
				C43.5,27.7,44.4,29.8,44.4,32z"/>
		</g>
		<g>
			<g>
				<path d="M37.3,24.7c5,0,9,4,9,9s-4,9-9,9s-9-4-9-9S32.4,24.7,37.3,24.7 M37.3,24.2c-5.2,0-9.5,4.3-9.5,9.5
					c0,5.2,4.3,9.5,9.5,9.5s9.5-4.3,9.5-9.5C46.8,28.5,42.6,24.2,37.3,24.2L37.3,24.2z"/>
			</g>
		</g>
		<ellipse transform="matrix(0.821 -0.5709 0.5709 0.821 -10.29 24.0252)" class="st37" cx="33.2" cy="28.4" rx="3.1" ry="1.2"/>
	</g>
</g>
</svg>
