<?xml version="1.0" encoding="utf-8"?>
<!-- Generator: Adobe Illustrator 25.2.3, SVG Export Plug-In . SVG Version: 6.00 Build 0)  -->
<svg version="1.1" xmlns="http://www.w3.org/2000/svg" xmlns:xlink="http://www.w3.org/1999/xlink" x="0px" y="0px"
	 viewBox="0 0 43.6 45.1" style="enable-background:new 0 0 43.6 45.1;" xml:space="preserve">
<style type="text/css">
	.st0{fill:#1F1FFF;}
	.st1{fill:#585957;stroke:#000000;stroke-width:0.5;stroke-miterlimit:10;}
	.st2{fill:#FF9A93;stroke:#000000;stroke-width:0.5;stroke-miterlimit:10;}
	.st3{fill:#F0F0F0;}
	.st4{fill:#ABBEBD;stroke:#000000;stroke-width:0.5;stroke-miterlimit:10;}
	.st5{fill:#FFFFFF;stroke:#000000;stroke-width:0.5;stroke-miterlimit:10;}
	.st6{fill:none;stroke:#000000;stroke-width:0.5;stroke-miterlimit:10;}
	.st7{fill:#F14564;}
	.st8{fill:#AFDCDC;stroke:#000000;stroke-width:0.5;stroke-miterlimit:10;}
	.st9{fill:#75C9DF;}
	.st10{opacity:0.23;fill:#585957;}
	.st11{fill:#8DCBC3;}
	.st12{fill:#AFDCDC;}
	.st13{fill:#F9EEDB;}
	.st14{opacity:0.44;}
	.st15{fill:none;stroke:#FF0000;stroke-miterlimit:10;}
	.st16{fill:#002CA4;}
	.st17{fill:#0050E3;}
	.st18{fill:#FFA8A7;}
	.st19{fill:#FFCFD0;}
	.st20{fill:#0050E3;stroke:#1B1464;stroke-miterlimit:10;}
	.st21{fill:#00BAA5;}
	.st22{fill:#C7EAD7;}
	.st23{fill:#FF3627;}
	.st24{fill:#D80000;}
	.st25{fill:#1B9787;}
	.st26{fill:#FEFD87;}
	.st27{fill:#002D82;}
	.st28{fill:#00106A;}
	.st29{fill:#E492B8;}
	.st30{fill:#22B573;stroke:#000000;stroke-width:0.5;stroke-miterlimit:10;}
	.st31{fill:#FFD900;}
	.st32{fill:#DAB312;stroke:#000000;stroke-width:0.5;stroke-miterlimit:10;}
	.st33{fill:#FF9A93;}
	.st34{fill:#FEFEC3;}
	.st35{fill:#FFBECA;}
	.st36{fill:#FFA5AE;}
	.st37{fill:#FFFFFF;}
	.st38{fill:#8FBC9C;}
	.st39{fill:none;stroke:#000000;stroke-width:0.25;stroke-miterlimit:10;}
	.st40{opacity:0.32;fill:#585957;}
	.st41{fill:none;stroke:#000000;stroke-width:2;stroke-miterlimit:10;}
	.st42{fill:#FEFEC3;stroke:#000000;stroke-width:0.5;stroke-miterlimit:10;}
	.st43{opacity:0.84;}
	.st44{fill:#FF1D25;}
	.st45{opacity:0.53;fill:#FF0000;stroke:#1F1FFF;stroke-miterlimit:10;}
	.st46{fill:#FCF6ED;stroke:#000000;stroke-miterlimit:10;}
	.st47{fill:#7F7F7F;stroke:#000000;stroke-miterlimit:10;}
	.st48{opacity:0.12;}
	.st49{fill:#008072;stroke:#000000;stroke-width:0.75;stroke-miterlimit:10;}
	.st50{fill:#FFE7A0;stroke:#000000;stroke-width:0.75;stroke-miterlimit:10;}
	.st51{fill:#FFA5AE;stroke:#000000;stroke-width:0.75;stroke-miterlimit:10;}
	.st52{fill:none;stroke:#000000;stroke-width:3;stroke-miterlimit:10;}
	.st53{fill:#FFA5AE;stroke:#000000;stroke-width:0.1;stroke-miterlimit:10;}
	.st54{fill:#FF0000;}
	.st55{fill:#ABBEBD;stroke:#000000;stroke-width:0.25;stroke-miterlimit:10;}
	.st56{opacity:0.6;fill:#FFFFFF;}
	.st57{fill:#FF4A3D;}
	.st58{fill:none;stroke:#000000;stroke-width:0.75;stroke-miterlimit:10;}
	.st59{fill:#FEF7EF;stroke:#000000;stroke-width:0.75;stroke-miterlimit:10;}
	.st60{fill:none;stroke:#000000;stroke-width:0.75;stroke-linecap:round;stroke-miterlimit:10;}
	.st61{fill:#FFFFFF;stroke:#000000;stroke-width:0.75;stroke-miterlimit:10;}
	.st62{fill:#DBDAD2;stroke:#000000;stroke-width:0.5;stroke-miterlimit:10;}
	.st63{fill:#FF4A3D;stroke:#000000;stroke-width:0.5;stroke-linecap:round;stroke-miterlimit:10;}
	.st64{fill:none;stroke:#000000;stroke-width:0.5;stroke-linecap:round;stroke-miterlimit:10;}
	.st65{fill:#F9EEDB;stroke:#000000;stroke-width:0.5;stroke-miterlimit:10;}
	.st66{fill:#7F7F7F;stroke:#000000;stroke-width:0.5;stroke-miterlimit:10;}
	.st67{fill:#7FDCD2;stroke:#000000;stroke-width:0.5;stroke-miterlimit:10;}
</style>
<g id="Ebene_2">
</g>
<g id="Ebene_1">
	<g>
		<circle cx="4.3" cy="28.7" r="4.2"/>
		<circle cx="4.3" cy="16.7" r="4.2"/>
		<circle cx="39.5" cy="23.3" r="4.2"/>
		<circle cx="22.2" cy="16.7" r="4.2"/>
		<circle cx="22.2" cy="4.4" r="4.2"/>
		<circle cx="22.2" cy="40.9" r="4.2"/>
		<circle cx="22.2" cy="28.7" r="4.2"/>
		<line class="st39" x1="4.3" y1="16.7" x2="22.2" y2="4.4"/>
		<line class="st39" x1="4.3" y1="28.7" x2="22.1" y2="4.4"/>
		<line class="st39" x1="39.5" y1="23.3" x2="22.2" y2="4.4"/>
		<line class="st39" x1="39.5" y1="23.3" x2="22.2" y2="16.7"/>
		<line class="st39" x1="39.5" y1="23.3" x2="22.2" y2="28.8"/>
		<line class="st39" x1="39.5" y1="23.3" x2="22.5" y2="41.4"/>
		<line class="st39" x1="22.1" y1="16.7" x2="4.3" y2="16.7"/>
		<line class="st39" x1="22.2" y1="28.8" x2="4.3" y2="16.7"/>
		<line class="st39" x1="22.2" y1="40.9" x2="4.3" y2="16.7"/>
		<line class="st39" x1="4.3" y1="28.7" x2="22.2" y2="16.7"/>
		<line class="st39" x1="4.3" y1="28.7" x2="22.2" y2="40.9"/>
		<line class="st39" x1="4.3" y1="28.7" x2="22.2" y2="28.8"/>
	</g>
	<g>
		<g>
			<circle class="st35" cx="4.3" cy="16.7" r="4"/>
			<path class="st36" d="M7.4,16c0,2.2-1.8,4-4,4c-0.8,0-1.5-0.2-2.2-0.6c0.7,0.8,1.8,1.4,3,1.4c2.2,0,4-1.8,4-4
				c0-1.4-0.7-2.7-1.9-3.4C7,14.1,7.4,15,7.4,16z"/>
		</g>
		<g>
			<g>
				<path d="M4.3,12.7c2.2,0,4,1.8,4,4c0,2.2-1.8,4-4,4c-2.2,0-4-1.8-4-4C0.2,14.5,2,12.7,4.3,12.7 M4.3,12.5
					c-2.3,0-4.3,1.9-4.3,4.3C0,19.1,1.9,21,4.3,21c2.3,0,4.3-1.9,4.3-4.3C8.5,14.4,6.6,12.5,4.3,12.5L4.3,12.5z"/>
			</g>
		</g>
		<ellipse transform="matrix(0.821 -0.5709 0.5709 0.821 -7.7815 3.9459)" class="st37" cx="2.4" cy="14.4" rx="1.4" ry="0.5"/>
	</g>
	<g>
		<g>
			<circle class="st35" cx="4.3" cy="28.5" r="4"/>
			<path class="st36" d="M7.4,27.8c0,2.2-1.8,4-4,4c-0.8,0-1.5-0.2-2.2-0.6C2,32,3,32.5,4.3,32.5c2.2,0,4-1.8,4-4
				c0-1.4-0.7-2.7-1.9-3.4C7,25.8,7.4,26.8,7.4,27.8z"/>
		</g>
		<g>
			<g>
				<path d="M4.3,24.5c2.2,0,4,1.8,4,4c0,2.2-1.8,4-4,4c-2.2,0-4-1.8-4-4C0.2,26.3,2,24.5,4.3,24.5 M4.3,24.3
					c-2.3,0-4.3,1.9-4.3,4.3c0,2.3,1.9,4.3,4.3,4.3c2.3,0,4.3-1.9,4.3-4.3C8.5,26.2,6.6,24.3,4.3,24.3L4.3,24.3z"/>
			</g>
		</g>
		<ellipse transform="matrix(0.821 -0.5709 0.5709 0.821 -14.5044 6.0536)" class="st37" cx="2.4" cy="26.2" rx="1.4" ry="0.5"/>
	</g>
	<g>
		<g>
			<circle class="st7" cx="22.2" cy="16.7" r="4"/>
			<path class="st40" d="M25.3,16c0,2.2-1.8,4-4,4c-0.8,0-1.5-0.2-2.2-0.6c0.7,0.8,1.8,1.4,3,1.4c2.2,0,4-1.8,4-4
				c0-1.4-0.7-2.7-1.9-3.4C25,14.1,25.3,15,25.3,16z"/>
		</g>
		<g>
			<g>
				<path d="M22.2,12.7c2.2,0,4,1.8,4,4c0,2.2-1.8,4-4,4c-2.2,0-4-1.8-4-4C18.2,14.5,20,12.7,22.2,12.7 M22.2,12.5
					c-2.3,0-4.3,1.9-4.3,4.3c0,2.3,1.9,4.3,4.3,4.3c2.3,0,4.3-1.9,4.3-4.3C26.4,14.4,24.5,12.5,22.2,12.5L22.2,12.5z"/>
			</g>
		</g>
		<ellipse transform="matrix(0.821 -0.5709 0.5709 0.821 -4.5703 14.1883)" class="st37" cx="20.3" cy="14.4" rx="1.4" ry="0.5"/>
	</g>
	<g>
		<g>
			<circle class="st7" cx="22.2" cy="28.7" r="4"/>
			<path class="st40" d="M25.3,28c0,2.2-1.8,4-4,4c-0.8,0-1.5-0.2-2.2-0.6c0.7,0.8,1.8,1.4,3,1.4c2.2,0,4-1.8,4-4
				c0-1.4-0.7-2.7-1.9-3.4C25,26,25.3,27,25.3,28z"/>
		</g>
		<g>
			<g>
				<path d="M22.2,24.7c2.2,0,4,1.8,4,4c0,2.2-1.8,4-4,4c-2.2,0-4-1.8-4-4C18.2,26.5,20,24.7,22.2,24.7 M22.2,24.5
					c-2.3,0-4.3,1.9-4.3,4.3c0,2.3,1.9,4.3,4.3,4.3c2.3,0,4.3-1.9,4.3-4.3C26.4,26.4,24.5,24.5,22.2,24.5L22.2,24.5z"/>
			</g>
		</g>
		<ellipse transform="matrix(0.821 -0.5709 0.5709 0.821 -11.4062 16.3315)" class="st37" cx="20.3" cy="26.4" rx="1.4" ry="0.5"/>
	</g>
	<g>
		<g>
			<circle class="st7" cx="22.2" cy="4.4" r="4"/>
			<path class="st40" d="M25.3,3.7c0,2.2-1.8,4-4,4c-0.8,0-1.5-0.2-2.2-0.6c0.7,0.8,1.8,1.4,3,1.4c2.2,0,4-1.8,4-4
				c0-1.4-0.7-2.7-1.9-3.4C25,1.7,25.3,2.7,25.3,3.7z"/>
		</g>
		<g>
			<g>
				<path d="M22.2,0.4c2.2,0,4,1.8,4,4c0,2.2-1.8,4-4,4c-2.2,0-4-1.8-4-4C18.2,2.2,20,0.4,22.2,0.4 M22.2,0.2
					c-2.3,0-4.3,1.9-4.3,4.3c0,2.3,1.9,4.3,4.3,4.3c2.3,0,4.3-1.9,4.3-4.3C26.4,2.1,24.5,0.2,22.2,0.2L22.2,0.2z"/>
			</g>
		</g>
		<ellipse transform="matrix(0.821 -0.5709 0.5709 0.821 2.4648 11.9826)" class="st37" cx="20.3" cy="2.1" rx="1.4" ry="0.5"/>
	</g>
	<g>
		<g>
			<circle class="st35" cx="22.1" cy="40.9" r="4"/>
			<path class="st36" d="M25.3,40.1c0,2.2-1.8,4-4,4c-0.8,0-1.5-0.2-2.2-0.6c0.7,0.8,1.8,1.4,3,1.4c2.2,0,4-1.8,4-4
				c0-1.4-0.7-2.7-1.9-3.4C24.9,38.2,25.3,39.1,25.3,40.1z"/>
		</g>
		<g>
			<g>
				<path d="M22.1,36.9c2.2,0,4,1.8,4,4c0,2.2-1.8,4-4,4c-2.2,0-4-1.8-4-4C18.1,38.7,19.9,36.9,22.1,36.9 M22.1,36.6
					c-2.3,0-4.3,1.9-4.3,4.3c0,2.3,1.9,4.3,4.3,4.3c2.3,0,4.3-1.9,4.3-4.3C26.4,38.5,24.5,36.6,22.1,36.6L22.1,36.6z"/>
			</g>
		</g>
		<ellipse transform="matrix(0.821 -0.5709 0.5709 0.821 -18.3518 18.4731)" class="st37" cx="20.3" cy="38.5" rx="1.4" ry="0.5"/>
	</g>
	<g>
		<g>
			<circle class="st35" cx="39.6" cy="23.4" r="4"/>
			<path class="st36" d="M42.8,22.6c0,2.2-1.8,4-4,4c-0.8,0-1.5-0.2-2.2-0.6c0.7,0.8,1.8,1.4,3,1.4c2.2,0,4-1.8,4-4
				c0-1.4-0.7-2.7-1.9-3.4C42.4,20.7,42.8,21.6,42.8,22.6z"/>
		</g>
		<g>
			<g>
				<path d="M39.6,19.4c2.2,0,4,1.8,4,4c0,2.2-1.8,4-4,4c-2.2,0-4-1.8-4-4C35.6,21.2,37.4,19.4,39.6,19.4 M39.6,19.1
					c-2.3,0-4.3,1.9-4.3,4.3c0,2.3,1.9,4.3,4.3,4.3c2.3,0,4.3-1.9,4.3-4.3C43.9,21,42,19.1,39.6,19.1L39.6,19.1z"/>
			</g>
		</g>
		<ellipse transform="matrix(0.821 -0.5709 0.5709 0.821 -5.2356 25.328)" class="st37" cx="37.8" cy="21" rx="1.4" ry="0.5"/>
	</g>
	<g>
		<g>
			<circle class="st7" cx="22.2" cy="40.9" r="4"/>
			<path class="st40" d="M25.3,40.1c0,2.2-1.8,4-4,4c-0.8,0-1.5-0.2-2.2-0.6c0.7,0.8,1.8,1.4,3,1.4c2.2,0,4-1.8,4-4
				c0-1.4-0.7-2.7-1.9-3.4C25,38.2,25.3,39.1,25.3,40.1z"/>
		</g>
		<g>
			<g>
				<path d="M22.2,36.9c2.2,0,4,1.8,4,4c0,2.2-1.8,4-4,4c-2.2,0-4-1.8-4-4C18.2,38.7,20,36.9,22.2,36.9 M22.2,36.6
					c-2.3,0-4.3,1.9-4.3,4.3c0,2.3,1.9,4.3,4.3,4.3c2.3,0,4.3-1.9,4.3-4.3C26.4,38.5,24.5,36.6,22.2,36.6L22.2,36.6z"/>
			</g>
		</g>
		<ellipse transform="matrix(0.821 -0.5709 0.5709 0.821 -18.3415 18.5059)" class="st37" cx="20.3" cy="38.5" rx="1.4" ry="0.5"/>
	</g>
</g>
</svg>
