<?xml version="1.0" encoding="utf-8"?>
<!-- Generator: Adobe Illustrator 25.2.3, SVG Export Plug-In . SVG Version: 6.00 Build 0)  -->
<svg version="1.1" xmlns="http://www.w3.org/2000/svg" xmlns:xlink="http://www.w3.org/1999/xlink" x="0px" y="0px"
	 viewBox="0 0 36.8 36.8" style="enable-background:new 0 0 36.8 36.8;" xml:space="preserve">
<style type="text/css">
	.st0{fill:#1F1FFF;}
	.st1{fill:#585957;stroke:#000000;stroke-width:0.5;stroke-miterlimit:10;}
	.st2{fill:#FF9A93;stroke:#000000;stroke-width:0.5;stroke-miterlimit:10;}
	.st3{fill:#F0F0F0;}
	.st4{fill:#ABBEBD;stroke:#000000;stroke-width:0.5;stroke-miterlimit:10;}
	.st5{fill:#FFFFFF;stroke:#000000;stroke-width:0.5;stroke-miterlimit:10;}
	.st6{fill:none;stroke:#000000;stroke-width:0.5;stroke-miterlimit:10;}
	.st7{fill:#F14564;}
	.st8{fill:#AFDCDC;stroke:#000000;stroke-width:0.5;stroke-miterlimit:10;}
	.st9{fill:#75C9DF;}
	.st10{opacity:0.23;fill:#585957;}
	.st11{fill:#8DCBC3;}
	.st12{fill:#AFDCDC;}
	.st13{fill:#F9EEDB;}
	.st14{opacity:0.44;}
	.st15{fill:none;stroke:#FF0000;stroke-miterlimit:10;}
	.st16{fill:#002CA4;}
	.st17{fill:#0050E3;}
	.st18{fill:#FFA8A7;}
	.st19{fill:#FFCFD0;}
	.st20{fill:#0050E3;stroke:#1B1464;stroke-miterlimit:10;}
	.st21{fill:#00BAA5;}
	.st22{fill:#C7EAD7;}
	.st23{fill:#FF3627;}
	.st24{fill:#D80000;}
	.st25{fill:#1B9787;}
	.st26{fill:#FEFD87;}
	.st27{fill:#002D82;}
	.st28{fill:#00106A;}
	.st29{fill:#E492B8;}
	.st30{fill:#22B573;stroke:#000000;stroke-width:0.5;stroke-miterlimit:10;}
	.st31{fill:#FFD900;}
	.st32{fill:#DAB312;stroke:#000000;stroke-width:0.5;stroke-miterlimit:10;}
	.st33{fill:#FF9A93;}
	.st34{fill:#FEFEC3;}
	.st35{fill:#FFBECA;}
	.st36{fill:#FFA5AE;}
	.st37{fill:#FFFFFF;}
	.st38{fill:#8FBC9C;}
	.st39{fill:none;stroke:#000000;stroke-width:0.25;stroke-miterlimit:10;}
	.st40{opacity:0.32;fill:#585957;}
	.st41{fill:none;stroke:#000000;stroke-width:2;stroke-miterlimit:10;}
	.st42{fill:#FEFEC3;stroke:#000000;stroke-width:0.5;stroke-miterlimit:10;}
	.st43{opacity:0.84;}
	.st44{fill:#FF1D25;}
	.st45{opacity:0.53;fill:#FF0000;stroke:#1F1FFF;stroke-miterlimit:10;}
	.st46{fill:#FCF6ED;stroke:#000000;stroke-miterlimit:10;}
	.st47{fill:#7F7F7F;stroke:#000000;stroke-miterlimit:10;}
	.st48{opacity:0.12;}
	.st49{fill:#008072;stroke:#000000;stroke-width:0.75;stroke-miterlimit:10;}
	.st50{fill:#FFE7A0;stroke:#000000;stroke-width:0.75;stroke-miterlimit:10;}
	.st51{fill:#FFA5AE;stroke:#000000;stroke-width:0.75;stroke-miterlimit:10;}
	.st52{fill:none;stroke:#000000;stroke-width:3;stroke-miterlimit:10;}
	.st53{fill:#FFA5AE;stroke:#000000;stroke-width:0.1;stroke-miterlimit:10;}
	.st54{fill:#FF0000;}
	.st55{fill:#ABBEBD;stroke:#000000;stroke-width:0.25;stroke-miterlimit:10;}
	.st56{opacity:0.6;fill:#FFFFFF;}
	.st57{fill:#FF4A3D;}
	.st58{fill:none;stroke:#000000;stroke-width:0.75;stroke-miterlimit:10;}
	.st59{fill:#FEF7EF;stroke:#000000;stroke-width:0.75;stroke-miterlimit:10;}
	.st60{fill:none;stroke:#000000;stroke-width:0.75;stroke-linecap:round;stroke-miterlimit:10;}
	.st61{fill:#FFFFFF;stroke:#000000;stroke-width:0.75;stroke-miterlimit:10;}
	.st62{fill:#DBDAD2;stroke:#000000;stroke-width:0.5;stroke-miterlimit:10;}
	.st63{fill:#FF4A3D;stroke:#000000;stroke-width:0.5;stroke-linecap:round;stroke-miterlimit:10;}
	.st64{fill:none;stroke:#000000;stroke-width:0.5;stroke-linecap:round;stroke-miterlimit:10;}
	.st65{fill:#F9EEDB;stroke:#000000;stroke-width:0.5;stroke-miterlimit:10;}
	.st66{fill:#7F7F7F;stroke:#000000;stroke-width:0.5;stroke-miterlimit:10;}
	.st67{fill:#7FDCD2;stroke:#000000;stroke-width:0.5;stroke-miterlimit:10;}
</style>
<g id="Ebene_2">
</g>
<g id="Ebene_1">
	<path class="st3" d="M0,0v36.8h36.8V0H0z M31.4,5.7c0,0.3-0.2,0.5-0.5,0.5h-2.3c0.6,0,1.1,0.5,1.1,1.1l-2.4,28
		c0,0.6-0.5,1.1-1.1,1.1H11.1c-0.6,0-1.1-0.5-1.1-1.1l-2.7-28c0-0.6,0.5-1.1,1.1-1.1H5.9C5.6,6.2,5.4,6,5.4,5.7V3.8
		c0-0.3,0.2-0.5,0.5-0.5h8.4c-0.6,0-1.2-0.5-1.2-1.2V1.7c0-0.6,0.5-1.2,1.2-1.2h8.1c0.6,0,1.2,0.5,1.2,1.2v0.5
		c0,0.6-0.5,1.2-1.2,1.2h8.4c0.3,0,0.5,0.2,0.5,0.5V5.7z"/>
	<g>
		<path class="st58" d="M26.3,36.3H11.1c-0.6,0-1.1-0.5-1.1-1.1l-2.7-28c0-0.6,0.5-1.1,1.1-1.1h20.3c0.6,0,1.1,0.5,1.1,1.1l-2.4,28
			C27.4,35.9,26.9,36.3,26.3,36.3z"/>
		<path class="st58" d="M30.9,6.2H5.9C5.6,6.2,5.4,6,5.4,5.7V3.8c0-0.3,0.2-0.5,0.5-0.5h25.1c0.3,0,0.5,0.2,0.5,0.5v1.9
			C31.4,6,31.2,6.2,30.9,6.2z"/>
		<path class="st58" d="M22.5,3.4h-8.1c-0.6,0-1.2-0.5-1.2-1.2V1.7c0-0.6,0.5-1.2,1.2-1.2h8.1c0.6,0,1.2,0.5,1.2,1.2v0.5
			C23.7,2.8,23.1,3.4,22.5,3.4z"/>
		<line class="st60" x1="10.7" y1="11.4" x2="13.2" y2="32.3"/>
		<line class="st60" x1="23.8" y1="32.3" x2="26.2" y2="11.4"/>
		<line class="st60" x1="18.5" y1="11.3" x2="18.5" y2="32"/>
	</g>
</g>
</svg>
