<?xml version="1.0" encoding="utf-8"?>
<!-- Generator: Adobe Illustrator 25.2.3, SVG Export Plug-In . SVG Version: 6.00 Build 0)  -->
<svg version="1.1" xmlns="http://www.w3.org/2000/svg" xmlns:xlink="http://www.w3.org/1999/xlink" x="0px" y="0px"
	 viewBox="0 0 26 36.5" style="enable-background:new 0 0 26 36.5;" xml:space="preserve">
<style type="text/css">
	.st0{fill:#1F1FFF;}
	.st1{fill:#585957;stroke:#000000;stroke-width:0.5;stroke-miterlimit:10;}
	.st2{fill:#FF9A93;stroke:#000000;stroke-width:0.5;stroke-miterlimit:10;}
	.st3{fill:#F0F0F0;}
	.st4{fill:#ABBEBD;stroke:#000000;stroke-width:0.5;stroke-miterlimit:10;}
	.st5{fill:#FFFFFF;stroke:#000000;stroke-width:0.5;stroke-miterlimit:10;}
	.st6{fill:none;stroke:#000000;stroke-width:0.5;stroke-miterlimit:10;}
	.st7{fill:#F14564;}
	.st8{fill:#AFDCDC;stroke:#000000;stroke-width:0.5;stroke-miterlimit:10;}
	.st9{fill:#75C9DF;}
	.st10{opacity:0.23;fill:#585957;}
	.st11{fill:#8DCBC3;}
	.st12{fill:#AFDCDC;}
	.st13{fill:#F9EEDB;}
	.st14{opacity:0.44;}
	.st15{fill:none;stroke:#FF0000;stroke-miterlimit:10;}
	.st16{fill:#002CA4;}
	.st17{fill:#0050E3;}
	.st18{fill:#FFA8A7;}
	.st19{fill:#FFCFD0;}
	.st20{fill:#0050E3;stroke:#1B1464;stroke-miterlimit:10;}
	.st21{fill:#00BAA5;}
	.st22{fill:#C7EAD7;}
	.st23{fill:#FF3627;}
	.st24{fill:#D80000;}
	.st25{fill:#1B9787;}
	.st26{fill:#FEFD87;}
	.st27{fill:#002D82;}
	.st28{fill:#00106A;}
	.st29{fill:#E492B8;}
	.st30{fill:#22B573;stroke:#000000;stroke-width:0.5;stroke-miterlimit:10;}
	.st31{fill:#FFD900;}
	.st32{fill:#DAB312;stroke:#000000;stroke-width:0.5;stroke-miterlimit:10;}
	.st33{fill:#FF9A93;}
	.st34{fill:#FEFEC3;}
	.st35{fill:#FFBECA;}
	.st36{fill:#FFA5AE;}
	.st37{fill:#FFFFFF;}
	.st38{fill:#8FBC9C;}
	.st39{fill:none;stroke:#000000;stroke-width:0.25;stroke-miterlimit:10;}
	.st40{opacity:0.32;fill:#585957;}
	.st41{fill:none;stroke:#000000;stroke-width:2;stroke-miterlimit:10;}
	.st42{fill:#FEFEC3;stroke:#000000;stroke-width:0.5;stroke-miterlimit:10;}
	.st43{opacity:0.84;}
	.st44{fill:#FF1D25;}
	.st45{opacity:0.53;fill:#FF0000;stroke:#1F1FFF;stroke-miterlimit:10;}
	.st46{fill:#FCF6ED;stroke:#000000;stroke-miterlimit:10;}
	.st47{fill:#7F7F7F;stroke:#000000;stroke-miterlimit:10;}
	.st48{opacity:0.12;}
	.st49{fill:#008072;stroke:#000000;stroke-width:0.75;stroke-miterlimit:10;}
	.st50{fill:#FFE7A0;stroke:#000000;stroke-width:0.75;stroke-miterlimit:10;}
	.st51{fill:#FFA5AE;stroke:#000000;stroke-width:0.75;stroke-miterlimit:10;}
	.st52{fill:none;stroke:#000000;stroke-width:3;stroke-miterlimit:10;}
	.st53{fill:#FFA5AE;stroke:#000000;stroke-width:0.1;stroke-miterlimit:10;}
	.st54{fill:#FF0000;}
	.st55{fill:#ABBEBD;stroke:#000000;stroke-width:0.25;stroke-miterlimit:10;}
	.st56{opacity:0.6;fill:#FFFFFF;}
	.st57{fill:#FF4A3D;}
	.st58{fill:none;stroke:#000000;stroke-width:0.75;stroke-miterlimit:10;}
	.st59{fill:#FEF7EF;stroke:#000000;stroke-width:0.75;stroke-miterlimit:10;}
	.st60{fill:none;stroke:#000000;stroke-width:0.75;stroke-linecap:round;stroke-miterlimit:10;}
	.st61{fill:#FFFFFF;stroke:#000000;stroke-width:0.75;stroke-miterlimit:10;}
	.st62{fill:#DBDAD2;stroke:#000000;stroke-width:0.5;stroke-miterlimit:10;}
	.st63{fill:#FF4A3D;stroke:#000000;stroke-width:0.5;stroke-linecap:round;stroke-miterlimit:10;}
	.st64{fill:none;stroke:#000000;stroke-width:0.5;stroke-linecap:round;stroke-miterlimit:10;}
	.st65{fill:#F9EEDB;stroke:#000000;stroke-width:0.5;stroke-miterlimit:10;}
	.st66{fill:#7F7F7F;stroke:#000000;stroke-width:0.5;stroke-miterlimit:10;}
	.st67{fill:#7FDCD2;stroke:#000000;stroke-width:0.5;stroke-miterlimit:10;}
</style>
<g id="Ebene_2">
</g>
<g id="Ebene_1">
	<circle class="st9" cx="9.5" cy="11.9" r="7.2"/>
	<path class="st10" d="M15.1,7.3c0.4,0.9,0.7,2,0.7,3.1c0,4-3.2,7.2-7.2,7.2c-2.2,0-4.2-1-5.5-2.6c1.1,2.4,3.6,4.1,6.5,4.1
		c4,0,7.2-3.2,7.2-7.2C16.7,10.2,16.1,8.6,15.1,7.3z"/>
	<path class="st55" d="M17.3,6.3C14.1,2,8.1,1.1,3.9,4.3c-4.3,3.2-5.1,9.2-2,13.4c3.1,4.1,8.9,5.1,13.1,2.2l0.4,0.5l-0.3,0.2
		c-0.3,0.2-0.3,0.6-0.1,0.8l6.4,8.6l0,0c-0.3,0.2-0.3,0.6-0.1,0.9c0.2,0.3,0.6,0.3,0.9,0.1c-0.3,0.2-0.3,0.6-0.1,0.9
		c0.2,0.3,0.6,0.3,0.9,0.1l0,0l0.2,0.2c0.5,0.7,1.4,1,2.1,0.6c0.9-0.5,1.1-1.6,0.5-2.4l-0.3-0.3l0,0c0.3-0.2,0.3-0.6,0.1-0.9
		c-0.2-0.3-0.6-0.3-0.9-0.1c0.3-0.2,0.3-0.6,0.1-0.9c-0.2-0.3-0.6-0.3-0.9-0.1l0,0l-6.4-8.6c-0.2-0.2-0.5-0.3-0.8-0.1l-0.3,0.2
		l-0.4-0.6C19.6,15.8,20.2,10.3,17.3,6.3z M13.8,17.7c-3.2,2.4-7.7,1.7-10-1.5s-1.7-7.7,1.5-10c3.2-2.4,7.7-1.7,10,1.5
		S17,15.3,13.8,17.7z"/>
	<ellipse transform="matrix(0.821 -0.5709 0.5709 0.821 -3.098 4.7891)" class="st56" cx="6.1" cy="7.3" rx="1.4" ry="0.5"/>
</g>
</svg>
