<?xml version="1.0" encoding="utf-8"?>
<!-- Generator: Adobe Illustrator 25.2.3, SVG Export Plug-In . SVG Version: 6.00 Build 0)  -->
<svg version="1.1" xmlns="http://www.w3.org/2000/svg" xmlns:xlink="http://www.w3.org/1999/xlink" x="0px" y="0px"
	 viewBox="0 0 1133.9 566.9" style="enable-background:new 0 0 1133.9 566.9;" xml:space="preserve">
<style type="text/css">
	.st0{fill:#1F1FFF;}
	.st1{fill:#585957;stroke:#000000;stroke-width:0.5;stroke-miterlimit:10;}
	.st2{fill:#FF9A93;stroke:#000000;stroke-width:0.5;stroke-miterlimit:10;}
	.st3{fill:#F0F0F0;}
	.st4{fill:#ABBEBD;stroke:#000000;stroke-width:0.5;stroke-miterlimit:10;}
	.st5{fill:#FFFFFF;stroke:#000000;stroke-width:0.5;stroke-miterlimit:10;}
	.st6{fill:none;stroke:#000000;stroke-width:0.5;stroke-miterlimit:10;}
	.st7{fill:#F14564;}
	.st8{fill:#AFDCDC;stroke:#000000;stroke-width:0.5;stroke-miterlimit:10;}
	.st9{fill:#75C9DF;}
	.st10{opacity:0.23;fill:#585957;}
	.st11{fill:#8DCBC3;}
	.st12{fill:#AFDCDC;}
	.st13{fill:#F9EEDB;}
	.st14{opacity:0.44;}
	.st15{fill:none;stroke:#FF0000;stroke-miterlimit:10;}
	.st16{fill:#002CA4;}
	.st17{fill:#0050E3;}
	.st18{fill:none;}
	.st19{fill:#221F20;}
	.st20{font-family:'AndaleMono';}
	.st21{font-size:12px;}
	.st22{fill:#FFA8A7;}
	.st23{fill:#FFCFD0;}
	.st24{fill:#0050E3;stroke:#1B1464;stroke-miterlimit:10;}
	.st25{fill:#00BAA5;}
	.st26{fill:#C7EAD7;}
	.st27{fill:#FF3627;}
	.st28{fill:#D80000;}
	.st29{fill:#1B9787;}
	.st30{fill:#FEFD87;}
	.st31{fill:#002D82;}
	.st32{fill:#00106A;}
	.st33{fill:#E492B8;}
	.st34{fill:#22B573;stroke:#000000;stroke-width:0.5;stroke-miterlimit:10;}
	.st35{fill:#FFD900;}
	.st36{fill:#DAB312;stroke:#000000;stroke-width:0.5;stroke-miterlimit:10;}
	.st37{fill:#FF9A93;}
	.st38{fill:#FEFEC3;}
	.st39{fill:#FFBECA;}
	.st40{fill:#FFA5AE;}
	.st41{fill:#FFFFFF;}
	.st42{fill:#8FBC9C;}
	.st43{fill:none;stroke:#000000;stroke-width:0.25;stroke-miterlimit:10;}
	.st44{opacity:0.32;fill:#585957;}
	.st45{fill:none;stroke:#000000;stroke-width:2;stroke-miterlimit:10;}
	.st46{fill:#FEFEC3;stroke:#000000;stroke-width:0.5;stroke-miterlimit:10;}
	.st47{opacity:0.84;}
	.st48{fill:#FF1D25;}
	.st49{opacity:0.53;fill:#FF0000;stroke:#1F1FFF;stroke-miterlimit:10;}
	.st50{fill:#FCF6ED;stroke:#000000;stroke-miterlimit:10;}
	.st51{fill:#7F7F7F;stroke:#000000;stroke-miterlimit:10;}
	.st52{opacity:0.12;}
	.st53{fill:#008072;stroke:#000000;stroke-width:0.75;stroke-miterlimit:10;}
	.st54{fill:#FFE7A0;stroke:#000000;stroke-width:0.75;stroke-miterlimit:10;}
	.st55{fill:#FFA5AE;stroke:#000000;stroke-width:0.75;stroke-miterlimit:10;}
	.st56{fill:none;stroke:#000000;stroke-width:3;stroke-miterlimit:10;}
	.st57{fill:#FFA5AE;stroke:#000000;stroke-width:0.1;stroke-miterlimit:10;}
	.st58{fill:#FF0000;}
	.st59{fill:#ABBEBD;stroke:#000000;stroke-width:0.25;stroke-miterlimit:10;}
	.st60{opacity:0.6;fill:#FFFFFF;}
	.st61{fill:#FF4A3D;}
	.st62{fill:none;stroke:#000000;stroke-width:0.75;stroke-miterlimit:10;}
	.st63{fill:#FEF7EF;stroke:#000000;stroke-width:0.75;stroke-miterlimit:10;}
	.st64{fill:none;stroke:#000000;stroke-width:0.75;stroke-linecap:round;stroke-miterlimit:10;}
	.st65{fill:#FFFFFF;stroke:#000000;stroke-width:0.75;stroke-miterlimit:10;}
	.st66{fill:#DBDAD2;stroke:#000000;stroke-width:0.5;stroke-miterlimit:10;}
	.st67{fill:#FF4A3D;stroke:#000000;stroke-width:0.5;stroke-linecap:round;stroke-miterlimit:10;}
	.st68{fill:none;stroke:#000000;stroke-width:0.5;stroke-linecap:round;stroke-miterlimit:10;}
	.st69{fill:#F9EEDB;stroke:#000000;stroke-width:0.5;stroke-miterlimit:10;}
	.st70{fill:#7F7F7F;stroke:#000000;stroke-width:0.5;stroke-miterlimit:10;}
	.st71{fill:#7FDCD2;stroke:#000000;stroke-width:0.5;stroke-miterlimit:10;}
</style>
<g id="Ebene_2">
</g>
<g id="Ebene_1">
	<g>
		<rect x="-8.4" y="-11.8" class="st13" width="1162.1" height="590.6"/>
		<g class="st14">
			<g>
				<line class="st15" x1="18.6" y1="-17.4" x2="18.6" y2="730.2"/>
				<line class="st15" x1="44.2" y1="-17.4" x2="44.2" y2="730.2"/>
				<line class="st15" x1="69.9" y1="-17.4" x2="69.9" y2="730.2"/>
				<line class="st15" x1="95.5" y1="-17.4" x2="95.5" y2="730.2"/>
				<line class="st15" x1="121.2" y1="-17.4" x2="121.2" y2="730.2"/>
				<line class="st15" x1="146.9" y1="-17.4" x2="146.9" y2="730.2"/>
				<line class="st15" x1="172.5" y1="-17.4" x2="172.5" y2="730.2"/>
				<line class="st15" x1="198.2" y1="-17.4" x2="198.2" y2="730.2"/>
				<line class="st15" x1="223.9" y1="-17.4" x2="223.9" y2="730.2"/>
				<line class="st15" x1="249.5" y1="-17.4" x2="249.5" y2="730.2"/>
				<line class="st15" x1="275.2" y1="-17.4" x2="275.2" y2="730.2"/>
				<line class="st15" x1="300.9" y1="-17.4" x2="300.9" y2="730.2"/>
				<line class="st15" x1="326.5" y1="-17.4" x2="326.5" y2="730.2"/>
				<line class="st15" x1="352.2" y1="-17.4" x2="352.2" y2="730.2"/>
				<line class="st15" x1="377.9" y1="-17.4" x2="377.9" y2="730.2"/>
				<line class="st15" x1="403.5" y1="-17.4" x2="403.5" y2="730.2"/>
				<line class="st15" x1="429.2" y1="-17.4" x2="429.2" y2="730.2"/>
				<line class="st15" x1="454.9" y1="-17.4" x2="454.9" y2="730.2"/>
				<line class="st15" x1="480.5" y1="-17.4" x2="480.5" y2="730.2"/>
				<line class="st15" x1="506.2" y1="-17.4" x2="506.2" y2="730.2"/>
				<line class="st15" x1="531.9" y1="-17.4" x2="531.9" y2="730.2"/>
				<line class="st15" x1="557.5" y1="-17.4" x2="557.5" y2="730.2"/>
				<line class="st15" x1="583.2" y1="-17.4" x2="583.2" y2="730.2"/>
				<line class="st15" x1="608.9" y1="-17.4" x2="608.9" y2="730.2"/>
				<line class="st15" x1="634.5" y1="-17.4" x2="634.5" y2="730.2"/>
				<line class="st15" x1="660.2" y1="-17.4" x2="660.2" y2="730.2"/>
				<line class="st15" x1="685.9" y1="-17.4" x2="685.9" y2="730.2"/>
				<line class="st15" x1="-21.6" y1="561.7" x2="1340.4" y2="561.7"/>
				<line class="st15" x1="-21.6" y1="536.1" x2="1340.4" y2="536.1"/>
				<line class="st15" x1="-21.6" y1="510.4" x2="1340.4" y2="510.4"/>
				<line class="st15" x1="-21.6" y1="484.7" x2="1340.4" y2="484.7"/>
				<line class="st15" x1="-21.6" y1="459.1" x2="1340.4" y2="459.1"/>
				<line class="st15" x1="-21.6" y1="433.4" x2="1340.4" y2="433.4"/>
				<line class="st15" x1="-21.6" y1="407.7" x2="1340.4" y2="407.7"/>
				<line class="st15" x1="-21.6" y1="382.1" x2="1340.4" y2="382.1"/>
				<line class="st15" x1="-21.6" y1="356.4" x2="1340.4" y2="356.4"/>
				<line class="st15" x1="-21.6" y1="330.7" x2="1340.4" y2="330.7"/>
				<line class="st15" x1="-21.6" y1="305.1" x2="1340.4" y2="305.1"/>
				<line class="st15" x1="-21.6" y1="279.4" x2="1340.4" y2="279.4"/>
				<line class="st15" x1="-21.6" y1="253.7" x2="1340.4" y2="253.7"/>
				<line class="st15" x1="-21.6" y1="228.1" x2="1340.4" y2="228.1"/>
				<line class="st15" x1="-21.6" y1="202.4" x2="1340.4" y2="202.4"/>
				<line class="st15" x1="-21.6" y1="176.7" x2="1340.4" y2="176.7"/>
				<line class="st15" x1="-21.6" y1="151.1" x2="1340.4" y2="151.1"/>
				<line class="st15" x1="-21.6" y1="125.4" x2="1340.4" y2="125.4"/>
				<line class="st15" x1="-21.6" y1="99.7" x2="1340.4" y2="99.7"/>
				<line class="st15" x1="-21.6" y1="74.1" x2="1340.4" y2="74.1"/>
				<line class="st15" x1="-21.6" y1="48.4" x2="1340.4" y2="48.4"/>
				<line class="st15" x1="-21.6" y1="22.8" x2="1340.4" y2="22.8"/>
				<line class="st15" x1="711.5" y1="-17.4" x2="711.5" y2="730.2"/>
				<line class="st15" x1="737.2" y1="-17.4" x2="737.2" y2="730.2"/>
				<line class="st15" x1="762.9" y1="-17.4" x2="762.9" y2="730.2"/>
				<line class="st15" x1="788.5" y1="-17.4" x2="788.5" y2="730.2"/>
				<line class="st15" x1="814.2" y1="-17.4" x2="814.2" y2="730.2"/>
				<line class="st15" x1="839.9" y1="-17.4" x2="839.9" y2="730.2"/>
				<line class="st15" x1="865.5" y1="-17.4" x2="865.5" y2="730.2"/>
				<line class="st15" x1="891.2" y1="-17.4" x2="891.2" y2="730.2"/>
				<line class="st15" x1="916.9" y1="-17.4" x2="916.9" y2="730.2"/>
				<line class="st15" x1="942.5" y1="-17.4" x2="942.5" y2="730.2"/>
				<line class="st15" x1="968.2" y1="-17.4" x2="968.2" y2="730.2"/>
				<line class="st15" x1="993.9" y1="-17.4" x2="993.9" y2="730.2"/>
				<line class="st15" x1="1019.5" y1="-17.4" x2="1019.5" y2="730.2"/>
				<line class="st15" x1="1045.2" y1="-17.4" x2="1045.2" y2="730.2"/>
				<line class="st15" x1="1070.9" y1="-17.4" x2="1070.9" y2="730.2"/>
				<line class="st15" x1="1096.5" y1="-17.4" x2="1096.5" y2="730.2"/>
				<line class="st15" x1="1122.2" y1="-17.4" x2="1122.2" y2="730.2"/>
			</g>
		</g>
	</g>
	<polygon class="st16" points="362.8,213.7 393,265.9 423.1,318.1 362.8,318.1 302.5,318.1 332.7,265.9 	"/>
	<circle class="st17" cx="263.8" cy="197.9" r="36.3"/>
	<circle class="st16" cx="270" cy="202.8" r="36.3"/>
	<rect x="355.7" y="324.1" class="st18" width="56.9" height="16.3"/>
	<text transform="matrix(1 0 0 1 355.6868 332.4021)" class="st19 st20 st21">Draw.io</text>
	<rect x="400.6" y="177.9" class="st18" width="56.9" height="16.3"/>
	<text transform="matrix(1 0 0 1 400.5706 186.1549)" class="st19 st20 st21">Quiz</text>
	<polygon class="st22" points="360,225.4 383,265.3 406,305.1 360,305.1 314,305.1 337,265.3 	"/>
	<polygon class="st23" points="371.1,235.1 394.1,274.9 417.1,314.8 371.1,314.8 325.1,314.8 348.1,274.9 	"/>
	<rect x="374.4" y="113.1" width="75.5" height="49.6"/>
	<rect x="383" y="121" class="st24" width="75.5" height="49.6"/>
	<polygon class="st25" points="215.7,432.6 184.3,425.1 160.6,404.9 155.4,366.8 183.3,333.9 211.7,355.8 223.7,397.2 	"/>
	<polygon class="st26" points="225.5,438.7 194.1,431.2 170.4,411.1 165.2,372.9 193.1,340 221.5,362 233.5,403.3 	"/>
	<rect x="123.5" y="156.5" class="st18" width="56.9" height="16.3"/>
	<text transform="matrix(1 0 0 1 123.4515 164.728)" class="st20 st21">Kunst</text>
	
		<rect x="102.1" y="91.9" transform="matrix(0.3954 0.9185 -0.9185 0.3954 180.786 -53.1457)" class="st27" width="57.2" height="37.6"/>
	
		<rect x="114.3" y="91.7" transform="matrix(0.1383 0.9904 -0.9904 0.1383 232.6017 -46.3646)" class="st28" width="57.2" height="37.6"/>
	
		<rect x="133" y="96.7" transform="matrix(-1.836970e-16 1 -1 -1.836970e-16 277.1795 -46.1228)" class="st22" width="57.2" height="37.6"/>
</g>
</svg>
