<?xml version="1.0" encoding="utf-8"?>
<!-- Generator: Adobe Illustrator 25.2.3, SVG Export Plug-In . SVG Version: 6.00 Build 0)  -->
<svg version="1.1" xmlns="http://www.w3.org/2000/svg" xmlns:xlink="http://www.w3.org/1999/xlink" x="0px" y="0px"
	 viewBox="0 0 415.2 103.1" style="enable-background:new 0 0 415.2 103.1;" xml:space="preserve">
<style type="text/css">
	.st0{fill:#1F1FFF;}
	.st1{fill:#585957;stroke:#000000;stroke-width:0.5;stroke-miterlimit:10;}
	.st2{fill:#FF9A93;stroke:#000000;stroke-width:0.5;stroke-miterlimit:10;}
	.st3{fill:#F0F0F0;}
	.st4{fill:#ABBEBD;stroke:#000000;stroke-width:0.5;stroke-miterlimit:10;}
	.st5{fill:#FFFFFF;stroke:#000000;stroke-width:0.5;stroke-miterlimit:10;}
	.st6{fill:none;stroke:#000000;stroke-width:0.5;stroke-miterlimit:10;}
	.st7{fill:#F14564;}
	.st8{fill:#AFDCDC;stroke:#000000;stroke-width:0.5;stroke-miterlimit:10;}
	.st9{fill:#75C9DF;}
	.st10{opacity:0.23;fill:#585957;}
	.st11{fill:#8DCBC3;}
	.st12{fill:#AFDCDC;}
	.st13{fill:#F9EEDB;}
	.st14{opacity:0.44;}
	.st15{fill:none;stroke:#FF0000;stroke-miterlimit:10;}
	.st16{fill:#002CA4;}
	.st17{fill:#0050E3;}
	.st18{fill:#FFA8A7;}
	.st19{fill:#FFCFD0;}
	.st20{fill:#0050E3;stroke:#1B1464;stroke-miterlimit:10;}
	.st21{fill:#00BAA5;}
	.st22{fill:#C7EAD7;}
	.st23{fill:#FF3627;}
	.st24{fill:#D80000;}
	.st25{fill:#1B9787;}
	.st26{fill:#FEFD87;}
	.st27{fill:#002D82;}
	.st28{fill:#00106A;}
	.st29{fill:#E492B8;}
	.st30{fill:#22B573;stroke:#000000;stroke-width:0.5;stroke-miterlimit:10;}
	.st31{fill:#FFD900;}
	.st32{fill:#DAB312;stroke:#000000;stroke-width:0.5;stroke-miterlimit:10;}
	.st33{fill:#FF9A93;}
	.st34{fill:#FEFEC3;}
	.st35{fill:#FFBECA;}
	.st36{fill:#FFA5AE;}
	.st37{fill:#FFFFFF;}
	.st38{fill:#8FBC9C;}
	.st39{fill:none;stroke:#000000;stroke-width:0.25;stroke-miterlimit:10;}
	.st40{opacity:0.32;fill:#585957;}
	.st41{fill:none;stroke:#000000;stroke-width:2;stroke-miterlimit:10;}
	.st42{fill:#FEFEC3;stroke:#000000;stroke-width:0.5;stroke-miterlimit:10;}
	.st43{opacity:0.84;}
	.st44{fill:#FF1D25;}
	.st45{opacity:0.53;fill:#FF0000;stroke:#1F1FFF;stroke-miterlimit:10;}
	.st46{fill:#FCF6ED;stroke:#000000;stroke-miterlimit:10;}
	.st47{fill:#7F7F7F;stroke:#000000;stroke-miterlimit:10;}
	.st48{opacity:0.12;}
	.st49{fill:#008072;stroke:#000000;stroke-width:0.75;stroke-miterlimit:10;}
	.st50{fill:#FFE7A0;stroke:#000000;stroke-width:0.75;stroke-miterlimit:10;}
	.st51{fill:#FFA5AE;stroke:#000000;stroke-width:0.75;stroke-miterlimit:10;}
	.st52{fill:none;stroke:#000000;stroke-width:3;stroke-miterlimit:10;}
	.st53{fill:#FFA5AE;stroke:#000000;stroke-width:0.1;stroke-miterlimit:10;}
	.st54{fill:#FF0000;}
	.st55{fill:#ABBEBD;stroke:#000000;stroke-width:0.25;stroke-miterlimit:10;}
	.st56{opacity:0.6;fill:#FFFFFF;}
	.st57{fill:#FF4A3D;}
	.st58{fill:none;stroke:#000000;stroke-width:0.75;stroke-miterlimit:10;}
	.st59{fill:#FEF7EF;stroke:#000000;stroke-width:0.75;stroke-miterlimit:10;}
	.st60{fill:none;stroke:#000000;stroke-width:0.75;stroke-linecap:round;stroke-miterlimit:10;}
	.st61{fill:#FFFFFF;stroke:#000000;stroke-width:0.75;stroke-miterlimit:10;}
	.st62{fill:#DBDAD2;stroke:#000000;stroke-width:0.5;stroke-miterlimit:10;}
	.st63{fill:#FF4A3D;stroke:#000000;stroke-width:0.5;stroke-linecap:round;stroke-miterlimit:10;}
	.st64{fill:none;stroke:#000000;stroke-width:0.5;stroke-linecap:round;stroke-miterlimit:10;}
	.st65{fill:#F9EEDB;stroke:#000000;stroke-width:0.5;stroke-miterlimit:10;}
	.st66{fill:#7F7F7F;stroke:#000000;stroke-width:0.5;stroke-miterlimit:10;}
	.st67{fill:#7FDCD2;stroke:#000000;stroke-width:0.5;stroke-miterlimit:10;}
</style>
<g id="Ebene_2">
</g>
<g id="Ebene_1">
	<g>
		<polygon class="st9" points="137.2,31.3 136.8,31.3 133.4,31.3 128,45.9 122.6,31.3 119.2,31.3 118.8,31.3 118.8,31.3 114.6,31.3 
			114.6,71.9 121.6,71.9 121.6,45.7 125,54.9 131,54.9 134.4,45.7 134.4,71.9 141.4,71.9 141.4,31.3 137.2,31.3 		"/>
		<polygon class="st9" points="152.2,47.5 160.5,47.5 160.5,71.9 167.4,71.9 167.4,41.2 152.2,41.2 		"/>
		<path class="st9" d="M164,30.6c-1.1,0-2.1,0.4-2.9,1.3c-0.8,0.8-1.2,1.9-1.2,3c0,1.1,0.4,2.1,1.2,3c0.8,0.8,1.8,1.3,2.9,1.3
			c1.2,0,2.2-0.4,3-1.2c0.8-0.8,1.2-1.9,1.2-3c0-1.1-0.4-2.2-1.2-3C166.2,31,165.1,30.6,164,30.6z"/>
		<path class="st9" d="M196.4,40.5c-2.8,0-5.5,1-8.1,3v-2.4h-6.9v30.7h6.9V50.8c2.5-2.6,4.8-3.9,6.9-3.9c1.6,0,2.3,0.6,2.6,1.1
			c0.4,0.6,0.9,1.9,0.9,4.6v19.3h6.9V51.4C205.6,42.4,200.6,40.5,196.4,40.5z"/>
		<path class="st9" d="M233.8,42.8c-2-1.5-4.4-2.3-7.1-2.3c-3.7,0-6.6,1.6-8.8,4.6c-2.1,2.9-3.2,6.6-3.2,11c0,4.6,1,8.5,3,11.6
			c2.1,3.3,5.1,4.9,8.7,4.9c2,0,3.9-0.5,5.7-1.5c0.6-0.3,1.1-0.7,1.6-1.1v1.9h6.9V31.3h-6.9V42.8z M233.8,61.7
			c-0.1,0.2-0.4,0.6-1.1,1.5c-0.8,1-1.7,1.8-2.6,2.2c-0.9,0.5-1.7,0.7-2.5,0.7c-1.7,0-3-0.8-4-2.5c-1.1-1.9-1.7-4.3-1.7-7.3
			c0-2.8,0.6-5.2,1.8-7c1.1-1.7,2.5-2.5,4.3-2.5c2.2,0,4.2,1.3,5.9,3.9V61.7z"/>
		<path class="st9" d="M273.6,51.5c-1-1-2-1.7-3-2.3c-0.9-0.5-2.8-1.4-5.6-2.7c-3.2-1.5-4.9-3.1-4.9-4.8c0-1.5,0.5-2.6,1.6-3.4
			c1.2-0.9,2.8-1.3,4.8-1.3c1.9,0,3.9,0.4,6,1.1l1.4,0.5l1.7-6.5l-1.3-0.4c-2.6-0.8-5.3-1.2-7.9-1.2c-3.7,0-6.9,1-9.4,2.9
			c-2.6,2-3.9,4.8-3.9,8.4c0,1.4,0.3,2.6,0.8,3.8c0.5,1.2,1.2,2.2,2.1,3.1c0.9,0.9,1.8,1.6,2.7,2.1c0.8,0.5,2.6,1.3,5.4,2.6
			c2.4,1.1,4.1,2.2,5,3.2c0.8,0.9,1.2,2,1.2,3.4c0,1.9-0.6,3.3-1.8,4.3c-1.3,1.1-2.9,1.6-5.1,1.6c-1.9,0-4.3-0.6-7-1.8l-1.5-0.7
			l-1.6,6.4l0.9,0.5c2.6,1.4,5.7,2.1,9.2,2.1c3.7,0,6.9-1.1,9.6-3.4c2.8-2.3,4.2-5.5,4.2-9.6c0-1.7-0.3-3.2-1-4.6
			C275.5,53.7,274.7,52.5,273.6,51.5z"/>
		<path class="st9" d="M301.4,40.5c-2,0-3.8,0.4-5.6,1.3c-0.6,0.3-1.2,0.7-1.8,1.1v-1.7h-6.9v41.7h6.9V70.1c0.5,0.4,1,0.7,1.5,1
			c1.7,1,3.6,1.5,5.6,1.5c3.7,0,6.7-1.6,8.9-4.9c2.1-3.1,3.1-6.9,3.1-11.5c0-4.5-1-8.3-3-11.1C308,42,305.1,40.5,301.4,40.5z
			 M300.1,46.9c1.8,0,3.1,0.8,4.1,2.4c1.1,1.8,1.7,4.2,1.7,7.2c0,2.9-0.6,5.2-1.8,7.1c-1.1,1.7-2.4,2.5-4.2,2.5
			c-1.1,0-2.2-0.4-3.3-1.3c-1.1-0.9-2-1.9-2.7-3.2V50.7C295.8,48.1,297.8,46.9,300.1,46.9z"/>
		<path class="st9" d="M345.7,64V52c0-7.5-3.8-11.5-10.9-11.5c-3.5,0-7.3,1-11.2,3.1l-1.1,0.6l2.1,5.6l1.4-0.8
			c1.1-0.6,2.4-1.1,3.9-1.5c1.5-0.4,2.7-0.6,3.6-0.6c3.7,0,5.3,1.8,5.3,5.8v0.1l-3.4,0.3c-2.2,0.2-4.1,0.5-5.7,0.9
			c-1.7,0.5-3.1,1.1-4.3,1.9c-1.3,0.8-2.2,1.9-2.9,3.2c-0.7,1.2-1,2.7-1,4.3c0,2.7,0.9,5,2.8,6.7c1.8,1.7,4,2.6,6.4,2.6
			c3.4,0,6.2-1.1,8.6-3.2c0.1,0.5,0.2,1,0.3,1.5l0.3,1h6.9l-0.4-1.7C345.9,68.4,345.7,66.3,345.7,64z M335.6,64.7
			c-1.3,0.8-2.5,1.1-3.7,1.1c-1,0-1.8-0.3-2.4-0.8c-0.6-0.5-0.8-1.1-0.8-2c0-1,0.3-1.6,1-2.2c0.9-0.7,1.9-1.1,3.1-1.4
			c1.2-0.2,3.2-0.5,6.1-0.8v3.1C337.8,63,336.8,64,335.6,64.7z"/>
		<path class="st9" d="M370.5,46.9c1.9,0,4,0.4,6.4,1.2l1.3,0.5l1.9-6l-1.2-0.5c-2.7-1-5.6-1.6-8.5-1.6c-4.7,0-8.5,1.5-11.4,4.4
			c-2.9,2.9-4.4,6.8-4.4,11.6c0,4.8,1.5,8.7,4.3,11.6c2.9,2.9,6.7,4.4,11.5,4.4c3.1,0,6-0.6,8.6-1.8l1-0.5l-1.3-6l-1.5,0.5
			c-2.3,0.9-4.6,1.3-6.8,1.3c-2.6,0-4.6-0.9-6.2-2.7c-1.6-1.9-2.4-4.1-2.4-6.9c0-3.1,0.8-5.4,2.3-7.2
			C365.7,47.7,367.8,46.9,370.5,46.9z"/>
		<path class="st9" d="M415.2,55.3c0-4.4-1.2-8-3.6-10.7c-2.4-2.7-5.5-4.1-9.1-4.1c-4,0-7.3,1.5-9.9,4.4c-2.5,2.9-3.8,6.8-3.8,11.5
			c0,4.9,1.4,8.8,4.2,11.7c2.8,2.9,6.5,4.4,11,4.4c3.5,0,6.6-0.6,9.2-1.8l1-0.5l-1.3-5.9l-1.5,0.5c-2.5,0.9-5,1.3-7.4,1.3
			c-2.3,0-4.1-0.9-5.7-2.6c-1.3-1.5-2.1-3.3-2.3-5.5h19.1V55.3z M396.5,51.9c0.3-1.3,0.9-2.4,1.8-3.3c1.2-1.2,2.6-1.7,4.4-1.7
			c1.3,0,2.4,0.6,3.5,1.8c0.8,0.9,1.4,2,1.6,3.2H396.5z"/>
	</g>
	<path class="st9" d="M91.8,44.7c-1.6,0-3,0.5-4.1,1.4L56,11.6c1.1-1.2,1.7-2.8,1.7-4.6c0-3.9-3.1-7-7-7s-7,3.1-7,7
		c0,1.2,0.3,2.3,0.8,3.3L12.2,32.5C11,31.1,9.1,30.1,7,30.1c-3.9,0-7,3.1-7,7s3.1,7,7,7c1.3,0,2.5-0.3,3.5-0.9l6.3,8.4l-6.3,8.6
		c-1-0.6-2.2-0.9-3.5-0.9c-3.9,0-7,3.1-7,7c0,3.9,3.1,7,7,7c2.1,0,4-0.9,5.3-2.4l32.3,22.1c-0.5,1-0.8,2.1-0.8,3.3c0,3.9,3.1,7,7,7
		s7-3.1,7-7c0-1.3-0.4-2.5-1-3.5l31.1-35.2c1.1,0.8,2.5,1.2,3.9,1.2c3.9,0,7-3.1,7-7C98.7,47.8,95.6,44.7,91.8,44.7z M29,65.5
		l-6.5-8.7l6.2-4.1l15.7,10.5c-0.4,0.7-0.6,1.5-0.7,2.4L29,65.5z M13.9,65.5c-0.1-0.9-0.3-1.7-0.7-2.4l8-5.4l5.8,7.8L13.9,65.5z
		 M13.9,37.9h12.9l-5.7,7.7l-7.9-5.3C13.6,39.6,13.8,38.8,13.9,37.9z M28.8,37.9h15.1c0.1,0.8,0.4,1.6,0.8,2.3L28.8,50.8l-6.3-4.2
		L28.8,37.9z M50.7,14c1.5,0,2.9-0.5,4.1-1.3l31.6,34.5c-0.4,0.5-0.7,1-1,1.5l-28-10c0.2-0.6,0.3-1.3,0.3-2c0-3.9-3.1-7-7-7
		c-3.7,0-6.8,2.9-7,6.6H30L47.1,13C48.2,13.6,49.4,14,50.7,14z M27.4,51.7l-5.7,3.8l-2.9-3.9l2.8-3.8L27.4,51.7z M50.7,59.4
		c-2.1,0-4,1-5.3,2.5L30.2,51.7l15.4-10.3c1.3,1.4,3.1,2.2,5.1,2.2c2.6,0,4.9-1.4,6.1-3.5l28.1,10c-0.1,0.5-0.2,1-0.2,1.5
		c0,0.6,0.1,1.1,0.2,1.7l-28,10C55.9,61,53.5,59.4,50.7,59.4z M45.5,11.6c0.1,0.1,0.3,0.3,0.4,0.4L28,36.3H13.9
		c-0.1-0.9-0.4-1.7-0.8-2.5L45.5,11.6z M11.8,42.2c0.2-0.2,0.4-0.4,0.5-0.6l7.9,5.3l-2.5,3.3L11.8,42.2z M17.7,53l2.6,3.5l-8,5.3
		c-0.2-0.2-0.4-0.4-0.6-0.6L17.7,53z M13.2,69.5c0.4-0.7,0.7-1.6,0.8-2.4l14.3,0.1L46,91.1c-0.2,0.2-0.3,0.3-0.5,0.5L13.2,69.5z
		 M50.7,89.2c-1.3,0-2.5,0.3-3.5,0.9l-17-23l13.6,0.1c0.4,3.5,3.3,6.2,6.9,6.2c3.9,0,7-3.1,7-7c0-0.5-0.1-1.1-0.2-1.6l28-10
		c0.3,0.6,0.7,1.1,1.1,1.5L55.8,91.3C54.5,90,52.7,89.2,50.7,89.2z"/>
</g>
</svg>
