<?xml version="1.0" encoding="utf-8"?>
<!-- Generator: Adobe Illustrator 25.2.3, SVG Export Plug-In . SVG Version: 6.00 Build 0)  -->
<svg version="1.1" xmlns="http://www.w3.org/2000/svg" xmlns:xlink="http://www.w3.org/1999/xlink" x="0px" y="0px"
	 viewBox="0 0 60.7 60.6" style="enable-background:new 0 0 60.7 60.6;" xml:space="preserve">
<style type="text/css">
	.st0{fill:#1F1FFF;}
	.st1{fill:#585957;stroke:#000000;stroke-width:0.5;stroke-miterlimit:10;}
	.st2{fill:#FF9A93;stroke:#000000;stroke-width:0.5;stroke-miterlimit:10;}
	.st3{fill:#F0F0F0;}
	.st4{fill:#ABBEBD;stroke:#000000;stroke-width:0.5;stroke-miterlimit:10;}
	.st5{fill:#FFFFFF;stroke:#000000;stroke-width:0.5;stroke-miterlimit:10;}
	.st6{fill:none;stroke:#000000;stroke-width:0.5;stroke-miterlimit:10;}
	.st7{fill:#F14564;}
	.st8{fill:#AFDCDC;stroke:#000000;stroke-width:0.5;stroke-miterlimit:10;}
	.st9{fill:#75C9DF;}
	.st10{opacity:0.23;fill:#585957;}
	.st11{fill:#8DCBC3;}
	.st12{fill:#AFDCDC;}
	.st13{fill:#F9EEDB;}
	.st14{opacity:0.44;}
	.st15{fill:none;stroke:#FF0000;stroke-miterlimit:10;}
	.st16{fill:#002CA4;}
	.st17{fill:#0050E3;}
	.st18{fill:#FFA8A7;}
	.st19{fill:#FFCFD0;}
	.st20{fill:#0050E3;stroke:#1B1464;stroke-miterlimit:10;}
	.st21{fill:#00BAA5;}
	.st22{fill:#C7EAD7;}
	.st23{fill:#FF3627;}
	.st24{fill:#D80000;}
	.st25{fill:#1B9787;}
	.st26{fill:#FEFD87;}
	.st27{fill:#002D82;}
	.st28{fill:#00106A;}
	.st29{fill:#E492B8;}
	.st30{fill:#22B573;stroke:#000000;stroke-width:0.5;stroke-miterlimit:10;}
	.st31{fill:#FFD900;}
	.st32{fill:#DAB312;stroke:#000000;stroke-width:0.5;stroke-miterlimit:10;}
	.st33{fill:#FF9A93;}
	.st34{fill:#FEFEC3;}
	.st35{fill:#FFBECA;}
	.st36{fill:#FFA5AE;}
	.st37{fill:#FFFFFF;}
	.st38{fill:#8FBC9C;}
	.st39{fill:none;stroke:#000000;stroke-width:0.25;stroke-miterlimit:10;}
	.st40{opacity:0.32;fill:#585957;}
	.st41{fill:none;stroke:#000000;stroke-width:2;stroke-miterlimit:10;}
	.st42{fill:#FEFEC3;stroke:#000000;stroke-width:0.5;stroke-miterlimit:10;}
	.st43{opacity:0.84;}
	.st44{fill:#FF1D25;}
	.st45{opacity:0.53;fill:#FF0000;stroke:#1F1FFF;stroke-miterlimit:10;}
	.st46{fill:#FCF6ED;stroke:#000000;stroke-miterlimit:10;}
	.st47{fill:#7F7F7F;stroke:#000000;stroke-miterlimit:10;}
	.st48{opacity:0.12;}
	.st49{fill:#008072;stroke:#000000;stroke-width:0.75;stroke-miterlimit:10;}
	.st50{fill:#FFE7A0;stroke:#000000;stroke-width:0.75;stroke-miterlimit:10;}
	.st51{fill:#FFA5AE;stroke:#000000;stroke-width:0.75;stroke-miterlimit:10;}
	.st52{fill:none;stroke:#000000;stroke-width:3;stroke-miterlimit:10;}
	.st53{fill:#FFA5AE;stroke:#000000;stroke-width:0.1;stroke-miterlimit:10;}
	.st54{fill:#FF0000;}
	.st55{fill:#ABBEBD;stroke:#000000;stroke-width:0.25;stroke-miterlimit:10;}
	.st56{opacity:0.6;fill:#FFFFFF;}
	.st57{fill:#FF4A3D;}
	.st58{fill:none;stroke:#000000;stroke-width:0.75;stroke-miterlimit:10;}
	.st59{fill:#FEF7EF;stroke:#000000;stroke-width:0.75;stroke-miterlimit:10;}
	.st60{fill:none;stroke:#000000;stroke-width:0.75;stroke-linecap:round;stroke-miterlimit:10;}
	.st61{fill:#FFFFFF;stroke:#000000;stroke-width:0.75;stroke-miterlimit:10;}
	.st62{fill:#DBDAD2;stroke:#000000;stroke-width:0.5;stroke-miterlimit:10;}
	.st63{fill:#FF4A3D;stroke:#000000;stroke-width:0.5;stroke-linecap:round;stroke-miterlimit:10;}
	.st64{fill:none;stroke:#000000;stroke-width:0.5;stroke-linecap:round;stroke-miterlimit:10;}
	.st65{fill:#F9EEDB;stroke:#000000;stroke-width:0.5;stroke-miterlimit:10;}
	.st66{fill:#7F7F7F;stroke:#000000;stroke-width:0.5;stroke-miterlimit:10;}
	.st67{fill:#7FDCD2;stroke:#000000;stroke-width:0.5;stroke-miterlimit:10;}
</style>
<g id="Ebene_2">
</g>
<g id="Ebene_1">
	<g id="PU3Mxl.tif">
		<g>
			<path d="M60.6,36.8c-0.5,0.2-1,0.5-1.6,0.6c-2.1,0.4-4.3,0.6-6.4,1.1c-0.6,0.1-1.2,0.7-1.6,1.3c-0.5,0.7-0.7,1.7-1.2,2.3
				c-1.2,1.3-1.1,2.5-0.3,3.9c0.8,1.6,1.4,3.3,2.1,4.9c0.5,1.1,0.3,1.9-0.8,2.6c-3.2,1.9-6.5,3.9-9.7,5.8c-1,0.6-1.9,0.5-2.6-0.6
				c-0.4-0.6-0.9-1.1-1.3-1.6c-1.1-1.4-2-3.3-3.4-4c-1.4-0.7-3.5-0.2-5.2-0.1c-0.4,0-1,0.3-1.3,0.7c-1.4,1.7-2.7,3.5-4,5.3
				c-0.7,1-1.5,1.2-2.6,0.6c-3.3-1.9-6.6-3.7-9.9-5.5c-1.1-0.6-1.3-1.4-0.8-2.6c0.8-2,1.6-4.1,2.3-6.2c0.1-0.4,0.1-1-0.1-1.4
				c-0.7-1.3-1.4-2.5-2.2-3.7c-0.3-0.4-0.8-0.8-1.3-0.9c-2.2-0.4-4.5-0.6-6.7-0.8c-1.2-0.1-1.6-0.7-1.7-1.8C0,32.7,0,28.8-0.1,24.9
				c0-1.1,0.6-1.7,1.7-1.8c2-0.3,4-0.6,6.1-1c0.3-0.1,0.6-0.1,1-0.2c1-0.3,3.4-5.4,3-6.3c-0.8-1.9-1.6-3.9-2.5-5.8
				C8.6,8.6,8.9,7.8,10.1,7c3.2-1.8,6.3-3.7,9.4-5.6c1.1-0.7,2-0.6,2.8,0.5c0.4,0.6,0.9,1.1,1.3,1.6c1.1,1.4,2,3.3,3.4,4
				c1.4,0.7,3.5,0.2,5.2,0.1c0.4,0,1-0.3,1.3-0.7c1.4-1.7,2.7-3.5,4-5.3c0.7-1,1.5-1.2,2.6-0.6c3.2,1.8,6.5,3.6,9.8,5.4
				c1.2,0.6,1.5,1.4,0.9,2.7c-0.8,2-1.6,4-2.3,6c-0.2,0.5,0,1.2,0.2,1.7c0.3,0.6,0.9,1.1,1.1,1.8c0.7,2.3,2.4,3,4.6,3
				c1.5,0,3.1,0.3,4.6,0.6c0.6,0.1,1.4,0.9,1.4,1.4c0.2,4.1,0.2,8.2,0.3,12.3C60.7,36.1,60.7,36.4,60.6,36.8z M21.1,25.1
				c-2.9,5.1-1.1,11.5,4,14.4c5.2,2.9,11.6,1.1,14.5-4.1c2.9-5.1,1.1-11.5-4-14.4C30.4,18.1,24,19.9,21.1,25.1z"/>
		</g>
	</g>
</g>
</svg>
