<?xml version="1.0" encoding="utf-8"?>
<!-- Generator: Adobe Illustrator 25.2.3, SVG Export Plug-In . SVG Version: 6.00 Build 0)  -->
<svg version="1.1" xmlns="http://www.w3.org/2000/svg" xmlns:xlink="http://www.w3.org/1999/xlink" x="0px" y="0px"
	 viewBox="0 0 55.2 55.8" style="enable-background:new 0 0 55.2 55.8;" xml:space="preserve">
<style type="text/css">
	.st0{fill:#1F1FFF;}
	.st1{fill:#585957;stroke:#000000;stroke-width:0.5;stroke-miterlimit:10;}
	.st2{fill:#FF9A93;stroke:#000000;stroke-width:0.5;stroke-miterlimit:10;}
	.st3{fill:#F0F0F0;}
	.st4{fill:#ABBEBD;stroke:#000000;stroke-width:0.5;stroke-miterlimit:10;}
	.st5{fill:#FFFFFF;stroke:#000000;stroke-width:0.5;stroke-miterlimit:10;}
	.st6{fill:none;stroke:#000000;stroke-width:0.5;stroke-miterlimit:10;}
	.st7{fill:#F14564;}
	.st8{fill:#AFDCDC;stroke:#000000;stroke-width:0.5;stroke-miterlimit:10;}
	.st9{fill:#75C9DF;}
	.st10{opacity:0.23;fill:#585957;}
	.st11{fill:#8DCBC3;}
	.st12{fill:#AFDCDC;}
	.st13{fill:#F9EEDB;}
	.st14{opacity:0.44;}
	.st15{fill:none;stroke:#FF0000;stroke-miterlimit:10;}
	.st16{fill:#002CA4;}
	.st17{fill:#0050E3;}
	.st18{fill:#FFA8A7;}
	.st19{fill:#FFCFD0;}
	.st20{fill:#0050E3;stroke:#1B1464;stroke-miterlimit:10;}
	.st21{fill:#00BAA5;}
	.st22{fill:#C7EAD7;}
	.st23{fill:#FF3627;}
	.st24{fill:#D80000;}
	.st25{fill:#1B9787;}
	.st26{fill:#FEFD87;}
	.st27{fill:#002D82;}
	.st28{fill:#00106A;}
	.st29{fill:#E492B8;}
	.st30{fill:#22B573;stroke:#000000;stroke-width:0.5;stroke-miterlimit:10;}
	.st31{fill:#FFD900;}
	.st32{fill:#DAB312;stroke:#000000;stroke-width:0.5;stroke-miterlimit:10;}
	.st33{fill:#FF9A93;}
	.st34{fill:#FEFEC3;}
	.st35{fill:#FFBECA;}
	.st36{fill:#FFA5AE;}
	.st37{fill:#FFFFFF;}
	.st38{fill:#8FBC9C;}
	.st39{fill:none;stroke:#000000;stroke-width:0.25;stroke-miterlimit:10;}
	.st40{opacity:0.32;fill:#585957;}
	.st41{fill:none;stroke:#000000;stroke-width:2;stroke-miterlimit:10;}
	.st42{fill:#FEFEC3;stroke:#000000;stroke-width:0.5;stroke-miterlimit:10;}
	.st43{opacity:0.84;}
	.st44{fill:#FF1D25;}
	.st45{opacity:0.53;fill:#FF0000;stroke:#1F1FFF;stroke-miterlimit:10;}
	.st46{fill:#FCF6ED;stroke:#000000;stroke-miterlimit:10;}
	.st47{fill:#7F7F7F;stroke:#000000;stroke-miterlimit:10;}
	.st48{opacity:0.12;}
	.st49{fill:#008072;stroke:#000000;stroke-width:0.75;stroke-miterlimit:10;}
	.st50{fill:#FFE7A0;stroke:#000000;stroke-width:0.75;stroke-miterlimit:10;}
	.st51{fill:#FFA5AE;stroke:#000000;stroke-width:0.75;stroke-miterlimit:10;}
	.st52{fill:none;stroke:#000000;stroke-width:3;stroke-miterlimit:10;}
	.st53{fill:#FFA5AE;stroke:#000000;stroke-width:0.1;stroke-miterlimit:10;}
	.st54{fill:#FF0000;}
	.st55{fill:#ABBEBD;stroke:#000000;stroke-width:0.25;stroke-miterlimit:10;}
	.st56{opacity:0.6;fill:#FFFFFF;}
	.st57{fill:#FF4A3D;}
	.st58{fill:none;stroke:#000000;stroke-width:0.75;stroke-miterlimit:10;}
	.st59{fill:#FEF7EF;stroke:#000000;stroke-width:0.75;stroke-miterlimit:10;}
	.st60{fill:none;stroke:#000000;stroke-width:0.75;stroke-linecap:round;stroke-miterlimit:10;}
	.st61{fill:#FFFFFF;stroke:#000000;stroke-width:0.75;stroke-miterlimit:10;}
	.st62{fill:#DBDAD2;stroke:#000000;stroke-width:0.5;stroke-miterlimit:10;}
	.st63{fill:#FF4A3D;stroke:#000000;stroke-width:0.5;stroke-linecap:round;stroke-miterlimit:10;}
	.st64{fill:none;stroke:#000000;stroke-width:0.5;stroke-linecap:round;stroke-miterlimit:10;}
	.st65{fill:#F9EEDB;stroke:#000000;stroke-width:0.5;stroke-miterlimit:10;}
	.st66{fill:#7F7F7F;stroke:#000000;stroke-width:0.5;stroke-miterlimit:10;}
	.st67{fill:#7FDCD2;stroke:#000000;stroke-width:0.5;stroke-miterlimit:10;}
</style>
<g id="Ebene_2">
</g>
<g id="Ebene_1">
	<g>
		<path class="st4" d="M52.1,16.1H24.3l-0.4-1.9c-0.2-0.8-0.9-1.3-1.6-1.3H9.6c-0.8,0-1.5,0.6-1.7,1.4l-0.3,1.8H6
			c-1.6,0-2.9,1.3-2.9,2.9V51c0,1.6,1.3,2.9,2.9,2.9h46.1c1.6,0,2.9-1.3,2.9-2.9V18.9C55,17.3,53.7,16.1,52.1,16.1z"/>
		<g>
			<polygon class="st5" points="39.2,1 6,1 6,40.2 45.2,40.2 45.2,7.1 			"/>
			<polyline class="st6" points="39.2,1 39.2,7 45.2,7.1 			"/>
		</g>
		<g>
			<rect x="3.2" y="15.3" transform="matrix(0.193 0.9812 -0.9812 0.193 42.832 2.4601)" class="st7" width="33.5" height="23.9"/>
			<g>
				<path class="st5" d="M10.1,47.5l-7-35.7l26.2-5.2l7,35.7L10.1,47.5z M6.4,14l5.9,30.1l20.7-4.1L27.1,10L6.4,14z"/>
			</g>
		</g>
		<path class="st8" d="M49.2,17.8H21.5L21,15.9c-0.2-0.8-0.9-1.3-1.6-1.3H6.8c-0.8,0-1.5,0.6-1.7,1.4l-0.3,1.8H3.1
			c-1.6,0-2.9,1.3-2.9,2.9v32.1c0,1.6,1.3,2.9,2.9,2.9h46.1c1.6,0,2.9-1.3,2.9-2.9V20.6C52.1,19,50.8,17.8,49.2,17.8z"/>
	</g>
</g>
</svg>
