<?xml version="1.0" encoding="utf-8"?>
<!-- Generator: Adobe Illustrator 25.2.3, SVG Export Plug-In . SVG Version: 6.00 Build 0)  -->
<svg version="1.1" xmlns="http://www.w3.org/2000/svg" xmlns:xlink="http://www.w3.org/1999/xlink" x="0px" y="0px"
	 viewBox="0 0 167.3 347.3" style="enable-background:new 0 0 167.3 347.3;" xml:space="preserve">
<style type="text/css">
	.st0{fill:#F9EEDB;stroke:#1A1A1A;stroke-width:0.75;stroke-miterlimit:10;}
	.st1{fill:none;stroke:#2F2F2F;stroke-width:4;stroke-linecap:round;stroke-miterlimit:10;}
	.st2{fill:#F0F0F0;}
	.st3{fill:#2F2F2F;stroke:#FFFFFF;stroke-width:0.5;stroke-miterlimit:10;}
	.st4{fill:#585957;stroke:#000000;stroke-width:0.5;stroke-miterlimit:10;}
	.st5{fill:#FF9A93;stroke:#000000;stroke-width:0.5;stroke-miterlimit:10;}
	.st6{fill:#ABBEBD;stroke:#000000;stroke-width:0.5;stroke-miterlimit:10;}
	.st7{fill:#FFFFFF;stroke:#000000;stroke-width:0.5;stroke-miterlimit:10;}
	.st8{fill:none;stroke:#000000;stroke-width:0.5;stroke-miterlimit:10;}
	.st9{fill:#EB7F7F;}
	.st10{fill:#AFDCDC;stroke:#000000;stroke-width:0.5;stroke-miterlimit:10;}
	.st11{fill:#75C9DF;}
	.st12{opacity:0.23;fill:#585957;}
	.st13{fill:#8DCBC3;}
	.st14{fill:#AFDCDC;}
	.st15{fill:#F9EEDB;}
	.st16{opacity:0.44;}
	.st17{fill:none;stroke:#FF0000;stroke-miterlimit:10;}
	.st18{fill:#002CA4;}
	.st19{fill:#0050E3;}
	.st20{fill:#FFA8A7;}
	.st21{fill:#FFCFD0;}
	.st22{fill:#0050E3;stroke:#1B1464;stroke-miterlimit:10;}
	.st23{fill:#00BAA5;}
	.st24{fill:#C7EAD7;}
	.st25{fill:#FF3627;}
	.st26{fill:#D80000;}
	.st27{fill:#1B9787;}
	.st28{fill:#FEFD87;}
	.st29{fill:#002D82;}
	.st30{fill:#00106A;}
	.st31{fill:#E492B8;}
	.st32{fill:#22B573;stroke:#000000;stroke-width:0.5;stroke-miterlimit:10;}
	.st33{fill:#FFD900;}
	.st34{fill:#DAB312;stroke:#000000;stroke-width:0.5;stroke-miterlimit:10;}
	.st35{fill:#FF9A93;}
	.st36{fill:#FEFEC3;}
	.st37{fill:#FFBECA;}
	.st38{fill:#FFA5AE;}
	.st39{fill:#FFFFFF;}
	.st40{fill:#8FBC9C;}
	.st41{fill:none;stroke:#000000;stroke-width:0.25;stroke-miterlimit:10;}
	.st42{opacity:0.32;fill:#585957;}
	.st43{fill:none;stroke:#000000;stroke-width:2;stroke-miterlimit:10;}
	.st44{fill:#FEFEC3;stroke:#000000;stroke-width:0.5;stroke-miterlimit:10;}
	.st45{fill:#FFBECA;stroke:#000000;stroke-width:0.5;stroke-miterlimit:10;}
	.st46{fill:#FCF6ED;stroke:#000000;stroke-miterlimit:10;}
	.st47{fill:#7F7F7F;stroke:#000000;stroke-miterlimit:10;}
	.st48{opacity:0.12;}
	.st49{fill:#008072;stroke:#000000;stroke-width:0.75;stroke-miterlimit:10;}
	.st50{fill:#FFE7A0;stroke:#000000;stroke-width:0.75;stroke-miterlimit:10;}
	.st51{fill:#FFA5AE;stroke:#000000;stroke-width:0.75;stroke-miterlimit:10;}
	.st52{fill:none;stroke:#000000;stroke-width:3;stroke-miterlimit:10;}
	.st53{fill:#FFA5AE;stroke:#000000;stroke-width:0.1;stroke-miterlimit:10;}
	.st54{fill:#FF0000;}
	.st55{fill:#ABBEBD;stroke:#000000;stroke-width:0.25;stroke-miterlimit:10;}
	.st56{opacity:0.6;fill:#FFFFFF;}
	.st57{fill:#FF4A3D;}
	.st58{fill:#7FA7F1;stroke:#7FA7F1;stroke-miterlimit:10;}
	.st59{fill:#ABBEBD;stroke:#000000;stroke-width:1.5;stroke-miterlimit:10;}
	.st60{fill:none;stroke:#000000;stroke-width:0.75;stroke-miterlimit:10;}
	.st61{fill:#FEF7EF;stroke:#000000;stroke-width:0.75;stroke-miterlimit:10;}
	.st62{fill:none;stroke:#000000;stroke-width:0.75;stroke-linecap:round;stroke-miterlimit:10;}
	.st63{fill:#FFFFFF;stroke:#000000;stroke-width:0.75;stroke-miterlimit:10;}
	.st64{fill:#DBDAD2;stroke:#000000;stroke-width:0.5;stroke-miterlimit:10;}
	.st65{fill:#FF4A3D;stroke:#000000;stroke-width:0.5;stroke-linecap:round;stroke-miterlimit:10;}
	.st66{fill:none;stroke:#000000;stroke-width:0.5;stroke-linecap:round;stroke-miterlimit:10;}
	.st67{fill:#F9EEDB;stroke:#000000;stroke-width:0.5;stroke-miterlimit:10;}
	.st68{fill:#7F7F7F;stroke:#000000;stroke-width:0.5;stroke-miterlimit:10;}
	.st69{fill:#7FDCD2;stroke:#000000;stroke-width:0.5;stroke-miterlimit:10;}
	.st70{fill:#FF7BAC;stroke:#2F2F2F;stroke-width:0.5;stroke-miterlimit:10;}
	.st71{fill:none;stroke:#2F2F2F;stroke-width:0.5;stroke-miterlimit:10;}
	.st72{fill:#F9EEDB;stroke:#2F2F2F;stroke-width:0.5;stroke-miterlimit:10;}
	.st73{fill:#2F2F2F;}
	.st74{fill:none;stroke:#F9EEDB;stroke-width:0.5;stroke-miterlimit:10;}
	.st75{fill:none;stroke:#000000;stroke-linejoin:round;stroke-miterlimit:10;}
	.st76{fill:#E3F4EB;stroke:#000000;stroke-width:1.5;stroke-miterlimit:10;}
	.st77{opacity:0.5;}
	.st78{fill:none;stroke:#000000;stroke-width:1.5;stroke-miterlimit:10;}
	.st79{opacity:0.52;fill:#FFFFFF;}
	.st80{opacity:0.47;fill:#2F2F2F;}
	.st81{fill:#FFCF0A;stroke:#2F2F2F;stroke-width:1.5;stroke-miterlimit:10;}
	.st82{fill:none;stroke:#2F2F2F;stroke-width:4;stroke-miterlimit:10;}
	.st83{fill:#F9EEDB;stroke:#7FA7F1;stroke-miterlimit:10;}
	.st84{fill:#F9EEDB;stroke:#2F2F2F;stroke-width:1.5;stroke-miterlimit:10;}
	.st85{fill:none;stroke:#2F2F2F;stroke-width:1.5;stroke-miterlimit:10;}
	.st86{fill:#DBDAD2;stroke:#000000;stroke-width:1.5;stroke-miterlimit:10;}
	.st87{opacity:0.56;fill:#7F7F7F;}
</style>
<g id="Ebene_2">
</g>
<g id="Ebene_1">
	<g>
		<path class="st76" d="M163.3,344.8l-3.9,1.7C139,334,36.8,268.9,8.2,146.1c-0.2-0.8,6.2,0.6,6-0.2c-0.1-0.6-6.8-3.3-6.9-3.9
			c-0.8-3.8-1.6-7.6-2.3-11.5c-9.3-53.4-1.5-99.1,6.6-129c14.2-6.1,31,30.5,48.8,81.8c0.5,1.4-6.3,13.6-5.8,15.1
			c0.5,1.4,8.2-8,8.7-6.6c6.3,18.5,12.7,38.7,19.2,59.3c0.3,1.1-4.2,11.3-3.9,12.3c0.3,0.9,5.5-7.4,5.7-6.5
			c27.4,87.2,55.8,179.9,80.8,187.2L163.3,344.8z"/>
		<g class="st77">
			<path class="st40" d="M163.3,345.1l-3.9,1.7C139,334.4,36.8,269.3,8.2,146.5c-0.2-0.8,6.2,0.6,6-0.2c-0.1-0.6-6.8-3.3-6.9-3.9
				c-0.8-3.8-1.6-7.6-2.3-11.5c-9.3-53.4-1.5-99.1,6.6-129c0.7-0.5,1.7-1.1,2.9-1c12.2,0.9,6.9,70.8,24.8,147.1
				c7,29.7,20.1,83.4,60.4,135.9C122.2,313,146.1,332.7,163.3,345.1z"/>
		</g>
		<path class="st78" d="M24.4,54.4c1.2,32.6,8.3,76.2,24.4,125.8c27.7,85.6,78.6,139.8,112.7,165.4"/>
	</g>
</g>
</svg>
