<?xml version="1.0" encoding="utf-8"?>
<!-- Generator: Adobe Illustrator 25.2.3, SVG Export Plug-In . SVG Version: 6.00 Build 0)  -->
<svg version="1.1" xmlns="http://www.w3.org/2000/svg" xmlns:xlink="http://www.w3.org/1999/xlink" x="0px" y="0px"
	 viewBox="0 0 48.7 42" style="enable-background:new 0 0 48.7 42;" xml:space="preserve">
<style type="text/css">
	.st0{fill:#1F1FFF;}
	.st1{fill:#F0F0F0;}
	.st2{fill:#2F2F2F;stroke:#FFFFFF;stroke-width:0.5;stroke-miterlimit:10;}
	.st3{fill:#585957;stroke:#000000;stroke-width:0.5;stroke-miterlimit:10;}
	.st4{fill:#FF9A93;stroke:#000000;stroke-width:0.5;stroke-miterlimit:10;}
	.st5{fill:#ABBEBD;stroke:#000000;stroke-width:0.5;stroke-miterlimit:10;}
	.st6{fill:#FFFFFF;stroke:#000000;stroke-width:0.5;stroke-miterlimit:10;}
	.st7{fill:none;stroke:#000000;stroke-width:0.5;stroke-miterlimit:10;}
	.st8{fill:#EB7F7F;}
	.st9{fill:#AFDCDC;stroke:#000000;stroke-width:0.5;stroke-miterlimit:10;}
	.st10{fill:#75C9DF;}
	.st11{opacity:0.23;fill:#585957;}
	.st12{fill:#8DCBC3;}
	.st13{fill:#AFDCDC;}
	.st14{fill:#F9EEDB;}
	.st15{opacity:0.44;}
	.st16{fill:none;stroke:#FF0000;stroke-miterlimit:10;}
	.st17{fill:#002CA4;}
	.st18{fill:#0050E3;}
	.st19{fill:#FFA8A7;}
	.st20{fill:#FFCFD0;}
	.st21{fill:#0050E3;stroke:#1B1464;stroke-miterlimit:10;}
	.st22{fill:#00BAA5;}
	.st23{fill:#C7EAD7;}
	.st24{fill:#FF3627;}
	.st25{fill:#D80000;}
	.st26{fill:#1B9787;}
	.st27{fill:#FEFD87;}
	.st28{fill:#002D82;}
	.st29{fill:#00106A;}
	.st30{fill:#E492B8;}
	.st31{fill:#22B573;stroke:#000000;stroke-width:0.5;stroke-miterlimit:10;}
	.st32{fill:#FFD900;}
	.st33{fill:#DAB312;stroke:#000000;stroke-width:0.5;stroke-miterlimit:10;}
	.st34{fill:#FF9A93;}
	.st35{fill:#FEFEC3;}
	.st36{fill:#FFBECA;}
	.st37{fill:#FFA5AE;}
	.st38{fill:#FFFFFF;}
	.st39{fill:#8FBC9C;}
	.st40{fill:none;stroke:#000000;stroke-width:0.25;stroke-miterlimit:10;}
	.st41{opacity:0.32;fill:#585957;}
	.st42{fill:none;stroke:#000000;stroke-width:2;stroke-miterlimit:10;}
	.st43{fill:#FEFEC3;stroke:#000000;stroke-width:0.5;stroke-miterlimit:10;}
	.st44{fill:#FFBECA;stroke:#000000;stroke-width:0.5;stroke-miterlimit:10;}
	.st45{opacity:0.84;}
	.st46{fill:#FF1D25;}
	.st47{opacity:0.53;fill:#FF0000;stroke:#1F1FFF;stroke-miterlimit:10;}
	.st48{fill:#FCF6ED;stroke:#000000;stroke-miterlimit:10;}
	.st49{fill:#7F7F7F;stroke:#000000;stroke-miterlimit:10;}
	.st50{opacity:0.12;}
	.st51{fill:#008072;stroke:#000000;stroke-width:0.75;stroke-miterlimit:10;}
	.st52{fill:#FFE7A0;stroke:#000000;stroke-width:0.75;stroke-miterlimit:10;}
	.st53{fill:#FFA5AE;stroke:#000000;stroke-width:0.75;stroke-miterlimit:10;}
	.st54{fill:none;stroke:#000000;stroke-width:3;stroke-miterlimit:10;}
	.st55{fill:#FFA5AE;stroke:#000000;stroke-width:0.1;stroke-miterlimit:10;}
	.st56{fill:#FF0000;}
	.st57{fill:#ABBEBD;stroke:#000000;stroke-width:0.25;stroke-miterlimit:10;}
	.st58{opacity:0.6;fill:#FFFFFF;}
	.st59{fill:#FF4A3D;}
	.st60{fill:none;stroke:#000000;stroke-width:0.75;stroke-miterlimit:10;}
	.st61{fill:#FEF7EF;stroke:#000000;stroke-width:0.75;stroke-miterlimit:10;}
	.st62{fill:none;stroke:#000000;stroke-width:0.75;stroke-linecap:round;stroke-miterlimit:10;}
	.st63{fill:#FFFFFF;stroke:#000000;stroke-width:0.75;stroke-miterlimit:10;}
	.st64{fill:#DBDAD2;stroke:#000000;stroke-width:0.5;stroke-miterlimit:10;}
	.st65{fill:#FF4A3D;stroke:#000000;stroke-width:0.5;stroke-linecap:round;stroke-miterlimit:10;}
	.st66{fill:none;stroke:#000000;stroke-width:0.5;stroke-linecap:round;stroke-miterlimit:10;}
	.st67{fill:#F9EEDB;stroke:#000000;stroke-width:0.5;stroke-miterlimit:10;}
	.st68{fill:#7F7F7F;stroke:#000000;stroke-width:0.5;stroke-miterlimit:10;}
	.st69{fill:#7FDCD2;stroke:#000000;stroke-width:0.5;stroke-miterlimit:10;}
	.st70{fill:#FF7BAC;stroke:#2F2F2F;stroke-width:0.5;stroke-miterlimit:10;}
	.st71{fill:none;stroke:#2F2F2F;stroke-width:0.5;stroke-miterlimit:10;}
	.st72{fill:#F9EEDB;stroke:#2F2F2F;stroke-width:0.5;stroke-miterlimit:10;}
	.st73{fill:#2F2F2F;}
	.st74{fill:none;stroke:#F9EEDB;stroke-width:0.5;stroke-miterlimit:10;}
	.st75{fill:none;stroke:#000000;stroke-linejoin:round;stroke-miterlimit:10;}
	.st76{fill:#FFFFFF;stroke:#2F2F2F;stroke-width:0.5;stroke-miterlimit:10;}
</style>
<g id="Ebene_2">
</g>
<g id="Ebene_1">
	<g>
		<path class="st1" d="M-0.7,0v42.8h49.4V0H-0.7z M47.9,34.6L47.8,35l-9.9-1.7c-1,1-2.1,2.1-3.2,3c-2.5,2.1-5.2,3.8-8.2,5.2
			C25.8,41.8,25,42,24.3,42c-0.8,0-1.5-0.2-2.2-0.5c-3.5-1.7-6.7-3.8-9.5-6.4c-0.5-0.5-1-0.9-1.5-1.4L1,35.5L0.9,35l9.7-1.7
			c-1.2-1.2-2.2-2.4-3.3-3.7L0,29l0-0.5L6.9,29c-0.3-0.3-0.5-0.7-0.8-1c-0.6-0.9-1-1.9-1.2-3l-0.2-0.9L0.5,23l0.1-0.5l4.1,1.1
			l-1-5.3c-0.3-1.4-0.1-3.5-0.1-3.6L2.8,1.1c0-0.3,0.1-0.6,0.4-0.7C3.5,0.2,3.8,0.2,4,0.5L16,11.1c2.8-0.3,5.6-0.5,8.2-0.6
			c2.7,0,5.4,0.1,8.1,0.4L44.4,0.1C44.6,0,44.8,0,45,0.1c0.2,0.1,0.3,0.3,0.3,0.5l-0.9,14.3c0.1,0.3,0.5,2.3,0.3,3.5l-1,5l4.4-1.2
			l0.1,0.5l-4.7,1.3l-0.4,2c-0.1,0.7-0.4,1.3-0.8,1.9c-0.2,0.3-0.4,0.6-0.6,0.9l6.9-0.5l0,0.5l-7.3,0.5c-1,1.3-2,2.6-3.1,3.7
			L47.9,34.6z"/>
	</g>
	<g>
		<path class="st70" d="M24.8,32.5c-0.3,0.4-0.8,0.4-1.1,0l-1.4-1.9l-1.1-1.5c-0.3-0.4,0-1.1,0.5-1.1l2.5,0l2.5,0
			c0.6,0,0.9,0.6,0.5,1.1l-1.1,1.5L24.8,32.5z"/>
		<path class="st71" d="M44.1,14.8L45,0.6c0-0.3-0.3-0.4-0.5-0.2L32.3,11.2c-3-0.3-5.7-0.4-8.2-0.4c-2.6,0.1-5.3,0.2-8.3,0.6
			L3.8,0.6C3.5,0.3,3,0.6,3,1l0.8,13.8c0,0-0.2,2.1,0.1,3.5c0.4,2.2,0.8,4.5,1.2,6.7c0.2,1,0.6,2,1.2,2.9c1.5,2.1,3.6,4.6,6.3,7.1
			c3.4,3,6.7,5,9.5,6.3c1.3,0.6,2.9,0.7,4.2,0c2.4-1.1,5.2-2.8,8.1-5.2c3.6-3,6.1-6.1,7.7-8.5c0.4-0.5,0.6-1.1,0.7-1.8
			c0.5-2.5,1-5,1.5-7.5C44.7,17,44.1,14.8,44.1,14.8z"/>
		<circle class="st72" cx="16.4" cy="20.3" r="3.1"/>
		<circle class="st73" cx="16.4" cy="18.9" r="1.7"/>
		<circle class="st72" cx="31.8" cy="20.3" r="3.1"/>
		<circle class="st73" cx="31.8" cy="19.1" r="1.9"/>
		<line class="st71" x1="30.3" y1="27.3" x2="48.1" y2="22.4"/>
		<line class="st71" x1="30.3" y1="29.7" x2="48.6" y2="28.4"/>
		<line class="st71" x1="30.6" y1="31.8" x2="47.8" y2="34.8"/>
		<line class="st71" x1="18.4" y1="27.7" x2="0.5" y2="22.8"/>
		<line class="st71" x1="18.3" y1="30.1" x2="0" y2="28.8"/>
		<line class="st71" x1="18" y1="32.2" x2="0.9" y2="35.2"/>
	</g>
</g>
</svg>
