<?xml version="1.0" encoding="utf-8"?>
<!-- Generator: Adobe Illustrator 25.2.3, SVG Export Plug-In . SVG Version: 6.00 Build 0)  -->
<svg version="1.1" xmlns="http://www.w3.org/2000/svg" xmlns:xlink="http://www.w3.org/1999/xlink" x="0px" y="0px"
	 viewBox="0 0 547.4 102.2" style="enable-background:new 0 0 547.4 102.2;" xml:space="preserve">
<style type="text/css">
	.st0{fill:#1F1FFF;}
	.st1{fill:none;stroke:#000000;stroke-width:2;stroke-miterlimit:10;}
	.st2{fill:#F9EEDB;}
	.st3{opacity:0.44;}
	.st4{fill:none;stroke:#FF0000;stroke-miterlimit:10;}
	.st5{fill:#002CA4;}
	.st6{fill:#EEF2F3;}
	.st7{fill:none;stroke:#FFFFFF;stroke-miterlimit:10;}
	.st8{fill:#221F20;}
	.st9{fill:#E492B8;}
	.st10{fill:#F6E778;}
	.st11{fill:#94C9AD;}
	.st12{fill:#AEC4E3;}
	.st13{fill:#FFFFFF;stroke:#94C9AD;stroke-miterlimit:10;}
	.st14{fill:#94C9AD;stroke:#FFFFFF;stroke-miterlimit:10;}
	.st15{fill:#C6C5E0;}
	.st16{fill:#333333;}
	.st17{fill:none;stroke:#8AFF03;stroke-width:0.25;stroke-miterlimit:10;}
	.st18{fill:none;stroke:#8AFF03;stroke-miterlimit:10;}
	.st19{opacity:0.54;fill:#8AFF03;}
	.st20{opacity:0.7;}
	.st21{opacity:0.47;fill:#8AFF03;}
	.st22{opacity:0.24;fill:#8AFF03;}
	.st23{opacity:0.47;}
	.st24{fill:#8AFF03;}
	.st25{fill:#333333;stroke:#00FFFF;stroke-miterlimit:10;}
	.st26{fill:none;stroke:#00FFFF;stroke-miterlimit:10;}
	.st27{fill:#00FFFF;stroke:#00FFFF;stroke-miterlimit:10;}
	.st28{fill:#FFFFFF;}
	.st29{fill:#1168D9;}
	.st30{opacity:0.42;fill:#00FFFF;}
	.st31{fill:#1BCCC7;}
	.st32{fill:#D8E0F2;}
	.st33{fill:#020F59;}
	.st34{fill:#7787A6;}
	.st35{fill:#1168D9;stroke:#00FFFF;stroke-miterlimit:10;}
	.st36{fill:#0050E3;}
	.st37{fill:#FFA8A7;}
	.st38{fill:#FFCFD0;}
	.st39{fill:#0050E3;stroke:#1B1464;stroke-miterlimit:10;}
	.st40{fill:#00BAA5;}
	.st41{fill:#C7EAD7;}
	.st42{opacity:0.42;}
	.st43{fill:#00FFFF;}
	.st44{opacity:0.54;fill:#00FFFF;}
	.st45{opacity:0.54;fill:none;stroke:#00FFFF;stroke-miterlimit:10;}
	.st46{fill:#FF3627;}
	.st47{fill:#D80000;}
	.st48{fill:#1B9787;}
	.st49{fill:#FEFD87;}
	.st50{fill:#002D82;}
	.st51{fill:#00106A;}
	.st52{fill:#22B573;stroke:#000000;stroke-width:0.5;stroke-miterlimit:10;}
	.st53{fill:#FFFFFF;stroke:#000000;stroke-width:0.5;stroke-miterlimit:10;}
	.st54{fill:#FFD900;}
	.st55{fill:#DAB312;stroke:#000000;stroke-width:0.5;stroke-miterlimit:10;}
	.st56{fill:none;stroke:#000000;stroke-width:0.5;stroke-miterlimit:10;}
	.st57{fill:#ABBEBD;stroke:#000000;stroke-width:0.5;stroke-miterlimit:10;}
	.st58{fill:#AFDCDC;stroke:#000000;stroke-width:0.5;stroke-miterlimit:10;}
	.st59{fill:#FFBECA;}
	.st60{fill:#FFA5AE;}
	.st61{fill:#FFE7A0;stroke:#000000;stroke-width:0.5;stroke-miterlimit:10;}
	.st62{fill:#FFE7A0;}
	.st63{fill:#FF1D25;}
	.st64{opacity:0.67;fill:#FF0000;stroke:#1F1FFF;stroke-miterlimit:10;}
	.st65{fill:#DBDAD2;stroke:#000000;stroke-width:0.75;stroke-miterlimit:10;}
	.st66{fill:#ABBEBD;stroke:#000000;stroke-width:0.75;stroke-miterlimit:10;}
	.st67{opacity:0.12;}
	.st68{fill:#FFE7A0;stroke:#000000;stroke-width:0.75;stroke-miterlimit:10;}
	.st69{fill:#FFA5AE;stroke:#000000;stroke-width:0.75;stroke-miterlimit:10;}
	.st70{fill:none;stroke:#000000;stroke-width:3;stroke-miterlimit:10;}
</style>
<g id="Ebene_2">
</g>
<g id="Ebene_1">
	<g>
		<polygon points="157.2,23.5 156.8,23.5 151.9,23.5 144.4,44 136.9,23.5 132,23.5 131.5,23.5 131.5,23.5 125.6,23.5 125.6,80.4 
			135.4,80.4 135.4,43.8 140.1,56.7 148.6,56.7 153.4,43.8 153.4,80.4 163.2,80.4 163.2,23.5 157.2,23.5 		"/>
		<polygon points="178.4,46.3 189.9,46.3 189.9,80.4 199.7,80.4 199.7,37.4 178.4,37.4 		"/>
		<path d="M194.9,22.5c-1.5,0-3,0.6-4.1,1.8c-1.1,1.2-1.7,2.6-1.7,4.2c0,1.6,0.6,3,1.7,4.2c1.1,1.2,2.6,1.8,4.1,1.8
			c1.6,0,3.1-0.6,4.2-1.7c1.1-1.1,1.7-2.6,1.7-4.2c0-1.6-0.6-3.1-1.7-4.2C197.9,23.1,196.5,22.5,194.9,22.5z"/>
		<path d="M240.3,36.4c-4,0-7.8,1.4-11.4,4.3v-3.3h-9.7v43.1h9.7V50.9c3.5-3.7,6.8-5.5,9.6-5.5c2.3,0,3.2,0.9,3.7,1.5
			c0.6,0.8,1.3,2.7,1.3,6.5v27.1h9.7V51.7C253.3,39.1,246.2,36.4,240.3,36.4z"/>
		<path d="M292.9,39.7c-2.8-2.2-6.2-3.2-10-3.2c-5.1,0-9.3,2.2-12.4,6.5c-3,4.1-4.4,9.3-4.4,15.4c0,6.5,1.4,12,4.2,16.3
			c3,4.6,7.1,6.9,12.3,6.9c2.8,0,5.5-0.7,8-2.1c0.8-0.5,1.6-1,2.3-1.5v2.6h9.7v-57h-9.7V39.7z M292.9,66.2c-0.2,0.2-0.5,0.8-1.6,2
			c-1.2,1.4-2.4,2.5-3.7,3.1c-1.2,0.6-2.4,1-3.6,1c-2.4,0-4.2-1.1-5.6-3.5c-1.6-2.6-2.4-6.1-2.4-10.2c0-4,0.8-7.3,2.5-9.8
			c1.5-2.3,3.5-3.4,6.1-3.4c3.2,0,5.9,1.8,8.2,5.4V66.2z"/>
		<path d="M348.7,51.9c-1.4-1.3-2.8-2.4-4.2-3.2c-1.3-0.7-3.9-2-7.9-3.8c-4.5-2.1-6.8-4.3-6.8-6.7c0-2.1,0.7-3.6,2.2-4.7
			c1.7-1.2,3.9-1.8,6.7-1.8c2.6,0,5.4,0.5,8.4,1.5l2,0.7l2.4-9.1l-1.8-0.5c-3.7-1.1-7.4-1.7-11.1-1.7c-5.3,0-9.7,1.4-13.2,4.1
			c-3.6,2.8-5.5,6.8-5.5,11.8c0,1.9,0.4,3.7,1.1,5.4c0.7,1.6,1.7,3.1,3,4.4c1.2,1.3,2.5,2.3,3.8,3c1.2,0.7,3.6,1.9,7.6,3.7
			c3.4,1.6,5.8,3.1,7,4.5c1.1,1.3,1.6,2.9,1.6,4.8c0,2.6-0.8,4.6-2.5,6c-1.8,1.5-4.1,2.3-7.2,2.3c-2.7,0-6-0.9-9.8-2.6l-2.1-1
			l-2.2,9l1.3,0.7c3.7,1.9,8,2.9,12.9,2.9c5.2,0,9.7-1.6,13.5-4.7c3.9-3.2,5.9-7.8,5.9-13.5c0-2.4-0.5-4.5-1.4-6.5
			C351.4,54.9,350.2,53.2,348.7,51.9z"/>
		<path d="M387.7,36.4c-2.7,0-5.4,0.6-7.9,1.9c-0.9,0.4-1.7,0.9-2.5,1.5v-2.4h-9.7V96h9.7v-18c0.7,0.5,1.4,1,2.1,1.5
			c2.4,1.4,5,2.1,7.8,2.1c5.2,0,9.4-2.3,12.5-6.9c2.9-4.3,4.4-9.7,4.4-16.1c0-6.3-1.4-11.6-4.2-15.6C397,38.6,392.9,36.4,387.7,36.4
			z M386,45.4c2.5,0,4.4,1.1,5.8,3.4c1.6,2.5,2.4,5.9,2.4,10c0,4-0.8,7.4-2.5,10c-1.5,2.4-3.4,3.5-5.9,3.5c-1.6,0-3.1-0.6-4.6-1.8
			c-1.5-1.2-2.8-2.7-3.7-4.5V50.8C379.8,47.1,382.6,45.4,386,45.4z"/>
		<path d="M449.9,69.4V52.5c0-10.5-5.3-16.1-15.3-16.1c-4.9,0-10.2,1.5-15.8,4.3l-1.5,0.8l2.9,7.9l2-1.1c1.5-0.8,3.3-1.5,5.5-2.1
			c2.1-0.6,3.8-0.9,5.1-0.9c5.2,0,7.5,2.5,7.5,8.2v0.1l-4.8,0.4c-3.1,0.2-5.8,0.7-8,1.3c-2.4,0.6-4.4,1.5-6.1,2.7
			c-1.8,1.2-3.1,2.7-4.1,4.4c-0.9,1.8-1.4,3.8-1.4,6c0,3.8,1.3,7,3.9,9.4c2.6,2.4,5.6,3.6,9,3.6c4.7,0,8.8-1.5,12-4.5
			c0.1,0.8,0.3,1.5,0.5,2.1l0.4,1.4h9.7l-0.6-2.4C450.2,75.6,449.9,72.6,449.9,69.4z M435.7,70.4c-1.8,1.1-3.5,1.6-5.2,1.6
			c-1.4,0-2.6-0.4-3.4-1.1c-0.8-0.7-1.2-1.6-1.2-2.8c0-1.3,0.5-2.3,1.4-3.1c1.2-0.9,2.7-1.6,4.3-1.9c1.6-0.3,4.5-0.7,8.6-1.1v4.4
			C438.8,68,437.3,69.4,435.7,70.4z"/>
		<path d="M484.7,45.4c2.6,0,5.7,0.6,9,1.7l1.9,0.6l2.7-8.5l-1.7-0.7c-3.8-1.5-7.8-2.2-12-2.2c-6.5,0-11.9,2.1-16,6.2
			c-4.1,4.1-6.1,9.6-6.1,16.3c0,6.7,2,12.2,6.1,16.3c4,4.1,9.5,6.2,16.2,6.2c4.3,0,8.4-0.8,12.1-2.5l1.4-0.6l-1.8-8.4l-2.1,0.8
			c-3.3,1.2-6.5,1.8-9.6,1.8c-3.6,0-6.5-1.2-8.8-3.8c-2.3-2.6-3.4-5.8-3.4-9.7c0-4.3,1.1-7.6,3.3-10C478,46.5,480.9,45.4,484.7,45.4
			z"/>
		<path d="M547.4,57.2c0-6.2-1.7-11.2-5-15c-3.4-3.9-7.7-5.8-12.8-5.8c-5.6,0-10.3,2.1-13.9,6.2c-3.5,4-5.3,9.5-5.3,16.1
			c0,6.8,2,12.4,5.9,16.5c3.9,4.1,9.1,6.2,15.5,6.2c4.9,0,9.2-0.8,12.9-2.5l1.4-0.6l-1.8-8.3l-2,0.7c-3.6,1.2-7.1,1.8-10.4,1.8
			c-3.2,0-5.8-1.2-8-3.7c-1.9-2.1-3-4.7-3.3-7.8h26.8V57.2z M521.2,52.4c0.4-1.8,1.2-3.3,2.5-4.6c1.6-1.6,3.7-2.4,6.2-2.4
			c1.8,0,3.4,0.8,5,2.5c1.2,1.3,1.9,2.8,2.2,4.5H521.2z"/>
	</g>
	<g>
		<circle cx="11.6" cy="64" r="9.4"/>
		<circle cx="11.6" cy="37.1" r="9.4"/>
		<circle cx="90.8" cy="51.8" r="9.4"/>
		<circle cx="51.9" cy="37.1" r="9.4"/>
		<circle cx="51.9" cy="9.4" r="9.4"/>
		<circle cx="51.9" cy="91.5" r="9.4"/>
		<circle cx="51.9" cy="64" r="9.4"/>
		<line class="st70" x1="12.2" y1="38.1" x2="51.9" y2="9.4"/>
		<line class="st70" x1="11.2" y1="65.4" x2="51.9" y2="7.9"/>
		<line class="st70" x1="90.8" y1="51.8" x2="51.9" y2="9.4"/>
		<line class="st70" x1="90.8" y1="51.8" x2="51.9" y2="36.7"/>
		<line class="st70" x1="90.8" y1="51.8" x2="52.5" y2="64.1"/>
		<line class="st70" x1="90.8" y1="51.8" x2="52.5" y2="92.6"/>
		<line class="st70" x1="51.9" y1="36.7" x2="12.2" y2="38.1"/>
		<line class="st70" x1="51.9" y1="64.1" x2="12.2" y2="38.1"/>
		<line class="st70" x1="51.9" y1="91.5" x2="12.2" y2="38.1"/>
		<line class="st70" x1="12.6" y1="64.2" x2="51.9" y2="36.7"/>
		<line class="st70" x1="12.6" y1="64.2" x2="51.9" y2="91.5"/>
		<line class="st70" x1="12.6" y1="64.2" x2="51.9" y2="64.1"/>
	</g>
</g>
</svg>
