<svg xmlns="http://www.w3.org/2000/svg" viewBox="0 0 50.82 41.78"><defs><style>.a,.b{fill:#fff;stroke-miterlimit:10;}.a{stroke:#fff;}.b{stroke:#414042;}</style></defs><path class="a" d="M48.31,7.5H43.62v-1A1.59,1.59,0,0,0,42,4.9H17.94a1.56,1.56,0,0,1-1.3-.68L15,1.75a1.58,1.58,0,0,0-1.29-.68L3.93,1a1.58,1.58,0,0,0-1.43.89L1.16,4.61a1.56,1.56,0,0,0-.16.7L1.08,39.2a1.58,1.58,0,0,0,1.58,1.58H42a1.58,1.58,0,0,0,1.58-1.58v-.79L49.79,9.32A1.51,1.51,0,0,0,48.31,7.5Z"/><path class="a" d="M41.89,41.28H2.66A2.08,2.08,0,0,1,.58,39.2L.5,5.32a2.14,2.14,0,0,1,.21-.93L2.05,1.67A2.1,2.1,0,0,1,3.92.5h0l9.73.07a2.06,2.06,0,0,1,1.7.9l1.69,2.46a1.07,1.07,0,0,0,.89.47H42a2.09,2.09,0,0,1,2.08,2.09V7h4.19a2,2,0,0,1,2,2.43l-6.16,29v.74A2.08,2.08,0,0,1,42,41.28ZM3.92,1.5a1.09,1.09,0,0,0-1,.61L1.61,4.83a1.16,1.16,0,0,0-.11.48L1.58,39.2a1.08,1.08,0,0,0,1.08,1.08H42a1.09,1.09,0,0,0,1.08-1.08v-.9L49.3,9.22a1,1,0,0,0-.2-.85A1,1,0,0,0,48.31,8H43.12V6.49A1.09,1.09,0,0,0,42,5.4H17.94a2.07,2.07,0,0,1-1.71-.9L14.54,2a1.06,1.06,0,0,0-.89-.47L3.93,1.5Z"/><path class="b" d="M41.94,40.68H2.57A1.58,1.58,0,0,1,1,39.11L.9,5.22a1.57,1.57,0,0,1,.17-.7L2.4,1.79A1.59,1.59,0,0,1,3.83.9L13.56,1a1.55,1.55,0,0,1,1.29.69l1.69,2.46a1.6,1.6,0,0,0,1.31.69H41.94a1.58,1.58,0,0,1,1.58,1.58V39.1A1.58,1.58,0,0,1,41.94,40.68Z"/><path class="b" d="M41.79,40.69H2.85a1.52,1.52,0,0,1-1.48-1.83L7.79,8.6A1.52,1.52,0,0,1,9.27,7.4H48.21a1.52,1.52,0,0,1,1.48,1.83L43.27,39.49A1.51,1.51,0,0,1,41.79,40.69Z"/></svg>