<?xml version="1.0" encoding="utf-8"?>
<!-- Generator: Adobe Illustrator 25.2.1, SVG Export Plug-In . SVG Version: 6.00 Build 0)  -->
<svg version="1.1" id="Ebene_1" xmlns="http://www.w3.org/2000/svg" xmlns:xlink="http://www.w3.org/1999/xlink" x="0px" y="0px"
	 viewBox="0 0 73.4 77.1" style="enable-background:new 0 0 73.4 77.1;" xml:space="preserve">
<style type="text/css">
	.st0{fill:#EEF2F3;}
	.st1{fill:none;stroke:#FFFFFF;stroke-miterlimit:10;}
	.st2{fill:#221F20;}
	.st3{fill:#E492B8;}
	.st4{fill:#F6E778;}
	.st5{fill:#94C9AD;}
	.st6{fill:#AEC4E3;}
	.st7{fill:#FFFFFF;stroke:#94C9AD;stroke-miterlimit:10;}
	.st8{fill:#94C9AD;stroke:#FFFFFF;stroke-miterlimit:10;}
	.st9{fill:#C6C5E0;}
	.st10{fill:#333333;}
	.st11{opacity:0.44;}
	.st12{fill:none;stroke:#8AFF03;stroke-width:0.25;stroke-miterlimit:10;}
	.st13{fill:none;stroke:#8AFF03;stroke-miterlimit:10;}
	.st14{opacity:0.54;fill:#8AFF03;}
	.st15{opacity:0.7;}
	.st16{opacity:0.47;fill:#8AFF03;}
	.st17{opacity:0.24;fill:#8AFF03;}
	.st18{opacity:0.47;}
	.st19{fill:#8AFF03;}
	.st20{fill:#333333;stroke:#00FFFF;stroke-miterlimit:10;}
	.st21{fill:none;stroke:#00FFFF;stroke-miterlimit:10;}
	.st22{fill:#00FFFF;stroke:#00FFFF;stroke-miterlimit:10;}
	.st23{fill:#FFFFFF;}
	.st24{fill:#1168D9;}
	.st25{opacity:0.42;fill:#00FFFF;}
	.st26{fill:#1BCCC7;}
	.st27{fill:#D8E0F2;}
	.st28{fill:#020F59;}
	.st29{fill:#7787A6;}
	.st30{fill:#1168D9;stroke:#00FFFF;stroke-miterlimit:10;}
	.st31{opacity:0.42;}
	.st32{fill:#00FFFF;}
	.st33{opacity:0.54;fill:#00FFFF;}
	.st34{opacity:0.54;fill:none;stroke:#00FFFF;stroke-miterlimit:10;}
</style>
<g>
	<g class="st31">
		<polygon class="st33" points="37.4,1.4 55.3,32.4 73.2,63.4 37.4,63.4 1.6,63.4 19.5,32.4 		"/>
		<polygon class="st33" points="48.7,8.7 60.4,42.5 72.2,76.3 37,69.6 1.9,62.9 25.3,35.8 		"/>
		<polygon class="st32" points="37.4,0.9 55.3,31.9 73.2,62.9 37.4,62.9 1.6,62.9 19.5,31.9 		"/>
		<polygon class="st32" points="48.8,8.2 60.5,42 72.3,75.8 37.1,69.1 1.9,62.3 25.3,35.3 		"/>
	</g>
	<g>
		<polygon class="st34" points="36.7,1.5 54.6,32.5 72.5,63.5 36.7,63.5 0.9,63.5 18.8,32.5 		"/>
		<polygon class="st34" points="48,8.8 59.7,42.6 71.5,76.5 36.3,69.7 1.2,63 24.6,35.9 		"/>
		<polygon class="st21" points="36.7,1 54.6,32 72.5,63 36.7,63 0.9,63 18.8,32 		"/>
		<polygon class="st21" points="48,8.3 59.8,42.1 71.6,75.9 36.4,69.2 1.2,62.5 24.6,35.4 		"/>
	</g>
</g>
</svg>
