<?xml version="1.0" encoding="utf-8"?>
<!-- Generator: Adobe Illustrator 25.2.3, SVG Export Plug-In . SVG Version: 6.00 Build 0)  -->
<svg version="1.1" xmlns="http://www.w3.org/2000/svg" xmlns:xlink="http://www.w3.org/1999/xlink" x="0px" y="0px"
	 viewBox="0 0 63.1 57.4" style="enable-background:new 0 0 63.1 57.4;" xml:space="preserve">
<style type="text/css">
	.st0{fill:#1F1FFF;}
	.st1{fill:#F9EEDB;}
	.st2{opacity:0.44;}
	.st3{fill:none;stroke:#FF0000;stroke-miterlimit:10;}
	.st4{fill:#002CA4;}
	.st5{fill:#EEF2F3;}
	.st6{fill:none;stroke:#FFFFFF;stroke-miterlimit:10;}
	.st7{fill:#221F20;}
	.st8{fill:#E492B8;}
	.st9{fill:#F6E778;}
	.st10{fill:#94C9AD;}
	.st11{fill:#AEC4E3;}
	.st12{fill:#FFFFFF;stroke:#94C9AD;stroke-miterlimit:10;}
	.st13{fill:#94C9AD;stroke:#FFFFFF;stroke-miterlimit:10;}
	.st14{fill:#C6C5E0;}
	.st15{fill:#333333;}
	.st16{fill:none;stroke:#8AFF03;stroke-width:0.25;stroke-miterlimit:10;}
	.st17{fill:none;stroke:#8AFF03;stroke-miterlimit:10;}
	.st18{opacity:0.54;fill:#8AFF03;}
	.st19{opacity:0.7;}
	.st20{opacity:0.47;fill:#8AFF03;}
	.st21{opacity:0.24;fill:#8AFF03;}
	.st22{opacity:0.47;}
	.st23{fill:#8AFF03;}
	.st24{fill:#333333;stroke:#00FFFF;stroke-miterlimit:10;}
	.st25{fill:none;stroke:#00FFFF;stroke-miterlimit:10;}
	.st26{fill:#00FFFF;stroke:#00FFFF;stroke-miterlimit:10;}
	.st27{fill:#FFFFFF;}
	.st28{fill:#1168D9;}
	.st29{opacity:0.42;fill:#00FFFF;}
	.st30{fill:#1BCCC7;}
	.st31{fill:#D8E0F2;}
	.st32{fill:#020F59;}
	.st33{fill:#7787A6;}
	.st34{fill:#1168D9;stroke:#00FFFF;stroke-miterlimit:10;}
	.st35{fill:#0050E3;}
	.st36{fill:#FFA8A7;}
	.st37{fill:#FFCFD0;}
	.st38{fill:#0050E3;stroke:#1B1464;stroke-miterlimit:10;}
	.st39{fill:#00BAA5;}
	.st40{fill:#C7EAD7;}
	.st41{opacity:0.42;}
	.st42{fill:#00FFFF;}
	.st43{opacity:0.54;fill:#00FFFF;}
	.st44{opacity:0.54;fill:none;stroke:#00FFFF;stroke-miterlimit:10;}
	.st45{fill:#FF3627;}
	.st46{fill:#D80000;}
	.st47{fill:#1B9787;}
	.st48{fill:#FEFD87;}
	.st49{fill:#002D82;}
	.st50{fill:#00106A;}
	.st51{fill:#22B573;stroke:#000000;stroke-width:0.5;stroke-miterlimit:10;}
	.st52{fill:#FFFFFF;stroke:#000000;stroke-width:0.5;stroke-miterlimit:10;}
	.st53{fill:#FFD900;}
	.st54{fill:#DAB312;stroke:#000000;stroke-width:0.5;stroke-miterlimit:10;}
	.st55{fill:none;stroke:#000000;stroke-width:0.5;stroke-miterlimit:10;}
	.st56{fill:#ABBEBD;stroke:#000000;stroke-width:0.5;stroke-miterlimit:10;}
	.st57{fill:#AFDCDC;stroke:#000000;stroke-width:0.5;stroke-miterlimit:10;}
	.st58{fill:#FFBECA;}
	.st59{fill:#FFA5AE;}
	.st60{fill:#FFE7A0;stroke:#000000;stroke-width:0.5;stroke-miterlimit:10;}
	.st61{fill:#FFE7A0;}
	.st62{fill:#FF1D25;}
	.st63{opacity:0.67;fill:#FF0000;stroke:#1F1FFF;stroke-miterlimit:10;}
	.st64{fill:none;stroke:#000000;stroke-width:2;stroke-miterlimit:10;}
	.st65{fill:#DBDAD2;stroke:#000000;stroke-width:0.75;stroke-miterlimit:10;}
	.st66{fill:#ABBEBD;stroke:#000000;stroke-width:0.75;stroke-miterlimit:10;}
	.st67{opacity:0.12;}
	.st68{fill:#FFE7A0;stroke:#000000;stroke-width:0.75;stroke-miterlimit:10;}
	.st69{fill:#FFA5AE;stroke:#000000;stroke-width:0.75;stroke-miterlimit:10;}
</style>
<g id="Ebene_2">
</g>
<g id="Ebene_1">
	<g>
		<path class="st67" d="M46.1,45.5L18.8,56.8c-0.8,0.3-1.8,0-2.1-0.9l-16.6-40c-0.3-0.8,0-1.8,0.9-2.1L28.3,2.5
			c0.8-0.3,1.8,0,2.1,0.9l16.6,40C47.3,44.2,46.9,45.2,46.1,45.5z"/>
		<path class="st57" d="M47.5,43.4L20.3,54.7c-0.8,0.3-1.8,0-2.1-0.9l-16.6-40c-0.3-0.8,0-1.8,0.9-2.1L29.7,0.4
			c0.8-0.3,1.8,0,2.1,0.9l16.6,40C48.7,42.1,48.3,43,47.5,43.4z"/>
		<g>
			<path class="st68" d="M22.5,33c-1.5-3.7-1.3-5.5,0.7-8.8c1.2-2.1,2.4-3.7,1.4-6.3c-0.9-2.1-2.6-2.6-4.4-1.8
				c-1.3,0.6-3.1,1.8-5,3.6l-2.8-4c1.9-1.8,3.9-3.3,6.3-4.2c5.8-2.4,9.4-0.3,11.1,3.9c1.8,4.4,0.3,7.4-1.6,10.6
				c-1.2,1.9-1.8,2.8-1,4.8l2.2,5.3l-4.4,1.8C24.4,37,23,34.2,22.5,33z M26.3,44.7c-0.7-1.7,0-3.7,1.9-4.5c2.1-0.9,3.9-0.1,4.7,1.7
				c0.7,1.7,0.2,3.8-1.9,4.6C28.8,47.4,27,46.5,26.3,44.7z"/>
		</g>
		<path class="st67" d="M45.5,57.3l-28.1-8.9c-0.9-0.3-1.3-1.2-1.1-2l13-41.3c0.3-0.9,1.2-1.3,2-1.1l28.1,8.9c0.9,0.3,1.3,1.2,1.1,2
			l-13,41.3C47.2,57.1,46.3,57.6,45.5,57.3z"/>
		<path class="st57" d="M47.7,56.1l-28.1-8.9c-0.9-0.3-1.3-1.2-1.1-2l13-41.3c0.3-0.9,1.2-1.3,2-1.1l28.1,8.9c0.9,0.3,1.3,1.2,1.1,2
			L49.8,55C49.5,55.9,48.6,56.3,47.7,56.1z"/>
		<g>
			<path class="st69" d="M35.2,32c1.2-3.8,2.6-5,6.2-6.2c2.2-0.8,4.2-1.2,5.1-3.9c0.7-2.1-0.4-3.7-2.2-4.2c-1.4-0.4-3.6-0.6-6.1-0.5
				l0.4-4.9c2.6-0.1,5.1,0,7.6,0.8c6,1.9,7.4,5.8,6,10.1c-1.4,4.6-4.5,5.9-8.1,7.1c-2.1,0.7-3.2,1-3.8,3l-1.7,5.5l-4.6-1.4
				C34.1,36.3,34.8,33.3,35.2,32z M30.6,43.4c0.6-1.8,2.4-2.8,4.4-2.2c2.2,0.7,3,2.5,2.5,4.3c-0.6,1.8-2.3,3-4.4,2.3
				C30.8,47.1,30.1,45.2,30.6,43.4z"/>
		</g>
	</g>
</g>
</svg>
