<?xml version="1.0" encoding="utf-8"?>
<!-- Generator: Adobe Illustrator 25.2.3, SVG Export Plug-In . SVG Version: 6.00 Build 0)  -->
<svg version="1.1" xmlns="http://www.w3.org/2000/svg" xmlns:xlink="http://www.w3.org/1999/xlink" x="0px" y="0px"
	 viewBox="0 0 43.7 45" style="enable-background:new 0 0 43.7 45;" xml:space="preserve">
<style type="text/css">
	.st0{fill:#1F1FFF;}
	.st1{fill:#008072;}
	.st2{fill:#FFFFFF;stroke:#000000;stroke-width:0.5;stroke-miterlimit:10;}
	.st3{fill:#AFDCDC;}
	.st4{fill:#F9EEDB;}
	.st5{opacity:0.44;}
	.st6{fill:none;stroke:#FF0000;stroke-miterlimit:10;}
	.st7{fill:#002CA4;}
	.st8{fill:#EEF2F3;}
	.st9{fill:none;stroke:#FFFFFF;stroke-miterlimit:10;}
	.st10{fill:#221F20;}
	.st11{fill:#E492B8;}
	.st12{fill:#F6E778;}
	.st13{fill:#94C9AD;}
	.st14{fill:#AEC4E3;}
	.st15{fill:#FFFFFF;stroke:#94C9AD;stroke-miterlimit:10;}
	.st16{fill:#94C9AD;stroke:#FFFFFF;stroke-miterlimit:10;}
	.st17{fill:#C6C5E0;}
	.st18{fill:#333333;}
	.st19{fill:none;stroke:#8AFF03;stroke-width:0.25;stroke-miterlimit:10;}
	.st20{fill:none;stroke:#8AFF03;stroke-miterlimit:10;}
	.st21{opacity:0.54;fill:#8AFF03;}
	.st22{opacity:0.7;}
	.st23{opacity:0.47;fill:#8AFF03;}
	.st24{opacity:0.24;fill:#8AFF03;}
	.st25{opacity:0.47;}
	.st26{fill:#8AFF03;}
	.st27{fill:#333333;stroke:#00FFFF;stroke-miterlimit:10;}
	.st28{fill:none;stroke:#00FFFF;stroke-miterlimit:10;}
	.st29{fill:#00FFFF;stroke:#00FFFF;stroke-miterlimit:10;}
	.st30{fill:#FFFFFF;}
	.st31{fill:#1168D9;}
	.st32{opacity:0.42;fill:#00FFFF;}
	.st33{fill:#1BCCC7;}
	.st34{fill:#D8E0F2;}
	.st35{fill:#020F59;}
	.st36{fill:#7787A6;}
	.st37{fill:#1168D9;stroke:#00FFFF;stroke-miterlimit:10;}
	.st38{fill:#0050E3;}
	.st39{fill:#FFA8A7;}
	.st40{fill:#FFCFD0;}
	.st41{fill:#0050E3;stroke:#1B1464;stroke-miterlimit:10;}
	.st42{fill:#00BAA5;}
	.st43{fill:#C7EAD7;}
	.st44{opacity:0.42;}
	.st45{fill:#00FFFF;}
	.st46{opacity:0.54;fill:#00FFFF;}
	.st47{opacity:0.54;fill:none;stroke:#00FFFF;stroke-miterlimit:10;}
	.st48{fill:#FF3627;}
	.st49{fill:#D80000;}
	.st50{fill:#1B9787;}
	.st51{fill:#FEFD87;}
	.st52{fill:#002D82;}
	.st53{fill:#00106A;}
	.st54{fill:#22B573;stroke:#000000;stroke-width:0.5;stroke-miterlimit:10;}
	.st55{fill:#FFD900;}
	.st56{fill:#DAB312;stroke:#000000;stroke-width:0.5;stroke-miterlimit:10;}
	.st57{fill:#F14564;}
	.st58{fill:none;stroke:#000000;stroke-width:0.5;stroke-miterlimit:10;}
	.st59{fill:#ABBEBD;stroke:#000000;stroke-width:0.5;stroke-miterlimit:10;}
	.st60{fill:#AFDCDC;stroke:#000000;stroke-width:0.5;stroke-miterlimit:10;}
	.st61{fill:#FFBECA;}
	.st62{fill:#FFA5AE;}
	.st63{fill:#8FBC9C;}
	.st64{fill:none;stroke:#000000;stroke-width:0.25;stroke-miterlimit:10;}
	.st65{opacity:0.32;fill:#585957;}
	.st66{fill:none;stroke:#000000;stroke-width:2;stroke-miterlimit:10;}
	.st67{fill:#FFE7A0;stroke:#000000;stroke-width:0.5;stroke-miterlimit:10;}
	.st68{fill:#FFE7A0;}
	.st69{fill:#FF1D25;}
	.st70{opacity:0.67;fill:#FF0000;stroke:#1F1FFF;stroke-miterlimit:10;}
	.st71{fill:#DBDAD2;stroke:#000000;stroke-width:0.75;stroke-miterlimit:10;}
	.st72{fill:#ABBEBD;stroke:#000000;stroke-width:0.75;stroke-miterlimit:10;}
	.st73{opacity:0.12;}
	.st74{fill:#008072;stroke:#000000;stroke-width:0.75;stroke-miterlimit:10;}
	.st75{fill:#FFE7A0;stroke:#000000;stroke-width:0.75;stroke-miterlimit:10;}
	.st76{fill:#FFA5AE;stroke:#000000;stroke-width:0.75;stroke-miterlimit:10;}
	.st77{stroke:#000000;stroke-width:2;stroke-miterlimit:10;}
	.st78{fill:none;stroke:#000000;stroke-width:3;stroke-miterlimit:10;}
	.st79{fill:none;stroke:#FF0000;stroke-width:1.000000e-02;stroke-miterlimit:10;}
	.st80{fill:none;stroke:#000000;stroke-width:4;stroke-miterlimit:10;}
	.st81{fill:none;stroke:#000000;stroke-width:5;stroke-miterlimit:10;}
	.st82{fill:#FF0000;}
	.st83{fill:#C1272D;}
	.st84{fill:#75C9DF;}
	.st85{fill:#FFA5AE;stroke:#000000;stroke-width:0.1;stroke-miterlimit:10;}
</style>
<g id="Ebene_2">
</g>
<g id="Ebene_1">
	<g>
		<circle cx="4.3" cy="28.6" r="4.2"/>
		<circle cx="4.3" cy="16.6" r="4.2"/>
		<circle cx="39.5" cy="23.1" r="4.2"/>
		<circle cx="22.2" cy="16.6" r="4.2"/>
		<circle cx="22.2" cy="4.3" r="4.2"/>
		<circle cx="22.2" cy="40.8" r="4.2"/>
		<circle cx="22.2" cy="28.6" r="4.2"/>
		<line class="st64" x1="4.3" y1="16.6" x2="22.2" y2="4.3"/>
		<line class="st64" x1="4.3" y1="28.6" x2="22.1" y2="4.3"/>
		<line class="st64" x1="39.5" y1="23.1" x2="22.2" y2="4.3"/>
		<line class="st64" x1="39.5" y1="23.1" x2="22.2" y2="16.6"/>
		<line class="st64" x1="39.5" y1="23.1" x2="22.2" y2="28.6"/>
		<line class="st64" x1="39.5" y1="23.1" x2="22.5" y2="41.3"/>
		<line class="st64" x1="22.1" y1="16.6" x2="4.3" y2="16.6"/>
		<line class="st64" x1="22.2" y1="28.6" x2="4.3" y2="16.6"/>
		<line class="st64" x1="22.2" y1="40.8" x2="4.3" y2="16.6"/>
		<line class="st64" x1="4.3" y1="28.6" x2="22.2" y2="16.6"/>
		<line class="st64" x1="4.3" y1="28.6" x2="22.2" y2="40.8"/>
		<line class="st64" x1="4.3" y1="28.6" x2="22.2" y2="28.6"/>
	</g>
	<g>
		<g>
			<circle class="st61" cx="4.3" cy="16.6" r="4"/>
			<path class="st62" d="M7.4,15.9c0,2.2-1.8,4-4,4c-0.8,0-1.5-0.2-2.2-0.6c0.7,0.8,1.8,1.4,3,1.4c2.2,0,4-1.8,4-4
				c0-1.4-0.7-2.7-1.9-3.4C7,13.9,7.4,14.9,7.4,15.9z"/>
		</g>
		<g>
			<g>
				<path d="M4.3,12.6c2.2,0,4,1.8,4,4c0,2.2-1.8,4-4,4c-2.2,0-4-1.8-4-4C0.2,14.4,2,12.6,4.3,12.6 M4.3,12.4
					c-2.3,0-4.3,1.9-4.3,4.3c0,2.3,1.9,4.3,4.3,4.3c2.3,0,4.3-1.9,4.3-4.3C8.5,14.3,6.6,12.4,4.3,12.4L4.3,12.4z"/>
			</g>
		</g>
		<ellipse transform="matrix(0.821 -0.5709 0.5709 0.821 -7.7092 3.9232)" class="st30" cx="2.4" cy="14.3" rx="1.4" ry="0.5"/>
	</g>
	<g>
		<g>
			<circle class="st61" cx="4.3" cy="28.4" r="4"/>
			<path class="st62" d="M7.4,27.6c0,2.2-1.8,4-4,4c-0.8,0-1.5-0.2-2.2-0.6c0.7,0.8,1.8,1.4,3,1.4c2.2,0,4-1.8,4-4
				c0-1.4-0.7-2.7-1.9-3.4C7,25.7,7.4,26.6,7.4,27.6z"/>
		</g>
		<g>
			<g>
				<path d="M4.3,24.4c2.2,0,4,1.8,4,4c0,2.2-1.8,4-4,4c-2.2,0-4-1.8-4-4C0.2,26.2,2,24.4,4.3,24.4 M4.3,24.1C1.9,24.1,0,26,0,28.4
					c0,2.3,1.9,4.3,4.3,4.3c2.3,0,4.3-1.9,4.3-4.3C8.5,26,6.6,24.1,4.3,24.1L4.3,24.1z"/>
			</g>
		</g>
		<ellipse transform="matrix(0.821 -0.5709 0.5709 0.821 -14.4321 6.031)" class="st30" cx="2.4" cy="26" rx="1.4" ry="0.5"/>
	</g>
	<g>
		<g>
			<circle class="st61" cx="22.2" cy="16.6" r="4"/>
			<path class="st62" d="M25.3,15.9c0,2.2-1.8,4-4,4c-0.8,0-1.5-0.2-2.2-0.6c0.7,0.8,1.8,1.4,3,1.4c2.2,0,4-1.8,4-4
				c0-1.4-0.7-2.7-1.9-3.4C25,13.9,25.3,14.9,25.3,15.9z"/>
		</g>
		<g>
			<g>
				<path d="M22.2,12.6c2.2,0,4,1.8,4,4c0,2.2-1.8,4-4,4c-2.2,0-4-1.8-4-4C18.2,14.4,20,12.6,22.2,12.6 M22.2,12.4
					c-2.3,0-4.3,1.9-4.3,4.3c0,2.3,1.9,4.3,4.3,4.3c2.3,0,4.3-1.9,4.3-4.3C26.4,14.3,24.5,12.4,22.2,12.4L22.2,12.4z"/>
			</g>
		</g>
		<ellipse transform="matrix(0.821 -0.5709 0.5709 0.821 -4.498 14.1656)" class="st30" cx="20.3" cy="14.3" rx="1.4" ry="0.5"/>
	</g>
	<g>
		<g>
			<circle class="st61" cx="22.1" cy="4.2" r="4"/>
			<path class="st62" d="M25.3,3.5c0,2.2-1.8,4-4,4c-0.8,0-1.5-0.2-2.2-0.6c0.7,0.8,1.8,1.4,3,1.4c2.2,0,4-1.8,4-4
				c0-1.4-0.7-2.7-1.9-3.4C24.9,1.5,25.3,2.5,25.3,3.5z"/>
		</g>
		<g>
			<g>
				<path d="M22.1,0.2c2.2,0,4,1.8,4,4c0,2.2-1.8,4-4,4c-2.2,0-4-1.8-4-4C18.1,2,19.9,0.2,22.1,0.2 M22.1,0c-2.3,0-4.3,1.9-4.3,4.3
					c0,2.3,1.9,4.3,4.3,4.3c2.3,0,4.3-1.9,4.3-4.3C26.4,1.9,24.5,0,22.1,0L22.1,0z"/>
			</g>
		</g>
		<ellipse transform="matrix(0.821 -0.5709 0.5709 0.821 2.5694 11.9138)" class="st30" cx="20.3" cy="1.9" rx="1.4" ry="0.5"/>
	</g>
	<g>
		<g>
			<circle class="st61" cx="22.1" cy="28.6" r="4"/>
			<path class="st62" d="M25.3,27.8c0,2.2-1.8,4-4,4c-0.8,0-1.5-0.2-2.2-0.6c0.7,0.8,1.8,1.4,3,1.4c2.2,0,4-1.8,4-4
				c0-1.4-0.7-2.7-1.9-3.4C24.9,25.9,25.3,26.8,25.3,27.8z"/>
		</g>
		<g>
			<g>
				<path d="M22.1,24.5c2.2,0,4,1.8,4,4s-1.8,4-4,4c-2.2,0-4-1.8-4-4S19.9,24.5,22.1,24.5 M22.1,24.3c-2.3,0-4.3,1.9-4.3,4.3
					s1.9,4.3,4.3,4.3c2.3,0,4.3-1.9,4.3-4.3S24.5,24.3,22.1,24.3L22.1,24.3z"/>
			</g>
		</g>
		<ellipse transform="matrix(0.821 -0.5709 0.5709 0.821 -11.3224 16.2692)" class="st30" cx="20.3" cy="26.2" rx="1.4" ry="0.5"/>
	</g>
	<g>
		<g>
			<circle class="st61" cx="22.1" cy="40.7" r="4"/>
			<path class="st62" d="M25.3,40c0,2.2-1.8,4-4,4c-0.8,0-1.5-0.2-2.2-0.6c0.7,0.8,1.8,1.4,3,1.4c2.2,0,4-1.8,4-4
				c0-1.4-0.7-2.7-1.9-3.4C24.9,38.1,25.3,39,25.3,40z"/>
		</g>
		<g>
			<g>
				<path d="M22.1,36.7c2.2,0,4,1.8,4,4c0,2.2-1.8,4-4,4c-2.2,0-4-1.8-4-4C18.1,38.5,19.9,36.7,22.1,36.7 M22.1,36.5
					c-2.3,0-4.3,1.9-4.3,4.3c0,2.3,1.9,4.3,4.3,4.3c2.3,0,4.3-1.9,4.3-4.3C26.4,38.4,24.5,36.5,22.1,36.5L22.1,36.5z"/>
			</g>
		</g>
		<ellipse transform="matrix(0.821 -0.5709 0.5709 0.821 -18.2795 18.4504)" class="st30" cx="20.3" cy="38.4" rx="1.4" ry="0.5"/>
	</g>
	<g>
		<g>
			<circle class="st61" cx="39.6" cy="23.2" r="4"/>
			<path class="st62" d="M42.8,22.5c0,2.2-1.8,4-4,4c-0.8,0-1.5-0.2-2.2-0.6c0.7,0.8,1.8,1.4,3,1.4c2.2,0,4-1.8,4-4
				c0-1.4-0.7-2.7-1.9-3.4C42.4,20.6,42.8,21.5,42.8,22.5z"/>
		</g>
		<g>
			<g>
				<path d="M39.6,19.2c2.2,0,4,1.8,4,4c0,2.2-1.8,4-4,4c-2.2,0-4-1.8-4-4C35.6,21,37.4,19.2,39.6,19.2 M39.6,19
					c-2.3,0-4.3,1.9-4.3,4.3c0,2.3,1.9,4.3,4.3,4.3c2.3,0,4.3-1.9,4.3-4.3C43.9,20.9,42,19,39.6,19L39.6,19z"/>
			</g>
		</g>
		<ellipse transform="matrix(0.821 -0.5709 0.5709 0.821 -5.1633 25.3053)" class="st30" cx="37.8" cy="20.9" rx="1.4" ry="0.5"/>
	</g>
</g>
</svg>
