<?xml version="1.0" encoding="utf-8"?>
<!-- Generator: Adobe Illustrator 25.2.3, SVG Export Plug-In . SVG Version: 6.00 Build 0)  -->
<svg version="1.1" xmlns="http://www.w3.org/2000/svg" xmlns:xlink="http://www.w3.org/1999/xlink" x="0px" y="0px"
	 viewBox="0 0 47.7 43.3" style="enable-background:new 0 0 47.7 43.3;" xml:space="preserve">
<style type="text/css">
	.st0{fill:#1F1FFF;}
	.st1{fill:none;stroke:#000000;stroke-width:2;stroke-miterlimit:10;}
	.st2{fill:#F9EEDB;}
	.st3{opacity:0.44;}
	.st4{fill:none;stroke:#FF0000;stroke-miterlimit:10;}
	.st5{fill:#002CA4;}
	.st6{fill:#EEF2F3;}
	.st7{fill:none;stroke:#FFFFFF;stroke-miterlimit:10;}
	.st8{fill:#221F20;}
	.st9{fill:#E492B8;}
	.st10{fill:#F6E778;}
	.st11{fill:#94C9AD;}
	.st12{fill:#AEC4E3;}
	.st13{fill:#FFFFFF;stroke:#94C9AD;stroke-miterlimit:10;}
	.st14{fill:#94C9AD;stroke:#FFFFFF;stroke-miterlimit:10;}
	.st15{fill:#C6C5E0;}
	.st16{fill:#333333;}
	.st17{fill:none;stroke:#8AFF03;stroke-width:0.25;stroke-miterlimit:10;}
	.st18{fill:none;stroke:#8AFF03;stroke-miterlimit:10;}
	.st19{opacity:0.54;fill:#8AFF03;}
	.st20{opacity:0.7;}
	.st21{opacity:0.47;fill:#8AFF03;}
	.st22{opacity:0.24;fill:#8AFF03;}
	.st23{opacity:0.47;}
	.st24{fill:#8AFF03;}
	.st25{fill:#333333;stroke:#00FFFF;stroke-miterlimit:10;}
	.st26{fill:none;stroke:#00FFFF;stroke-miterlimit:10;}
	.st27{fill:#00FFFF;stroke:#00FFFF;stroke-miterlimit:10;}
	.st28{fill:#FFFFFF;}
	.st29{fill:#1168D9;}
	.st30{opacity:0.42;fill:#00FFFF;}
	.st31{fill:#1BCCC7;}
	.st32{fill:#D8E0F2;}
	.st33{fill:#020F59;}
	.st34{fill:#7787A6;}
	.st35{fill:#1168D9;stroke:#00FFFF;stroke-miterlimit:10;}
	.st36{fill:#0050E3;}
	.st37{fill:#FFA8A7;}
	.st38{fill:#FFCFD0;}
	.st39{fill:#0050E3;stroke:#1B1464;stroke-miterlimit:10;}
	.st40{fill:#00BAA5;}
	.st41{fill:#C7EAD7;}
	.st42{opacity:0.42;}
	.st43{fill:#00FFFF;}
	.st44{opacity:0.54;fill:#00FFFF;}
	.st45{opacity:0.54;fill:none;stroke:#00FFFF;stroke-miterlimit:10;}
	.st46{fill:#FF3627;}
	.st47{fill:#D80000;}
	.st48{fill:#1B9787;}
	.st49{fill:#FEFD87;}
	.st50{fill:#002D82;}
	.st51{fill:#00106A;}
	.st52{fill:#22B573;stroke:#000000;stroke-width:0.5;stroke-miterlimit:10;}
	.st53{fill:#FFFFFF;stroke:#000000;stroke-width:0.5;stroke-miterlimit:10;}
	.st54{fill:#FFD900;}
	.st55{fill:#DAB312;stroke:#000000;stroke-width:0.5;stroke-miterlimit:10;}
	.st56{fill:none;stroke:#000000;stroke-width:0.5;stroke-miterlimit:10;}
	.st57{fill:#ABBEBD;stroke:#000000;stroke-width:0.5;stroke-miterlimit:10;}
	.st58{fill:#AFDCDC;stroke:#000000;stroke-width:0.5;stroke-miterlimit:10;}
	.st59{fill:#FFBECA;}
	.st60{fill:#FFA5AE;}
	.st61{fill:#FFE7A0;stroke:#000000;stroke-width:0.5;stroke-miterlimit:10;}
	.st62{fill:#FFE7A0;}
	.st63{fill:#FF1D25;}
	.st64{opacity:0.67;fill:#FF0000;stroke:#1F1FFF;stroke-miterlimit:10;}
	.st65{fill:#DBDAD2;stroke:#000000;stroke-width:0.75;stroke-miterlimit:10;}
	.st66{fill:#ABBEBD;stroke:#000000;stroke-width:0.75;stroke-miterlimit:10;}
	.st67{opacity:0.12;}
	.st68{fill:#008072;stroke:#000000;stroke-width:0.75;stroke-miterlimit:10;}
	.st69{fill:#FFE7A0;stroke:#000000;stroke-width:0.75;stroke-miterlimit:10;}
	.st70{fill:#FFA5AE;stroke:#000000;stroke-width:0.75;stroke-miterlimit:10;}
	.st71{stroke:#000000;stroke-width:2;stroke-miterlimit:10;}
	.st72{fill:none;stroke:#000000;stroke-width:3;stroke-miterlimit:10;}
	.st73{fill:none;stroke:#FF0000;stroke-width:1.000000e-02;stroke-miterlimit:10;}
	.st74{fill:none;stroke:#000000;stroke-width:4;stroke-miterlimit:10;}
	.st75{fill:none;stroke:#000000;stroke-width:5;stroke-miterlimit:10;}
	.st76{fill:#FF0000;}
	.st77{fill:#C1272D;}
	.st78{fill:#75C9DF;}
</style>
<g id="Ebene_2">
</g>
<g id="Ebene_1">
	<g>
		<g>
			<circle class="st59" cx="9.7" cy="14.9" r="9"/>
			<path class="st60" d="M16.8,13.3c0,5-4,9-9,9c-1.8,0-3.4-0.5-4.8-1.4c1.6,1.9,4.1,3.1,6.8,3.1c5,0,9-4,9-9c0-3.2-1.7-6-4.2-7.6
				C15.9,8.9,16.8,11,16.8,13.3z"/>
		</g>
		<g>
			<g>
				<path d="M9.7,5.9c5,0,9,4,9,9s-4,9-9,9s-9-4-9-9S4.8,5.9,9.7,5.9 M9.7,5.4c-5.2,0-9.5,4.3-9.5,9.5c0,5.2,4.3,9.5,9.5,9.5
					c5.2,0,9.5-4.3,9.5-9.5C19.2,9.7,15,5.4,9.7,5.4L9.7,5.4z"/>
			</g>
		</g>
		<ellipse transform="matrix(0.821 -0.5709 0.5709 0.821 -4.5053 4.901)" class="st28" cx="5.6" cy="9.6" rx="3.1" ry="1.2"/>
	</g>
	<g>
		<g>
			<circle class="st59" cx="22.4" cy="33.8" r="9"/>
			<path class="st60" d="M29.4,32.2c0,5-4,9-9,9c-1.8,0-3.4-0.5-4.8-1.4c1.6,1.9,4.1,3.1,6.8,3.1c5,0,9-4,9-9c0-3.2-1.7-6-4.2-7.6
				C28.6,27.8,29.4,29.9,29.4,32.2z"/>
		</g>
		<g>
			<g>
				<path d="M22.4,24.8c5,0,9,4,9,9s-4,9-9,9s-9-4-9-9S17.4,24.8,22.4,24.8 M22.4,24.3c-5.2,0-9.5,4.3-9.5,9.5
					c0,5.2,4.3,9.5,9.5,9.5c5.2,0,9.5-4.3,9.5-9.5C31.9,28.6,27.6,24.3,22.4,24.3L22.4,24.3z"/>
			</g>
		</g>
		<ellipse transform="matrix(0.821 -0.5709 0.5709 0.821 -13.0252 15.5126)" class="st28" cx="18.2" cy="28.5" rx="3.1" ry="1.2"/>
	</g>
	<g>
		<g>
			<circle class="st59" cx="36.1" cy="14.9" r="9"/>
			<path class="st60" d="M43.1,13.3c0,5-4,9-9,9c-1.8,0-3.4-0.5-4.8-1.4c1.6,1.9,4.1,3.1,6.8,3.1c5,0,9-4,9-9c0-3.2-1.7-6-4.2-7.6
				C42.3,8.9,43.1,11,43.1,13.3z"/>
		</g>
		<g>
			<g>
				<path d="M36.1,5.9c5,0,9,4,9,9s-4,9-9,9s-9-4-9-9S31.1,5.9,36.1,5.9 M36.1,5.4c-5.2,0-9.5,4.3-9.5,9.5c0,5.2,4.3,9.5,9.5,9.5
					c5.2,0,9.5-4.3,9.5-9.5C45.6,9.7,41.3,5.4,36.1,5.4L36.1,5.4z"/>
			</g>
		</g>
		<ellipse transform="matrix(0.821 -0.5709 0.5709 0.821 0.2145 19.9553)" class="st28" cx="31.9" cy="9.6" rx="3.1" ry="1.2"/>
	</g>
</g>
</svg>
