<?xml version="1.0" encoding="utf-8"?>
<!-- Generator: Adobe Illustrator 25.2.3, SVG Export Plug-In . SVG Version: 6.00 Build 0)  -->
<svg version="1.1" id="Ebene_1" xmlns="http://www.w3.org/2000/svg" xmlns:xlink="http://www.w3.org/1999/xlink" x="0px" y="0px"
	 viewBox="0 0 47.7 43.3" style="enable-background:new 0 0 47.7 43.3;" xml:space="preserve">
<style type="text/css">
	.st0{fill:#F9EEDB;}
	.st1{opacity:0.44;}
	.st2{fill:none;stroke:#FF0000;stroke-miterlimit:10;}
	.st3{fill:#002CA4;}
	.st4{fill:#EEF2F3;}
	.st5{fill:none;stroke:#FFFFFF;stroke-miterlimit:10;}
	.st6{fill:#221F20;}
	.st7{fill:#E492B8;}
	.st8{fill:#F6E778;}
	.st9{fill:#94C9AD;}
	.st10{fill:#AEC4E3;}
	.st11{fill:#FFFFFF;stroke:#94C9AD;stroke-miterlimit:10;}
	.st12{fill:#94C9AD;stroke:#FFFFFF;stroke-miterlimit:10;}
	.st13{fill:#C6C5E0;}
	.st14{fill:#333333;}
	.st15{fill:none;stroke:#8AFF03;stroke-width:0.25;stroke-miterlimit:10;}
	.st16{fill:none;stroke:#8AFF03;stroke-miterlimit:10;}
	.st17{opacity:0.54;fill:#8AFF03;}
	.st18{opacity:0.7;}
	.st19{opacity:0.47;fill:#8AFF03;}
	.st20{opacity:0.24;fill:#8AFF03;}
	.st21{opacity:0.47;}
	.st22{fill:#8AFF03;}
	.st23{fill:#333333;stroke:#00FFFF;stroke-miterlimit:10;}
	.st24{fill:none;stroke:#00FFFF;stroke-miterlimit:10;}
	.st25{fill:#00FFFF;stroke:#00FFFF;stroke-miterlimit:10;}
	.st26{fill:#FFFFFF;}
	.st27{fill:#1168D9;}
	.st28{opacity:0.42;fill:#00FFFF;}
	.st29{fill:#1BCCC7;}
	.st30{fill:#D8E0F2;}
	.st31{fill:#020F59;}
	.st32{fill:#7787A6;}
	.st33{fill:#1168D9;stroke:#00FFFF;stroke-miterlimit:10;}
	.st34{fill:#0050E3;}
	.st35{fill:#FFA8A7;}
	.st36{fill:#FFCFD0;}
	.st37{fill:#0050E3;stroke:#1B1464;stroke-miterlimit:10;}
	.st38{fill:#00BAA5;}
	.st39{fill:#C7EAD7;}
	.st40{opacity:0.42;}
	.st41{fill:#00FFFF;}
	.st42{opacity:0.54;fill:#00FFFF;}
	.st43{opacity:0.54;fill:none;stroke:#00FFFF;stroke-miterlimit:10;}
	.st44{fill:#FF3627;}
	.st45{fill:#D80000;}
	.st46{fill:#1B9787;}
	.st47{fill:#FEFD87;}
	.st48{fill:#002D82;}
	.st49{fill:#00106A;}
	.st50{fill:#22B573;stroke:#000000;stroke-width:0.5;stroke-miterlimit:10;}
	.st51{fill:#FFFFFF;stroke:#000000;stroke-width:0.5;stroke-miterlimit:10;}
	.st52{fill:#FFD900;}
	.st53{fill:#DAB312;stroke:#000000;stroke-width:0.5;stroke-miterlimit:10;}
	.st54{fill:none;stroke:#000000;stroke-width:0.5;stroke-miterlimit:10;}
	.st55{fill:#ABBEBD;stroke:#000000;stroke-width:0.5;stroke-miterlimit:10;}
	.st56{fill:#AFDCDC;stroke:#000000;stroke-width:0.5;stroke-miterlimit:10;}
	.st57{fill:#FFBECA;}
	.st58{fill:#FFA5AE;}
	.st59{fill:#FFE7A0;stroke:#000000;stroke-width:0.5;stroke-miterlimit:10;}
</style>
<g>
	<g>
		<circle class="st57" cx="9.7" cy="14.9" r="9"/>
		<path class="st58" d="M16.8,13.3c0,5-4,9-9,9c-1.8,0-3.4-0.5-4.8-1.4c1.6,1.9,4.1,3.1,6.8,3.1c5,0,9-4,9-9c0-3.2-1.7-6-4.2-7.6
			C15.9,8.9,16.8,11,16.8,13.3z"/>
	</g>
	<g>
		<g>
			<path d="M9.7,5.9c5,0,9,4,9,9s-4,9-9,9s-9-4-9-9S4.8,5.9,9.7,5.9 M9.7,5.4c-5.2,0-9.5,4.3-9.5,9.5c0,5.2,4.3,9.5,9.5,9.5
				c5.2,0,9.5-4.3,9.5-9.5C19.2,9.7,15,5.4,9.7,5.4L9.7,5.4z"/>
		</g>
	</g>
	<ellipse transform="matrix(0.821 -0.5709 0.5709 0.821 -4.5053 4.901)" class="st26" cx="5.6" cy="9.6" rx="3.1" ry="1.2"/>
</g>
<g>
	<g>
		<circle class="st57" cx="22.4" cy="33.8" r="9"/>
		<path class="st58" d="M29.4,32.2c0,5-4,9-9,9c-1.8,0-3.4-0.5-4.8-1.4c1.6,1.9,4.1,3.1,6.8,3.1c5,0,9-4,9-9c0-3.2-1.7-6-4.2-7.6
			C28.6,27.8,29.4,29.9,29.4,32.2z"/>
	</g>
	<g>
		<g>
			<path d="M22.4,24.8c5,0,9,4,9,9s-4,9-9,9s-9-4-9-9S17.4,24.8,22.4,24.8 M22.4,24.3c-5.2,0-9.5,4.3-9.5,9.5c0,5.2,4.3,9.5,9.5,9.5
				c5.2,0,9.5-4.3,9.5-9.5C31.9,28.6,27.6,24.3,22.4,24.3L22.4,24.3z"/>
		</g>
	</g>
	<ellipse transform="matrix(0.821 -0.5709 0.5709 0.821 -13.0252 15.5126)" class="st26" cx="18.2" cy="28.5" rx="3.1" ry="1.2"/>
</g>
<g>
	<g>
		<circle class="st57" cx="36.1" cy="14.9" r="9"/>
		<path class="st58" d="M43.1,13.3c0,5-4,9-9,9c-1.8,0-3.4-0.5-4.8-1.4c1.6,1.9,4.1,3.1,6.8,3.1c5,0,9-4,9-9c0-3.2-1.7-6-4.2-7.6
			C42.3,8.9,43.1,11,43.1,13.3z"/>
	</g>
	<g>
		<g>
			<path d="M36.1,5.9c5,0,9,4,9,9s-4,9-9,9s-9-4-9-9S31.1,5.9,36.1,5.9 M36.1,5.4c-5.2,0-9.5,4.3-9.5,9.5c0,5.2,4.3,9.5,9.5,9.5
				c5.2,0,9.5-4.3,9.5-9.5C45.6,9.7,41.3,5.4,36.1,5.4L36.1,5.4z"/>
		</g>
	</g>
	<ellipse transform="matrix(0.821 -0.5709 0.5709 0.821 0.2145 19.9553)" class="st26" cx="31.9" cy="9.6" rx="3.1" ry="1.2"/>
</g>
</svg>
