<?xml version="1.0" encoding="utf-8"?>
<!-- Generator: Adobe Illustrator 25.2.3, SVG Export Plug-In . SVG Version: 6.00 Build 0)  -->
<svg version="1.1" id="Ebene_1" xmlns="http://www.w3.org/2000/svg" xmlns:xlink="http://www.w3.org/1999/xlink" x="0px" y="0px"
	 viewBox="0 0 83.2 75.7" style="enable-background:new 0 0 83.2 75.7;" xml:space="preserve">
<style type="text/css">
	.st0{fill:#F9EEDB;}
	.st1{opacity:0.44;}
	.st2{fill:none;stroke:#FF0000;stroke-miterlimit:10;}
	.st3{fill:#002CA4;}
	.st4{fill:#EEF2F3;}
	.st5{fill:none;stroke:#FFFFFF;stroke-miterlimit:10;}
	.st6{fill:#221F20;}
	.st7{fill:#E492B8;}
	.st8{fill:#F6E778;}
	.st9{fill:#94C9AD;}
	.st10{fill:#AEC4E3;}
	.st11{fill:#FFFFFF;stroke:#94C9AD;stroke-miterlimit:10;}
	.st12{fill:#94C9AD;stroke:#FFFFFF;stroke-miterlimit:10;}
	.st13{fill:#C6C5E0;}
	.st14{fill:#333333;}
	.st15{fill:none;stroke:#8AFF03;stroke-width:0.25;stroke-miterlimit:10;}
	.st16{fill:none;stroke:#8AFF03;stroke-miterlimit:10;}
	.st17{opacity:0.54;fill:#8AFF03;}
	.st18{opacity:0.7;}
	.st19{opacity:0.47;fill:#8AFF03;}
	.st20{opacity:0.24;fill:#8AFF03;}
	.st21{opacity:0.47;}
	.st22{fill:#8AFF03;}
	.st23{fill:#333333;stroke:#00FFFF;stroke-miterlimit:10;}
	.st24{fill:none;stroke:#00FFFF;stroke-miterlimit:10;}
	.st25{fill:#00FFFF;stroke:#00FFFF;stroke-miterlimit:10;}
	.st26{fill:#FFFFFF;}
	.st27{fill:#1168D9;}
	.st28{opacity:0.42;fill:#00FFFF;}
	.st29{fill:#1BCCC7;}
	.st30{fill:#D8E0F2;}
	.st31{fill:#020F59;}
	.st32{fill:#7787A6;}
	.st33{fill:#1168D9;stroke:#00FFFF;stroke-miterlimit:10;}
	.st34{fill:#0050E3;}
	.st35{fill:#FFA8A7;}
	.st36{fill:#FFCFD0;}
	.st37{fill:#0050E3;stroke:#1B1464;stroke-miterlimit:10;}
	.st38{fill:#00BAA5;}
	.st39{fill:#C7EAD7;}
	.st40{opacity:0.42;}
	.st41{fill:#00FFFF;}
	.st42{opacity:0.54;fill:#00FFFF;}
	.st43{opacity:0.54;fill:none;stroke:#00FFFF;stroke-miterlimit:10;}
	.st44{fill:#FF3627;}
	.st45{fill:#D80000;}
	.st46{fill:#1B9787;}
	.st47{fill:#FEFD87;}
	.st48{fill:#002D82;}
	.st49{fill:#00106A;}
	.st50{fill:#22B573;stroke:#000000;stroke-width:0.5;stroke-miterlimit:10;}
	.st51{fill:#FFFFFF;stroke:#000000;stroke-width:0.5;stroke-miterlimit:10;}
	.st52{fill:#FFD900;}
	.st53{fill:#DAB312;stroke:#000000;stroke-width:0.5;stroke-miterlimit:10;}
	.st54{fill:none;stroke:#000000;stroke-width:0.5;stroke-miterlimit:10;}
	.st55{fill:#ABBEBD;stroke:#000000;stroke-width:0.5;stroke-miterlimit:10;}
	.st56{fill:#AFDCDC;stroke:#000000;stroke-width:0.5;stroke-miterlimit:10;}
	.st57{fill:#FFBECA;}
	.st58{fill:#FFA5AE;}
	.st59{fill:#FFE7A0;stroke:#000000;stroke-width:0.5;stroke-miterlimit:10;}
</style>
<rect x="7.6" y="13.3" class="st7" width="59.3" height="42.3"/>
<path class="st50" d="M66.8,56.8H7.6V27.5c1.5,2.5,3.9,5.6,7.7,6.7c5.8,1.6,11.4-2.3,14.8-4.2c6.7-3.7,17.7-6.5,36.6-2.5
	C66.8,37.3,66.8,47.1,66.8,56.8z"/>
<g>
	<path class="st51" d="M69,58.3H4.7V11H69V58.3z M9.7,53.3H64V16H9.7V53.3z"/>
</g>
<rect x="17.1" y="9.2" transform="matrix(0.9754 0.2206 -0.2206 0.9754 7.8482 -9.5788)" class="st52" width="59.3" height="42.3"/>
<path class="st53" d="M70.6,58.7L12.9,45.6l6.5-28.6c0.9,2.8,2.6,6.3,6.1,8.2c5.3,2.8,11.7,0.3,15.4-0.8c7.4-2.1,18.7-2.5,36.3,5.6
	C74.9,39.6,72.8,49.2,70.6,58.7z"/>
<g>
	<path class="st51" d="M72.5,60.6L9.7,46.4L20.2,0.3l62.7,14.2L72.5,60.6z M15.7,42.7l53,12l8.2-36.4l-53-12L15.7,42.7z"/>
</g>
</svg>
