<?xml version="1.0" encoding="utf-8"?>
<!-- Generator: Adobe Illustrator 25.2.3, SVG Export Plug-In . SVG Version: 6.00 Build 0)  -->
<svg version="1.1" id="Ebene_1" xmlns="http://www.w3.org/2000/svg" xmlns:xlink="http://www.w3.org/1999/xlink" x="0px" y="0px"
	 viewBox="0 0 39.6 42.4" style="enable-background:new 0 0 39.6 42.4;" xml:space="preserve">
<style type="text/css">
	.st0{fill:#F9EEDB;}
	.st1{opacity:0.44;}
	.st2{fill:none;stroke:#FF0000;stroke-miterlimit:10;}
	.st3{fill:#002CA4;}
	.st4{fill:#EEF2F3;}
	.st5{fill:none;stroke:#FFFFFF;stroke-miterlimit:10;}
	.st6{fill:#221F20;}
	.st7{fill:#E492B8;}
	.st8{fill:#F6E778;}
	.st9{fill:#94C9AD;}
	.st10{fill:#AEC4E3;}
	.st11{fill:#FFFFFF;stroke:#94C9AD;stroke-miterlimit:10;}
	.st12{fill:#94C9AD;stroke:#FFFFFF;stroke-miterlimit:10;}
	.st13{fill:#C6C5E0;}
	.st14{fill:#333333;}
	.st15{fill:none;stroke:#8AFF03;stroke-width:0.25;stroke-miterlimit:10;}
	.st16{fill:none;stroke:#8AFF03;stroke-miterlimit:10;}
	.st17{opacity:0.54;fill:#8AFF03;}
	.st18{opacity:0.7;}
	.st19{opacity:0.47;fill:#8AFF03;}
	.st20{opacity:0.24;fill:#8AFF03;}
	.st21{opacity:0.47;}
	.st22{fill:#8AFF03;}
	.st23{fill:#333333;stroke:#00FFFF;stroke-miterlimit:10;}
	.st24{fill:none;stroke:#00FFFF;stroke-miterlimit:10;}
	.st25{fill:#00FFFF;stroke:#00FFFF;stroke-miterlimit:10;}
	.st26{fill:#FFFFFF;}
	.st27{fill:#1168D9;}
	.st28{opacity:0.42;fill:#00FFFF;}
	.st29{fill:#1BCCC7;}
	.st30{fill:#D8E0F2;}
	.st31{fill:#020F59;}
	.st32{fill:#7787A6;}
	.st33{fill:#1168D9;stroke:#00FFFF;stroke-miterlimit:10;}
	.st34{fill:#0050E3;}
	.st35{fill:#FFA8A7;}
	.st36{fill:#FFCFD0;}
	.st37{fill:#0050E3;stroke:#1B1464;stroke-miterlimit:10;}
	.st38{fill:#00BAA5;}
	.st39{fill:#C7EAD7;}
	.st40{opacity:0.42;}
	.st41{fill:#00FFFF;}
	.st42{opacity:0.54;fill:#00FFFF;}
	.st43{opacity:0.54;fill:none;stroke:#00FFFF;stroke-miterlimit:10;}
	.st44{fill:#FF3627;}
	.st45{fill:#D80000;}
	.st46{fill:#1B9787;}
	.st47{fill:#FEFD87;}
	.st48{fill:#002D82;}
	.st49{fill:#00106A;}
	.st50{fill:#22B573;stroke:#000000;stroke-width:0.5;stroke-miterlimit:10;}
	.st51{fill:#FFFFFF;stroke:#000000;stroke-width:0.5;stroke-miterlimit:10;}
	.st52{fill:#FFD900;}
	.st53{fill:#DAB312;stroke:#000000;stroke-width:0.5;stroke-miterlimit:10;}
	.st54{fill:none;stroke:#000000;stroke-width:0.5;stroke-miterlimit:10;}
	.st55{fill:#ABBEBD;stroke:#000000;stroke-width:0.5;stroke-miterlimit:10;}
	.st56{fill:#AFDCDC;stroke:#000000;stroke-width:0.5;stroke-miterlimit:10;}
	.st57{fill:#FFBECA;}
	.st58{fill:#FFA5AE;}
	.st59{fill:#FFE7A0;stroke:#000000;stroke-width:0.5;stroke-miterlimit:10;}
	.st60{fill:#FFE7A0;}
</style>
<g id="ClevZe_2_">
	<g>
		<path class="st60" d="M28.4,31.6c0.5-0.3,0.9-0.6,1.4-0.9c0.3-0.2,0.6-0.4,0.8-0.7c0.8-1,1.6-1.9,2.4-2.9c0.1-0.2,0.2-0.3,0.1-0.5
			c-0.5-1.5-0.9-2.9-1.4-4.4c-0.2-0.6-0.3-1.2-0.7-1.7c0,0,0-0.1,0-0.2c0.1-0.7,0.2-1.5,0.2-2.2c0-0.4,0-0.5-0.4-0.5
			c-0.6-0.1-1.3-0.2-1.9-0.3c-0.1,0-0.2-0.1-0.2-0.1c-0.3-0.3-0.7-0.6-1-0.9c-0.1-0.1-0.1-0.2-0.1-0.3c0.1-0.4,0.1-0.9,0.2-1.3
			c0-0.3,0-0.4-0.4-0.5c-2.1-0.4-4.2-0.8-6.3-1.1c-0.5-0.1-0.9-0.2-1.3-0.5c-0.6-0.4-1.2-0.7-1.8-1c-0.1-0.1-0.2-0.1-0.3-0.1
			c-0.6,0-1.2,0-1.9,0c-0.2,0-0.3,0.1-0.4,0.2c-0.4,0.5-0.7,1-1.1,1.5c-0.1,0.1-0.1,0.1-0.2,0.1c-0.7-0.2-1.3-0.5-2-0.7
			c-0.3-0.1-0.4-0.1-0.5,0.2c-1,1.9-1.9,3.8-2.9,5.6c0,0.1-0.1,0.2-0.1,0.3C8.4,19.5,8.2,20.2,8,21c-0.1,0.5-0.3,0.9-0.4,1.4
			c-0.1,1.2-0.2,2.5-0.3,3.7c0,0.2,0.1,0.3,0.2,0.4c0.6,0.3,1.1,0.7,1.7,1c0.1,0.1,0.2,0.2,0.2,0.2c0.3,0.7,0.5,1.3,0.8,2
			c0.1,0.2,0.2,0.3,0.4,0.4c0.8,0.5,1.6,1,2.4,1.5c0.1,0.1,0.2,0.1,0.3,0.2c1.2,1.2,2.4,2.5,3.6,3.7c0.1,0.1,0.2,0.2,0.3,0.2
			c1.2,0.6,2.4,1.2,3.7,1.9c0.3,0.2,0.4,0.1,0.6-0.2c0.6-1.2,1.2-2.4,1.9-3.5c0.2-0.4,0.2-0.3,0.6-0.3c0.2,0.1,0.5,0.1,0.7,0.1
			c0.9-0.1,1.8-0.2,2.7-0.3c0.7-0.1,1.4-0.2,2.1-0.2c0.2,0,0.3-0.1,0.3-0.2c0.1-0.2,0-0.3-0.2-0.4c-0.1-0.1-0.3-0.2-0.4-0.4
			C28.9,32.1,28.7,31.9,28.4,31.6z"/>
		<path d="M28.4,31.6c0.3,0.2,0.5,0.4,0.8,0.6c0.1,0.1,0.3,0.2,0.4,0.4c0.1,0.1,0.2,0.2,0.2,0.4c-0.1,0.2-0.2,0.2-0.3,0.2
			c-0.7,0.1-1.4,0.2-2.1,0.2c-0.9,0.1-1.8,0.2-2.7,0.3c-0.2,0-0.5-0.1-0.7-0.1c-0.4-0.1-0.4-0.1-0.6,0.3c-0.6,1.2-1.2,2.4-1.9,3.5
			c-0.2,0.3-0.3,0.4-0.6,0.2c-1.2-0.6-2.4-1.2-3.7-1.9c-0.1-0.1-0.2-0.1-0.3-0.2c-1.2-1.2-2.4-2.5-3.6-3.7c-0.1-0.1-0.2-0.2-0.3-0.2
			c-0.8-0.5-1.6-1-2.4-1.5c-0.2-0.1-0.3-0.2-0.4-0.4c-0.3-0.7-0.5-1.4-0.8-2c0-0.1-0.1-0.2-0.2-0.2c-0.6-0.3-1.1-0.7-1.7-1
			c-0.2-0.1-0.2-0.2-0.2-0.4c0.1-1.2,0.2-2.5,0.3-3.7C7.7,21.9,7.8,21.4,8,21c0.2-0.7,0.4-1.5,0.6-2.2c0-0.1,0.1-0.2,0.1-0.3
			c1-1.9,1.9-3.8,2.9-5.6c0.1-0.3,0.3-0.3,0.5-0.2c0.7,0.2,1.3,0.5,2,0.7c0.1,0,0.2,0,0.2-0.1c0.4-0.5,0.7-1,1.1-1.5
			c0.1-0.2,0.2-0.2,0.4-0.2c0.6,0,1.2,0,1.9,0c0.1,0,0.2,0,0.3,0.1c0.6,0.3,1.2,0.7,1.8,1c0.4,0.3,0.9,0.4,1.3,0.5
			c2.1,0.4,4.2,0.8,6.3,1.1c0.3,0.1,0.4,0.2,0.4,0.5c-0.1,0.4-0.1,0.9-0.2,1.3c0,0.1,0,0.2,0.1,0.3c0.3,0.3,0.7,0.6,1,0.9
			c0.1,0.1,0.1,0.1,0.2,0.1c0.6,0.1,1.3,0.2,1.9,0.3c0.4,0.1,0.4,0.2,0.4,0.5c-0.1,0.7-0.2,1.5-0.2,2.2c0,0.1,0,0.1,0,0.2
			c0.4,0.5,0.5,1.1,0.7,1.7c0.5,1.5,0.9,2.9,1.4,4.4c0.1,0.2,0,0.3-0.1,0.5c-0.8,1-1.6,1.9-2.4,2.9c-0.2,0.3-0.5,0.5-0.8,0.7
			C29.3,31,28.9,31.3,28.4,31.6z M29.9,18.2C29.9,18.2,29.9,18.2,29.9,18.2C29.9,18.2,29.9,18.2,29.9,18.2C29.4,18.1,29,18,28.6,18
			c-0.1,0-0.3-0.1-0.4,0c-0.6,0.1-1.3,0.2-1.9,0.4c-0.7,0.1-1.5,0.2-2.2,0.4c-3.1,0.8-6.2,1.7-9.3,2.6c-0.1,0-0.2,0.1-0.2,0.1
			c-0.9,0.8-1.7,1.5-2.6,2.3c-0.3,0.3-0.6,0.6-1,0.8c-0.8,0.5-1.6,0.9-2.5,1.3c-0.1,0.1-0.3,0.1-0.4,0.2c0.5,0.3,1,0.6,1.5,0.9
			c0.2,0.1,0.3,0.2,0.3,0.4c0.3,0.7,0.5,1.4,0.8,2.1c0,0.1,0.1,0.2,0.2,0.2c0.8,0.5,1.6,1,2.4,1.5c0.1,0.1,0.2,0.2,0.3,0.3
			c1.2,1.2,2.4,2.4,3.6,3.7c0.1,0.1,0.2,0.1,0.3,0.2c0.8,0.4,1.5,0.8,2.3,1.1c0.4,0.2,0.8,0.4,1.2,0.6c0.1-0.2,0.2-0.3,0.3-0.5
			c0.6-1.1,1.2-2.2,1.8-3.3c0.1-0.2,0.2-0.3,0.5-0.2c0.1,0,0.2,0,0.2,0c0.8-0.3,1.5-0.5,2.3-0.8c0.6-0.3,1.3-0.4,1.9-0.8
			c0.6-0.5,1.3-0.8,1.9-1.3c0.1,0,0.1-0.1,0.2-0.2c0.8-1,1.6-1.9,2.4-2.9c0.1-0.1,0.1-0.2,0.1-0.3c-0.5-1.7-1.1-3.5-1.6-5.2
			c-0.1-0.2-0.2-0.3-0.3-0.5c-0.6,0.3-1.2,0.6-1.8,0.9c-0.2,0.1-0.3,0.2-0.3,0.4c0,0.2-0.1,0.4-0.2,0.6c0,0.1-0.1,0.2-0.3,0.2
			c-0.7,0.1-1.3,0.3-2,0.4c-0.1,0-0.2,0.1-0.2,0.2c-0.1,1.1-0.1,2.2-0.2,3.3c0,0.1,0,0.2,0.1,0.3c0.2,0.4,0.4,0.8,0.6,1.2
			c0,0.1,0.1,0.1,0.2,0.2c0.6,0.5,1.2,1,1.8,1.5c0.1,0.1,0.3,0.2,0.4,0.4c-0.1,0.1-0.2,0.2-0.2,0.3c-0.7-0.6-1.4-1.2-2.2-1.8
			c0,0.1-0.1,0.1-0.1,0.2c-0.5,0.9-0.9,1.8-1.4,2.6c-0.1,0.2-0.2,0.2-0.3,0.3c-1.2,0.4-2.3,0.8-3.5,1.1c-0.1,0-0.2,0.1-0.1,0.2
			c0.2,0.8,0.3,1.6,0.5,2.3c0,0.1,0,0.1,0,0.2c-0.1,0-0.2,0-0.4,0.1c0-0.1,0-0.1,0-0.2c-0.2-0.9-0.3-1.7-0.5-2.6
			c-0.1-0.3,0-0.3,0.2-0.4c1.2-0.4,2.4-0.8,3.6-1.2c0.1,0,0.1-0.1,0.2-0.1c0.5-0.9,1-1.8,1.5-2.8c0-0.1,0-0.2,0-0.2
			c-0.2-0.4-0.4-0.7-0.6-1.1c-0.1-0.1-0.1-0.3-0.1-0.5c0.1-1.2,0.2-2.3,0.2-3.5c0-0.3,0-0.3,0.3-0.4c0.6-0.1,1.3-0.2,1.9-0.4
			c0.1,0,0.2-0.1,0.2-0.2c0.1-0.2,0.1-0.4,0.2-0.6c0-0.1,0.1-0.2,0.2-0.3c0.6-0.3,1.3-0.6,1.9-0.9c0.1,0,0.1-0.1,0.1-0.2
			c0.1-0.4,0.1-0.7,0.1-1.1c0-0.3,0.1-0.5,0.1-0.8c-0.2,0.1-0.4,0.1-0.7,0.1c-0.8,0.2-1.5,0.4-2.3,0.5c-0.1,0-0.2,0.1-0.3,0.2
			c-0.3,0.5-0.7,1-1,1.5c-0.1,0.2-0.3,0.3-0.5,0.5c-2.5,1.6-5,3.2-7.5,4.8c-0.1,0-0.1,0.1-0.2,0.2c-0.4,1.4-0.9,2.7-1.3,4.1
			c0,0.1,0,0.1-0.1,0.2c-0.1,0-0.2-0.1-0.4-0.1c0.4-1.3,0.8-2.6,1.3-3.9c-0.3,0.2-0.5,0.4-0.8,0.6c-1.1,0.9-2.2,1.8-3.2,2.7
			c-0.2,0.2-0.3,0.1-0.4,0c-0.3-0.4-0.7-0.8-1-1.2c-0.2-0.3-0.5-0.4-0.8-0.4c-0.2,0-0.3,0-0.3-0.3c-0.2-0.8-0.4-1.6-0.5-2.3
			c0-0.1-0.1-0.3-0.1-0.4c0.1,0,0.2-0.1,0.4-0.1c0,0.1,0,0.1,0.1,0.2c0.2,0.8,0.4,1.6,0.5,2.4c0,0.1,0.1,0.2,0.2,0.2
			c0.8,0,1.6,0,2.4,0c0.1,0,0.1,0,0.2,0c0,0.1,0,0.3,0,0.4c-0.6,0-1.2,0-1.8,0c0.4,0.4,0.7,0.8,1.1,1.2c0.5-0.4,1-0.9,1.5-1.3
			c1.2-1,2.4-2,3.7-2.8c2.3-1.5,4.7-3,7-4.5c0.1,0,0.1-0.1,0.1-0.1c0.4-0.5,0.7-1.1,1.1-1.6c0.1-0.1,0.2-0.2,0.3-0.2
			c0.4-0.1,0.8-0.2,1.2-0.3C28.9,18.5,29.4,18.4,29.9,18.2z M20.3,17.1c-0.1,0-0.1-0.1-0.2-0.1c-0.8-0.4-1.7-0.9-2.5-1.3
			c-0.6-0.3-1.1-0.6-1.7-0.9c-0.6-0.3-1.1-0.6-1.7-0.8c-0.7-0.2-1.3-0.4-1.9-0.7c-0.2-0.1-0.2,0-0.3,0.1c-0.8,1.7-1.7,3.3-2.6,5
			c-0.1,0.2-0.2,0.5-0.3,0.8c-0.2,0.7-0.4,1.5-0.6,2.2c-0.1,0.4-0.2,0.8-0.3,1.2c-0.1,0.9-0.2,1.7-0.2,2.6c0,0.1,0,0.3,0,0.5
			c0.1,0,0.1-0.1,0.2-0.1c0.8-0.4,1.7-0.9,2.5-1.3c0.2-0.1,0.4-0.2,0.6-0.4c0.8-0.7,1.7-1.5,2.5-2.2c0.3-0.2,0.5-0.5,0.8-0.7
			c1.3-0.9,2.7-1.8,4-2.7C19.1,17.9,19.7,17.5,20.3,17.1z M28,17.6C28,17.6,28,17.5,28,17.6c0-0.1-0.1-0.1-0.1-0.2
			c-0.3-0.2-0.5-0.5-0.8-0.7c-0.1-0.1-0.2-0.3-0.2-0.4c0.1-0.4,0.1-0.7,0.2-1.1c0-0.1,0-0.2,0-0.2c-0.1,0-0.1,0-0.1,0
			c-2.1-0.4-4.2-0.8-6.2-1.1c-0.4-0.1-0.7-0.2-1-0.4c-0.6-0.4-1.3-0.8-1.9-1.1c-0.1,0-0.2-0.1-0.2-0.1c-0.5,0-1,0-1.5,0
			c-0.1,0-0.2,0-0.2,0.1c-0.3,0.4-0.6,0.9-1,1.3c0,0-0.1,0.1-0.1,0.1c0,0,0.1,0,0.1,0.1c1.3,0.7,2.6,1.3,3.9,2c0.1,0,0.2,0,0.3,0
			c1.2-0.2,2.3-0.4,3.4-0.7c0.1,0,0.3,0,0.4,0c1,0.3,2,0.7,3,1.1c0.3,0.1,0.6,0.2,0.9,0.3c0,0.1-0.1,0.2-0.1,0.4c-0.1,0-0.1,0-0.2,0
			c-1.2-0.4-2.5-0.9-3.7-1.3c-0.1,0-0.2,0-0.3,0c-0.7,0.1-1.4,0.3-2.1,0.4c-0.3,0.1-0.6,0.1-1,0.2c0.1,0.1,0.1,0.1,0.2,0.1
			c0.4,0.2,0.7,0.4,1.1,0.5c0.2,0.1,0.2,0.3,0,0.4c0,0-0.1,0-0.1,0.1c-1.6,1.1-3.2,2.1-4.8,3.2c0,0-0.1,0.1-0.1,0.1
			c0.1,0,0.2,0,0.2,0c1.8-0.5,3.6-1,5.4-1.5c1.4-0.4,2.9-0.8,4.3-1.1C26.5,17.9,27.3,17.7,28,17.6z M28.6,32.7
			c-0.3-0.3-0.6-0.5-0.9-0.8c0,0-0.1,0-0.2,0c-1.1,0.4-2.1,0.7-3.2,1.1c0,0-0.1,0-0.1,0.1C24.4,33.2,28.2,32.8,28.6,32.7z"/>
		<path d="M19.6,28.3c0.1,0,0.2,0.1,0.4,0.1c-0.1,0.3-0.2,0.6-0.3,0.8c-0.2,0.5-0.4,1.1-0.6,1.6c0,0.1,0,0.2,0,0.4
			c0.1,0.5,0.2,0.9,0.3,1.4c0,0,0,0.1,0,0.1c-0.1,0-0.2,0-0.4,0.1c-0.1-0.4-0.1-0.9-0.2-1.3c-0.1-0.4-0.1-0.7,0.1-1.1
			c0.3-0.7,0.5-1.3,0.7-2C19.5,28.4,19.5,28.3,19.6,28.3z"/>
	</g>
</g>
</svg>
