<?xml version="1.0" encoding="utf-8"?>
<!-- Generator: Adobe Illustrator 25.2.3, SVG Export Plug-In . SVG Version: 6.00 Build 0)  -->
<svg version="1.1" id="Ebene_1" xmlns="http://www.w3.org/2000/svg" xmlns:xlink="http://www.w3.org/1999/xlink" x="0px" y="0px"
	 viewBox="0 0 55.9 72" style="enable-background:new 0 0 55.9 72;" xml:space="preserve">
<style type="text/css">
	.st0{fill:#F9EEDB;}
	.st1{opacity:0.44;}
	.st2{fill:none;stroke:#FF0000;stroke-miterlimit:10;}
	.st3{fill:#002CA4;}
	.st4{fill:#EEF2F3;}
	.st5{fill:none;stroke:#FFFFFF;stroke-miterlimit:10;}
	.st6{fill:#221F20;}
	.st7{fill:#E492B8;}
	.st8{fill:#F6E778;}
	.st9{fill:#94C9AD;}
	.st10{fill:#AEC4E3;}
	.st11{fill:#FFFFFF;stroke:#94C9AD;stroke-miterlimit:10;}
	.st12{fill:#94C9AD;stroke:#FFFFFF;stroke-miterlimit:10;}
	.st13{fill:#C6C5E0;}
	.st14{fill:#333333;}
	.st15{fill:none;stroke:#8AFF03;stroke-width:0.25;stroke-miterlimit:10;}
	.st16{fill:none;stroke:#8AFF03;stroke-miterlimit:10;}
	.st17{opacity:0.54;fill:#8AFF03;}
	.st18{opacity:0.7;}
	.st19{opacity:0.47;fill:#8AFF03;}
	.st20{opacity:0.24;fill:#8AFF03;}
	.st21{opacity:0.47;}
	.st22{fill:#8AFF03;}
	.st23{fill:#333333;stroke:#00FFFF;stroke-miterlimit:10;}
	.st24{fill:none;stroke:#00FFFF;stroke-miterlimit:10;}
	.st25{fill:#00FFFF;stroke:#00FFFF;stroke-miterlimit:10;}
	.st26{fill:#FFFFFF;}
	.st27{fill:#1168D9;}
	.st28{opacity:0.42;fill:#00FFFF;}
	.st29{fill:#1BCCC7;}
	.st30{fill:#D8E0F2;}
	.st31{fill:#020F59;}
	.st32{fill:#7787A6;}
	.st33{fill:#1168D9;stroke:#00FFFF;stroke-miterlimit:10;}
	.st34{fill:#0050E3;}
	.st35{fill:#FFA8A7;}
	.st36{fill:#FFCFD0;}
	.st37{fill:#0050E3;stroke:#1B1464;stroke-miterlimit:10;}
	.st38{fill:#00BAA5;}
	.st39{fill:#C7EAD7;}
	.st40{opacity:0.42;}
	.st41{fill:#00FFFF;}
	.st42{opacity:0.54;fill:#00FFFF;}
	.st43{opacity:0.54;fill:none;stroke:#00FFFF;stroke-miterlimit:10;}
	.st44{fill:#FF3627;}
	.st45{fill:#D80000;}
	.st46{fill:#1B9787;}
	.st47{fill:#FEFD87;}
	.st48{fill:#002D82;}
	.st49{fill:#00106A;}
	.st50{fill:#22B573;stroke:#000000;stroke-width:0.5;stroke-miterlimit:10;}
	.st51{fill:#FFFFFF;stroke:#000000;stroke-width:0.5;stroke-miterlimit:10;}
	.st52{fill:#FFD900;}
	.st53{fill:#DAB312;stroke:#000000;stroke-width:0.5;stroke-miterlimit:10;}
	.st54{fill:none;stroke:#000000;stroke-width:0.5;stroke-miterlimit:10;}
	.st55{fill:#ABBEBD;stroke:#000000;stroke-width:0.5;stroke-miterlimit:10;}
	.st56{fill:#AFDCDC;stroke:#000000;stroke-width:0.5;stroke-miterlimit:10;}
	.st57{fill:#FFBECA;}
	.st58{fill:#FFA5AE;}
	.st59{fill:#FFE7A0;stroke:#000000;stroke-width:0.5;stroke-miterlimit:10;}
</style>
<g>
	<rect x="5.7" y="8" transform="matrix(0.9915 0.1301 -0.1301 0.9915 5.247 -3.4167)" class="st51" width="46.1" height="60.9"/>
	<rect x="5" y="7" transform="matrix(0.9915 0.1301 -0.1301 0.9915 5.1128 -3.3269)" class="st51" width="46.1" height="60.9"/>
	<rect x="4" y="6" transform="matrix(0.9915 0.1301 -0.1301 0.9915 4.9741 -3.2146)" class="st51" width="46.1" height="60.9"/>
	<path class="st54" d="M17.1,4.6c0.5-1.1,0.4-2.3-0.3-3.2c-0.6-0.8-1.5-1.1-1.8-1.1c-2.1-0.2-3.9,1.1-4.3,2.8
		c-0.3,1.3,0.2,2.6,1.3,3.5"/>
	<path class="st54" d="M20.9,5.1c0.5-1.1,0.4-2.3-0.3-3.2c-0.6-0.8-1.5-1.1-1.8-1.1c-2.1-0.2-3.9,1.1-4.3,2.8
		c-0.3,1.3,0.2,2.6,1.3,3.5"/>
	<path class="st54" d="M24.7,5.6c0.5-1.1,0.4-2.3-0.3-3.2c-0.6-0.8-1.5-1.1-1.8-1.1c-2.1-0.2-3.9,1.1-4.3,2.8
		c-0.3,1.3,0.2,2.6,1.3,3.5"/>
	<path class="st54" d="M28.5,6.1C29,5,28.9,3.8,28.2,2.9c-0.6-0.8-1.5-1.1-1.8-1.1c-2.1-0.2-3.9,1.1-4.3,2.8
		c-0.3,1.3,0.2,2.6,1.3,3.5"/>
	<path class="st54" d="M32.3,6.6c0.5-1.1,0.4-2.3-0.3-3.2c-0.6-0.8-1.5-1.1-1.8-1.1c-2.1-0.2-3.9,1.1-4.3,2.8
		c-0.3,1.3,0.2,2.6,1.3,3.5"/>
	<path class="st54" d="M36,7.1c0.5-1.1,0.4-2.3-0.3-3.2C35.1,3,34.2,2.8,34,2.8c-2.1-0.2-3.9,1.1-4.3,2.8C29.4,6.8,30,8.2,31,9.1"/>
	<path class="st54" d="M39.8,7.6c0.5-1.1,0.4-2.3-0.3-3.2c-0.6-0.8-1.5-1.1-1.8-1.1c-2.1-0.2-3.9,1.1-4.3,2.8
		c-0.3,1.3,0.2,2.6,1.3,3.5"/>
	<path class="st54" d="M43.6,8.1C44.1,7,44,5.8,43.3,4.9c-0.6-0.8-1.5-1.1-1.8-1.1c-2.1-0.2-3.9,1.1-4.3,2.8
		c-0.3,1.3,0.2,2.6,1.3,3.5"/>
	<path class="st54" d="M47.4,8.6c0.5-1.1,0.4-2.3-0.3-3.2c-0.6-0.8-1.5-1.1-1.8-1.1C43.2,4,41.4,5.3,41.1,7
		c-0.3,1.3,0.2,2.6,1.3,3.5"/>
	<path class="st54" d="M51.2,9.1c0.5-1.1,0.4-2.3-0.3-3.2c-0.6-0.8-1.5-1.1-1.8-1.1c-2.1-0.2-3.9,1.1-4.3,2.8
		c-0.3,1.3,0.2,2.6,1.3,3.5"/>
</g>
</svg>
