<?xml version="1.0" encoding="utf-8"?>
<!-- Generator: Adobe Illustrator 25.2.3, SVG Export Plug-In . SVG Version: 6.00 Build 0)  -->
<svg version="1.1" xmlns="http://www.w3.org/2000/svg" xmlns:xlink="http://www.w3.org/1999/xlink" x="0px" y="0px"
	 viewBox="0 0 55.9 72" style="enable-background:new 0 0 55.9 72;" xml:space="preserve">
<style type="text/css">
	.st0{fill:#1F1FFF;}
	.st1{fill:#585957;stroke:#000000;stroke-width:0.5;stroke-miterlimit:10;}
	.st2{fill:#FF9A93;stroke:#000000;stroke-width:0.5;stroke-miterlimit:10;}
	.st3{fill:#F0F0F0;}
	.st4{fill:#ABBEBD;stroke:#000000;stroke-width:0.5;stroke-miterlimit:10;}
	.st5{fill:#FFFFFF;stroke:#000000;stroke-width:0.5;stroke-miterlimit:10;}
	.st6{fill:none;stroke:#000000;stroke-width:0.5;stroke-miterlimit:10;}
	.st7{fill:#F14564;}
	.st8{fill:#AFDCDC;stroke:#000000;stroke-width:0.5;stroke-miterlimit:10;}
	.st9{fill:#75C9DF;}
	.st10{opacity:0.23;fill:#585957;}
	.st11{fill:#8DCBC3;}
	.st12{fill:#AFDCDC;}
	.st13{fill:#F9EEDB;}
	.st14{opacity:0.44;}
	.st15{fill:none;stroke:#FF0000;stroke-miterlimit:10;}
	.st16{fill:#002CA4;}
	.st17{fill:#0050E3;}
	.st18{fill:#FFA8A7;}
	.st19{fill:#FFCFD0;}
	.st20{fill:#0050E3;stroke:#1B1464;stroke-miterlimit:10;}
	.st21{fill:#00BAA5;}
	.st22{fill:#C7EAD7;}
	.st23{fill:#FF3627;}
	.st24{fill:#D80000;}
	.st25{fill:#1B9787;}
	.st26{fill:#FEFD87;}
	.st27{fill:#002D82;}
	.st28{fill:#00106A;}
	.st29{fill:#E492B8;}
	.st30{fill:#22B573;stroke:#000000;stroke-width:0.5;stroke-miterlimit:10;}
	.st31{fill:#FFD900;}
	.st32{fill:#DAB312;stroke:#000000;stroke-width:0.5;stroke-miterlimit:10;}
	.st33{fill:#FF9A93;}
	.st34{fill:#FEFEC3;}
	.st35{fill:#FFBECA;}
	.st36{fill:#FFA5AE;}
	.st37{fill:#FFFFFF;}
	.st38{fill:#8FBC9C;}
	.st39{fill:none;stroke:#000000;stroke-width:0.25;stroke-miterlimit:10;}
	.st40{opacity:0.32;fill:#585957;}
	.st41{fill:none;stroke:#000000;stroke-width:2;stroke-miterlimit:10;}
	.st42{fill:#FEFEC3;stroke:#000000;stroke-width:0.5;stroke-miterlimit:10;}
	.st43{opacity:0.84;}
	.st44{fill:#FF1D25;}
	.st45{opacity:0.53;fill:#FF0000;stroke:#1F1FFF;stroke-miterlimit:10;}
	.st46{fill:#FCF6ED;stroke:#000000;stroke-miterlimit:10;}
	.st47{fill:#7F7F7F;stroke:#000000;stroke-miterlimit:10;}
	.st48{opacity:0.12;}
	.st49{fill:#008072;stroke:#000000;stroke-width:0.75;stroke-miterlimit:10;}
	.st50{fill:#FFE7A0;stroke:#000000;stroke-width:0.75;stroke-miterlimit:10;}
	.st51{fill:#FFA5AE;stroke:#000000;stroke-width:0.75;stroke-miterlimit:10;}
	.st52{fill:none;stroke:#000000;stroke-width:3;stroke-miterlimit:10;}
	.st53{fill:#FFA5AE;stroke:#000000;stroke-width:0.1;stroke-miterlimit:10;}
	.st54{fill:#FF0000;}
	.st55{fill:#ABBEBD;stroke:#000000;stroke-width:0.25;stroke-miterlimit:10;}
	.st56{opacity:0.6;fill:#FFFFFF;}
	.st57{fill:#FF4A3D;}
	.st58{fill:none;stroke:#000000;stroke-width:0.75;stroke-miterlimit:10;}
	.st59{fill:#FEF7EF;stroke:#000000;stroke-width:0.75;stroke-miterlimit:10;}
	.st60{fill:none;stroke:#000000;stroke-width:0.75;stroke-linecap:round;stroke-miterlimit:10;}
	.st61{fill:#FFFFFF;stroke:#000000;stroke-width:0.75;stroke-miterlimit:10;}
	.st62{fill:#DBDAD2;stroke:#000000;stroke-width:0.5;stroke-miterlimit:10;}
	.st63{fill:#FF4A3D;stroke:#000000;stroke-width:0.5;stroke-linecap:round;stroke-miterlimit:10;}
	.st64{fill:none;stroke:#000000;stroke-width:0.5;stroke-linecap:round;stroke-miterlimit:10;}
</style>
<g id="Ebene_2">
</g>
<g id="Ebene_1">
	<g>
		<rect x="5.7" y="8" transform="matrix(0.9915 0.1301 -0.1301 0.9915 5.247 -3.4167)" class="st5" width="46.1" height="60.9"/>
		<rect x="5" y="7" transform="matrix(0.9915 0.1301 -0.1301 0.9915 5.1128 -3.3269)" class="st5" width="46.1" height="60.9"/>
		<rect x="4" y="6" transform="matrix(0.9915 0.1301 -0.1301 0.9915 4.9741 -3.2146)" class="st5" width="46.1" height="60.9"/>
		<path class="st6" d="M17.1,4.6c0.5-1.1,0.4-2.3-0.3-3.2c-0.6-0.8-1.5-1.1-1.8-1.1c-2.1-0.2-3.9,1.1-4.3,2.8
			c-0.3,1.3,0.2,2.6,1.3,3.5"/>
		<path class="st6" d="M20.9,5.1c0.5-1.1,0.4-2.3-0.3-3.2c-0.6-0.8-1.5-1.1-1.8-1.1c-2.1-0.2-3.9,1.1-4.3,2.8
			c-0.3,1.3,0.2,2.6,1.3,3.5"/>
		<path class="st6" d="M24.7,5.6c0.5-1.1,0.4-2.3-0.3-3.2c-0.6-0.8-1.5-1.1-1.8-1.1c-2.1-0.2-3.9,1.1-4.3,2.8
			c-0.3,1.3,0.2,2.6,1.3,3.5"/>
		<path class="st6" d="M28.5,6.1C29,5,28.9,3.8,28.2,2.9c-0.6-0.8-1.5-1.1-1.8-1.1c-2.1-0.2-3.9,1.1-4.3,2.8
			c-0.3,1.3,0.2,2.6,1.3,3.5"/>
		<path class="st6" d="M32.3,6.6c0.5-1.1,0.4-2.3-0.3-3.2c-0.6-0.8-1.5-1.1-1.8-1.1c-2.1-0.2-3.9,1.1-4.3,2.8
			c-0.3,1.3,0.2,2.6,1.3,3.5"/>
		<path class="st6" d="M36,7.1c0.5-1.1,0.4-2.3-0.3-3.2C35.1,3,34.2,2.8,34,2.8c-2.1-0.2-3.9,1.1-4.3,2.8C29.4,6.8,30,8.2,31,9.1"/>
		<path class="st6" d="M39.8,7.6c0.5-1.1,0.4-2.3-0.3-3.2c-0.6-0.8-1.5-1.1-1.8-1.1c-2.1-0.2-3.9,1.1-4.3,2.8
			c-0.3,1.3,0.2,2.6,1.3,3.5"/>
		<path class="st6" d="M43.6,8.1C44.1,7,44,5.8,43.3,4.9c-0.6-0.8-1.5-1.1-1.8-1.1c-2.1-0.2-3.9,1.1-4.3,2.8
			c-0.3,1.3,0.2,2.6,1.3,3.5"/>
		<path class="st6" d="M47.4,8.6c0.5-1.1,0.4-2.3-0.3-3.2c-0.6-0.8-1.5-1.1-1.8-1.1C43.2,4,41.4,5.3,41.1,7
			c-0.3,1.3,0.2,2.6,1.3,3.5"/>
		<path class="st6" d="M51.2,9.1c0.5-1.1,0.4-2.3-0.3-3.2c-0.6-0.8-1.5-1.1-1.8-1.1c-2.1-0.2-3.9,1.1-4.3,2.8
			c-0.3,1.3,0.2,2.6,1.3,3.5"/>
	</g>
</g>
</svg>
