<?xml version="1.0" encoding="utf-8"?>
<!-- Generator: Adobe Illustrator 25.2.1, SVG Export Plug-In . SVG Version: 6.00 Build 0)  -->
<svg version="1.1" id="Ebene_1" xmlns="http://www.w3.org/2000/svg" xmlns:xlink="http://www.w3.org/1999/xlink" x="0px" y="0px"
	 viewBox="0 0 57.8 47.2" style="enable-background:new 0 0 57.8 47.2;" xml:space="preserve">
<style type="text/css">
	.st0{fill:#EEF2F3;}
	.st1{fill:none;stroke:#FFFFFF;stroke-miterlimit:10;}
	.st2{fill:#221F20;}
	.st3{fill:#E492B8;}
	.st4{fill:#F6E778;}
	.st5{fill:#94C9AD;}
	.st6{fill:#AEC4E3;}
	.st7{fill:#FFFFFF;stroke:#94C9AD;stroke-miterlimit:10;}
	.st8{fill:#94C9AD;stroke:#FFFFFF;stroke-miterlimit:10;}
	.st9{fill:#C6C5E0;}
	.st10{fill:#333333;}
	.st11{opacity:0.44;}
	.st12{fill:none;stroke:#8AFF03;stroke-width:0.25;stroke-miterlimit:10;}
	.st13{fill:none;stroke:#8AFF03;stroke-miterlimit:10;}
	.st14{opacity:0.54;fill:#8AFF03;}
	.st15{opacity:0.7;}
	.st16{opacity:0.47;fill:#8AFF03;}
	.st17{opacity:0.24;fill:#8AFF03;}
	.st18{opacity:0.47;}
	.st19{fill:#8AFF03;}
	.st20{fill:#333333;stroke:#00FFFF;stroke-miterlimit:10;}
	.st21{fill:none;stroke:#00FFFF;stroke-miterlimit:10;}
	.st22{fill:#00FFFF;stroke:#00FFFF;stroke-miterlimit:10;}
	.st23{fill:#FFFFFF;}
	.st24{fill:#1168D9;}
	.st25{opacity:0.42;fill:#00FFFF;}
	.st26{fill:#1BCCC7;}
	.st27{fill:#D8E0F2;}
	.st28{fill:#020F59;}
	.st29{fill:#7787A6;}
	.st30{fill:#1168D9;stroke:#00FFFF;stroke-miterlimit:10;}
	.st31{opacity:0.42;}
	.st32{fill:#00FFFF;}
	.st33{opacity:0.54;fill:#00FFFF;}
	.st34{opacity:0.54;fill:none;stroke:#00FFFF;stroke-miterlimit:10;}
</style>
<g>
	<g>
		<g>
			<path class="st21" d="M48.2,48.6H2.5c-1,0-1.8-0.8-1.8-1.8L0.6,7.4c0-0.3,0.1-0.6,0.2-0.8l1.6-3.2c0.3-0.6,1-1,1.7-1l11.3,0.1
				c0.6,0,1.2,0.3,1.5,0.8l2,2.9C19.1,6.7,19.6,7,20.2,7h28c1,0,1.8,0.8,1.8,1.8v38C50.1,47.8,49.2,48.6,48.2,48.6z"/>
			<path class="st21" d="M48,48.6H2.8c-1.1,0-2-1-1.7-2.1l7.5-35.1c0.2-0.8,0.9-1.4,1.7-1.4h45.2c1.1,0,2,1,1.7,2.1l-7.5,35.1
				C49.6,48,48.9,48.6,48,48.6z"/>
		</g>
	</g>
	<g class="st31">
		<g>
			<path class="st32" d="M47.7,48.2H1.9c-1,0-1.8-0.8-1.8-1.8L0,7c0-0.3,0.1-0.6,0.2-0.8L1.7,3c0.3-0.6,1-1,1.7-1L14.7,2
				c0.6,0,1.2,0.3,1.5,0.8l2,2.9c0.3,0.5,0.9,0.8,1.5,0.8h28c1,0,1.8,0.8,1.8,1.8v38C49.5,47.3,48.7,48.2,47.7,48.2z"/>
			<path class="st32" d="M47.5,48.2H2.3c-1.1,0-2-1-1.7-2.1L8,10.9c0.2-0.8,0.9-1.4,1.7-1.4h45.2c1.1,0,2,1,1.7,2.1l-7.5,35.1
				C49,47.6,48.3,48.2,47.5,48.2z"/>
		</g>
	</g>
</g>
</svg>
