<?xml version="1.0" encoding="utf-8"?>
<!-- Generator: Adobe Illustrator 25.2.3, SVG Export Plug-In . SVG Version: 6.00 Build 0)  -->
<svg version="1.1" xmlns="http://www.w3.org/2000/svg" xmlns:xlink="http://www.w3.org/1999/xlink" x="0px" y="0px"
	 viewBox="0 0 56.6 51.5" style="enable-background:new 0 0 56.6 51.5;" xml:space="preserve">
<style type="text/css">
	.st0{fill:#1F1FFF;}
	.st1{fill:none;stroke:#000000;stroke-width:2;stroke-miterlimit:10;}
	.st2{fill:#F9EEDB;}
	.st3{opacity:0.44;}
	.st4{fill:none;stroke:#FF0000;stroke-miterlimit:10;}
	.st5{fill:#002CA4;}
	.st6{fill:#EEF2F3;}
	.st7{fill:none;stroke:#FFFFFF;stroke-miterlimit:10;}
	.st8{fill:#221F20;}
	.st9{fill:#E492B8;}
	.st10{fill:#F6E778;}
	.st11{fill:#94C9AD;}
	.st12{fill:#AEC4E3;}
	.st13{fill:#FFFFFF;stroke:#94C9AD;stroke-miterlimit:10;}
	.st14{fill:#94C9AD;stroke:#FFFFFF;stroke-miterlimit:10;}
	.st15{fill:#C6C5E0;}
	.st16{fill:#333333;}
	.st17{fill:none;stroke:#8AFF03;stroke-width:0.25;stroke-miterlimit:10;}
	.st18{fill:none;stroke:#8AFF03;stroke-miterlimit:10;}
	.st19{opacity:0.54;fill:#8AFF03;}
	.st20{opacity:0.7;}
	.st21{opacity:0.47;fill:#8AFF03;}
	.st22{opacity:0.24;fill:#8AFF03;}
	.st23{opacity:0.47;}
	.st24{fill:#8AFF03;}
	.st25{fill:#333333;stroke:#00FFFF;stroke-miterlimit:10;}
	.st26{fill:none;stroke:#00FFFF;stroke-miterlimit:10;}
	.st27{fill:#00FFFF;stroke:#00FFFF;stroke-miterlimit:10;}
	.st28{fill:#FFFFFF;}
	.st29{fill:#1168D9;}
	.st30{opacity:0.42;fill:#00FFFF;}
	.st31{fill:#1BCCC7;}
	.st32{fill:#D8E0F2;}
	.st33{fill:#020F59;}
	.st34{fill:#7787A6;}
	.st35{fill:#1168D9;stroke:#00FFFF;stroke-miterlimit:10;}
	.st36{fill:#0050E3;}
	.st37{fill:#FFA8A7;}
	.st38{fill:#FFCFD0;}
	.st39{fill:#0050E3;stroke:#1B1464;stroke-miterlimit:10;}
	.st40{fill:#00BAA5;}
	.st41{fill:#C7EAD7;}
	.st42{opacity:0.42;}
	.st43{fill:#00FFFF;}
	.st44{opacity:0.54;fill:#00FFFF;}
	.st45{opacity:0.54;fill:none;stroke:#00FFFF;stroke-miterlimit:10;}
	.st46{fill:#FF3627;}
	.st47{fill:#D80000;}
	.st48{fill:#1B9787;}
	.st49{fill:#FEFD87;}
	.st50{fill:#002D82;}
	.st51{fill:#00106A;}
	.st52{fill:#22B573;stroke:#000000;stroke-width:0.5;stroke-miterlimit:10;}
	.st53{fill:#FFFFFF;stroke:#000000;stroke-width:0.5;stroke-miterlimit:10;}
	.st54{fill:#FFD900;}
	.st55{fill:#DAB312;stroke:#000000;stroke-width:0.5;stroke-miterlimit:10;}
	.st56{fill:none;stroke:#000000;stroke-width:0.5;stroke-miterlimit:10;}
	.st57{fill:#ABBEBD;stroke:#000000;stroke-width:0.5;stroke-miterlimit:10;}
	.st58{fill:#AFDCDC;stroke:#000000;stroke-width:0.5;stroke-miterlimit:10;}
	.st59{fill:#FFBECA;}
	.st60{fill:#FFA5AE;}
	.st61{fill:#FFE7A0;stroke:#000000;stroke-width:0.5;stroke-miterlimit:10;}
	.st62{fill:#FFE7A0;}
	.st63{fill:#FF1D25;}
	.st64{opacity:0.67;fill:#FF0000;stroke:#1F1FFF;stroke-miterlimit:10;}
	.st65{fill:#DBDAD2;stroke:#000000;stroke-width:0.75;stroke-miterlimit:10;}
	.st66{fill:#ABBEBD;stroke:#000000;stroke-width:0.75;stroke-miterlimit:10;}
	.st67{opacity:0.12;}
	.st68{fill:#008072;stroke:#000000;stroke-width:0.75;stroke-miterlimit:10;}
	.st69{fill:#FFE7A0;stroke:#000000;stroke-width:0.75;stroke-miterlimit:10;}
	.st70{fill:#FFA5AE;stroke:#000000;stroke-width:0.75;stroke-miterlimit:10;}
	.st71{stroke:#000000;stroke-width:2;stroke-miterlimit:10;}
	.st72{fill:none;stroke:#000000;stroke-width:3;stroke-miterlimit:10;}
	.st73{fill:none;stroke:#FF0000;stroke-width:1.000000e-02;stroke-miterlimit:10;}
	.st74{fill:none;stroke:#000000;stroke-width:4;stroke-miterlimit:10;}
	.st75{fill:none;stroke:#000000;stroke-width:5;stroke-miterlimit:10;}
	.st76{fill:#FF0000;}
	.st77{fill:#C1272D;}
	.st78{fill:#75C9DF;}
</style>
<g id="Ebene_2">
</g>
<g id="Ebene_1">
	<g>
		<path class="st67" d="M41.2,40.6L17,50.7c-0.7,0.3-1.6,0-1.9-0.8L0.4,14.4c-0.3-0.7,0-1.6,0.8-1.9l24.2-10c0.7-0.3,1.6,0,1.9,0.8
			L42,38.8C42.3,39.5,42,40.3,41.2,40.6z"/>
		<path class="st58" d="M42.5,38.8l-24.2,10c-0.7,0.3-1.6,0-1.9-0.8L1.7,12.5c-0.3-0.7,0-1.6,0.8-1.9l24.2-10c0.7-0.3,1.6,0,1.9,0.8
			l14.7,35.5C43.6,37.6,43.2,38.4,42.5,38.8z"/>
		<g>
			<path class="st69" d="M20.2,29.6c-1.3-3.2-1.1-4.9,0.6-7.8c1-1.8,2.2-3.2,1.2-5.6c-0.8-1.8-2.3-2.3-3.9-1.6
				c-1.2,0.5-2.8,1.6-4.4,3.2l-2.5-3.6c1.7-1.6,3.5-2.9,5.6-3.8c5.2-2.1,8.3-0.3,9.9,3.5c1.6,3.9,0.3,6.5-1.4,9.5
				c-1.1,1.7-1.6,2.5-0.9,4.2l1.9,4.7l-3.9,1.6C22,33.1,20.7,30.6,20.2,29.6z M23.6,39.9c-0.6-1.5,0-3.3,1.7-4
				c1.9-0.8,3.5,0,4.1,1.5c0.6,1.5,0.1,3.3-1.7,4.1C25.9,42.3,24.3,41.5,23.6,39.9z"/>
		</g>
		<path class="st67" d="M40.7,51.1l-25-7.9c-0.8-0.2-1.2-1-0.9-1.8L26.3,4.7c0.2-0.8,1-1.2,1.8-0.9l25,7.9c0.8,0.2,1.2,1,0.9,1.8
			L42.5,50.2C42.2,50.9,41.4,51.3,40.7,51.1z"/>
		<path class="st58" d="M42.7,50l-25-7.9c-0.8-0.2-1.2-1-0.9-1.8L28.3,3.6c0.2-0.8,1-1.2,1.8-0.9l25,7.9c0.8,0.2,1.2,1,0.9,1.8
			L44.5,49.1C44.3,49.8,43.4,50.3,42.7,50z"/>
		<g>
			<path class="st70" d="M31.6,28.7c1.1-3.4,2.3-4.5,5.5-5.5c2-0.7,3.7-1.1,4.5-3.5c0.6-1.9-0.3-3.3-2-3.8c-1.2-0.4-3.2-0.6-5.4-0.4
				l0.4-4.3c2.3-0.1,4.5,0,6.7,0.7c5.3,1.7,6.6,5.1,5.4,9c-1.3,4.1-4,5.2-7.2,6.3c-1.9,0.6-2.9,0.9-3.4,2.7l-1.5,4.9l-4.1-1.3
				C30.6,32.5,31.2,29.8,31.6,28.7z M27.5,38.8c0.5-1.6,2.2-2.5,3.9-2c1.9,0.6,2.7,2.2,2.2,3.8c-0.5,1.6-2,2.6-3.9,2.1
				C27.7,42.1,27,40.4,27.5,38.8z"/>
		</g>
	</g>
</g>
</svg>
