<?xml version="1.0" encoding="utf-8"?>
<!-- Generator: Adobe Illustrator 25.2.1, SVG Export Plug-In . SVG Version: 6.00 Build 0)  -->
<svg version="1.1" id="Ebene_1" xmlns="http://www.w3.org/2000/svg" xmlns:xlink="http://www.w3.org/1999/xlink" x="0px" y="0px"
	 viewBox="0 0 79.5 68.9" style="enable-background:new 0 0 79.5 68.9;" xml:space="preserve">
<style type="text/css">
	.st0{fill:#EEF2F3;}
	.st1{fill:none;stroke:#FFFFFF;stroke-miterlimit:10;}
	.st2{fill:#221F20;}
	.st3{fill:#E492B8;}
	.st4{fill:#F6E778;}
	.st5{fill:#94C9AD;}
	.st6{fill:#AEC4E3;}
	.st7{fill:#FFFFFF;stroke:#94C9AD;stroke-miterlimit:10;}
	.st8{fill:#94C9AD;stroke:#FFFFFF;stroke-miterlimit:10;}
	.st9{fill:#C6C5E0;}
	.st10{fill:#333333;}
	.st11{opacity:0.44;}
	.st12{fill:none;stroke:#8AFF03;stroke-width:0.25;stroke-miterlimit:10;}
	.st13{fill:none;stroke:#8AFF03;stroke-miterlimit:10;}
	.st14{opacity:0.54;fill:#8AFF03;}
	.st15{opacity:0.7;}
	.st16{opacity:0.47;fill:#8AFF03;}
	.st17{opacity:0.24;fill:#8AFF03;}
	.st18{opacity:0.47;}
	.st19{fill:#8AFF03;}
	.st20{fill:#333333;stroke:#00FFFF;stroke-miterlimit:10;}
	.st21{fill:none;stroke:#00FFFF;stroke-miterlimit:10;}
	.st22{fill:#00FFFF;stroke:#00FFFF;stroke-miterlimit:10;}
	.st23{fill:#FFFFFF;}
	.st24{fill:#1168D9;}
	.st25{opacity:0.42;fill:#00FFFF;}
	.st26{fill:#1BCCC7;}
	.st27{fill:#D8E0F2;}
	.st28{fill:#020F59;}
	.st29{fill:#7787A6;}
	.st30{fill:#1168D9;stroke:#00FFFF;stroke-miterlimit:10;}
	.st31{opacity:0.42;}
	.st32{fill:#00FFFF;}
	.st33{opacity:0.54;fill:#00FFFF;}
	.st34{opacity:0.54;fill:none;stroke:#00FFFF;stroke-miterlimit:10;}
</style>
<g>
	<g>
		
			<rect x="-0.3" y="17.5" transform="matrix(0.3954 0.9185 -0.9185 0.3954 50.4823 -4.0698)" class="st21" width="57.2" height="37.6"/>
		
			<rect x="11.9" y="17.2" transform="matrix(0.1383 0.9904 -0.9904 0.1383 70.6231 -9.0599)" class="st21" width="57.2" height="37.6"/>
		
			<rect x="30.6" y="22.3" transform="matrix(-1.836970e-16 1 -1 -1.836970e-16 100.3157 -18.1305)" class="st21" width="57.2" height="37.6"/>
	</g>
	<g class="st18">
		
			<rect x="-0.3" y="17.6" transform="matrix(0.3954 0.9185 -0.9185 0.3954 50.5428 -3.9693)" class="st22" width="57.2" height="37.6"/>
		
			<rect x="11.8" y="17.3" transform="matrix(0.1383 0.9904 -0.9904 0.1383 70.6787 -8.9314)" class="st22" width="57.2" height="37.6"/>
		
			<rect x="30.6" y="22.4" transform="matrix(-1.836970e-16 1 -1 -1.836970e-16 100.3658 -17.9882)" class="st22" width="57.2" height="37.6"/>
	</g>
</g>
</svg>
