<?xml version="1.0" encoding="utf-8"?>
<!-- Generator: Adobe Illustrator 25.2.3, SVG Export Plug-In . SVG Version: 6.00 Build 0)  -->
<svg version="1.1" xmlns="http://www.w3.org/2000/svg" xmlns:xlink="http://www.w3.org/1999/xlink" x="0px" y="0px"
	 viewBox="0 0 26.1 35.9" style="enable-background:new 0 0 26.1 35.9;" xml:space="preserve">
<style type="text/css">
	.st0{fill:#1F1FFF;}
	.st1{fill:#75C9DF;}
	.st2{opacity:0.23;fill:#585957;}
	.st3{fill:#008072;}
	.st4{fill:#FFFFFF;stroke:#000000;stroke-width:0.5;stroke-miterlimit:10;}
	.st5{fill:#AFDCDC;}
	.st6{fill:#F9EEDB;}
	.st7{opacity:0.44;}
	.st8{fill:none;stroke:#FF0000;stroke-miterlimit:10;}
	.st9{fill:#002CA4;}
	.st10{fill:#EEF2F3;}
	.st11{fill:none;stroke:#FFFFFF;stroke-miterlimit:10;}
	.st12{fill:#221F20;}
	.st13{fill:#E492B8;}
	.st14{fill:#F6E778;}
	.st15{fill:#94C9AD;}
	.st16{fill:#AEC4E3;}
	.st17{fill:#FFFFFF;stroke:#94C9AD;stroke-miterlimit:10;}
	.st18{fill:#94C9AD;stroke:#FFFFFF;stroke-miterlimit:10;}
	.st19{fill:#C6C5E0;}
	.st20{fill:#333333;}
	.st21{fill:none;stroke:#8AFF03;stroke-width:0.25;stroke-miterlimit:10;}
	.st22{fill:none;stroke:#8AFF03;stroke-miterlimit:10;}
	.st23{opacity:0.54;fill:#8AFF03;}
	.st24{opacity:0.7;}
	.st25{opacity:0.47;fill:#8AFF03;}
	.st26{opacity:0.24;fill:#8AFF03;}
	.st27{opacity:0.47;}
	.st28{fill:#8AFF03;}
	.st29{fill:#333333;stroke:#00FFFF;stroke-miterlimit:10;}
	.st30{fill:none;stroke:#00FFFF;stroke-miterlimit:10;}
	.st31{fill:#00FFFF;stroke:#00FFFF;stroke-miterlimit:10;}
	.st32{fill:#FFFFFF;}
	.st33{fill:#1168D9;}
	.st34{opacity:0.42;fill:#00FFFF;}
	.st35{fill:#1BCCC7;}
	.st36{fill:#D8E0F2;}
	.st37{fill:#020F59;}
	.st38{fill:#7787A6;}
	.st39{fill:#1168D9;stroke:#00FFFF;stroke-miterlimit:10;}
	.st40{fill:#0050E3;}
	.st41{fill:#FFA8A7;}
	.st42{fill:#FFCFD0;}
	.st43{fill:#0050E3;stroke:#1B1464;stroke-miterlimit:10;}
	.st44{fill:#00BAA5;}
	.st45{fill:#C7EAD7;}
	.st46{opacity:0.42;}
	.st47{fill:#00FFFF;}
	.st48{opacity:0.54;fill:#00FFFF;}
	.st49{opacity:0.54;fill:none;stroke:#00FFFF;stroke-miterlimit:10;}
	.st50{fill:#FF3627;}
	.st51{fill:#D80000;}
	.st52{fill:#1B9787;}
	.st53{fill:#FEFD87;}
	.st54{fill:#002D82;}
	.st55{fill:#00106A;}
	.st56{fill:#22B573;stroke:#000000;stroke-width:0.5;stroke-miterlimit:10;}
	.st57{fill:#FFD900;}
	.st58{fill:#DAB312;stroke:#000000;stroke-width:0.5;stroke-miterlimit:10;}
	.st59{fill:#F14564;}
	.st60{fill:none;stroke:#000000;stroke-width:0.5;stroke-miterlimit:10;}
	.st61{fill:#ABBEBD;stroke:#000000;stroke-width:0.5;stroke-miterlimit:10;}
	.st62{fill:#AFDCDC;stroke:#000000;stroke-width:0.5;stroke-miterlimit:10;}
	.st63{fill:#FFBECA;}
	.st64{fill:#FFA5AE;}
	.st65{fill:#8FBC9C;}
	.st66{fill:none;stroke:#000000;stroke-width:0.25;stroke-miterlimit:10;}
	.st67{opacity:0.32;fill:#585957;}
	.st68{fill:none;stroke:#000000;stroke-width:2;stroke-miterlimit:10;}
	.st69{fill:#FFE7A0;stroke:#000000;stroke-width:0.5;stroke-miterlimit:10;}
	.st70{fill:#FFE7A0;}
	.st71{fill:#FF1D25;}
	.st72{opacity:0.67;fill:#FF0000;stroke:#1F1FFF;stroke-miterlimit:10;}
	.st73{fill:#DBDAD2;stroke:#000000;stroke-width:0.75;stroke-miterlimit:10;}
	.st74{fill:#ABBEBD;stroke:#000000;stroke-width:0.75;stroke-miterlimit:10;}
	.st75{opacity:0.12;}
	.st76{fill:#008072;stroke:#000000;stroke-width:0.75;stroke-miterlimit:10;}
	.st77{fill:#FFE7A0;stroke:#000000;stroke-width:0.75;stroke-miterlimit:10;}
	.st78{fill:#FFA5AE;stroke:#000000;stroke-width:0.75;stroke-miterlimit:10;}
	.st79{stroke:#000000;stroke-width:2;stroke-miterlimit:10;}
	.st80{fill:none;stroke:#000000;stroke-width:3;stroke-miterlimit:10;}
	.st81{fill:none;stroke:#FF0000;stroke-width:1.000000e-02;stroke-miterlimit:10;}
	.st82{fill:none;stroke:#000000;stroke-width:4;stroke-miterlimit:10;}
	.st83{fill:none;stroke:#000000;stroke-width:5;stroke-miterlimit:10;}
	.st84{fill:#FF0000;}
	.st85{fill:#C1272D;}
	.st86{fill:#FFA5AE;stroke:#000000;stroke-width:0.1;stroke-miterlimit:10;}
	.st87{fill:#ABBEBD;stroke:#000000;stroke-width:0.25;stroke-miterlimit:10;}
	.st88{opacity:0.6;fill:#FFFFFF;}
	.st89{fill:#FF4A3D;}
</style>
<g id="Ebene_2">
</g>
<g id="Ebene_1">
	<circle class="st89" cx="13.1" cy="9.5" r="7.2"/>
	<path class="st2" d="M18.6,5c0.4,0.9,0.7,2,0.7,3.1c0,4-3.2,7.2-7.2,7.2c-2.2,0-4.2-1-5.5-2.6c1.1,2.4,3.6,4.1,6.5,4.1
		c4,0,7.2-3.2,7.2-7.2C20.2,7.8,19.6,6.2,18.6,5z"/>
	<path class="st87" d="M22.6,9.4c-0.1-5.3-4.6-9.5-9.8-9.3C7.5,0.3,3.3,4.7,3.5,10c0.1,5.2,4.3,9.2,9.5,9.3l0,0.7l-0.3,0
		c-0.3,0-0.6,0.3-0.6,0.6l0.3,10.7l0,0c-0.3,0-0.6,0.3-0.6,0.6c0,0.3,0.3,0.6,0.6,0.6c-0.3,0-0.6,0.3-0.6,0.6c0,0.3,0.3,0.6,0.6,0.6
		l0,0l0,0.3c0,0.8,0.6,1.6,1.4,1.7c1,0.1,1.8-0.7,1.8-1.6l0-0.4l0,0c0.3,0,0.6-0.3,0.6-0.6c0-0.3-0.3-0.6-0.6-0.6
		c0.3,0,0.6-0.3,0.6-0.6c0-0.3-0.3-0.6-0.6-0.6l0,0l-0.3-10.7c0-0.3-0.3-0.6-0.6-0.5l-0.4,0l0-0.7C19.1,18.6,22.8,14.4,22.6,9.4z
		 M13.3,16.8c-4,0.1-7.3-3-7.4-7s3-7.3,7-7.4c4-0.1,7.3,3,7.4,7C20.3,13.4,17.2,16.7,13.3,16.8z"/>
	<ellipse transform="matrix(0.821 -0.5709 0.5709 0.821 -1.1059 6.3827)" class="st88" cx="9.6" cy="5" rx="1.4" ry="0.5"/>
</g>
</svg>
