<?xml version="1.0" encoding="utf-8"?>
<!-- Generator: Adobe Illustrator 25.2.3, SVG Export Plug-In . SVG Version: 6.00 Build 0)  -->
<svg version="1.1" xmlns="http://www.w3.org/2000/svg" xmlns:xlink="http://www.w3.org/1999/xlink" x="0px" y="0px"
	 viewBox="0 0 55.2 58.4" style="enable-background:new 0 0 55.2 58.4;" xml:space="preserve">
<style type="text/css">
	.st0{fill:#1F1FFF;}
	.st1{fill:#008072;}
	.st2{fill:#FFFFFF;stroke:#000000;stroke-width:0.5;stroke-miterlimit:10;}
	.st3{fill:#AFDCDC;}
	.st4{fill:#F9EEDB;}
	.st5{opacity:0.44;}
	.st6{fill:none;stroke:#FF0000;stroke-miterlimit:10;}
	.st7{fill:#002CA4;}
	.st8{fill:#EEF2F3;}
	.st9{fill:none;stroke:#FFFFFF;stroke-miterlimit:10;}
	.st10{fill:#221F20;}
	.st11{fill:#E492B8;}
	.st12{fill:#F6E778;}
	.st13{fill:#94C9AD;}
	.st14{fill:#AEC4E3;}
	.st15{fill:#FFFFFF;stroke:#94C9AD;stroke-miterlimit:10;}
	.st16{fill:#94C9AD;stroke:#FFFFFF;stroke-miterlimit:10;}
	.st17{fill:#C6C5E0;}
	.st18{fill:#333333;}
	.st19{fill:none;stroke:#8AFF03;stroke-width:0.25;stroke-miterlimit:10;}
	.st20{fill:none;stroke:#8AFF03;stroke-miterlimit:10;}
	.st21{opacity:0.54;fill:#8AFF03;}
	.st22{opacity:0.7;}
	.st23{opacity:0.47;fill:#8AFF03;}
	.st24{opacity:0.24;fill:#8AFF03;}
	.st25{opacity:0.47;}
	.st26{fill:#8AFF03;}
	.st27{fill:#333333;stroke:#00FFFF;stroke-miterlimit:10;}
	.st28{fill:none;stroke:#00FFFF;stroke-miterlimit:10;}
	.st29{fill:#00FFFF;stroke:#00FFFF;stroke-miterlimit:10;}
	.st30{fill:#FFFFFF;}
	.st31{fill:#1168D9;}
	.st32{opacity:0.42;fill:#00FFFF;}
	.st33{fill:#1BCCC7;}
	.st34{fill:#D8E0F2;}
	.st35{fill:#020F59;}
	.st36{fill:#7787A6;}
	.st37{fill:#1168D9;stroke:#00FFFF;stroke-miterlimit:10;}
	.st38{fill:#0050E3;}
	.st39{fill:#FFA8A7;}
	.st40{fill:#FFCFD0;}
	.st41{fill:#0050E3;stroke:#1B1464;stroke-miterlimit:10;}
	.st42{fill:#00BAA5;}
	.st43{fill:#C7EAD7;}
	.st44{opacity:0.42;}
	.st45{fill:#00FFFF;}
	.st46{opacity:0.54;fill:#00FFFF;}
	.st47{opacity:0.54;fill:none;stroke:#00FFFF;stroke-miterlimit:10;}
	.st48{fill:#FF3627;}
	.st49{fill:#D80000;}
	.st50{fill:#1B9787;}
	.st51{fill:#FEFD87;}
	.st52{fill:#002D82;}
	.st53{fill:#00106A;}
	.st54{fill:#22B573;stroke:#000000;stroke-width:0.5;stroke-miterlimit:10;}
	.st55{fill:#FFD900;}
	.st56{fill:#DAB312;stroke:#000000;stroke-width:0.5;stroke-miterlimit:10;}
	.st57{fill:#F14564;}
	.st58{fill:none;stroke:#000000;stroke-width:0.5;stroke-miterlimit:10;}
	.st59{fill:#ABBEBD;stroke:#000000;stroke-width:0.5;stroke-miterlimit:10;}
	.st60{fill:#AFDCDC;stroke:#000000;stroke-width:0.5;stroke-miterlimit:10;}
	.st61{fill:#FFBECA;}
	.st62{fill:#FFA5AE;}
	.st63{fill:#8FBC9C;}
	.st64{fill:none;stroke:#000000;stroke-width:0.25;stroke-miterlimit:10;}
	.st65{opacity:0.32;fill:#585957;}
	.st66{fill:none;stroke:#000000;stroke-width:2;stroke-miterlimit:10;}
	.st67{fill:#FFE7A0;stroke:#000000;stroke-width:0.5;stroke-miterlimit:10;}
	.st68{fill:#FFE7A0;}
	.st69{fill:#FF1D25;}
	.st70{opacity:0.67;fill:#FF0000;stroke:#1F1FFF;stroke-miterlimit:10;}
	.st71{fill:#DBDAD2;stroke:#000000;stroke-width:0.75;stroke-miterlimit:10;}
	.st72{fill:#ABBEBD;stroke:#000000;stroke-width:0.75;stroke-miterlimit:10;}
	.st73{opacity:0.12;}
	.st74{fill:#008072;stroke:#000000;stroke-width:0.75;stroke-miterlimit:10;}
	.st75{fill:#FFE7A0;stroke:#000000;stroke-width:0.75;stroke-miterlimit:10;}
	.st76{fill:#FFA5AE;stroke:#000000;stroke-width:0.75;stroke-miterlimit:10;}
	.st77{stroke:#000000;stroke-width:2;stroke-miterlimit:10;}
	.st78{fill:none;stroke:#000000;stroke-width:3;stroke-miterlimit:10;}
	.st79{fill:none;stroke:#FF0000;stroke-width:1.000000e-02;stroke-miterlimit:10;}
	.st80{fill:none;stroke:#000000;stroke-width:4;stroke-miterlimit:10;}
	.st81{fill:none;stroke:#000000;stroke-width:5;stroke-miterlimit:10;}
	.st82{fill:#FF0000;}
	.st83{fill:#C1272D;}
	.st84{fill:#75C9DF;}
	.st85{fill:#FFA5AE;stroke:#000000;stroke-width:0.1;stroke-miterlimit:10;}
</style>
<g id="Ebene_2">
</g>
<g id="Ebene_1">
	<g>
		<path class="st59" d="M52.1,18.7H24.3l-0.4-1.9c-0.2-0.8-0.9-1.3-1.6-1.3H9.6c-0.8,0-1.5,0.6-1.7,1.4l-0.3,1.8H6
			c-1.6,0-2.9,1.3-2.9,2.9v32.1c0,1.6,1.3,2.9,2.9,2.9h46.1c1.6,0,2.9-1.3,2.9-2.9V21.5C55,20,53.7,18.7,52.1,18.7z"/>
		<g>
			<polygon class="st2" points="39.2,15.5 6,15.5 6,54.7 45.2,54.7 45.2,21.6 			"/>
			<polyline class="st58" points="39.2,15.5 39.2,21.6 45.2,21.6 			"/>
		</g>
		<path class="st60" d="M49.2,20.4H21.5L21,18.5c-0.2-0.8-0.9-1.3-1.6-1.3H6.8c-0.8,0-1.5,0.6-1.7,1.4l-0.3,1.8H3.1
			c-1.6,0-2.9,1.3-2.9,2.9v32.1c0,1.6,1.3,2.9,2.9,2.9h46.1c1.6,0,2.9-1.3,2.9-2.9V23.2C52.1,21.7,50.8,20.4,49.2,20.4z"/>
	</g>
</g>
</svg>
