<?xml version="1.0" encoding="utf-8"?>
<!-- Generator: Adobe Illustrator 25.2.3, SVG Export Plug-In . SVG Version: 6.00 Build 0)  -->
<svg version="1.1" xmlns="http://www.w3.org/2000/svg" xmlns:xlink="http://www.w3.org/1999/xlink" x="0px" y="0px"
	 viewBox="0 0 55.2 53.2" style="enable-background:new 0 0 55.2 53.2;" xml:space="preserve">
<style type="text/css">
	.st0{fill:#1F1FFF;}
	.st1{fill:none;stroke:#000000;stroke-width:2;stroke-miterlimit:10;}
	.st2{fill:#F9EEDB;}
	.st3{opacity:0.44;}
	.st4{fill:none;stroke:#FF0000;stroke-miterlimit:10;}
	.st5{fill:#002CA4;}
	.st6{fill:#EEF2F3;}
	.st7{fill:none;stroke:#FFFFFF;stroke-miterlimit:10;}
	.st8{fill:#221F20;}
	.st9{fill:#E492B8;}
	.st10{fill:#F6E778;}
	.st11{fill:#94C9AD;}
	.st12{fill:#AEC4E3;}
	.st13{fill:#FFFFFF;stroke:#94C9AD;stroke-miterlimit:10;}
	.st14{fill:#94C9AD;stroke:#FFFFFF;stroke-miterlimit:10;}
	.st15{fill:#C6C5E0;}
	.st16{fill:#333333;}
	.st17{fill:none;stroke:#8AFF03;stroke-width:0.25;stroke-miterlimit:10;}
	.st18{fill:none;stroke:#8AFF03;stroke-miterlimit:10;}
	.st19{opacity:0.54;fill:#8AFF03;}
	.st20{opacity:0.7;}
	.st21{opacity:0.47;fill:#8AFF03;}
	.st22{opacity:0.24;fill:#8AFF03;}
	.st23{opacity:0.47;}
	.st24{fill:#8AFF03;}
	.st25{fill:#333333;stroke:#00FFFF;stroke-miterlimit:10;}
	.st26{fill:none;stroke:#00FFFF;stroke-miterlimit:10;}
	.st27{fill:#00FFFF;stroke:#00FFFF;stroke-miterlimit:10;}
	.st28{fill:#FFFFFF;}
	.st29{fill:#1168D9;}
	.st30{opacity:0.42;fill:#00FFFF;}
	.st31{fill:#1BCCC7;}
	.st32{fill:#D8E0F2;}
	.st33{fill:#020F59;}
	.st34{fill:#7787A6;}
	.st35{fill:#1168D9;stroke:#00FFFF;stroke-miterlimit:10;}
	.st36{fill:#0050E3;}
	.st37{fill:#FFA8A7;}
	.st38{fill:#FFCFD0;}
	.st39{fill:#0050E3;stroke:#1B1464;stroke-miterlimit:10;}
	.st40{fill:#00BAA5;}
	.st41{fill:#C7EAD7;}
	.st42{opacity:0.42;}
	.st43{fill:#00FFFF;}
	.st44{opacity:0.54;fill:#00FFFF;}
	.st45{opacity:0.54;fill:none;stroke:#00FFFF;stroke-miterlimit:10;}
	.st46{fill:#FF3627;}
	.st47{fill:#D80000;}
	.st48{fill:#1B9787;}
	.st49{fill:#FEFD87;}
	.st50{fill:#002D82;}
	.st51{fill:#00106A;}
	.st52{fill:#22B573;stroke:#000000;stroke-width:0.5;stroke-miterlimit:10;}
	.st53{fill:#FFFFFF;stroke:#000000;stroke-width:0.5;stroke-miterlimit:10;}
	.st54{fill:#FFD900;}
	.st55{fill:#DAB312;stroke:#000000;stroke-width:0.5;stroke-miterlimit:10;}
	.st56{fill:none;stroke:#000000;stroke-width:0.5;stroke-miterlimit:10;}
	.st57{fill:#ABBEBD;stroke:#000000;stroke-width:0.5;stroke-miterlimit:10;}
	.st58{fill:#AFDCDC;stroke:#000000;stroke-width:0.5;stroke-miterlimit:10;}
	.st59{fill:#FFBECA;}
	.st60{fill:#FFA5AE;}
	.st61{fill:#FFE7A0;stroke:#000000;stroke-width:0.5;stroke-miterlimit:10;}
	.st62{fill:#FFE7A0;}
	.st63{fill:#FF1D25;}
	.st64{opacity:0.67;fill:#FF0000;stroke:#1F1FFF;stroke-miterlimit:10;}
	.st65{fill:#DBDAD2;stroke:#000000;stroke-width:0.75;stroke-miterlimit:10;}
	.st66{fill:#ABBEBD;stroke:#000000;stroke-width:0.75;stroke-miterlimit:10;}
	.st67{opacity:0.12;}
	.st68{fill:#008072;stroke:#000000;stroke-width:0.75;stroke-miterlimit:10;}
	.st69{fill:#FFE7A0;stroke:#000000;stroke-width:0.75;stroke-miterlimit:10;}
	.st70{fill:#FFA5AE;stroke:#000000;stroke-width:0.75;stroke-miterlimit:10;}
	.st71{stroke:#000000;stroke-width:2;stroke-miterlimit:10;}
	.st72{fill:none;stroke:#000000;stroke-width:3;stroke-miterlimit:10;}
	.st73{fill:none;stroke:#FF0000;stroke-width:1.000000e-02;stroke-miterlimit:10;}
	.st74{fill:none;stroke:#000000;stroke-width:4;stroke-miterlimit:10;}
	.st75{fill:none;stroke:#000000;stroke-width:5;stroke-miterlimit:10;}
	.st76{fill:#FF0000;}
	.st77{fill:#C1272D;}
	.st78{fill:#75C9DF;}
</style>
<g id="Ebene_2">
</g>
<g id="Ebene_1">
	<g>
		<path class="st57" d="M52.1,13.4H24.3l-0.4-1.9c-0.2-0.8-0.9-1.3-1.6-1.3H9.6c-0.8,0-1.5,0.6-1.7,1.4l-0.3,1.8H6
			c-1.6,0-2.9,1.3-2.9,2.9v32.1c0,1.6,1.3,2.9,2.9,2.9h46.1c1.6,0,2.9-1.3,2.9-2.9V16.3C55,14.7,53.7,13.4,52.1,13.4z"/>
		<g>
			<polygon class="st53" points="39.2,10.3 6,10.3 6,49.5 45.2,49.5 45.2,16.3 			"/>
			<polyline class="st56" points="39.2,10.3 39.2,16.3 45.2,16.3 			"/>
		</g>
		<path class="st58" d="M49.2,15.1H21.5L21,13.2c-0.2-0.8-0.9-1.3-1.6-1.3H6.8c-0.8,0-1.5,0.6-1.7,1.4l-0.3,1.8H3.1
			c-1.6,0-2.9,1.3-2.9,2.9V50c0,1.6,1.3,2.9,2.9,2.9h46.1c1.6,0,2.9-1.3,2.9-2.9V18C52.1,16.4,50.8,15.1,49.2,15.1z"/>
	</g>
</g>
</svg>
