<?xml version="1.0" encoding="utf-8"?>
<!-- Generator: Adobe Illustrator 25.2.3, SVG Export Plug-In . SVG Version: 6.00 Build 0)  -->
<svg version="1.1" xmlns="http://www.w3.org/2000/svg" xmlns:xlink="http://www.w3.org/1999/xlink" x="0px" y="0px"
	 viewBox="0 0 272.7 266.3" style="enable-background:new 0 0 272.7 266.3;" xml:space="preserve">
<style type="text/css">
	.st0{fill:#F9EEDB;stroke:#1A1A1A;stroke-width:0.75;stroke-miterlimit:10;}
	.st1{fill:none;stroke:#2F2F2F;stroke-width:4;stroke-linecap:round;stroke-miterlimit:10;}
	.st2{fill:#F0F0F0;}
	.st3{fill:#2F2F2F;stroke:#FFFFFF;stroke-width:0.5;stroke-miterlimit:10;}
	.st4{fill:#585957;stroke:#000000;stroke-width:0.5;stroke-miterlimit:10;}
	.st5{fill:#FF9A93;stroke:#000000;stroke-width:0.5;stroke-miterlimit:10;}
	.st6{fill:#ABBEBD;stroke:#000000;stroke-width:0.5;stroke-miterlimit:10;}
	.st7{fill:#FFFFFF;stroke:#000000;stroke-width:0.5;stroke-miterlimit:10;}
	.st8{fill:none;stroke:#000000;stroke-width:0.5;stroke-miterlimit:10;}
	.st9{fill:#EB7F7F;}
	.st10{fill:#AFDCDC;stroke:#000000;stroke-width:0.5;stroke-miterlimit:10;}
	.st11{fill:#75C9DF;}
	.st12{opacity:0.23;fill:#585957;}
	.st13{fill:#8DCBC3;}
	.st14{fill:#AFDCDC;}
	.st15{fill:#F9EEDB;}
	.st16{opacity:0.44;}
	.st17{fill:none;stroke:#FF0000;stroke-miterlimit:10;}
	.st18{fill:#002CA4;}
	.st19{fill:#0050E3;}
	.st20{fill:#FFA8A7;}
	.st21{fill:#FFCFD0;}
	.st22{fill:#0050E3;stroke:#1B1464;stroke-miterlimit:10;}
	.st23{fill:#00BAA5;}
	.st24{fill:#C7EAD7;}
	.st25{fill:#FF3627;}
	.st26{fill:#D80000;}
	.st27{fill:#1B9787;}
	.st28{fill:#FEFD87;}
	.st29{fill:#002D82;}
	.st30{fill:#00106A;}
	.st31{fill:#E492B8;}
	.st32{fill:#22B573;stroke:#000000;stroke-width:0.5;stroke-miterlimit:10;}
	.st33{fill:#FFD900;}
	.st34{fill:#DAB312;stroke:#000000;stroke-width:0.5;stroke-miterlimit:10;}
	.st35{fill:#FF9A93;}
	.st36{fill:#FEFEC3;}
	.st37{fill:#FFBECA;}
	.st38{fill:#FFA5AE;}
	.st39{fill:#FFFFFF;}
	.st40{fill:#8FBC9C;}
	.st41{fill:none;stroke:#000000;stroke-width:0.25;stroke-miterlimit:10;}
	.st42{opacity:0.32;fill:#585957;}
	.st43{fill:none;stroke:#000000;stroke-width:2;stroke-miterlimit:10;}
	.st44{fill:#FEFEC3;stroke:#000000;stroke-width:0.5;stroke-miterlimit:10;}
	.st45{fill:#FFBECA;stroke:#000000;stroke-width:0.5;stroke-miterlimit:10;}
	.st46{fill:#FCF6ED;stroke:#000000;stroke-miterlimit:10;}
	.st47{fill:#7F7F7F;stroke:#000000;stroke-miterlimit:10;}
	.st48{opacity:0.12;}
	.st49{fill:#008072;stroke:#000000;stroke-width:0.75;stroke-miterlimit:10;}
	.st50{fill:#FFE7A0;stroke:#000000;stroke-width:0.75;stroke-miterlimit:10;}
	.st51{fill:#FFA5AE;stroke:#000000;stroke-width:0.75;stroke-miterlimit:10;}
	.st52{fill:none;stroke:#000000;stroke-width:3;stroke-miterlimit:10;}
	.st53{fill:#FFA5AE;stroke:#000000;stroke-width:0.1;stroke-miterlimit:10;}
	.st54{fill:#FF0000;}
	.st55{fill:#ABBEBD;stroke:#000000;stroke-width:0.25;stroke-miterlimit:10;}
	.st56{opacity:0.6;fill:#FFFFFF;}
	.st57{fill:#FF4A3D;}
	.st58{fill:#7FA7F1;stroke:#7FA7F1;stroke-miterlimit:10;}
	.st59{fill:#ABBEBD;stroke:#000000;stroke-width:1.5;stroke-miterlimit:10;}
	.st60{fill:none;stroke:#000000;stroke-width:0.75;stroke-miterlimit:10;}
	.st61{fill:#FEF7EF;stroke:#000000;stroke-width:0.75;stroke-miterlimit:10;}
	.st62{fill:none;stroke:#000000;stroke-width:0.75;stroke-linecap:round;stroke-miterlimit:10;}
	.st63{fill:#FFFFFF;stroke:#000000;stroke-width:0.75;stroke-miterlimit:10;}
	.st64{fill:#DBDAD2;stroke:#000000;stroke-width:0.5;stroke-miterlimit:10;}
	.st65{fill:#FF4A3D;stroke:#000000;stroke-width:0.5;stroke-linecap:round;stroke-miterlimit:10;}
	.st66{fill:none;stroke:#000000;stroke-width:0.5;stroke-linecap:round;stroke-miterlimit:10;}
	.st67{fill:#F9EEDB;stroke:#000000;stroke-width:0.5;stroke-miterlimit:10;}
	.st68{fill:#7F7F7F;stroke:#000000;stroke-width:0.5;stroke-miterlimit:10;}
	.st69{fill:#7FDCD2;stroke:#000000;stroke-width:0.5;stroke-miterlimit:10;}
	.st70{fill:#FF7BAC;stroke:#2F2F2F;stroke-width:0.5;stroke-miterlimit:10;}
	.st71{fill:none;stroke:#2F2F2F;stroke-width:0.5;stroke-miterlimit:10;}
	.st72{fill:#F9EEDB;stroke:#2F2F2F;stroke-width:0.5;stroke-miterlimit:10;}
	.st73{fill:#2F2F2F;}
	.st74{fill:none;stroke:#F9EEDB;stroke-width:0.5;stroke-miterlimit:10;}
	.st75{fill:none;stroke:#000000;stroke-linejoin:round;stroke-miterlimit:10;}
	.st76{fill:#E3F4EB;stroke:#000000;stroke-width:1.5;stroke-miterlimit:10;}
	.st77{opacity:0.5;}
	.st78{fill:none;stroke:#000000;stroke-width:1.5;stroke-miterlimit:10;}
	.st79{opacity:0.52;fill:#FFFFFF;}
	.st80{opacity:0.47;fill:#2F2F2F;}
	.st81{fill:#FFCF0A;stroke:#2F2F2F;stroke-width:1.5;stroke-miterlimit:10;}
	.st82{fill:none;stroke:#2F2F2F;stroke-width:4;stroke-miterlimit:10;}
	.st83{fill:#F9EEDB;stroke:#7FA7F1;stroke-miterlimit:10;}
	.st84{fill:#F9EEDB;stroke:#2F2F2F;stroke-width:1.5;stroke-miterlimit:10;}
	.st85{fill:none;stroke:#2F2F2F;stroke-width:1.5;stroke-miterlimit:10;}
	.st86{fill:#DBDAD2;stroke:#000000;stroke-width:1.5;stroke-miterlimit:10;}
	.st87{opacity:0.56;fill:#7F7F7F;}
</style>
<g id="Ebene_2">
</g>
<g id="Ebene_1">
	<g>
		<path class="st1" d="M257.9,136.3c0,70.7-57.2,127.9-127.9,127.9S2,207,2,136.3"/>
		<path class="st1" d="M245.1,136.3c0,63.6-51.5,115.1-115.1,115.1S14.8,200,14.8,136.3"/>
		<path class="st1" d="M232.3,136.3c0,56.6-45.8,102.3-102.3,102.3S27.6,192.9,27.6,136.3"/>
		<path class="st1" d="M219.5,136.3c0,49.5-40.1,89.6-89.6,89.6s-89.6-40.1-89.6-89.6"/>
		<path class="st1" d="M206.7,136.3c0,42.4-34.3,76.8-76.8,76.8s-76.8-34.3-76.8-76.8"/>
		<path class="st1" d="M193.9,136.3c0,35.4-28.6,64-64,64s-64-28.6-64-64"/>
		<path class="st1" d="M181.1,136.3c0,28.3-22.9,51.2-51.2,51.2s-51.2-22.9-51.2-51.2"/>
		<path class="st1" d="M168.3,136.3c0,21.2-17.2,38.4-38.4,38.4s-38.4-17.2-38.4-38.4"/>
		<path class="st1" d="M155.5,136.3c0,14.1-11.4,25.6-25.6,25.6c-14.1,0-25.6-11.4-25.6-25.6"/>
		<path class="st1" d="M142.7,136.3c0,7.1-5.7,12.8-12.8,12.8c-7.1,0-12.8-5.7-12.8-12.8"/>
		<path class="st1" d="M270.7,136.3C270.7,62.1,210.6,2,136.3,2S2,62.1,2,136.3"/>
		<path class="st1" d="M257.9,136.3c0-67.2-54.4-121.5-121.5-121.5S14.8,69.2,14.8,136.3"/>
		<path class="st1" d="M245.1,136.3c0-60.1-48.6-108.7-108.7-108.7S27.6,76.2,27.6,136.3"/>
		<path class="st1" d="M232.3,136.3c0-53-42.9-95.9-95.9-95.9s-95.9,42.9-95.9,95.9"/>
		<path class="st1" d="M219.5,136.3c0-46-37.2-83.2-83.2-83.2s-83.2,37.2-83.2,83.2"/>
		<path class="st1" d="M206.7,136.3c0-38.9-31.5-70.4-70.4-70.4S66,97.4,66,136.3"/>
		<path class="st1" d="M193.9,136.3c0-31.8-25.7-57.6-57.6-57.6s-57.6,25.7-57.6,57.6"/>
		<path class="st1" d="M181.1,136.3c0-24.7-20-44.8-44.8-44.8s-44.8,20-44.8,44.8"/>
		<path class="st1" d="M168.3,136.3c0-17.7-14.3-32-32-32s-32,14.3-32,32"/>
		<path class="st1" d="M155.5,136.3c0-10.6-8.6-19.2-19.2-19.2s-19.2,8.6-19.2,19.2"/>
		<path class="st1" d="M142.7,136.3c0-3.5-2.9-6.4-6.4-6.4s-6.4,2.9-6.4,6.4"/>
	</g>
</g>
</svg>
