<?xml version="1.0" encoding="utf-8"?>
<!-- Generator: Adobe Illustrator 25.2.3, SVG Export Plug-In . SVG Version: 6.00 Build 0)  -->
<svg version="1.1" xmlns="http://www.w3.org/2000/svg" xmlns:xlink="http://www.w3.org/1999/xlink" x="0px" y="0px"
	 viewBox="0 0 232.1 150.6" style="enable-background:new 0 0 232.1 150.6;" xml:space="preserve">
<style type="text/css">
	.st0{fill:#F9EEDB;stroke:#1A1A1A;stroke-width:0.75;stroke-miterlimit:10;}
	.st1{fill:none;stroke:#2F2F2F;stroke-width:4;stroke-linecap:round;stroke-miterlimit:10;}
	.st2{fill:#F0F0F0;}
	.st3{fill:#2F2F2F;stroke:#FFFFFF;stroke-width:0.5;stroke-miterlimit:10;}
	.st4{fill:#585957;stroke:#000000;stroke-width:0.5;stroke-miterlimit:10;}
	.st5{fill:#FF9A93;stroke:#000000;stroke-width:0.5;stroke-miterlimit:10;}
	.st6{fill:#ABBEBD;stroke:#000000;stroke-width:0.5;stroke-miterlimit:10;}
	.st7{fill:#FFFFFF;stroke:#000000;stroke-width:0.5;stroke-miterlimit:10;}
	.st8{fill:none;stroke:#000000;stroke-width:0.5;stroke-miterlimit:10;}
	.st9{fill:#EB7F7F;}
	.st10{fill:#AFDCDC;stroke:#000000;stroke-width:0.5;stroke-miterlimit:10;}
	.st11{fill:#75C9DF;}
	.st12{opacity:0.23;fill:#585957;}
	.st13{fill:#8DCBC3;}
	.st14{fill:#AFDCDC;}
	.st15{fill:#F9EEDB;}
	.st16{opacity:0.44;}
	.st17{fill:none;stroke:#FF0000;stroke-miterlimit:10;}
	.st18{fill:#002CA4;}
	.st19{fill:#0050E3;}
	.st20{fill:#FFA8A7;}
	.st21{fill:#FFCFD0;}
	.st22{fill:#0050E3;stroke:#1B1464;stroke-miterlimit:10;}
	.st23{fill:#00BAA5;}
	.st24{fill:#C7EAD7;}
	.st25{fill:#FF3627;}
	.st26{fill:#D80000;}
	.st27{fill:#1B9787;}
	.st28{fill:#FEFD87;}
	.st29{fill:#002D82;}
	.st30{fill:#00106A;}
	.st31{fill:#E492B8;}
	.st32{fill:#22B573;stroke:#000000;stroke-width:0.5;stroke-miterlimit:10;}
	.st33{fill:#FFD900;}
	.st34{fill:#DAB312;stroke:#000000;stroke-width:0.5;stroke-miterlimit:10;}
	.st35{fill:#FF9A93;}
	.st36{fill:#FEFEC3;}
	.st37{fill:#FFBECA;}
	.st38{fill:#FFA5AE;}
	.st39{fill:#FFFFFF;}
	.st40{fill:#8FBC9C;}
	.st41{fill:none;stroke:#000000;stroke-width:0.25;stroke-miterlimit:10;}
	.st42{opacity:0.32;fill:#585957;}
	.st43{fill:none;stroke:#000000;stroke-width:2;stroke-miterlimit:10;}
	.st44{fill:#FEFEC3;stroke:#000000;stroke-width:0.5;stroke-miterlimit:10;}
	.st45{fill:#FFBECA;stroke:#000000;stroke-width:0.5;stroke-miterlimit:10;}
	.st46{fill:#FCF6ED;stroke:#000000;stroke-miterlimit:10;}
	.st47{fill:#7F7F7F;stroke:#000000;stroke-miterlimit:10;}
	.st48{opacity:0.12;}
	.st49{fill:#008072;stroke:#000000;stroke-width:0.75;stroke-miterlimit:10;}
	.st50{fill:#FFE7A0;stroke:#000000;stroke-width:0.75;stroke-miterlimit:10;}
	.st51{fill:#FFA5AE;stroke:#000000;stroke-width:0.75;stroke-miterlimit:10;}
	.st52{fill:none;stroke:#000000;stroke-width:3;stroke-miterlimit:10;}
	.st53{fill:#FFA5AE;stroke:#000000;stroke-width:0.1;stroke-miterlimit:10;}
	.st54{fill:#FF0000;}
	.st55{fill:#ABBEBD;stroke:#000000;stroke-width:0.25;stroke-miterlimit:10;}
	.st56{opacity:0.6;fill:#FFFFFF;}
	.st57{fill:#FF4A3D;}
	.st58{fill:#7FA7F1;stroke:#7FA7F1;stroke-miterlimit:10;}
	.st59{fill:#ABBEBD;stroke:#000000;stroke-width:1.5;stroke-miterlimit:10;}
	.st60{fill:none;stroke:#000000;stroke-width:0.75;stroke-miterlimit:10;}
	.st61{fill:#FEF7EF;stroke:#000000;stroke-width:0.75;stroke-miterlimit:10;}
	.st62{fill:none;stroke:#000000;stroke-width:0.75;stroke-linecap:round;stroke-miterlimit:10;}
	.st63{fill:#FFFFFF;stroke:#000000;stroke-width:0.75;stroke-miterlimit:10;}
	.st64{fill:#DBDAD2;stroke:#000000;stroke-width:0.5;stroke-miterlimit:10;}
	.st65{fill:#FF4A3D;stroke:#000000;stroke-width:0.5;stroke-linecap:round;stroke-miterlimit:10;}
	.st66{fill:none;stroke:#000000;stroke-width:0.5;stroke-linecap:round;stroke-miterlimit:10;}
	.st67{fill:#F9EEDB;stroke:#000000;stroke-width:0.5;stroke-miterlimit:10;}
	.st68{fill:#7F7F7F;stroke:#000000;stroke-width:0.5;stroke-miterlimit:10;}
	.st69{fill:#7FDCD2;stroke:#000000;stroke-width:0.5;stroke-miterlimit:10;}
	.st70{fill:#FF7BAC;stroke:#2F2F2F;stroke-width:0.5;stroke-miterlimit:10;}
	.st71{fill:none;stroke:#2F2F2F;stroke-width:0.5;stroke-miterlimit:10;}
	.st72{fill:#F9EEDB;stroke:#2F2F2F;stroke-width:0.5;stroke-miterlimit:10;}
	.st73{fill:#2F2F2F;}
	.st74{fill:none;stroke:#F9EEDB;stroke-width:0.5;stroke-miterlimit:10;}
	.st75{fill:none;stroke:#000000;stroke-linejoin:round;stroke-miterlimit:10;}
	.st76{fill:#E3F4EB;stroke:#000000;stroke-width:1.5;stroke-miterlimit:10;}
	.st77{opacity:0.5;}
	.st78{fill:none;stroke:#000000;stroke-width:1.5;stroke-miterlimit:10;}
	.st79{opacity:0.52;fill:#FFFFFF;}
	.st80{opacity:0.47;fill:#2F2F2F;}
	.st81{fill:#FFCF0A;stroke:#2F2F2F;stroke-width:1.5;stroke-miterlimit:10;}
	.st82{fill:none;stroke:#2F2F2F;stroke-width:4;stroke-miterlimit:10;}
	.st83{fill:#F9EEDB;stroke:#7FA7F1;stroke-miterlimit:10;}
	.st84{fill:#F9EEDB;stroke:#2F2F2F;stroke-width:1.5;stroke-miterlimit:10;}
	.st85{fill:none;stroke:#2F2F2F;stroke-width:1.5;stroke-miterlimit:10;}
	.st86{fill:#DBDAD2;stroke:#000000;stroke-width:1.5;stroke-miterlimit:10;}
	.st87{opacity:0.56;fill:#7F7F7F;}
</style>
<g id="Ebene_2">
</g>
<g id="Ebene_1">
	<g>
		<path class="st86" d="M231.4,76c0,25.4-8.7,50.2-35.8,64.2c-18,9.3-85.9,8.5-85.9,8.5s-67.3,6.1-87.3-10.4
			C6.2,124.9,0.8,90.9,0.8,71.9c0-17.8-1.7-29.8,12.7-42.8c7.2-6.5,20.9-19.4,30.6-24c17.3-8.1,44-2.4,66.3-2.4
			c23.3,0,44.2-2.4,62,6.4c13.7,6.8,25.1,15.8,33.1,26.2C213.9,46.2,231.4,62.7,231.4,76z"/>
		<path class="st87" d="M195.6,140.1c-3.4,2.6-16.8,5.3-39,7.1c-15.6,1.3-62.5,1.6-46.8,1.4l0,0c0,0-67.3,6.1-87.3-10.4
			C6.2,124.9,0.8,90.9,0.8,71.9c0-17.8-1.7-29.8,12.7-42.8C26.9,17,37.7,6.7,44.1,5.1c9-2.2-7.1,33.2,1.2,59.1
			C64.1,123.3,204.8,133.1,195.6,140.1z"/>
		<path class="st78" d="M231.4,76.1c0,25.4-8.7,50.2-35.8,64.2c-18,9.3-85.9,8.5-85.9,8.5s-67.3,6.1-87.3-10.4
			C6.2,124.9,0.8,91,0.8,72c0-17.8-1.7-29.8,12.7-42.8c7.2-6.5,20.9-19.4,30.6-24c17.3-8.1,44-2.4,66.3-2.4c23.3,0,44.2-2.4,62,6.4
			c13.7,6.8,25.1,15.8,33.1,26.2C213.9,46.3,231.4,62.8,231.4,76.1z"/>
	</g>
</g>
</svg>
