<?xml version="1.0" encoding="utf-8"?>
<!-- Generator: Adobe Illustrator 25.2.3, SVG Export Plug-In . SVG Version: 6.00 Build 0)  -->
<svg version="1.1" xmlns="http://www.w3.org/2000/svg" xmlns:xlink="http://www.w3.org/1999/xlink" x="0px" y="0px"
	 viewBox="0 0 16 16" style="enable-background:new 0 0 16 16;" xml:space="preserve">
<style type="text/css">
	.st0{fill:#1F1FFF;}
	.st1{fill:#75C9DF;}
	.st2{opacity:0.23;fill:#585957;}
	.st3{fill:#008072;}
	.st4{fill:#FFFFFF;stroke:#000000;stroke-width:0.5;stroke-miterlimit:10;}
	.st5{fill:#AFDCDC;}
	.st6{fill:#F9EEDB;}
	.st7{opacity:0.44;}
	.st8{fill:none;stroke:#FF0000;stroke-miterlimit:10;}
	.st9{fill:#002CA4;}
	.st10{fill:#EEF2F3;}
	.st11{fill:none;stroke:#FFFFFF;stroke-miterlimit:10;}
	.st12{fill:#221F20;}
	.st13{fill:#E492B8;}
	.st14{fill:#F6E778;}
	.st15{fill:#94C9AD;}
	.st16{fill:#AEC4E3;}
	.st17{fill:#FFFFFF;stroke:#94C9AD;stroke-miterlimit:10;}
	.st18{fill:#94C9AD;stroke:#FFFFFF;stroke-miterlimit:10;}
	.st19{fill:#C6C5E0;}
	.st20{fill:#333333;}
	.st21{fill:none;stroke:#8AFF03;stroke-width:0.25;stroke-miterlimit:10;}
	.st22{fill:none;stroke:#8AFF03;stroke-miterlimit:10;}
	.st23{opacity:0.54;fill:#8AFF03;}
	.st24{opacity:0.7;}
	.st25{opacity:0.47;fill:#8AFF03;}
	.st26{opacity:0.24;fill:#8AFF03;}
	.st27{opacity:0.47;}
	.st28{fill:#8AFF03;}
	.st29{fill:#333333;stroke:#00FFFF;stroke-miterlimit:10;}
	.st30{fill:none;stroke:#00FFFF;stroke-miterlimit:10;}
	.st31{fill:#00FFFF;stroke:#00FFFF;stroke-miterlimit:10;}
	.st32{fill:#FFFFFF;}
	.st33{fill:#1168D9;}
	.st34{opacity:0.42;fill:#00FFFF;}
	.st35{fill:#1BCCC7;}
	.st36{fill:#D8E0F2;}
	.st37{fill:#020F59;}
	.st38{fill:#7787A6;}
	.st39{fill:#1168D9;stroke:#00FFFF;stroke-miterlimit:10;}
	.st40{fill:#0050E3;}
	.st41{fill:#FFA8A7;}
	.st42{fill:#FFCFD0;}
	.st43{fill:#0050E3;stroke:#1B1464;stroke-miterlimit:10;}
	.st44{fill:#00BAA5;}
	.st45{fill:#C7EAD7;}
	.st46{opacity:0.42;}
	.st47{fill:#00FFFF;}
	.st48{opacity:0.54;fill:#00FFFF;}
	.st49{opacity:0.54;fill:none;stroke:#00FFFF;stroke-miterlimit:10;}
	.st50{fill:#FF3627;}
	.st51{fill:#D80000;}
	.st52{fill:#1B9787;}
	.st53{fill:#FEFD87;}
	.st54{fill:#002D82;}
	.st55{fill:#00106A;}
	.st56{fill:#22B573;stroke:#000000;stroke-width:0.5;stroke-miterlimit:10;}
	.st57{fill:#FFD900;}
	.st58{fill:#DAB312;stroke:#000000;stroke-width:0.5;stroke-miterlimit:10;}
	.st59{fill:#F14564;}
	.st60{fill:none;stroke:#000000;stroke-width:0.5;stroke-miterlimit:10;}
	.st61{fill:#ABBEBD;stroke:#000000;stroke-width:0.5;stroke-miterlimit:10;}
	.st62{fill:#AFDCDC;stroke:#000000;stroke-width:0.5;stroke-miterlimit:10;}
	.st63{fill:#FFBECA;}
	.st64{fill:#FFA5AE;}
	.st65{fill:#8FBC9C;}
	.st66{fill:none;stroke:#000000;stroke-width:0.25;stroke-miterlimit:10;}
	.st67{opacity:0.32;fill:#585957;}
	.st68{fill:none;stroke:#000000;stroke-width:2;stroke-miterlimit:10;}
	.st69{fill:#FFE7A0;stroke:#000000;stroke-width:0.5;stroke-miterlimit:10;}
	.st70{fill:#FFE7A0;}
	.st71{fill:#FF1D25;}
	.st72{opacity:0.67;fill:#FF0000;stroke:#1F1FFF;stroke-miterlimit:10;}
	.st73{fill:#DBDAD2;stroke:#000000;stroke-width:0.75;stroke-miterlimit:10;}
	.st74{fill:#ABBEBD;stroke:#000000;stroke-width:0.75;stroke-miterlimit:10;}
	.st75{opacity:0.12;}
	.st76{fill:#008072;stroke:#000000;stroke-width:0.75;stroke-miterlimit:10;}
	.st77{fill:#FFE7A0;stroke:#000000;stroke-width:0.75;stroke-miterlimit:10;}
	.st78{fill:#FFA5AE;stroke:#000000;stroke-width:0.75;stroke-miterlimit:10;}
	.st79{stroke:#000000;stroke-width:2;stroke-miterlimit:10;}
	.st80{fill:none;stroke:#000000;stroke-width:3;stroke-miterlimit:10;}
	.st81{fill:none;stroke:#FF0000;stroke-width:1.000000e-02;stroke-miterlimit:10;}
	.st82{fill:none;stroke:#000000;stroke-width:4;stroke-miterlimit:10;}
	.st83{fill:none;stroke:#000000;stroke-width:5;stroke-miterlimit:10;}
	.st84{fill:#FF0000;}
	.st85{fill:#C1272D;}
	.st86{fill:#FFA5AE;stroke:#000000;stroke-width:0.1;stroke-miterlimit:10;}
	.st87{fill:#ABBEBD;stroke:#000000;stroke-width:0.25;stroke-miterlimit:10;}
	.st88{opacity:0.6;fill:#FFFFFF;}
	.st89{fill:#FF4A3D;}
</style>
<g id="Ebene_2">
</g>
<g id="Ebene_1">
	<rect x="-0.1" y="-0.2" class="st65" width="16.4" height="16.4"/>
	<g>
		<circle cx="2.8" cy="9.9" r="1.3"/>
		<circle cx="2.8" cy="6.2" r="1.3"/>
		<circle cx="13.8" cy="8.2" r="1.3"/>
		<circle cx="8.4" cy="6.2" r="1.3"/>
		<circle cx="8.4" cy="2.4" r="1.3"/>
		<circle cx="8.4" cy="13.8" r="1.3"/>
		<circle cx="8.4" cy="9.9" r="1.3"/>
		<line class="st66" x1="2.8" y1="6.2" x2="8.4" y2="2.4"/>
		<line class="st66" x1="2.8" y1="9.9" x2="8.3" y2="2.4"/>
		<line class="st66" x1="13.8" y1="8.2" x2="8.4" y2="2.4"/>
		<line class="st66" x1="13.8" y1="8.2" x2="8.4" y2="6.2"/>
		<line class="st66" x1="13.8" y1="8.2" x2="8.4" y2="10"/>
		<line class="st66" x1="13.8" y1="8.2" x2="8.4" y2="13.9"/>
		<line class="st66" x1="8.3" y1="6.2" x2="2.8" y2="6.2"/>
		<line class="st66" x1="8.4" y1="10" x2="2.8" y2="6.2"/>
		<line class="st66" x1="8.4" y1="13.8" x2="2.8" y2="6.2"/>
		<line class="st66" x1="2.8" y1="9.9" x2="8.4" y2="6.2"/>
		<line class="st66" x1="2.8" y1="9.9" x2="8.4" y2="13.8"/>
		<line class="st66" x1="2.8" y1="9.9" x2="8.4" y2="10"/>
	</g>
	<g>
		<g>
			<circle class="st63" cx="2.8" cy="6.2" r="1.2"/>
			<path class="st64" d="M3.7,6c0,0.7-0.6,1.2-1.2,1.2C2.2,7.2,2,7.2,1.8,7c0.2,0.3,0.6,0.4,0.9,0.4C3.5,7.5,4,6.9,4,6.2
				c0-0.4-0.2-0.8-0.6-1.1C3.6,5.4,3.7,5.7,3.7,6z"/>
		</g>
		<g>
			<g>
				<path d="M2.8,5C3.5,5,4,5.5,4,6.2c0,0.7-0.6,1.2-1.2,1.2c-0.7,0-1.2-0.6-1.2-1.2C1.5,5.5,2.1,5,2.8,5 M2.8,4.7
					c-0.8,0-1.5,0.7-1.5,1.5s0.7,1.5,1.5,1.5c0.8,0,1.5-0.7,1.5-1.5S3.6,4.7,2.8,4.7L2.8,4.7z"/>
			</g>
		</g>
		<ellipse transform="matrix(0.821 -0.5709 0.5709 0.821 -2.7385 2.2298)" class="st32" cx="2.2" cy="5.5" rx="0.4" ry="0.2"/>
	</g>
	<g>
		<g>
			<circle class="st63" cx="2.8" cy="9.9" r="1.2"/>
			<path class="st64" d="M3.7,9.7c0,0.7-0.6,1.2-1.2,1.2c-0.2,0-0.5-0.1-0.7-0.2c0.2,0.3,0.6,0.4,0.9,0.4c0.7,0,1.2-0.6,1.2-1.2
				c0-0.4-0.2-0.8-0.6-1.1C3.6,9.1,3.7,9.3,3.7,9.7z"/>
		</g>
		<g>
			<g>
				<path d="M2.8,8.6C3.5,8.6,4,9.2,4,9.9c0,0.7-0.6,1.2-1.2,1.2c-0.7,0-1.2-0.6-1.2-1.2C1.5,9.2,2.1,8.6,2.8,8.6 M2.8,8.4
					c-0.8,0-1.5,0.7-1.5,1.5s0.7,1.5,1.5,1.5c0.8,0,1.5-0.7,1.5-1.5S3.6,8.4,2.8,8.4L2.8,8.4z"/>
			</g>
		</g>
		<ellipse transform="matrix(0.821 -0.5709 0.5709 0.821 -4.833 2.8865)" class="st32" cx="2.2" cy="9.2" rx="0.4" ry="0.2"/>
	</g>
	<g>
		<g>
			<circle class="st63" cx="8.4" cy="6.2" r="1.2"/>
			<path class="st64" d="M9.3,6c0,0.7-0.6,1.2-1.2,1.2C7.8,7.2,7.6,7.2,7.4,7C7.6,7.3,8,7.5,8.4,7.5c0.7,0,1.2-0.6,1.2-1.2
				c0-0.4-0.2-0.8-0.6-1.1C9.2,5.4,9.3,5.7,9.3,6z"/>
		</g>
		<g>
			<g>
				<path d="M8.4,5C9,5,9.6,5.5,9.6,6.2c0,0.7-0.6,1.2-1.2,1.2c-0.7,0-1.2-0.6-1.2-1.2C7.1,5.5,7.7,5,8.4,5 M8.4,4.7
					c-0.8,0-1.5,0.7-1.5,1.5s0.7,1.5,1.5,1.5S9.9,7,9.9,6.2S9.2,4.7,8.4,4.7L8.4,4.7z"/>
			</g>
		</g>
		<ellipse transform="matrix(0.821 -0.5709 0.5709 0.821 -1.738 5.4209)" class="st32" cx="7.8" cy="5.5" rx="0.4" ry="0.2"/>
	</g>
	<g>
		<g>
			<circle class="st63" cx="8.3" cy="2.4" r="1.2"/>
			<path class="st64" d="M9.3,2.1c0,0.7-0.6,1.2-1.2,1.2c-0.2,0-0.5-0.1-0.7-0.2C7.6,3.4,8,3.6,8.3,3.6C9,3.6,9.6,3,9.6,2.4
				c0-0.4-0.2-0.8-0.6-1.1C9.2,1.5,9.3,1.8,9.3,2.1z"/>
		</g>
		<g>
			<g>
				<path d="M8.3,1.1c0.7,0,1.2,0.6,1.2,1.2S9,3.6,8.3,3.6C7.6,3.6,7.1,3,7.1,2.4S7.6,1.1,8.3,1.1 M8.3,0.9c-0.8,0-1.5,0.7-1.5,1.5
					s0.7,1.5,1.5,1.5c0.8,0,1.5-0.7,1.5-1.5S9.2,0.9,8.3,0.9L8.3,0.9z"/>
			</g>
		</g>
		<ellipse transform="matrix(0.821 -0.5709 0.5709 0.821 0.4639 4.7193)" class="st32" cx="7.8" cy="1.6" rx="0.4" ry="0.2"/>
	</g>
	<g>
		<g>
			<circle class="st63" cx="8.3" cy="9.9" r="1.2"/>
			<path class="st64" d="M9.3,9.7c0,0.7-0.6,1.2-1.2,1.2c-0.2,0-0.5-0.1-0.7-0.2C7.6,11,8,11.2,8.3,11.2c0.7,0,1.2-0.6,1.2-1.2
				c0-0.4-0.2-0.8-0.6-1.1C9.2,9.1,9.3,9.4,9.3,9.7z"/>
		</g>
		<g>
			<g>
				<path d="M8.3,8.7c0.7,0,1.2,0.6,1.2,1.2c0,0.7-0.6,1.2-1.2,1.2c-0.7,0-1.2-0.6-1.2-1.2C7.1,9.2,7.6,8.7,8.3,8.7 M8.3,8.4
					c-0.8,0-1.5,0.7-1.5,1.5s0.7,1.5,1.5,1.5c0.8,0,1.5-0.7,1.5-1.5S9.2,8.4,8.3,8.4L8.3,8.4z"/>
			</g>
		</g>
		<ellipse transform="matrix(0.821 -0.5709 0.5709 0.821 -3.8642 6.0763)" class="st32" cx="7.8" cy="9.2" rx="0.4" ry="0.2"/>
	</g>
	<g>
		<g>
			<circle class="st63" cx="8.3" cy="13.7" r="1.2"/>
			<path class="st64" d="M9.3,13.5c0,0.7-0.6,1.2-1.2,1.2c-0.2,0-0.5-0.1-0.7-0.2C7.6,14.8,8,15,8.3,15c0.7,0,1.2-0.6,1.2-1.2
				c0-0.4-0.2-0.8-0.6-1.1C9.2,12.9,9.3,13.2,9.3,13.5z"/>
		</g>
		<g>
			<g>
				<path d="M8.3,12.5c0.7,0,1.2,0.6,1.2,1.2C9.6,14.4,9,15,8.3,15c-0.7,0-1.2-0.6-1.2-1.2C7.1,13,7.6,12.5,8.3,12.5 M8.3,12.2
					c-0.8,0-1.5,0.7-1.5,1.5s0.7,1.5,1.5,1.5c0.8,0,1.5-0.7,1.5-1.5S9.2,12.2,8.3,12.2L8.3,12.2z"/>
			</g>
		</g>
		<ellipse transform="matrix(0.821 -0.5709 0.5709 0.821 -6.0317 6.7559)" class="st32" cx="7.8" cy="13" rx="0.4" ry="0.2"/>
	</g>
	<g>
		<g>
			<circle class="st63" cx="13.8" cy="8.3" r="1.2"/>
			<path class="st64" d="M14.8,8.1c0,0.7-0.6,1.2-1.2,1.2c-0.2,0-0.5-0.1-0.7-0.2c0.2,0.3,0.6,0.4,0.9,0.4C14.5,9.5,15,9,15,8.3
				c0-0.4-0.2-0.8-0.6-1.1C14.6,7.5,14.8,7.7,14.8,8.1z"/>
		</g>
		<g>
			<g>
				<path d="M13.8,7C14.5,7,15,7.6,15,8.3s-0.6,1.2-1.2,1.2c-0.7,0-1.2-0.6-1.2-1.2S13.1,7,13.8,7 M13.8,6.8c-0.8,0-1.5,0.7-1.5,1.5
					s0.7,1.5,1.5,1.5c0.8,0,1.5-0.7,1.5-1.5S14.6,6.8,13.8,6.8L13.8,6.8z"/>
			</g>
		</g>
		<ellipse transform="matrix(0.821 -0.5709 0.5709 0.821 -1.9453 8.8916)" class="st32" cx="13.2" cy="7.5" rx="0.4" ry="0.2"/>
	</g>
</g>
</svg>
