<?xml version="1.0" encoding="utf-8"?>
<!-- Generator: Adobe Illustrator 25.2.3, SVG Export Plug-In . SVG Version: 6.00 Build 0)  -->
<svg version="1.1" xmlns="http://www.w3.org/2000/svg" xmlns:xlink="http://www.w3.org/1999/xlink" x="0px" y="0px"
	 viewBox="0 0 55.9 72" style="enable-background:new 0 0 55.9 72;" xml:space="preserve">
<style type="text/css">
	.st0{fill:#1F1FFF;}
	.st1{fill:#75C9DF;}
	.st2{opacity:0.23;fill:#585957;}
	.st3{fill:#008072;}
	.st4{fill:#FFFFFF;stroke:#000000;stroke-width:0.5;stroke-miterlimit:10;}
	.st5{fill:#AFDCDC;}
	.st6{fill:#F9EEDB;}
	.st7{opacity:0.44;}
	.st8{fill:none;stroke:#FF0000;stroke-miterlimit:10;}
	.st9{fill:#002CA4;}
	.st10{fill:#EEF2F3;}
	.st11{fill:none;stroke:#FFFFFF;stroke-miterlimit:10;}
	.st12{fill:#221F20;}
	.st13{fill:#E492B8;}
	.st14{fill:#F6E778;}
	.st15{fill:#94C9AD;}
	.st16{fill:#AEC4E3;}
	.st17{fill:#FFFFFF;stroke:#94C9AD;stroke-miterlimit:10;}
	.st18{fill:#94C9AD;stroke:#FFFFFF;stroke-miterlimit:10;}
	.st19{fill:#C6C5E0;}
	.st20{fill:#333333;}
	.st21{fill:none;stroke:#8AFF03;stroke-width:0.25;stroke-miterlimit:10;}
	.st22{fill:none;stroke:#8AFF03;stroke-miterlimit:10;}
	.st23{opacity:0.54;fill:#8AFF03;}
	.st24{opacity:0.7;}
	.st25{opacity:0.47;fill:#8AFF03;}
	.st26{opacity:0.24;fill:#8AFF03;}
	.st27{opacity:0.47;}
	.st28{fill:#8AFF03;}
	.st29{fill:#333333;stroke:#00FFFF;stroke-miterlimit:10;}
	.st30{fill:none;stroke:#00FFFF;stroke-miterlimit:10;}
	.st31{fill:#00FFFF;stroke:#00FFFF;stroke-miterlimit:10;}
	.st32{fill:#FFFFFF;}
	.st33{fill:#1168D9;}
	.st34{opacity:0.42;fill:#00FFFF;}
	.st35{fill:#1BCCC7;}
	.st36{fill:#D8E0F2;}
	.st37{fill:#020F59;}
	.st38{fill:#7787A6;}
	.st39{fill:#1168D9;stroke:#00FFFF;stroke-miterlimit:10;}
	.st40{fill:#0050E3;}
	.st41{fill:#FFA8A7;}
	.st42{fill:#FFCFD0;}
	.st43{fill:#0050E3;stroke:#1B1464;stroke-miterlimit:10;}
	.st44{fill:#00BAA5;}
	.st45{fill:#C7EAD7;}
	.st46{opacity:0.42;}
	.st47{fill:#00FFFF;}
	.st48{opacity:0.54;fill:#00FFFF;}
	.st49{opacity:0.54;fill:none;stroke:#00FFFF;stroke-miterlimit:10;}
	.st50{fill:#FF3627;}
	.st51{fill:#D80000;}
	.st52{fill:#1B9787;}
	.st53{fill:#FEFD87;}
	.st54{fill:#002D82;}
	.st55{fill:#00106A;}
	.st56{fill:#22B573;stroke:#000000;stroke-width:0.5;stroke-miterlimit:10;}
	.st57{fill:#FFD900;}
	.st58{fill:#DAB312;stroke:#000000;stroke-width:0.5;stroke-miterlimit:10;}
	.st59{fill:#F14564;}
	.st60{fill:none;stroke:#000000;stroke-width:0.5;stroke-miterlimit:10;}
	.st61{fill:#ABBEBD;stroke:#000000;stroke-width:0.5;stroke-miterlimit:10;}
	.st62{fill:#AFDCDC;stroke:#000000;stroke-width:0.5;stroke-miterlimit:10;}
	.st63{fill:#FFBECA;}
	.st64{fill:#FFA5AE;}
	.st65{fill:#8FBC9C;}
	.st66{fill:none;stroke:#000000;stroke-width:0.25;stroke-miterlimit:10;}
	.st67{opacity:0.32;fill:#585957;}
	.st68{fill:none;stroke:#000000;stroke-width:2;stroke-miterlimit:10;}
	.st69{fill:#FFE7A0;stroke:#000000;stroke-width:0.5;stroke-miterlimit:10;}
	.st70{fill:#FFE7A0;}
	.st71{fill:#FF1D25;}
	.st72{opacity:0.67;fill:#FF0000;stroke:#1F1FFF;stroke-miterlimit:10;}
	.st73{fill:#DBDAD2;stroke:#000000;stroke-width:0.75;stroke-miterlimit:10;}
	.st74{fill:#ABBEBD;stroke:#000000;stroke-width:0.75;stroke-miterlimit:10;}
	.st75{opacity:0.12;}
	.st76{fill:#008072;stroke:#000000;stroke-width:0.75;stroke-miterlimit:10;}
	.st77{fill:#FFE7A0;stroke:#000000;stroke-width:0.75;stroke-miterlimit:10;}
	.st78{fill:#FFA5AE;stroke:#000000;stroke-width:0.75;stroke-miterlimit:10;}
	.st79{stroke:#000000;stroke-width:2;stroke-miterlimit:10;}
	.st80{fill:none;stroke:#000000;stroke-width:3;stroke-miterlimit:10;}
	.st81{fill:none;stroke:#FF0000;stroke-width:1.000000e-02;stroke-miterlimit:10;}
	.st82{fill:none;stroke:#000000;stroke-width:4;stroke-miterlimit:10;}
	.st83{fill:none;stroke:#000000;stroke-width:5;stroke-miterlimit:10;}
	.st84{fill:#FF0000;}
	.st85{fill:#C1272D;}
	.st86{fill:#FFA5AE;stroke:#000000;stroke-width:0.1;stroke-miterlimit:10;}
	.st87{fill:#ABBEBD;stroke:#000000;stroke-width:0.25;stroke-miterlimit:10;}
	.st88{opacity:0.6;fill:#FFFFFF;}
	.st89{fill:#FF4A3D;}
</style>
<g id="Ebene_2">
</g>
<g id="Ebene_1">
	<g>
		<rect x="5.7" y="8" transform="matrix(0.9915 0.1301 -0.1301 0.9915 5.247 -3.4167)" class="st4" width="46.1" height="60.9"/>
		<rect x="5" y="7" transform="matrix(0.9915 0.1301 -0.1301 0.9915 5.1128 -3.3269)" class="st4" width="46.1" height="60.9"/>
		<rect x="4" y="6" transform="matrix(0.9915 0.1301 -0.1301 0.9915 4.9741 -3.2146)" class="st4" width="46.1" height="60.9"/>
		<path class="st60" d="M17.1,4.6c0.5-1.1,0.4-2.3-0.3-3.2c-0.6-0.8-1.5-1.1-1.8-1.1c-2.1-0.2-3.9,1.1-4.3,2.8
			c-0.3,1.3,0.2,2.6,1.3,3.5"/>
		<path class="st60" d="M20.9,5.1c0.5-1.1,0.4-2.3-0.3-3.2c-0.6-0.8-1.5-1.1-1.8-1.1c-2.1-0.2-3.9,1.1-4.3,2.8
			c-0.3,1.3,0.2,2.6,1.3,3.5"/>
		<path class="st60" d="M24.7,5.6c0.5-1.1,0.4-2.3-0.3-3.2c-0.6-0.8-1.5-1.1-1.8-1.1c-2.1-0.2-3.9,1.1-4.3,2.8
			c-0.3,1.3,0.2,2.6,1.3,3.5"/>
		<path class="st60" d="M28.5,6.1C29,5,28.9,3.8,28.2,2.9c-0.6-0.8-1.5-1.1-1.8-1.1c-2.1-0.2-3.9,1.1-4.3,2.8
			c-0.3,1.3,0.2,2.6,1.3,3.5"/>
		<path class="st60" d="M32.3,6.6c0.5-1.1,0.4-2.3-0.3-3.2c-0.6-0.8-1.5-1.1-1.8-1.1c-2.1-0.2-3.9,1.1-4.3,2.8
			c-0.3,1.3,0.2,2.6,1.3,3.5"/>
		<path class="st60" d="M36,7.1c0.5-1.1,0.4-2.3-0.3-3.2C35.1,3,34.2,2.8,34,2.8c-2.1-0.2-3.9,1.1-4.3,2.8C29.4,6.8,30,8.2,31,9.1"
			/>
		<path class="st60" d="M39.8,7.6c0.5-1.1,0.4-2.3-0.3-3.2c-0.6-0.8-1.5-1.1-1.8-1.1c-2.1-0.2-3.9,1.1-4.3,2.8
			c-0.3,1.3,0.2,2.6,1.3,3.5"/>
		<path class="st60" d="M43.6,8.1C44.1,7,44,5.8,43.3,4.9c-0.6-0.8-1.5-1.1-1.8-1.1c-2.1-0.2-3.9,1.1-4.3,2.8
			c-0.3,1.3,0.2,2.6,1.3,3.5"/>
		<path class="st60" d="M47.4,8.6c0.5-1.1,0.4-2.3-0.3-3.2c-0.6-0.8-1.5-1.1-1.8-1.1C43.2,4,41.4,5.3,41.1,7
			c-0.3,1.3,0.2,2.6,1.3,3.5"/>
		<path class="st60" d="M51.2,9.1c0.5-1.1,0.4-2.3-0.3-3.2c-0.6-0.8-1.5-1.1-1.8-1.1c-2.1-0.2-3.9,1.1-4.3,2.8
			c-0.3,1.3,0.2,2.6,1.3,3.5"/>
	</g>
	<path class="st60" d="M44.9,28.3C28.7,34.4,22.5,35,21.3,33c-1.7-2.9,7.5-10.2,5.2-13.9c-1.3-2.1-5.9-2.6-8.3-0.7
		c-3.7,3,1.1,9.3-1.3,19.4c-2.1,8.6-7.1,11-5.6,13.9c2.3,4.5,17.4,4.4,21.4-2.2c4.5-7.5-7.2-19.9-4.5-22.1
		c2.8-2.3,18.1,7.8,16.5,13.1c-1.2,4-12,4.7-19.1,3.4c-5.8-1-10.1-3.5-12.7-5.2"/>
</g>
</svg>
