<?xml version="1.0" encoding="utf-8"?>
<!-- Generator: Adobe Illustrator 25.2.3, SVG Export Plug-In . SVG Version: 6.00 Build 0)  -->
<svg version="1.1" xmlns="http://www.w3.org/2000/svg" xmlns:xlink="http://www.w3.org/1999/xlink" x="0px" y="0px"
	 viewBox="0 0 271.4 232.5" style="enable-background:new 0 0 271.4 232.5;" xml:space="preserve">
<style type="text/css">
	.st0{fill:#1F1FFF;}
	.st1{fill:#75C9DF;}
	.st2{opacity:0.23;fill:#585957;}
	.st3{fill:#008072;}
	.st4{fill:#FFFFFF;stroke:#000000;stroke-width:0.5;stroke-miterlimit:10;}
	.st5{fill:#AFDCDC;}
	.st6{fill:#F9EEDB;}
	.st7{opacity:0.44;}
	.st8{fill:none;stroke:#FF0000;stroke-miterlimit:10;}
	.st9{fill:#002CA4;}
	.st10{fill:#EEF2F3;}
	.st11{fill:none;stroke:#FFFFFF;stroke-miterlimit:10;}
	.st12{fill:#221F20;}
	.st13{fill:#E492B8;}
	.st14{fill:#F6E778;}
	.st15{fill:#94C9AD;}
	.st16{fill:#AEC4E3;}
	.st17{fill:#FFFFFF;stroke:#94C9AD;stroke-miterlimit:10;}
	.st18{fill:#94C9AD;stroke:#FFFFFF;stroke-miterlimit:10;}
	.st19{fill:#C6C5E0;}
	.st20{fill:#333333;}
	.st21{fill:none;stroke:#8AFF03;stroke-width:0.25;stroke-miterlimit:10;}
	.st22{fill:none;stroke:#8AFF03;stroke-miterlimit:10;}
	.st23{opacity:0.54;fill:#8AFF03;}
	.st24{opacity:0.7;}
	.st25{opacity:0.47;fill:#8AFF03;}
	.st26{opacity:0.24;fill:#8AFF03;}
	.st27{opacity:0.47;}
	.st28{fill:#8AFF03;}
	.st29{fill:#333333;stroke:#00FFFF;stroke-miterlimit:10;}
	.st30{fill:none;stroke:#00FFFF;stroke-miterlimit:10;}
	.st31{fill:#00FFFF;stroke:#00FFFF;stroke-miterlimit:10;}
	.st32{fill:#FFFFFF;}
	.st33{fill:#1168D9;}
	.st34{opacity:0.42;fill:#00FFFF;}
	.st35{fill:#1BCCC7;}
	.st36{fill:#D8E0F2;}
	.st37{fill:#020F59;}
	.st38{fill:#7787A6;}
	.st39{fill:#1168D9;stroke:#00FFFF;stroke-miterlimit:10;}
	.st40{fill:#0050E3;}
	.st41{fill:#FFA8A7;}
	.st42{fill:#FFCFD0;}
	.st43{fill:#0050E3;stroke:#1B1464;stroke-miterlimit:10;}
	.st44{fill:#00BAA5;}
	.st45{fill:#C7EAD7;}
	.st46{opacity:0.42;}
	.st47{fill:#00FFFF;}
	.st48{opacity:0.54;fill:#00FFFF;}
	.st49{opacity:0.54;fill:none;stroke:#00FFFF;stroke-miterlimit:10;}
	.st50{fill:#FF3627;}
	.st51{fill:#D80000;}
	.st52{fill:#1B9787;}
	.st53{fill:#FEFD87;}
	.st54{fill:#002D82;}
	.st55{fill:#00106A;}
	.st56{fill:#22B573;stroke:#000000;stroke-width:0.5;stroke-miterlimit:10;}
	.st57{fill:#FFD900;}
	.st58{fill:#DAB312;stroke:#000000;stroke-width:0.5;stroke-miterlimit:10;}
	.st59{fill:#F14564;}
	.st60{fill:none;stroke:#000000;stroke-width:0.5;stroke-miterlimit:10;}
	.st61{fill:#ABBEBD;stroke:#000000;stroke-width:0.5;stroke-miterlimit:10;}
	.st62{fill:#AFDCDC;stroke:#000000;stroke-width:0.5;stroke-miterlimit:10;}
	.st63{fill:#FFBECA;}
	.st64{fill:#FFA5AE;}
	.st65{fill:#8FBC9C;}
	.st66{fill:none;stroke:#000000;stroke-width:0.25;stroke-miterlimit:10;}
	.st67{opacity:0.32;fill:#585957;}
	.st68{fill:none;stroke:#000000;stroke-width:2;stroke-miterlimit:10;}
	.st69{fill:#FFE7A0;stroke:#000000;stroke-width:0.5;stroke-miterlimit:10;}
	.st70{fill:#FFE7A0;}
	.st71{fill:#FF1D25;}
	.st72{opacity:0.67;fill:#FF0000;stroke:#1F1FFF;stroke-miterlimit:10;}
	.st73{fill:#DBDAD2;stroke:#000000;stroke-width:0.75;stroke-miterlimit:10;}
	.st74{fill:#ABBEBD;stroke:#000000;stroke-width:0.75;stroke-miterlimit:10;}
	.st75{opacity:0.12;}
	.st76{fill:#008072;stroke:#000000;stroke-width:0.75;stroke-miterlimit:10;}
	.st77{fill:#FFE7A0;stroke:#000000;stroke-width:0.75;stroke-miterlimit:10;}
	.st78{fill:#FFA5AE;stroke:#000000;stroke-width:0.75;stroke-miterlimit:10;}
	.st79{stroke:#000000;stroke-width:2;stroke-miterlimit:10;}
	.st80{fill:none;stroke:#000000;stroke-width:3;stroke-miterlimit:10;}
	.st81{fill:none;stroke:#FF0000;stroke-width:1.000000e-02;stroke-miterlimit:10;}
	.st82{fill:none;stroke:#000000;stroke-width:4;stroke-miterlimit:10;}
	.st83{fill:none;stroke:#000000;stroke-width:5;stroke-miterlimit:10;}
	.st84{fill:#FF0000;}
	.st85{fill:#C1272D;}
	.st86{fill:#FFA5AE;stroke:#000000;stroke-width:0.1;stroke-miterlimit:10;}
	.st87{fill:#ABBEBD;stroke:#000000;stroke-width:0.25;stroke-miterlimit:10;}
	.st88{opacity:0.6;fill:#FFFFFF;}
	.st89{fill:#FF4A3D;}
</style>
<g id="Ebene_2">
</g>
<g id="Ebene_1">
	<path class="st32" d="M584,300.6 M110.8,496.5c2.1,0.5,3.8,0.3,5.4,0.1c6.4-0.9,12.7-2,19.1-2.9c9.4-1.3,18.8-2.5,28.2-3.7
		c7.4-1,14.8-1.9,22.2-3c7.3-1,14.5-2.1,21.8-3.1c5.5-0.8,9.9-3.6,14-7.1c2.5-2,4.3-4.6,5.8-7.4c2.5-4.7,4.6-9.5,5.2-14.9
		c0.5-4.6-0.3-8.9-1.7-13.1c-1.7-5.1-4.3-9.8-7.6-14c-3-3.8-5.4-8-7.6-12.2c-2.4-4.6-3.5-9.5-3.3-14.6c0.2-6.3,1.5-12.3,4.6-17.8
		c0.2-0.4,0.5-0.9,0.8-1.3c2.4-5.3,4.7-10.6,7.2-15.9c2.9-6.3,5.8-12.6,8.8-18.9c1.9-3.9,3.5-7.8,5.2-11.8c2-4.6,4.2-9.2,6.4-13.8
		c2.9-6,6-12,8.7-18.1c3.3-7.4,6.1-15,9.3-22.4c3.9-9.1,7.9-18.1,11.8-27.2c0.4-0.8,0.9-1.5,1.2-2.4c0.2-0.7,0.2-1.5-0.9-2
		c-0.3,0.1-0.9,0.1-1.3,0.3c-3.8,2-7.9,3.4-12,4.6c-2.4,0.7-4.8,1.7-7.1,2.5c-7.6,2.8-15.1,5.7-22.8,8.5c-7.4,2.7-14.8,5.2-22.2,7.9
		c-10,3.6-20,7.2-30,10.7c-5.5,2-11,3.9-16.5,5.9c-4.9,1.8-9.7,3.7-14.6,5.3c-8.1,2.5-16.2,5.1-24.8,5.1c-0.4,0-0.8,0.1-1.1,0.1
		c-5.8,0.8-11.6,0-17.4-0.5c-3.4-0.3-6.8-1-10.1-1.5c-0.9-0.1-1.8-0.3-2.6-0.6c-4.2-1.5-8.3-3-12.5-4.5c-1.9-0.7-3.8-1.5-5.6-2.4
		c-5.4-2.8-10.4-6.2-15.2-10c-5.6-4.4-10.5-9.5-15.4-14.6c-4.1-4.3-8-8.8-12-13.2c-0.4-0.5-0.7-1.1-1.7-0.8c0,0.9,0.1,1.9,0,2.8
		c-0.5,3.8-1.1,7.5-1.7,11.3c-1,7-2,14-3.1,21c-0.6,3.9-1.3,7.7-1.9,11.6c-1.1,7.6-2.2,15.3-3.3,22.9c-0.9,5.8-1.8,11.5-2.7,17.2
		c-1.1,7.4-2.2,14.8-3.3,22.2c-1,6.9-2,13.8-3.2,20.7c-0.3,1.6-0.1,3,0.4,4.5c2.6,7.3,5.2,14.5,7.7,21.8c3.4,9.9,7.4,19.6,10.8,29.6
		c2.6,7.8,5.5,15.5,8.3,23.2c0.4,1,0.4,2.3,2,3c0.2-0.3,0.4-0.8,0.8-1.2c5.2-5.9,10.4-11.8,15.6-17.6c5.7-6.3,11.3-12.6,17-18.9
		c4.4-4.9,8.9-9.7,13.3-14.6c6-6.6,12-13,17.9-19.7c3.7-4.1,7.9-7.5,12.5-10.4c0.9-0.6,2-1,3.1-1.4c4.2-1.8,8.6-1.8,13-2.2
		c2.1-0.2,4.1,0.1,6,0.7c2.6,0.9,5.3,1.8,7.6,3.3c2.8,1.8,5.5,3.5,7.7,6.1c2.7,3.2,3.8,7.1,4.8,11c0.7,2.8,0.4,5.5-0.1,8.3
		c-1,5.2-3.5,9.8-6,14.3c-4.4,7.8-9,15.5-13.5,23.3c-3.8,6.6-7.4,13.3-11.1,19.9c-2.7,4.7-5.4,9.4-8.2,14.1c-2.2,3.7-4.3,7.4-6.7,11
		C113,491.6,112.1,493.8,110.8,496.5z M403.1,176.4c-16.6,3.1-32.1,7.1-48.4,9.4c0.5,0.6,0.7,1.1,1.1,1.2c5.5,2.1,11.1,4.2,16.7,6.3
		c8.1,3.2,16.2,6.4,24.3,9.6c6.3,2.5,12.6,5.2,19,7.7c8.4,3.3,16.8,6.4,25.1,9.7c1.3,0.5,2.7,0.7,4.1,0.8c4.8,0,9.6,0.1,14.4,0.2
		c11.3,0.3,22.5,0.6,33.8,0.9c2.9,0.1,5.8,0.3,8.7,0.4c4.6,0.2,9.2-0.2,13.4-2.2c3.2-1.6,6.4-3.2,9.3-5.1c4.7-3.1,9.2-6.4,12.4-11
		c2-2.9,4-5.9,5.5-9.1c1.5-3.2,2.8-6.4,2.1-10.2c-1.1-6.6-1.7-13.3-2.5-20c-0.8-5.9-1.6-11.8-2.3-17.7c-0.7-5.1-1.3-10.3-2-15.4
		c-0.9-6.6-1.9-13.3-2.7-19.9c-1.2-8.9-2.2-17.8-3.4-26.7c-1.5-11-3-22.1-4.7-33.1c-0.8-5.3-1.8-10.5-2.9-15.7
		c-0.5-2.4-1.2-4.7-1.8-7c-1.6-6.4-3.2-12.8-4.7-19.2c-0.9-3.8-1.9-7.6-2.8-11.4C513.9-5.1,513-9,512-13c-0.2-0.7-0.7-1.3-1.1-2
		c-2,0-3.9,0.1-5.8,0c-5.2-0.3-10.4-0.6-15.5-0.9c-2.1-0.1-4.3-0.1-6.5-0.2c-4.4-0.2-8.8-0.4-13.3-0.6c-5.3-0.2-10.6-0.2-16-0.3
		c-7-0.1-13.9-0.6-20.9-0.4c-7.9,0.2-15.6-1.1-23.3-2.6c-0.4-0.1-0.9,0-1.6,0c0.2,0.8,0.2,1.3,0.4,1.7c1,2.4,2.1,4.9,3.2,7.3
		c2.2,4.8,4.3,9.7,6.6,14.5c2.9,6.2,6.8,11.8,11.8,16.6c5.1,5,7.8,11.2,7.3,18.4c-0.2,2.8-0.7,5.6-1.5,8.2c-1.6,5-4.5,9.3-8.9,12.5
		c-4.9,3.5-10.2,6.1-15.9,8c-1.4,0.5-2.9,0.9-4.3,1.4c-6.5,2.2-12.9,4.5-19.4,6.6c-8.1,2.6-16,5.5-23.4,9.8c-3.2,1.9-6,4.3-8.7,6.6
		c-6.4,5.3-8.5,12.9-10.1,20.7c-0.1,0.4,0,0.8-0.1,1.1c-0.3,4,0.2,7.9,1.2,11.7c1.6,6,4.5,11.2,9.3,15.3c3.9,3.3,7.9,6.3,12,9.3
		c5.7,4.2,11.5,8.3,17.2,12.5c5.5,4,11,8.1,16.5,12.1C401.7,174.9,402.1,175.4,403.1,176.4z M408.4,550.7c-1.3,0-2.3-0.1-3.3,0
		c-4.3,0.7-8.6,0.3-12.9,0.1c-3.3-0.2-6.6-0.2-9.9-0.3c-4.8-0.2-9.6-0.3-14.4-0.4c-0.5,0-1,0.1-1.5,0c-2.5,0-5,0-7.6-0.1
		c-1.4,0-2.8-0.2-4.2-0.2c-6.5-0.1-12.9-0.1-19.4-0.1c-11.5,0-23.1,0.1-34.6,0.1c-4.4,0-8.9,0.2-13.3-0.6c-3.2-0.6-5.9-2-8.1-4.5
		c-3.7-4.1-4-9.4-0.5-13.7c0.8-1,1.7-1.9,2.5-2.9c1.4-1.8,2.9-3.6,3.9-5.6c1.4-2.9,2.4-6,0.5-9.1c-1.7-2.8-3.6-5.4-7.1-6.3
		c-1.5-0.4-2.9-1-4.3-1.4c-4.7-1.5-9.5-1.1-14.3-1.2c-2.8,1.3-5.7,0.8-8.6,1.1c-3,0.4-6.1,0.5-9.1,0.9c-6.6,0.9-13.3,2-19.9,2.8
		c-10.1,1.1-18.9,5.3-27,11.3c-3.1,2.3-5.6,5.1-8.3,7.8c-3.8,3.7-6.4,8.2-8.8,12.7c-2.8,5.1-4.7,10.7-6.3,16.3
		c-0.2,0.8-0.4,1.7-0.5,2.6c-0.7,7.1-0.7,14.2-0.6,21.3c0.1,7,0.4,13.9,0.6,20.9c0.2,9.1,0.4,18.2,0.6,27.4
		c0.1,4.4,0.2,8.9,0.3,13.3c0.2,8.4,0.4,16.7,0.5,25.1c0.1,7.7,0,15.5-0.1,23.2c0,4.9-0.1,9.9-0.1,14.8c0,0.6,0.2,1.2,0.4,1.7
		c0.4,0,0.5,0,0.6-0.1c3.7-2.7,7.3-5.4,10.9-8.1c4.9-3.6,9.8-7.2,14.8-10.7c7.4-5.2,14.8-10.2,22.2-15.3c6.3-4.3,12.5-8.6,18.8-12.9
		c1.5-1,3.1-1.7,4.8-2.3c3.2-1.2,6.5-2.1,9.7-3.2c8.7-2.7,17.4-5.4,26.1-8.1c5.8-1.8,11.6-3.6,17.4-5.3c1.2-0.4,2-0.9,2.6-2
		c0.4-0.8,1-1.4,1.5-2.2c3.4-5,7.6-9.4,11.1-14.5c3.3-4.8,7-9.3,10.6-13.9c2.8-3.7,5.6-7.5,8.5-11.2c0.3-0.4,0.9-0.7,1.5-1.2
		c0.3,1,0.5,1.6,0.6,2.2c1,7.5,2.9,14.9,3.6,22.5c0.3,3.2,0,6.1-1.1,8.9c-1.4,3.4-2.9,6.7-4.4,10.1c-1.1,2.6-2.1,5.1-3.2,7.7
		c-0.7,1.8-0.4,2.5,1.4,3.2c1.4,0.6,2.9,1.1,4.2,1.7c7.8,3.6,15.6,7.2,23.4,10.9c4.9,2.3,9.8,4.7,14.8,6.8c4.9,2.1,9.5,4.7,14.3,6.9
		c4.6,2.1,9.2,4.2,14.2,5.2c5.2,1,10.1,0.4,14.9-1.4c4.9-1.8,9.2-4.8,12.5-8.9c1.6-1.9,3.5-3.6,4.4-6.1c0.7-1.9,1.5-3.8,2.1-5.7
		c0.4-1.3,0.7-2.8,0.5-4.1c-1.1-6.3-1-12.9-3-19.1c-0.3-0.8-0.2-1.8-0.3-2.6c-0.1-0.8-0.1-1.5-0.3-2.2c-1.5-4.9-2.2-10.1-4.2-15
		c-1-2.3-1.2-4.9-1.9-7.3c-1-3.9-2.5-7.7-3.7-11.6c-1.8-5.7-3.5-11.4-5.3-17.1c-1.3-4.4-2.4-8.8-3.9-13.1
		c-1.8-5.4-3.8-10.7-4.6-16.4C409.1,551.9,408.7,551.5,408.4,550.7z M249.2,38c0-1.4-0.9-1.7-1.6-2.1c-2.9-1.5-5.9-2.9-8.9-4.4
		c-4.4-2.2-8.9-4.4-13.1-6.8c-3.1-1.8-6.2-3.4-9.4-4.8c-5.1-2.2-10.3-4.3-15.4-6.5c-9.6-4.2-19.3-8.4-28.9-12.6
		c-0.7-0.3-1.5-0.6-2.2-0.5c-5.1,0.4-10.1,0-15.2,0c-17-0.2-34-0.2-50.9-0.3C98.4,0,93.2,0.2,88,0.4c-4,0.1-7.7,1.5-11.3,3
		c-3.3,1.3-6.2,3.4-9.3,5.2c-6.3,3.5-10.2,8.9-12.9,15.3c-0.4,0.9-0.6,1.9-0.7,2.9c-0.8,6.3,0.5,12.4,2,18.4c0.9,3.5,2.2,7,3.3,10.5
		c2.3,7.4,4.6,14.7,6.9,22.1c0.6,1.8,1.2,3.6,1.7,5.4c0.3,0.9,0.6,2-0.5,3c-3.1-0.1-6.4-0.7-9.6-1.1c-3.1-0.4-6.3-0.9-9.4-1.4
		c-3.3-0.5-6.5-1-9.8-1.5c-3.2-0.5-6.5-1-9.7-1.5c-3.3-0.5-6.5-1-9.8-1.5c-3.1-0.5-6.2-1.2-9.4-1.4c-3.2-0.2-6.2-2.1-9.6-1.6
		c-0.4,1.7,0.5,2.3,1.5,2.9c5,3,10,6,14.9,9c3,1.9,5.9,3.9,8.9,5.8c5.1,3.3,10.3,6.4,15.4,9.7c9.3,6,18.5,12,27.7,18
		c0.6,0.4,1.3,0.8,1.9,1.3c3,2.3,5.1,5.1,6.2,8.8c1.3,4.3,1.4,8.4,0.2,12.7c-1.1,3.9-2.9,7.3-5.3,10.4c-2.7,3.5-6.4,5.8-10.5,7.3
		c-9.4,3.5-18.8,6.8-28.2,10.1c-3.1,1.1-6.2,2.1-9.3,3.3c-2.2,0.9-4.5,1.7-6.9,2.1c-0.5,0.1-1,0.5-1.5,0.8c0.2,0.5,0.2,0.8,0.3,1
		c2.6,2.5,5.4,5,7.9,7.6c3.9,4,7.5,8.2,11.4,12.2c6.2,6.5,12.5,13,18.6,19.5c4,4.2,8.3,8.1,11.6,13c0.3,0.4,1,0.6,1.6,0.9
		c0.8-0.7,1.5-1.2,2.1-1.8c2.2-2.5,4.8-4.4,7.5-6.4c2.3-1.7,4.6-3.5,6.9-5.4c5.8-4.7,11.5-9.5,17.3-14.2c2.2-1.8,4.5-3.6,6.8-5.5
		c3.1-2.6,6.2-5.2,9.3-7.8c7.9-6.5,15.9-12.9,23.8-19.4c6.4-5.2,12.7-10.4,19.1-15.7c1.4-1.2,2.9-1.8,4.8-1.9
		c4.3-0.1,8.6-0.4,12.9-0.7c5.2-0.3,10.4-0.3,15.5-0.8c5.3-0.5,10.6-0.4,15.8-1c7.4-0.8,14.9-1,22.3-1.4c2.1-0.1,4.3,0,6.5-0.2
		c10.9-0.8,21.7-1.6,32.6-1.9c0.3,0,0.5,0,0.7-0.1c0.3-0.2,0.6-0.5,0.7-0.8c0.1-0.3-0.1-0.8-0.3-1c-0.2-0.3-0.6-0.4-0.9-0.6
		c-2.7-2.1-5.5-4-8.1-6.3c-4.3-3.7-8.4-7.7-12.6-11.5c-3.3-3-6.6-5.9-9.9-8.9c-6.5-5.8-13-11.7-19.5-17.5
		c-7.3-6.5-14.6-12.9-21.9-19.4c-0.9-0.8-2.1-1.5-2.5-3.4C213.3,65.1,231.4,51.6,249.2,38z M364.4,258.7c-0.2,0.6-0.3,0.8-0.3,1.1
		c0.1,4.7,0.4,9.3,0.3,14c-0.1,8.1-0.4,16.2-0.6,24.3c-0.1,2.9-0.1,5.8-0.1,8.7c0,4.8,0.2,9.6-0.1,14.4c-0.6,10.6-0.3,21.2-0.6,31.9
		c-0.1,5.3-0.2,10.6-0.1,15.9c0,2.3-0.7,4.1-2.2,5.8c-4.2,4.9-8.3,9.9-12.4,14.8c-4.2,5.1-8.3,10.2-12.6,15.2
		c-3.2,3.9-6.6,7.7-9.8,11.5c-1.7,2-3,4.5-4.8,6.3c-3.6,3.6-6.4,7.8-9.1,12.1c-1.6,2.6-2.3,5.3-2.4,8.3c0,1.1,0.2,2.3,0.6,3.3
		c2,5.5,9.8,10.2,16,9c7.9-1.5,15.9-3.1,23.7-5.1c2.5-0.6,4.9-1.1,7.4-1.6c1.7-0.4,3.5-0.6,5.2-1c5.5-1.3,11-2.8,16.6-4.1
		c4.3-1,8.7-1.8,13-2.8c4.9-1.1,9.9-2.2,14.8-3.4c1-0.2,1.2-0.2,2.9,0.2c-1.4,1.4-2.8,2.6-4.2,3.9c-1.8,1.8-3.7,3.5-5.3,5.4
		c-5.3,6.8-6.4,14.2-2.5,22c2.8,5.5,7.3,9,13.6,9.8c2.3,0.3,4.5,0.3,6.8,0.4c3.3,0,6.5-0.3,9.8-0.7c8.4-1,16.9-1.8,25.3-2.7
		c5.9-0.7,11.8-1,17.7-1.9c5.5-0.8,11-1.3,16.6-2c6.1-0.8,12.3-1.7,18.4-2.6c7.6-1.1,15.3-2.3,22.9-3.4c0.9-0.1,1.7-0.3,2.6-0.5
		c6.4-1,12.8-1.9,19.1-2.9c0.7-0.1,1.4-0.4,2.2-0.7c0.1-1,0.3-1.9,0.4-2.7c0.2-5.4,0.4-10.9,0.6-16.3c0.3-7.6,0.7-15.2,1-22.8
		c0.1-2,0.1-4,0.1-6.1c0.3-10.8,0.7-21.5,1-32.3c0.3-10.8,0.5-21.5,0.9-32.3c0.3-6.6-0.4-13.1-2.1-19.5c-3.8-14.3-7.4-28.7-11-43
		c-2.3-9.1-4.6-18.2-6.8-27.3c-0.4-1.6-1.2-2.4-2.8-2.6c-4.4-0.7-8.7-1.6-12.9-3c-1.6-0.5-3.2-0.7-4.7-0.7c-1.1,0.8-0.8,1.7-0.6,2.5
		c1.3,8.6,2.1,17.3,2.6,26.1c0.3,5.4,0.8,10.8,1,16.3c0.3,9.1,0.9,18.2,1.4,27.3c0.1,1.8-0.5,2.8-2.1,3.6
		c-8.3,4.3-16.6,8.7-24.9,12.9c-6,3-12.2,5.5-18,8.9c-4.1,2.4-8.5,3.2-13,3.9c-5.5,0.9-11.1,0.3-16.5-1.3c-3.3-1-6.6-1.8-9.4-3.9
		c-3.3-2.4-6.4-5-9.5-7.5c-0.9-0.7-1.5-1.7-2.2-2.6c-4-5.7-8-11.4-12-17.1c-1.1-1.7-1.9-3.6-3.2-5.1c-3.3-3.9-6-8.1-8.9-12.3
		c-6.8-9.8-14.9-18.5-22.1-28c-2-2.6-4.1-5.2-6.1-7.8c-2.5-3.3-5-6.7-7.5-10C365.4,259,365,259,364.4,258.7z M565.6,693.2
		c0.1-0.1,0.1-0.2,0.2-0.3c-0.2,0.1-0.3,0.1-0.5,0.2C565.4,693.1,565.5,693.2,565.6,693.2z M584.2,394.3 M444.9,564
		c-0.2,0-0.3,0-0.4-0.1c0.1,0.1,0.1,0.2,0.2,0.2C444.8,564.1,444.9,564,444.9,564z M168.4,616.3l-0.3,0.1l0.3,0.1L168.4,616.3z"/>
	<path class="st32" d="M252.6,135.7c0.6-0.1,1-0.3,1.3-0.2c0.3,0.1,0.4,0.5,0.6,0.8c-0.3,0.1-0.7,0.3-1,0.2
		C253.3,136.4,253,136,252.6,135.7z"/>
	<path class="st32" d="M60.7,200.3c-0.2-0.1-0.4-0.2-0.5-0.3c0.2-0.2,0.4-0.4,0.6-0.7c0.1,0.2,0.4,0.4,0.3,0.5
		C61.1,200,60.8,200.1,60.7,200.3z"/>
	<polygon class="st32" points="103.5,37 103.8,37 103.7,37.3 	"/>
	<path class="st32" d="M80.7,44.3c0.1,0.1,0.2,0.1,0.2,0.2c0,0-0.1,0.1-0.1,0.2c-0.1-0.1-0.2-0.2-0.4-0.3
		C80.5,44.4,80.6,44.3,80.7,44.3z"/>
	<path class="st32" d="M112.1,31.8c0,0.1,0.1,0.2,0.1,0.3c-0.1,0-0.2,0.1-0.3,0.1c-0.1,0-0.1-0.2-0.1-0.3
		C111.9,31.9,112,31.9,112.1,31.8z"/>
	<polygon class="st32" points="104.1,49.8 104.4,49.8 104.2,49.9 	"/>
	<path class="st32" d="M107.4,58.2c-0.1-0.1-0.2-0.1-0.2-0.2c0.1-0.1,0.3-0.2,0.4-0.2c0,0.1,0.1,0.2,0.1,0.3
		C107.7,58.1,107.5,58.1,107.4,58.2z"/>
	<path class="st32" d="M153.7,63c-0.1,0-0.2,0-0.2,0c0-0.1,0-0.2,0-0.3c0,0,0.2,0,0.3,0C153.7,62.8,153.7,62.9,153.7,63z"/>
	<path class="st32" d="M90.5,69.7c0.1-0.1,0.2-0.2,0.2-0.2c0.2,0.1,0.3,0.2,0.4,0.3c-0.1,0.1-0.1,0.1-0.2,0.2
		C90.8,70,90.6,69.8,90.5,69.7z"/>
	<polygon class="st32" points="76.7,93.2 76.9,93.1 76.9,93.4 	"/>
	<path class="st32" d="M77,96.1c0,0.1,0,0.2,0,0.3c-0.1,0-0.2,0-0.3,0c0-0.1,0-0.3,0-0.3C76.8,96,76.9,96.1,77,96.1z"/>
	<polygon class="st32" points="188.4,80.2 188.1,80.3 188.2,80.1 	"/>
	<polygon class="st32" points="91.5,159.9 91.8,160.1 91.5,160.2 	"/>
	<polygon class="st32" points="107.7,74.7 108,74.9 107.7,75 	"/>
	<polygon class="st32" points="97.5,12.1 97.2,12.1 97.4,11.8 	"/>
	<polygon class="st32" points="99.1,42.1 99.4,42.2 99.1,42.3 	"/>
	<polygon class="st32" points="146.5,37.8 146.3,37.7 146.5,37.6 	"/>
	<path d="M271,146.5c-0.2-0.3-0.6-0.4-0.9-0.6c-2.7-2.1-5.5-4-8.1-6.3c-4.3-3.7-8.4-7.7-12.6-11.5c-3.3-3-6.6-5.9-9.9-8.9
		c-6.5-5.8-13-11.7-19.5-17.5c-7.3-6.5-14.6-12.9-21.9-19.4c-0.9-0.8-2.1-1.5-2.5-3.4c17.6-13.8,35.7-27.3,53.5-40.9
		c0-1.4-0.9-1.7-1.6-2.1c-2.9-1.5-5.9-2.9-8.9-4.4c-4.4-2.2-8.9-4.4-13.1-6.8c-3.1-1.8-6.2-3.4-9.4-4.8c-5.1-2.2-10.3-4.3-15.4-6.5
		c-9.6-4.2-19.3-8.4-28.9-12.6c-0.7-0.3-1.5-0.6-2.2-0.5c-5.1,0.4-10.1,0-15.2,0c-17-0.2-34-0.2-50.9-0.3C98.4,0,93.2,0.2,88,0.4
		c-4,0.1-7.7,1.5-11.3,3c-3.3,1.3-6.2,3.4-9.3,5.2c-6.3,3.5-10.2,8.9-12.9,15.3c-0.4,0.9-0.6,1.9-0.7,2.9c-0.8,6.3,0.5,12.4,2,18.4
		c0.9,3.5,2.2,7,3.3,10.5c2.3,7.4,4.6,14.7,6.9,22.1c0.6,1.8,1.2,3.6,1.7,5.4c0.3,0.9,0.6,2-0.5,3c-3.1-0.1-6.4-0.7-9.6-1.1
		c-3.1-0.4-6.3-0.9-9.4-1.4c-3.3-0.5-6.5-1-9.8-1.5c-3.2-0.5-6.5-1-9.7-1.5c-3.3-0.5-6.5-1-9.8-1.5c-3.1-0.5-6.2-1.2-9.4-1.4
		c-3.2-0.2-6.2-2.1-9.6-1.6c-0.4,1.7,0.5,2.3,1.5,2.9c5,3,10,6,14.9,9c3,1.9,5.9,3.9,8.9,5.8c5.1,3.3,10.3,6.4,15.4,9.7
		c9.3,6,18.5,12,27.7,18c0.6,0.4,1.3,0.8,1.9,1.3c3,2.3,5.1,5.1,6.2,8.8c1.3,4.3,1.4,8.4,0.2,12.7c-1.1,3.9-2.9,7.3-5.3,10.4
		c-2.7,3.5-6.4,5.8-10.5,7.3c-9.4,3.5-18.8,6.8-28.2,10.1c-3.1,1.1-6.2,2.1-9.3,3.3c-2.2,0.9-4.5,1.7-6.9,2.1
		c-0.5,0.1-1,0.5-1.5,0.8c0.2,0.5,0.2,0.8,0.3,1c2.6,2.5,5.4,5,7.9,7.6c3.9,4,7.5,8.2,11.4,12.2c6.2,6.5,12.5,13,18.6,19.5
		c4,4.2,8.3,8.1,11.6,13c0.3,0.4,1,0.6,1.6,0.9c0.8-0.7,1.5-1.2,2.1-1.8c2.2-2.5,4.8-4.4,7.5-6.4c2.3-1.7,4.6-3.5,6.9-5.4
		c5.8-4.7,11.5-9.5,17.3-14.2c2.2-1.8,4.5-3.6,6.8-5.5c3.1-2.6,6.2-5.2,9.3-7.8c7.9-6.5,15.9-12.9,23.8-19.4
		c6.4-5.2,12.7-10.4,19.1-15.7c1.4-1.2,2.9-1.8,4.8-1.9c4.3-0.1,8.6-0.4,12.9-0.7c5.2-0.3,10.4-0.3,15.5-0.8
		c5.3-0.5,10.6-0.4,15.8-1c7.4-0.8,14.9-1,22.3-1.4c2.1-0.1,4.3,0,6.5-0.2c10.9-0.8,21.7-1.6,32.6-1.9c0.3,0,0.5,0,0.7-0.1
		c0.3-0.2,0.6-0.5,0.7-0.8C271.4,147.2,271.3,146.8,271,146.5z"/>
</g>
</svg>
