<?xml version="1.0" encoding="utf-8"?>
<!-- Generator: Adobe Illustrator 25.2.3, SVG Export Plug-In . SVG Version: 6.00 Build 0)  -->
<svg version="1.1" xmlns="http://www.w3.org/2000/svg" xmlns:xlink="http://www.w3.org/1999/xlink" x="0px" y="0px"
	 viewBox="0 0 77.7 77.7" style="enable-background:new 0 0 77.7 77.7;" xml:space="preserve">
<style type="text/css">
	.st0{fill:#1F1FFF;}
	.st1{fill:#75C9DF;}
	.st2{opacity:0.23;fill:#585957;}
	.st3{fill:#008072;}
	.st4{fill:#FFFFFF;stroke:#000000;stroke-width:0.5;stroke-miterlimit:10;}
	.st5{fill:#AFDCDC;}
	.st6{fill:#F9EEDB;}
	.st7{opacity:0.44;}
	.st8{fill:none;stroke:#FF0000;stroke-miterlimit:10;}
	.st9{fill:#002CA4;}
	.st10{fill:#EEF2F3;}
	.st11{fill:none;stroke:#FFFFFF;stroke-miterlimit:10;}
	.st12{fill:#221F20;}
	.st13{fill:#E492B8;}
	.st14{fill:#F6E778;}
	.st15{fill:#94C9AD;}
	.st16{fill:#AEC4E3;}
	.st17{fill:#FFFFFF;stroke:#94C9AD;stroke-miterlimit:10;}
	.st18{fill:#94C9AD;stroke:#FFFFFF;stroke-miterlimit:10;}
	.st19{fill:#C6C5E0;}
	.st20{fill:#333333;}
	.st21{fill:none;stroke:#8AFF03;stroke-width:0.25;stroke-miterlimit:10;}
	.st22{fill:none;stroke:#8AFF03;stroke-miterlimit:10;}
	.st23{opacity:0.54;fill:#8AFF03;}
	.st24{opacity:0.7;}
	.st25{opacity:0.47;fill:#8AFF03;}
	.st26{opacity:0.24;fill:#8AFF03;}
	.st27{opacity:0.47;}
	.st28{fill:#8AFF03;}
	.st29{fill:#333333;stroke:#00FFFF;stroke-miterlimit:10;}
	.st30{fill:none;stroke:#00FFFF;stroke-miterlimit:10;}
	.st31{fill:#00FFFF;stroke:#00FFFF;stroke-miterlimit:10;}
	.st32{fill:#FFFFFF;}
	.st33{fill:#1168D9;}
	.st34{opacity:0.42;fill:#00FFFF;}
	.st35{fill:#1BCCC7;}
	.st36{fill:#D8E0F2;}
	.st37{fill:#020F59;}
	.st38{fill:#7787A6;}
	.st39{fill:#1168D9;stroke:#00FFFF;stroke-miterlimit:10;}
	.st40{fill:#0050E3;}
	.st41{fill:#FFA8A7;}
	.st42{fill:#FFCFD0;}
	.st43{fill:#0050E3;stroke:#1B1464;stroke-miterlimit:10;}
	.st44{fill:#00BAA5;}
	.st45{fill:#C7EAD7;}
	.st46{opacity:0.42;}
	.st47{fill:#00FFFF;}
	.st48{opacity:0.54;fill:#00FFFF;}
	.st49{opacity:0.54;fill:none;stroke:#00FFFF;stroke-miterlimit:10;}
	.st50{fill:#FF3627;}
	.st51{fill:#D80000;}
	.st52{fill:#1B9787;}
	.st53{fill:#FEFD87;}
	.st54{fill:#002D82;}
	.st55{fill:#00106A;}
	.st56{fill:#22B573;stroke:#000000;stroke-width:0.5;stroke-miterlimit:10;}
	.st57{fill:#FFD900;}
	.st58{fill:#DAB312;stroke:#000000;stroke-width:0.5;stroke-miterlimit:10;}
	.st59{fill:#F14564;}
	.st60{fill:none;stroke:#000000;stroke-width:0.5;stroke-miterlimit:10;}
	.st61{fill:#ABBEBD;stroke:#000000;stroke-width:0.5;stroke-miterlimit:10;}
	.st62{fill:#AFDCDC;stroke:#000000;stroke-width:0.5;stroke-miterlimit:10;}
	.st63{fill:#FFBECA;}
	.st64{fill:#FFA5AE;}
	.st65{fill:#8FBC9C;}
	.st66{fill:none;stroke:#000000;stroke-width:0.25;stroke-miterlimit:10;}
	.st67{opacity:0.32;fill:#585957;}
	.st68{fill:none;stroke:#000000;stroke-width:2;stroke-miterlimit:10;}
	.st69{fill:#FFE7A0;stroke:#000000;stroke-width:0.5;stroke-miterlimit:10;}
	.st70{fill:#FFE7A0;}
	.st71{fill:#FF1D25;}
	.st72{opacity:0.67;fill:#FF0000;stroke:#1F1FFF;stroke-miterlimit:10;}
	.st73{fill:#DBDAD2;stroke:#000000;stroke-width:0.75;stroke-miterlimit:10;}
	.st74{fill:#ABBEBD;stroke:#000000;stroke-width:0.75;stroke-miterlimit:10;}
	.st75{opacity:0.12;}
	.st76{fill:#008072;stroke:#000000;stroke-width:0.75;stroke-miterlimit:10;}
	.st77{fill:#FFE7A0;stroke:#000000;stroke-width:0.75;stroke-miterlimit:10;}
	.st78{fill:#FFA5AE;stroke:#000000;stroke-width:0.75;stroke-miterlimit:10;}
	.st79{stroke:#000000;stroke-width:2;stroke-miterlimit:10;}
	.st80{fill:none;stroke:#000000;stroke-width:3;stroke-miterlimit:10;}
	.st81{fill:none;stroke:#FF0000;stroke-width:1.000000e-02;stroke-miterlimit:10;}
	.st82{fill:none;stroke:#000000;stroke-width:4;stroke-miterlimit:10;}
	.st83{fill:none;stroke:#000000;stroke-width:5;stroke-miterlimit:10;}
	.st84{fill:#FF0000;}
	.st85{fill:#C1272D;}
	.st86{fill:#FFA5AE;stroke:#000000;stroke-width:0.1;stroke-miterlimit:10;}
	.st87{fill:#ABBEBD;stroke:#000000;stroke-width:0.25;stroke-miterlimit:10;}
	.st88{opacity:0.6;fill:#FFFFFF;}
	.st89{fill:#FF4A3D;}
</style>
<g id="Ebene_2">
</g>
<g id="Ebene_1">
	<circle class="st73" cx="38.8" cy="38.8" r="38.5"/>
	<g id="PU3Mxl.tif_1_">
		<g>
			<path class="st74" d="M68.4,29.5c-0.3,0.4-0.7,1-1.1,1.3c-1.7,1.4-3.4,2.6-5.1,4c-0.5,0.4-0.7,1.2-0.8,1.9
				c-0.1,0.8,0.2,1.8,0,2.6C61,41,61.7,42,63,42.9c1.5,1,2.8,2.2,4.2,3.3c1,0.7,1.2,1.5,0.6,2.6c-1.9,3.3-3.8,6.5-5.6,9.8
				c-0.6,1-1.4,1.4-2.6,0.8c-0.6-0.3-1.3-0.5-1.9-0.8c-1.6-0.7-3.3-1.9-4.9-1.8c-1.6,0.1-3.1,1.5-4.6,2.5c-0.4,0.2-0.7,0.8-0.8,1.2
				c-0.4,2.2-0.7,4.4-1,6.5c-0.2,1.2-0.7,1.8-2,1.8c-3.8,0-7.5,0-11.3,0c-1.3,0-1.8-0.6-2-1.8c-0.3-2.2-0.6-4.4-1-6.5
				c-0.1-0.4-0.4-0.9-0.8-1.2c-1.2-0.8-2.5-1.5-3.8-2.2c-0.4-0.2-1.1-0.3-1.6-0.1c-2.1,0.8-4.2,1.6-6.3,2.5
				c-1.1,0.5-1.8,0.1-2.3-0.7c-2-3.3-3.9-6.7-5.8-10.1c-0.5-1-0.3-1.7,0.6-2.4c1.6-1.2,3.2-2.5,4.8-3.8c0.3-0.2,0.5-0.4,0.8-0.6
				c0.7-0.7,0.4-6.4-0.4-7c-1.6-1.3-3.3-2.6-5-3.9C9.3,30.1,9,29.3,9.8,28c1.9-3.1,3.7-6.3,5.5-9.5c0.6-1.1,1.4-1.5,2.7-0.9
				c0.6,0.3,1.3,0.5,1.9,0.8c1.6,0.7,3.3,1.9,4.9,1.8c1.6-0.1,3.1-1.5,4.6-2.5c0.4-0.2,0.7-0.8,0.8-1.2c0.4-2.2,0.7-4.4,1-6.5
				c0.2-1.2,0.7-1.8,2-1.8c3.7,0,7.4,0,11.2,0c1.3,0,2,0.5,2.1,1.9c0.2,2.1,0.6,4.3,1,6.4c0.1,0.5,0.6,1.1,1,1.4
				c0.5,0.4,1.3,0.6,1.8,1c1.8,1.7,3.5,1.5,5.5,0.4c1.4-0.7,2.9-1.3,4.3-1.7c0.6-0.2,1.6,0.1,1.9,0.5c2.1,3.5,4.1,7,6.2,10.6
				C68.2,28.8,68.2,29.1,68.4,29.5z M28.2,38.5c0,5.9,4.6,10.6,10.5,10.6c5.9,0.1,10.7-4.7,10.7-10.6c0-5.9-4.6-10.6-10.5-10.6
				C32.9,27.8,28.2,32.5,28.2,38.5z"/>
		</g>
	</g>
</g>
</svg>
