<?xml version="1.0" encoding="utf-8"?>
<!-- Generator: Adobe Illustrator 25.2.3, SVG Export Plug-In . SVG Version: 6.00 Build 0)  -->
<svg version="1.1" xmlns="http://www.w3.org/2000/svg" xmlns:xlink="http://www.w3.org/1999/xlink" x="0px" y="0px"
	 viewBox="0 0 16 16" style="enable-background:new 0 0 16 16;" xml:space="preserve">
<style type="text/css">
	.st0{fill:#1F1FFF;}
	.st1{fill:#75C9DF;}
	.st2{opacity:0.23;fill:#585957;}
	.st3{fill:#008072;}
	.st4{fill:#FFFFFF;stroke:#000000;stroke-width:0.5;stroke-miterlimit:10;}
	.st5{fill:#AFDCDC;}
	.st6{fill:#F9EEDB;}
	.st7{opacity:0.44;}
	.st8{fill:none;stroke:#FF0000;stroke-miterlimit:10;}
	.st9{fill:#002CA4;}
	.st10{fill:#EEF2F3;}
	.st11{fill:none;stroke:#FFFFFF;stroke-miterlimit:10;}
	.st12{fill:#221F20;}
	.st13{fill:#E492B8;}
	.st14{fill:#F6E778;}
	.st15{fill:#94C9AD;}
	.st16{fill:#AEC4E3;}
	.st17{fill:#FFFFFF;stroke:#94C9AD;stroke-miterlimit:10;}
	.st18{fill:#94C9AD;stroke:#FFFFFF;stroke-miterlimit:10;}
	.st19{fill:#C6C5E0;}
	.st20{fill:#333333;}
	.st21{fill:none;stroke:#8AFF03;stroke-width:0.25;stroke-miterlimit:10;}
	.st22{fill:none;stroke:#8AFF03;stroke-miterlimit:10;}
	.st23{opacity:0.54;fill:#8AFF03;}
	.st24{opacity:0.7;}
	.st25{opacity:0.47;fill:#8AFF03;}
	.st26{opacity:0.24;fill:#8AFF03;}
	.st27{opacity:0.47;}
	.st28{fill:#8AFF03;}
	.st29{fill:#333333;stroke:#00FFFF;stroke-miterlimit:10;}
	.st30{fill:none;stroke:#00FFFF;stroke-miterlimit:10;}
	.st31{fill:#00FFFF;stroke:#00FFFF;stroke-miterlimit:10;}
	.st32{fill:#FFFFFF;}
	.st33{fill:#1168D9;}
	.st34{opacity:0.42;fill:#00FFFF;}
	.st35{fill:#1BCCC7;}
	.st36{fill:#D8E0F2;}
	.st37{fill:#020F59;}
	.st38{fill:#7787A6;}
	.st39{fill:#1168D9;stroke:#00FFFF;stroke-miterlimit:10;}
	.st40{fill:#0050E3;}
	.st41{fill:#FFA8A7;}
	.st42{fill:#FFCFD0;}
	.st43{fill:#0050E3;stroke:#1B1464;stroke-miterlimit:10;}
	.st44{fill:#00BAA5;}
	.st45{fill:#C7EAD7;}
	.st46{opacity:0.42;}
	.st47{fill:#00FFFF;}
	.st48{opacity:0.54;fill:#00FFFF;}
	.st49{opacity:0.54;fill:none;stroke:#00FFFF;stroke-miterlimit:10;}
	.st50{fill:#FF3627;}
	.st51{fill:#D80000;}
	.st52{fill:#1B9787;}
	.st53{fill:#FEFD87;}
	.st54{fill:#002D82;}
	.st55{fill:#00106A;}
	.st56{fill:#22B573;stroke:#000000;stroke-width:0.5;stroke-miterlimit:10;}
	.st57{fill:#FFD900;}
	.st58{fill:#DAB312;stroke:#000000;stroke-width:0.5;stroke-miterlimit:10;}
	.st59{fill:#F14564;}
	.st60{fill:none;stroke:#000000;stroke-width:0.5;stroke-miterlimit:10;}
	.st61{fill:#ABBEBD;stroke:#000000;stroke-width:0.5;stroke-miterlimit:10;}
	.st62{fill:#AFDCDC;stroke:#000000;stroke-width:0.5;stroke-miterlimit:10;}
	.st63{fill:#FFBECA;}
	.st64{fill:#FFA5AE;}
	.st65{fill:#8FBC9C;}
	.st66{fill:none;stroke:#000000;stroke-width:0.25;stroke-miterlimit:10;}
	.st67{opacity:0.32;fill:#585957;}
	.st68{fill:none;stroke:#000000;stroke-width:2;stroke-miterlimit:10;}
	.st69{fill:#FFE7A0;stroke:#000000;stroke-width:0.5;stroke-miterlimit:10;}
	.st70{fill:#FFE7A0;}
	.st71{fill:#FF1D25;}
	.st72{opacity:0.67;fill:#FF0000;stroke:#1F1FFF;stroke-miterlimit:10;}
	.st73{fill:#DBDAD2;stroke:#000000;stroke-width:0.75;stroke-miterlimit:10;}
	.st74{fill:#ABBEBD;stroke:#000000;stroke-width:0.75;stroke-miterlimit:10;}
	.st75{opacity:0.12;}
	.st76{fill:#008072;stroke:#000000;stroke-width:0.75;stroke-miterlimit:10;}
	.st77{fill:#FFE7A0;stroke:#000000;stroke-width:0.75;stroke-miterlimit:10;}
	.st78{fill:#FFA5AE;stroke:#000000;stroke-width:0.75;stroke-miterlimit:10;}
	.st79{stroke:#000000;stroke-width:2;stroke-miterlimit:10;}
	.st80{fill:none;stroke:#000000;stroke-width:3;stroke-miterlimit:10;}
	.st81{fill:none;stroke:#FF0000;stroke-width:1.000000e-02;stroke-miterlimit:10;}
	.st82{fill:none;stroke:#000000;stroke-width:4;stroke-miterlimit:10;}
	.st83{fill:none;stroke:#000000;stroke-width:5;stroke-miterlimit:10;}
	.st84{fill:#FF0000;}
	.st85{fill:#C1272D;}
	.st86{fill:#FFA5AE;stroke:#000000;stroke-width:0.1;stroke-miterlimit:10;}
	.st87{fill:#ABBEBD;stroke:#000000;stroke-width:0.25;stroke-miterlimit:10;}
	.st88{opacity:0.6;fill:#FFFFFF;}
	.st89{fill:#FF4A3D;}
</style>
<g id="Ebene_2">
</g>
<g id="Ebene_1">
	<rect x="-0.2" y="-0.2" class="st5" width="16.5" height="16.5"/>
	<path class="st86" d="M14.1,7c-0.2,0-0.4,0.1-0.6,0.2L9.1,2.4C9.2,2.2,9.3,2,9.3,1.7c0-0.5-0.4-1-1-1s-1,0.4-1,1
		c0,0.2,0,0.3,0.1,0.5L2.9,5.3C2.7,5.1,2.5,5,2.2,5c-0.5,0-1,0.4-1,1s0.4,1,1,1c0.2,0,0.3,0,0.5-0.1L3.5,8L2.7,9.2
		C2.5,9.1,2.4,9.1,2.2,9.1c-0.5,0-1,0.4-1,1c0,0.5,0.4,1,1,1c0.3,0,0.6-0.1,0.7-0.3l4.5,3.1c-0.1,0.1-0.1,0.3-0.1,0.5
		c0,0.5,0.4,1,1,1s1-0.4,1-1c0-0.2-0.1-0.4-0.1-0.5l4.4-4.9C13.7,8.9,13.9,9,14.1,9c0.5,0,1-0.4,1-1C15.1,7.5,14.6,7,14.1,7z
		 M5.3,10L4.4,8.7l0.9-0.6l2.2,1.5C7.4,9.8,7.4,9.9,7.4,10L5.3,10z M3.2,10c0-0.1,0-0.2-0.1-0.3l1.1-0.8L5,10L3.2,10z M3.2,6.1H5
		L4.2,7.2L3,6.4C3.1,6.3,3.1,6.2,3.2,6.1z M5.2,6.1h2.1c0,0.1,0.1,0.2,0.1,0.3L5.2,7.9L4.4,7.3L5.2,6.1z M8.3,2.7
		c0.2,0,0.4-0.1,0.6-0.2l4.4,4.9c-0.1,0.1-0.1,0.1-0.1,0.2L9.3,6.2c0-0.1,0-0.2,0-0.3c0-0.5-0.4-1-1-1c-0.5,0-1,0.4-1,0.9H5.4
		l2.4-3.3C8,2.7,8.1,2.7,8.3,2.7z M5,8L4.2,8.6L3.8,8l0.4-0.5L5,8z M8.3,9.1C8,9.1,7.8,9.3,7.6,9.5L5.4,8l2.2-1.4
		C7.8,6.8,8,6.9,8.3,6.9c0.4,0,0.7-0.2,0.9-0.5l4,1.4c0,0.1,0,0.1,0,0.2c0,0.1,0,0.2,0,0.2L9.2,9.7C9,9.3,8.7,9.1,8.3,9.1z M7.6,2.4
		C7.6,2.4,7.6,2.4,7.6,2.4L5.1,5.9h-2c0-0.1-0.1-0.2-0.1-0.3L7.6,2.4z M2.8,6.7C2.9,6.7,2.9,6.6,2.8,6.7L4,7.4L3.7,7.8L2.8,6.7z
		 M3.7,8.2L4,8.7L2.9,9.4c0,0-0.1-0.1-0.1-0.1L3.7,8.2z M3,10.5c0.1-0.1,0.1-0.2,0.1-0.3l2,0l2.5,3.4c0,0,0,0-0.1,0.1L3,10.5z
		 M8.3,13.3c-0.2,0-0.3,0-0.5,0.1l-2.4-3.2l1.9,0c0.1,0.5,0.5,0.9,1,0.9c0.5,0,1-0.4,1-1c0-0.1,0-0.2,0-0.2l3.9-1.4
		c0,0.1,0.1,0.2,0.2,0.2L9,13.6C8.9,13.4,8.6,13.3,8.3,13.3z"/>
</g>
</svg>
