<?xml version="1.0" encoding="utf-8"?>
<!-- Generator: Adobe Illustrator 25.2.3, SVG Export Plug-In . SVG Version: 6.00 Build 0)  -->
<svg version="1.1" xmlns="http://www.w3.org/2000/svg" xmlns:xlink="http://www.w3.org/1999/xlink" x="0px" y="0px"
	 viewBox="0 0 115.3 110.9" style="enable-background:new 0 0 115.3 110.9;" xml:space="preserve">
<style type="text/css">
	.st0{fill:#1F1FFF;}
	.st1{fill:#75C9DF;}
	.st2{opacity:0.23;fill:#585957;}
	.st3{fill:#008072;}
	.st4{fill:#FFFFFF;stroke:#000000;stroke-width:0.5;stroke-miterlimit:10;}
	.st5{fill:#AFDCDC;}
	.st6{fill:#F9EEDB;}
	.st7{opacity:0.44;}
	.st8{fill:none;stroke:#FF0000;stroke-miterlimit:10;}
	.st9{fill:#002CA4;}
	.st10{fill:#EEF2F3;}
	.st11{fill:none;stroke:#FFFFFF;stroke-miterlimit:10;}
	.st12{fill:#221F20;}
	.st13{fill:#E492B8;}
	.st14{fill:#F6E778;}
	.st15{fill:#94C9AD;}
	.st16{fill:#AEC4E3;}
	.st17{fill:#FFFFFF;stroke:#94C9AD;stroke-miterlimit:10;}
	.st18{fill:#94C9AD;stroke:#FFFFFF;stroke-miterlimit:10;}
	.st19{fill:#C6C5E0;}
	.st20{fill:#333333;}
	.st21{fill:none;stroke:#8AFF03;stroke-width:0.25;stroke-miterlimit:10;}
	.st22{fill:none;stroke:#8AFF03;stroke-miterlimit:10;}
	.st23{opacity:0.54;fill:#8AFF03;}
	.st24{opacity:0.7;}
	.st25{opacity:0.47;fill:#8AFF03;}
	.st26{opacity:0.24;fill:#8AFF03;}
	.st27{opacity:0.47;}
	.st28{fill:#8AFF03;}
	.st29{fill:#333333;stroke:#00FFFF;stroke-miterlimit:10;}
	.st30{fill:none;stroke:#00FFFF;stroke-miterlimit:10;}
	.st31{fill:#00FFFF;stroke:#00FFFF;stroke-miterlimit:10;}
	.st32{fill:#FFFFFF;}
	.st33{fill:#1168D9;}
	.st34{opacity:0.42;fill:#00FFFF;}
	.st35{fill:#1BCCC7;}
	.st36{fill:#D8E0F2;}
	.st37{fill:#020F59;}
	.st38{fill:#7787A6;}
	.st39{fill:#1168D9;stroke:#00FFFF;stroke-miterlimit:10;}
	.st40{fill:#0050E3;}
	.st41{fill:#FFA8A7;}
	.st42{fill:#FFCFD0;}
	.st43{fill:#0050E3;stroke:#1B1464;stroke-miterlimit:10;}
	.st44{fill:#00BAA5;}
	.st45{fill:#C7EAD7;}
	.st46{opacity:0.42;}
	.st47{fill:#00FFFF;}
	.st48{opacity:0.54;fill:#00FFFF;}
	.st49{opacity:0.54;fill:none;stroke:#00FFFF;stroke-miterlimit:10;}
	.st50{fill:#FF3627;}
	.st51{fill:#D80000;}
	.st52{fill:#1B9787;}
	.st53{fill:#FEFD87;}
	.st54{fill:#002D82;}
	.st55{fill:#00106A;}
	.st56{fill:#22B573;stroke:#000000;stroke-width:0.5;stroke-miterlimit:10;}
	.st57{fill:#FFD900;}
	.st58{fill:#DAB312;stroke:#000000;stroke-width:0.5;stroke-miterlimit:10;}
	.st59{fill:#F14564;}
	.st60{fill:none;stroke:#000000;stroke-width:0.5;stroke-miterlimit:10;}
	.st61{fill:#ABBEBD;stroke:#000000;stroke-width:0.5;stroke-miterlimit:10;}
	.st62{fill:#AFDCDC;stroke:#000000;stroke-width:0.5;stroke-miterlimit:10;}
	.st63{fill:#FFBECA;}
	.st64{fill:#FFA5AE;}
	.st65{fill:#8FBC9C;}
	.st66{fill:none;stroke:#000000;stroke-width:0.25;stroke-miterlimit:10;}
	.st67{opacity:0.32;fill:#585957;}
	.st68{fill:none;stroke:#000000;stroke-width:2;stroke-miterlimit:10;}
	.st69{fill:#FFE7A0;stroke:#000000;stroke-width:0.5;stroke-miterlimit:10;}
	.st70{fill:#FFE7A0;}
	.st71{fill:#FF1D25;}
	.st72{opacity:0.67;fill:#FF0000;stroke:#1F1FFF;stroke-miterlimit:10;}
	.st73{fill:#DBDAD2;stroke:#000000;stroke-width:0.75;stroke-miterlimit:10;}
	.st74{fill:#ABBEBD;stroke:#000000;stroke-width:0.75;stroke-miterlimit:10;}
	.st75{opacity:0.12;}
	.st76{fill:#008072;stroke:#000000;stroke-width:0.75;stroke-miterlimit:10;}
	.st77{fill:#FFE7A0;stroke:#000000;stroke-width:0.75;stroke-miterlimit:10;}
	.st78{fill:#FFA5AE;stroke:#000000;stroke-width:0.75;stroke-miterlimit:10;}
	.st79{stroke:#000000;stroke-width:2;stroke-miterlimit:10;}
	.st80{fill:none;stroke:#000000;stroke-width:3;stroke-miterlimit:10;}
	.st81{fill:none;stroke:#FF0000;stroke-width:1.000000e-02;stroke-miterlimit:10;}
	.st82{fill:none;stroke:#000000;stroke-width:4;stroke-miterlimit:10;}
	.st83{fill:none;stroke:#000000;stroke-width:5;stroke-miterlimit:10;}
	.st84{fill:#FF0000;}
	.st85{fill:#C1272D;}
	.st86{fill:#FFA5AE;stroke:#000000;stroke-width:0.1;stroke-miterlimit:10;}
	.st87{fill:#ABBEBD;stroke:#000000;stroke-width:0.25;stroke-miterlimit:10;}
	.st88{opacity:0.6;fill:#FFFFFF;}
	.st89{fill:#FF4A3D;}
</style>
<g id="Ebene_2">
</g>
<g id="Ebene_1">
	<rect class="st65" width="115.4" height="111.1"/>
	<g>
		<circle cx="18.9" cy="70.2" r="9.4"/>
		<circle cx="18.9" cy="43.4" r="9.4"/>
		<circle cx="98.2" cy="58" r="9.4"/>
		<circle cx="59.2" cy="43.4" r="9.4"/>
		<circle cx="59.2" cy="15.6" r="9.4"/>
		<circle cx="59.2" cy="97.8" r="9.4"/>
		<circle cx="59.2" cy="70.2" r="9.4"/>
		<line class="st68" x1="18.9" y1="43.4" x2="59.2" y2="15.6"/>
		<line class="st68" x1="18.9" y1="70.2" x2="59.1" y2="15.6"/>
		<line class="st68" x1="98.2" y1="58" x2="59.2" y2="15.6"/>
		<line class="st68" x1="98.2" y1="58" x2="59.2" y2="43.4"/>
		<line class="st68" x1="98.2" y1="58" x2="59.2" y2="70.4"/>
		<line class="st68" x1="98.2" y1="58" x2="59.9" y2="98.9"/>
		<line class="st68" x1="59.1" y1="43.4" x2="18.9" y2="43.4"/>
		<line class="st68" x1="59.2" y1="70.4" x2="18.9" y2="43.4"/>
		<line class="st68" x1="59.2" y1="97.8" x2="18.9" y2="43.4"/>
		<line class="st68" x1="18.9" y1="70.2" x2="59.2" y2="43.4"/>
		<line class="st68" x1="18.9" y1="70.2" x2="59.2" y2="97.8"/>
		<line class="st68" x1="18.9" y1="70.2" x2="59.2" y2="70.4"/>
	</g>
	<g>
		<g>
			<circle class="st63" cx="18.9" cy="43.4" r="9"/>
			<path class="st64" d="M26,41.7c0,5-4,9-9,9c-1.8,0-3.4-0.5-4.8-1.4c1.6,1.9,4.1,3.1,6.8,3.1c5,0,9-4,9-9c0-3.2-1.7-6-4.2-7.6
				C25.1,37.4,26,39.4,26,41.7z"/>
		</g>
		<g>
			<g>
				<path d="M18.9,34.4c5,0,9,4,9,9s-4,9-9,9c-5,0-9-4-9-9S14,34.4,18.9,34.4 M18.9,33.9c-5.2,0-9.5,4.3-9.5,9.5
					c0,5.2,4.3,9.5,9.5,9.5c5.2,0,9.5-4.3,9.5-9.5C28.4,38.2,24.2,33.9,18.9,33.9L18.9,33.9z"/>
			</g>
		</g>
		<ellipse transform="matrix(0.821 -0.5709 0.5709 0.821 -19.1002 15.2484)" class="st32" cx="14.8" cy="38.1" rx="3.1" ry="1.2"/>
	</g>
	<g>
		<g>
			<circle class="st63" cx="18.9" cy="69.8" r="9"/>
			<path class="st64" d="M26,68.2c0,5-4,9-9,9c-1.8,0-3.4-0.5-4.8-1.4c1.6,1.9,4.1,3.1,6.8,3.1c5,0,9-4,9-9c0-3.2-1.7-6-4.2-7.6
				C25.1,63.8,26,65.9,26,68.2z"/>
		</g>
		<g>
			<g>
				<path d="M18.9,60.8c5,0,9,4,9,9s-4,9-9,9c-5,0-9-4-9-9S14,60.8,18.9,60.8 M18.9,60.3c-5.2,0-9.5,4.3-9.5,9.5
					c0,5.2,4.3,9.5,9.5,9.5c5.2,0,9.5-4.3,9.5-9.5C28.4,64.6,24.2,60.3,18.9,60.3L18.9,60.3z"/>
			</g>
		</g>
		<ellipse transform="matrix(0.821 -0.5709 0.5709 0.821 -34.2069 19.9847)" class="st32" cx="14.8" cy="64.5" rx="3.1" ry="1.2"/>
	</g>
	<g>
		<g>
			<circle class="st63" cx="59.2" cy="43.4" r="9"/>
			<path class="st64" d="M66.3,41.7c0,5-4,9-9,9c-1.8,0-3.4-0.5-4.8-1.4c1.6,1.9,4.1,3.1,6.8,3.1c5,0,9-4,9-9c0-3.2-1.7-6-4.2-7.6
				C65.5,37.4,66.3,39.4,66.3,41.7z"/>
		</g>
		<g>
			<g>
				<path d="M59.2,34.4c5,0,9,4,9,9s-4,9-9,9c-5,0-9-4-9-9S54.3,34.4,59.2,34.4 M59.2,33.9c-5.2,0-9.5,4.3-9.5,9.5
					c0,5.2,4.3,9.5,9.5,9.5c5.2,0,9.5-4.3,9.5-9.5C68.7,38.2,64.5,33.9,59.2,33.9L59.2,33.9z"/>
			</g>
		</g>
		<ellipse transform="matrix(0.821 -0.5709 0.5709 0.821 -11.8845 38.2636)" class="st32" cx="55.1" cy="38.1" rx="3.1" ry="1.2"/>
	</g>
	<g>
		<g>
			<circle class="st63" cx="59.1" cy="15.5" r="9"/>
			<path class="st64" d="M66.2,13.9c0,5-4,9-9,9c-1.8,0-3.4-0.5-4.8-1.4c1.6,1.9,4.1,3.1,6.8,3.1c5,0,9-4,9-9c0-3.2-1.7-6-4.2-7.6
				C65.3,9.5,66.2,11.6,66.2,13.9z"/>
		</g>
		<g>
			<g>
				<path d="M59.1,6.5c5,0,9,4,9,9s-4,9-9,9c-5,0-9-4-9-9S54.1,6.5,59.1,6.5 M59.1,6c-5.2,0-9.5,4.3-9.5,9.5c0,5.2,4.3,9.5,9.5,9.5
					c5.2,0,9.5-4.3,9.5-9.5C68.6,10.3,64.4,6,59.1,6L59.1,6z"/>
			</g>
		</g>
		<ellipse transform="matrix(0.821 -0.5709 0.5709 0.821 3.9963 33.2037)" class="st32" cx="55" cy="10.2" rx="3.1" ry="1.2"/>
	</g>
	<g>
		<g>
			<circle class="st63" cx="59.1" cy="70.2" r="9"/>
			<path class="st64" d="M66.2,68.5c0,5-4,9-9,9c-1.8,0-3.4-0.5-4.8-1.4c1.6,1.9,4.1,3.1,6.8,3.1c5,0,9-4,9-9c0-3.2-1.7-6-4.2-7.6
				C65.3,64.2,66.2,66.3,66.2,68.5z"/>
		</g>
		<g>
			<g>
				<path d="M59.1,61.2c5,0,9,4,9,9s-4,9-9,9c-5,0-9-4-9-9S54.1,61.2,59.1,61.2 M59.1,60.7c-5.2,0-9.5,4.3-9.5,9.5
					c0,5.2,4.3,9.5,9.5,9.5c5.2,0,9.5-4.3,9.5-9.5C68.6,65,64.4,60.7,59.1,60.7L59.1,60.7z"/>
			</g>
		</g>
		<ellipse transform="matrix(0.821 -0.5709 0.5709 0.821 -27.2192 42.9905)" class="st32" cx="55" cy="64.9" rx="3.1" ry="1.2"/>
	</g>
	<g>
		<g>
			<circle class="st63" cx="59.1" cy="97.6" r="9"/>
			<path class="st64" d="M66.2,95.9c0,5-4,9-9,9c-1.8,0-3.4-0.5-4.8-1.4c1.6,1.9,4.1,3.1,6.8,3.1c5,0,9-4,9-9c0-3.2-1.7-6-4.2-7.6
				C65.3,91.6,66.2,93.6,66.2,95.9z"/>
		</g>
		<g>
			<g>
				<path d="M59.1,88.6c5,0,9,4,9,9s-4,9-9,9c-5,0-9-4-9-9S54.1,88.6,59.1,88.6 M59.1,88.1c-5.2,0-9.5,4.3-9.5,9.5
					c0,5.2,4.3,9.5,9.5,9.5c5.2,0,9.5-4.3,9.5-9.5C68.6,92.4,64.4,88.1,59.1,88.1L59.1,88.1z"/>
			</g>
		</g>
		<ellipse transform="matrix(0.821 -0.5709 0.5709 0.821 -42.8523 47.8918)" class="st32" cx="55" cy="92.3" rx="3.1" ry="1.2"/>
	</g>
	<g>
		<g>
			<circle class="st63" cx="98.4" cy="58.3" r="9"/>
			<path class="st64" d="M105.5,56.6c0,5-4,9-9,9c-1.8,0-3.4-0.5-4.8-1.4c1.6,1.9,4.1,3.1,6.8,3.1c5,0,9-4,9-9c0-3.2-1.7-6-4.2-7.6
				C104.6,52.3,105.5,54.3,105.5,56.6z"/>
		</g>
		<g>
			<g>
				<path d="M98.4,49.3c5,0,9,4,9,9s-4,9-9,9c-5,0-9-4-9-9S93.4,49.3,98.4,49.3 M98.4,48.8c-5.2,0-9.5,4.3-9.5,9.5
					c0,5.2,4.3,9.5,9.5,9.5c5.2,0,9.5-4.3,9.5-9.5C107.9,53.1,103.7,48.8,98.4,48.8L98.4,48.8z"/>
			</g>
		</g>
		<ellipse transform="matrix(0.821 -0.5709 0.5709 0.821 -13.3794 63.295)" class="st32" cx="94.3" cy="53" rx="3.1" ry="1.2"/>
	</g>
</g>
</svg>
