<?xml version="1.0" encoding="utf-8"?>
<!-- Generator: Adobe Illustrator 25.2.3, SVG Export Plug-In . SVG Version: 6.00 Build 0)  -->
<svg version="1.1" xmlns="http://www.w3.org/2000/svg" xmlns:xlink="http://www.w3.org/1999/xlink" x="0px" y="0px"
	 viewBox="0 0 37.6 37.6" style="enable-background:new 0 0 37.6 37.6;" xml:space="preserve">
<style type="text/css">
	.st0{fill:#1F1FFF;}
	.st1{fill:#585957;stroke:#000000;stroke-width:0.5;stroke-miterlimit:10;}
	.st2{fill:#FF9A93;stroke:#000000;stroke-width:0.5;stroke-miterlimit:10;}
	.st3{fill:#F0F0F0;}
	.st4{fill:#ABBEBD;stroke:#000000;stroke-width:0.5;stroke-miterlimit:10;}
	.st5{fill:#FFFFFF;stroke:#000000;stroke-width:0.5;stroke-miterlimit:10;}
	.st6{fill:none;stroke:#000000;stroke-width:0.5;stroke-miterlimit:10;}
	.st7{fill:#F14564;}
	.st8{fill:#AFDCDC;stroke:#000000;stroke-width:0.5;stroke-miterlimit:10;}
	.st9{fill:#75C9DF;}
	.st10{opacity:0.23;fill:#585957;}
	.st11{fill:#8DCBC3;}
	.st12{fill:#AFDCDC;}
	.st13{fill:#F9EEDB;}
	.st14{opacity:0.44;}
	.st15{fill:none;stroke:#FF0000;stroke-miterlimit:10;}
	.st16{fill:#002CA4;}
	.st17{fill:#0050E3;}
	.st18{fill:#FFA8A7;}
	.st19{fill:#FFCFD0;}
	.st20{fill:#0050E3;stroke:#1B1464;stroke-miterlimit:10;}
	.st21{fill:#00BAA5;}
	.st22{fill:#C7EAD7;}
	.st23{fill:#FF3627;}
	.st24{fill:#D80000;}
	.st25{fill:#1B9787;}
	.st26{fill:#FEFD87;}
	.st27{fill:#002D82;}
	.st28{fill:#00106A;}
	.st29{fill:#E492B8;}
	.st30{fill:#22B573;stroke:#000000;stroke-width:0.5;stroke-miterlimit:10;}
	.st31{fill:#FFD900;}
	.st32{fill:#DAB312;stroke:#000000;stroke-width:0.5;stroke-miterlimit:10;}
	.st33{fill:#FF9A93;}
	.st34{fill:#FEFEC3;}
	.st35{fill:#FFBECA;}
	.st36{fill:#FFA5AE;}
	.st37{fill:#FFFFFF;}
	.st38{fill:#8FBC9C;}
	.st39{fill:none;stroke:#000000;stroke-width:0.25;stroke-miterlimit:10;}
	.st40{opacity:0.32;fill:#585957;}
	.st41{fill:none;stroke:#000000;stroke-width:2;stroke-miterlimit:10;}
	.st42{fill:#FEFEC3;stroke:#000000;stroke-width:0.5;stroke-miterlimit:10;}
	.st43{opacity:0.84;}
	.st44{fill:#FF1D25;}
	.st45{opacity:0.53;fill:#FF0000;stroke:#1F1FFF;stroke-miterlimit:10;}
	.st46{fill:#FCF6ED;stroke:#000000;stroke-miterlimit:10;}
	.st47{fill:#7F7F7F;stroke:#000000;stroke-miterlimit:10;}
	.st48{opacity:0.12;}
	.st49{fill:#008072;stroke:#000000;stroke-width:0.75;stroke-miterlimit:10;}
	.st50{fill:#FFE7A0;stroke:#000000;stroke-width:0.75;stroke-miterlimit:10;}
	.st51{fill:#FFA5AE;stroke:#000000;stroke-width:0.75;stroke-miterlimit:10;}
	.st52{fill:none;stroke:#000000;stroke-width:3;stroke-miterlimit:10;}
	.st53{fill:#FFA5AE;stroke:#000000;stroke-width:0.1;stroke-miterlimit:10;}
	.st54{fill:#FF0000;}
	.st55{fill:#ABBEBD;stroke:#000000;stroke-width:0.25;stroke-miterlimit:10;}
	.st56{opacity:0.6;fill:#FFFFFF;}
	.st57{fill:#FF4A3D;}
	.st58{fill:none;stroke:#000000;stroke-width:0.75;stroke-miterlimit:10;}
	.st59{fill:#FEF7EF;stroke:#000000;stroke-width:0.75;stroke-miterlimit:10;}
	.st60{fill:none;stroke:#000000;stroke-width:0.75;stroke-linecap:round;stroke-miterlimit:10;}
	.st61{fill:#FFFFFF;stroke:#000000;stroke-width:0.75;stroke-miterlimit:10;}
	.st62{fill:#DBDAD2;stroke:#000000;stroke-width:0.5;stroke-miterlimit:10;}
	.st63{fill:#FF4A3D;stroke:#000000;stroke-width:0.5;stroke-linecap:round;stroke-miterlimit:10;}
	.st64{fill:none;stroke:#000000;stroke-width:0.5;stroke-linecap:round;stroke-miterlimit:10;}
	.st65{fill:#F9EEDB;stroke:#000000;stroke-width:0.5;stroke-miterlimit:10;}
	.st66{fill:#7F7F7F;stroke:#000000;stroke-width:0.5;stroke-miterlimit:10;}
	.st67{fill:#7FDCD2;stroke:#000000;stroke-width:0.5;stroke-miterlimit:10;}
</style>
<g id="Ebene_2">
</g>
<g id="Ebene_1">
	<path class="st8" d="M29.3,36.9H2.4c-0.6,0-1.1-0.5-1.1-1.1v-33c0-0.6,0.5-1.1,1.1-1.1h26.9c0.6,0,1.1,0.5,1.1,1.1v33
		C30.4,36.4,29.9,36.9,29.3,36.9z"/>
	<path class="st65" d="M23.9,19.9H7.7c-1.3,0-2.4-1.1-2.4-2.4v-6.3c0-1.3,1.1-2.4,2.4-2.4h16.2c1.3,0,2.4,1.1,2.4,2.4v6.3
		C26.3,18.8,25.2,19.9,23.9,19.9z"/>
	<rect x="5.5" y="31.2" class="st66" width="19.9" height="2.8"/>
	<circle class="st6" cx="8.8" cy="24.9" r="2"/>
	<circle class="st6" cx="15.4" cy="24.9" r="2"/>
	<circle class="st6" cx="22" cy="24.9" r="2"/>
	<line class="st6" x1="12.1" y1="8.9" x2="12.1" y2="19.9"/>
	<line class="st6" x1="19.5" y1="8.7" x2="19.5" y2="19.7"/>
	<g>
		<g>
			<circle class="st35" cx="22" cy="24.9" r="1.7"/>
			<path class="st36" d="M20.9,25.7c-0.4-0.9,0-1.9,0.9-2.3c0.3-0.1,0.6-0.2,1-0.1c-0.4-0.2-1-0.2-1.4,0c-0.9,0.4-1.3,1.4-0.9,2.3
				c0.2,0.6,0.8,0.9,1.3,1C21.4,26.4,21.1,26.1,20.9,25.7z"/>
		</g>
	</g>
	<g>
		<g>
			<circle class="st35" cx="15.4" cy="24.9" r="1.7"/>
			<path class="st36" d="M14.3,25.7c-0.4-0.9,0-1.9,0.9-2.3c0.3-0.1,0.6-0.2,1-0.1c-0.4-0.2-1-0.2-1.4,0c-0.9,0.4-1.3,1.4-0.9,2.3
				c0.2,0.6,0.8,0.9,1.3,1C14.8,26.4,14.5,26.1,14.3,25.7z"/>
		</g>
	</g>
	<g>
		<g>
			<circle class="st35" cx="8.8" cy="24.9" r="1.7"/>
			<path class="st36" d="M7.6,25.7c-0.4-0.9,0-1.9,0.9-2.3c0.3-0.1,0.6-0.2,1-0.1c-0.4-0.2-1-0.2-1.4,0c-0.9,0.4-1.3,1.4-0.9,2.3
				c0.2,0.6,0.8,0.9,1.3,1C8.1,26.4,7.8,26.1,7.6,25.7z"/>
		</g>
	</g>
	<g>
		<g>
			<circle class="st35" cx="34.3" cy="30.1" r="1.9"/>
			<path class="st36" d="M35.7,29.7c0,1-0.8,1.9-1.9,1.9c-0.4,0-0.7-0.1-1-0.3c0.3,0.4,0.9,0.6,1.4,0.6c1,0,1.9-0.8,1.9-1.9
				c0-0.7-0.3-1.3-0.9-1.6C35.6,28.8,35.7,29.2,35.7,29.7z"/>
		</g>
		<ellipse transform="matrix(0.821 -0.5709 0.5709 0.821 -10.5505 24.2399)" class="st37" cx="33.4" cy="28.9" rx="0.6" ry="0.2"/>
	</g>
	<polyline class="st6" points="34.3,28.2 34.3,20.4 32.2,20.4 	"/>
	<circle class="st6" cx="34.3" cy="30.1" r="2.1"/>
	<path class="st67" d="M32.3,24.2h-1.9v-7.6h1.9c0.4,0,0.7,0.3,0.7,0.7v6.3C33,23.9,32.7,24.2,32.3,24.2z"/>
	<polygon class="st6" points="8.8,12.1 9.5,13.5 11,13.7 9.9,14.8 10.2,16.4 8.8,15.7 7.3,16.4 7.6,14.8 6.5,13.7 8,13.5 	"/>
	<polygon class="st6" points="15.8,12.1 16.5,13.5 18.1,13.7 17,14.8 17.2,16.4 15.8,15.7 14.4,16.4 14.7,14.8 13.5,13.7 15.1,13.5 
			"/>
	<polygon class="st6" points="22.7,12.1 23.4,13.5 25,13.7 23.9,14.8 24.1,16.4 22.7,15.7 21.3,16.4 21.6,14.8 20.4,13.7 22,13.5 	
		"/>
</g>
</svg>
