<?xml version="1.0" encoding="utf-8"?>
<!-- Generator: Adobe Illustrator 25.2.3, SVG Export Plug-In . SVG Version: 6.00 Build 0)  -->
<svg version="1.1" xmlns="http://www.w3.org/2000/svg" xmlns:xlink="http://www.w3.org/1999/xlink" x="0px" y="0px"
	 viewBox="0 0 47.6 44.2" style="enable-background:new 0 0 47.6 44.2;" xml:space="preserve">
<style type="text/css">
	.st0{fill:#1F1FFF;}
	.st1{fill:#585957;stroke:#000000;stroke-width:0.5;stroke-miterlimit:10;}
	.st2{fill:#FFA5AE;stroke:#000000;stroke-width:0.5;stroke-miterlimit:10;}
	.st3{fill:#F0F0F0;}
	.st4{fill:#ABBEBD;stroke:#000000;stroke-width:0.5;stroke-miterlimit:10;}
	.st5{fill:#FFFFFF;stroke:#000000;stroke-width:0.5;stroke-miterlimit:10;}
	.st6{fill:none;stroke:#000000;stroke-width:0.5;stroke-miterlimit:10;}
	.st7{fill:#F14564;}
	.st8{fill:#AFDCDC;stroke:#000000;stroke-width:0.5;stroke-miterlimit:10;}
	.st9{fill:#75C9DF;}
	.st10{opacity:0.23;fill:#585957;}
	.st11{fill:#008072;}
	.st12{fill:#AFDCDC;}
	.st13{fill:#F9EEDB;}
	.st14{opacity:0.44;}
	.st15{fill:none;stroke:#FF0000;stroke-miterlimit:10;}
	.st16{fill:#002CA4;}
	.st17{fill:#0050E3;}
	.st18{fill:#FFA8A7;}
	.st19{fill:#FFCFD0;}
	.st20{fill:#0050E3;stroke:#1B1464;stroke-miterlimit:10;}
	.st21{fill:#00BAA5;}
	.st22{fill:#C7EAD7;}
	.st23{fill:#FF3627;}
	.st24{fill:#D80000;}
	.st25{fill:#1B9787;}
	.st26{fill:#FEFD87;}
	.st27{fill:#002D82;}
	.st28{fill:#00106A;}
	.st29{fill:#E492B8;}
	.st30{fill:#22B573;stroke:#000000;stroke-width:0.5;stroke-miterlimit:10;}
	.st31{fill:#FFD900;}
	.st32{fill:#DAB312;stroke:#000000;stroke-width:0.5;stroke-miterlimit:10;}
	.st33{fill:#FFBECA;}
	.st34{fill:#FFA5AE;}
	.st35{fill:#FFFFFF;}
	.st36{fill:#8FBC9C;}
	.st37{fill:none;stroke:#000000;stroke-width:0.25;stroke-miterlimit:10;}
	.st38{opacity:0.32;fill:#585957;}
	.st39{fill:none;stroke:#000000;stroke-width:2;stroke-miterlimit:10;}
	.st40{fill:#FFE7A0;stroke:#000000;stroke-width:0.5;stroke-miterlimit:10;}
	.st41{fill:#FFE7A0;}
	.st42{fill:#FF1D25;}
	.st43{opacity:0.67;fill:#FF0000;stroke:#1F1FFF;stroke-miterlimit:10;}
	.st44{fill:#DBDAD2;stroke:#000000;stroke-width:0.75;stroke-miterlimit:10;}
	.st45{fill:#ABBEBD;stroke:#000000;stroke-width:0.75;stroke-miterlimit:10;}
	.st46{opacity:0.12;}
	.st47{fill:#008072;stroke:#000000;stroke-width:0.75;stroke-miterlimit:10;}
	.st48{fill:#FFE7A0;stroke:#000000;stroke-width:0.75;stroke-miterlimit:10;}
	.st49{fill:#FFA5AE;stroke:#000000;stroke-width:0.75;stroke-miterlimit:10;}
	.st50{fill:none;stroke:#000000;stroke-width:3;stroke-miterlimit:10;}
	.st51{fill:#FFA5AE;stroke:#000000;stroke-width:0.1;stroke-miterlimit:10;}
	.st52{fill:#FF0000;}
	.st53{fill:#ABBEBD;stroke:#000000;stroke-width:0.25;stroke-miterlimit:10;}
	.st54{opacity:0.6;fill:#FFFFFF;}
	.st55{fill:#FF4A3D;}
	.st56{fill:none;stroke:#000000;stroke-width:0.75;stroke-miterlimit:10;}
	.st57{fill:#FEF7EF;stroke:#000000;stroke-width:0.75;stroke-miterlimit:10;}
	.st58{fill:none;stroke:#000000;stroke-width:0.75;stroke-linecap:round;stroke-miterlimit:10;}
	.st59{fill:#FFFFFF;stroke:#000000;stroke-width:0.75;stroke-miterlimit:10;}
	.st60{fill:#DBDAD2;stroke:#000000;stroke-width:0.5;stroke-miterlimit:10;}
	.st61{fill:#FF4A3D;stroke:#000000;stroke-width:0.5;stroke-linecap:round;stroke-miterlimit:10;}
	.st62{fill:none;stroke:#000000;stroke-width:0.5;stroke-linecap:round;stroke-miterlimit:10;}
</style>
<g id="Ebene_2">
</g>
<g id="Ebene_1">
	<path class="st2" d="M35.9,28.7c-3.6-1.2-6.2-0.9-8-0.4c-3,0.9-4.4,2.8-7,2.5c-1.8-0.2-3.1-1.2-4-2.1c0-7.3,0-14.6,0-21.9h19V28.7z
		"/>
	<path class="st8" d="M46.2,6.8H1c-0.4,0-0.6-0.3-0.6-0.6V3.6c0-0.4,0.3-0.6,0.6-0.6h45.2c0.4,0,0.6,0.3,0.6,0.6v2.5
		C46.9,6.5,46.6,6.8,46.2,6.8z"/>
	<path class="st8" d="M19.5,43H1.1c-0.4,0-0.7-0.3-0.7-0.7v-2.5c0-0.4,0.3-0.7,0.7-0.7h18.4c0.4,0,0.7,0.3,0.7,0.7v2.5
		C20.2,42.7,19.9,43,19.5,43z"/>
	<path class="st8" d="M46.2,43h-12c-0.4,0-0.7-0.3-0.7-0.7v-2.4c0-0.4,0.3-0.7,0.7-0.7h12c0.4,0,0.7,0.3,0.7,0.7v2.4
		C46.9,42.7,46.6,43,46.2,43z"/>
	<rect x="2.5" y="6.8" class="st4" width="14.9" height="32.4"/>
	<rect x="35.9" y="6.8" class="st4" width="8.5" height="32.4"/>
	<path class="st60" d="M13.5,27.7H6.3c-0.2,0-0.3-0.1-0.3-0.3V11.9c0-0.2,0.1-0.3,0.3-0.3h7.2c0.2,0,0.3,0.1,0.3,0.3v15.5
		C13.8,27.6,13.7,27.7,13.5,27.7z"/>
	<line class="st62" x1="24.8" y1="11.6" x2="24.8" y2="27.1"/>
	<line class="st62" x1="9.9" y1="17.8" x2="9.9" y2="14.7"/>
	<line class="st62" x1="30.4" y1="9" x2="30.4" y2="24.4"/>
	<rect x="9" y="21.9" class="st62" width="1.8" height="3"/>
</g>
</svg>
