<?xml version="1.0" encoding="utf-8"?>
<!-- Generator: Adobe Illustrator 25.2.3, SVG Export Plug-In . SVG Version: 6.00 Build 0)  -->
<svg version="1.1" xmlns="http://www.w3.org/2000/svg" xmlns:xlink="http://www.w3.org/1999/xlink" x="0px" y="0px"
	 viewBox="0 0 48.7 42" style="enable-background:new 0 0 48.7 42;" xml:space="preserve">
<style type="text/css">
	.st0{fill:#1F1FFF;}
	.st1{fill:#F0F0F0;}
	.st2{fill:#2F2F2F;stroke:#FFFFFF;stroke-width:0.5;stroke-miterlimit:10;}
	.st3{fill:#585957;stroke:#000000;stroke-width:0.5;stroke-miterlimit:10;}
	.st4{fill:#FF9A93;stroke:#000000;stroke-width:0.5;stroke-miterlimit:10;}
	.st5{fill:#ABBEBD;stroke:#000000;stroke-width:0.5;stroke-miterlimit:10;}
	.st6{fill:#FFFFFF;stroke:#000000;stroke-width:0.5;stroke-miterlimit:10;}
	.st7{fill:none;stroke:#000000;stroke-width:0.5;stroke-miterlimit:10;}
	.st8{fill:#EB7F7F;}
	.st9{fill:#AFDCDC;stroke:#000000;stroke-width:0.5;stroke-miterlimit:10;}
	.st10{fill:#75C9DF;}
	.st11{opacity:0.23;fill:#585957;}
	.st12{fill:#8DCBC3;}
	.st13{fill:#AFDCDC;}
	.st14{fill:#F9EEDB;}
	.st15{opacity:0.44;}
	.st16{fill:none;stroke:#FF0000;stroke-miterlimit:10;}
	.st17{fill:#002CA4;}
	.st18{fill:#0050E3;}
	.st19{fill:#FFA8A7;}
	.st20{fill:#FFCFD0;}
	.st21{fill:#0050E3;stroke:#1B1464;stroke-miterlimit:10;}
	.st22{fill:#00BAA5;}
	.st23{fill:#C7EAD7;}
	.st24{fill:#FF3627;}
	.st25{fill:#D80000;}
	.st26{fill:#1B9787;}
	.st27{fill:#FEFD87;}
	.st28{fill:#002D82;}
	.st29{fill:#00106A;}
	.st30{fill:#E492B8;}
	.st31{fill:#22B573;stroke:#000000;stroke-width:0.5;stroke-miterlimit:10;}
	.st32{fill:#FFD900;}
	.st33{fill:#DAB312;stroke:#000000;stroke-width:0.5;stroke-miterlimit:10;}
	.st34{fill:#FF9A93;}
	.st35{fill:#FEFEC3;}
	.st36{fill:#FFBECA;}
	.st37{fill:#FFA5AE;}
	.st38{fill:#FFFFFF;}
	.st39{fill:#8FBC9C;}
	.st40{fill:none;stroke:#000000;stroke-width:0.25;stroke-miterlimit:10;}
	.st41{opacity:0.32;fill:#585957;}
	.st42{fill:none;stroke:#000000;stroke-width:2;stroke-miterlimit:10;}
	.st43{fill:#FEFEC3;stroke:#000000;stroke-width:0.5;stroke-miterlimit:10;}
	.st44{fill:#FFBECA;stroke:#000000;stroke-width:0.5;stroke-miterlimit:10;}
	.st45{opacity:0.84;}
	.st46{fill:#FF1D25;}
	.st47{opacity:0.53;fill:#FF0000;stroke:#1F1FFF;stroke-miterlimit:10;}
	.st48{fill:#FCF6ED;stroke:#000000;stroke-miterlimit:10;}
	.st49{fill:#7F7F7F;stroke:#000000;stroke-miterlimit:10;}
	.st50{opacity:0.12;}
	.st51{fill:#008072;stroke:#000000;stroke-width:0.75;stroke-miterlimit:10;}
	.st52{fill:#FFE7A0;stroke:#000000;stroke-width:0.75;stroke-miterlimit:10;}
	.st53{fill:#FFA5AE;stroke:#000000;stroke-width:0.75;stroke-miterlimit:10;}
	.st54{fill:none;stroke:#000000;stroke-width:3;stroke-miterlimit:10;}
	.st55{fill:#FFA5AE;stroke:#000000;stroke-width:0.1;stroke-miterlimit:10;}
	.st56{fill:#FF0000;}
	.st57{fill:#ABBEBD;stroke:#000000;stroke-width:0.25;stroke-miterlimit:10;}
	.st58{opacity:0.6;fill:#FFFFFF;}
	.st59{fill:#FF4A3D;}
	.st60{fill:none;stroke:#000000;stroke-width:0.75;stroke-miterlimit:10;}
	.st61{fill:#FEF7EF;stroke:#000000;stroke-width:0.75;stroke-miterlimit:10;}
	.st62{fill:none;stroke:#000000;stroke-width:0.75;stroke-linecap:round;stroke-miterlimit:10;}
	.st63{fill:#FFFFFF;stroke:#000000;stroke-width:0.75;stroke-miterlimit:10;}
	.st64{fill:#DBDAD2;stroke:#000000;stroke-width:0.5;stroke-miterlimit:10;}
	.st65{fill:#FF4A3D;stroke:#000000;stroke-width:0.5;stroke-linecap:round;stroke-miterlimit:10;}
	.st66{fill:none;stroke:#000000;stroke-width:0.5;stroke-linecap:round;stroke-miterlimit:10;}
	.st67{fill:#F9EEDB;stroke:#000000;stroke-width:0.5;stroke-miterlimit:10;}
	.st68{fill:#7F7F7F;stroke:#000000;stroke-width:0.5;stroke-miterlimit:10;}
	.st69{fill:#7FDCD2;stroke:#000000;stroke-width:0.5;stroke-miterlimit:10;}
	.st70{fill:#FF7BAC;stroke:#2F2F2F;stroke-width:0.5;stroke-miterlimit:10;}
	.st71{fill:none;stroke:#2F2F2F;stroke-width:0.5;stroke-miterlimit:10;}
	.st72{fill:#F9EEDB;stroke:#2F2F2F;stroke-width:0.5;stroke-miterlimit:10;}
	.st73{fill:#2F2F2F;}
	.st74{fill:none;stroke:#F9EEDB;stroke-width:0.5;stroke-miterlimit:10;}
	.st75{fill:none;stroke:#000000;stroke-linejoin:round;stroke-miterlimit:10;}
</style>
<g id="Ebene_2">
</g>
<g id="Ebene_1">
	<g>
		<path class="st1" d="M44.1,8.8c-0.2-1-0.4-1.8-0.5-2.6c-0.3-1.6-0.5-2.6-1.3-3.6C41,1.2,38.7,0,36.6,1c-1.5,0.7-2.3,2.1-2.7,3
			c0.2,0.2,0.4,0.5,0.6,0.7C34.7,5,34.8,5.2,35,5.4c0,0,0.1,0.1,0.1,0.1c1.1,1.6,1.6,3.4,1.6,5.4v6.7l0.6,2.7
			c1.9,2.8,4.5,4.5,6.9,4.7c1.1,0.1,2.1-0.2,2.7-0.8c1.2-1.2,1.3-4.2,0.3-7.3C45.8,14.2,44.7,11.5,44.1,8.8z"/>
		<path class="st1" d="M14.4,4c-0.4-0.9-1.2-2.3-2.6-3C9.6,0,7.3,1.2,6,2.6c-0.8,1-1,2-1.3,3.6C4.6,7,4.5,7.8,4.2,8.8
			c-0.6,2.7-1.7,5.4-3,8c-1,3.1-0.9,6.1,0.3,7.3C2.1,24.7,3,25,4.1,24.9c2.4-0.2,4.9-2,6.9-4.7l0.5-2.2v-7.1
			C11.5,8.2,12.6,5.7,14.4,4z"/>
		<path class="st1" d="M0,0v42h48.7V0H0z M47.2,24.5c-0.6,0.6-1.5,1-2.6,1c-0.1,0-0.3,0-0.4,0c-2.5-0.2-5.2-2.1-7.3-5l0-0.1
			l-0.2-0.7v12.6c0,5.3-4.3,9.6-9.6,9.6h-6c-5.3,0-9.6-4.3-9.6-9.6V20l-0.1,0.4c-2,2.9-4.7,4.8-7.3,5c-0.2,0-0.3,0-0.4,0
			c-1.1,0-2-0.3-2.6-1c-1.3-1.4-1.5-4.5-0.4-7.8l0,0c1.4-2.6,2.4-5.2,3-7.9c0.2-1,0.4-1.8,0.5-2.5c0.3-1.6,0.5-2.7,1.4-3.8
			C7,0.7,9.6-0.5,12,0.6c1.5,0.7,2.4,2.1,2.8,3.1c1.7-1.5,3.9-2.4,6.3-2.4h6c2.5,0,4.7,0.9,6.4,2.5c0.4-1,1.3-2.4,2.9-3.1
			c2.4-1.1,5,0.1,6.3,1.7c0.9,1.1,1.1,2.2,1.4,3.8c0.1,0.7,0.3,1.5,0.5,2.5c0.6,2.7,1.6,5.4,3,7.9l0,0C48.7,20,48.5,23.1,47.2,24.5z
			"/>
	</g>
	<g>
		<path class="st71" d="M47.4,16.7c-1.7-3.2-2.6-6-3-8c-0.8-3.2-0.6-4.7-1.9-6.3c-1.3-1.5-3.7-2.7-6-1.7c-1.7,0.8-2.5,2.4-2.9,3.3
			c1.8,1.7,2.9,4.1,2.9,6.7v6.7c0.2,0.9,0.4,1.8,0.7,2.8c3.5,5,8.1,5.8,9.9,4C48.4,22.9,48.4,19.7,47.4,16.7z"/>
		<path class="st71" d="M1,16.7c1.7-3.2,2.6-6,3-8C4.8,5.5,4.6,4,5.8,2.5c1.3-1.5,3.7-2.7,6-1.7c1.7,0.8,2.5,2.4,2.9,3.3
			c-1.8,1.7-2.9,4.1-2.9,6.7v6.7c-0.2,0.9-0.4,1.8-0.7,2.8c-3.5,5-8.1,5.8-9.9,4C-0.1,22.9,0,19.7,1,16.7z"/>
		<path class="st71" d="M27.1,41.6h-6c-5.2,0-9.3-4.2-9.3-9.3V10.8c0-5.2,4.2-9.3,9.3-9.3h6c5.2,0,9.3,4.2,9.3,9.3v21.4
			C36.4,37.4,32.3,41.6,27.1,41.6z"/>
		<ellipse class="st73" cx="24.3" cy="31" rx="4.9" ry="3"/>
		<ellipse class="st72" cx="31.7" cy="15.1" rx="2.5" ry="3.4"/>
		<circle class="st73" cx="31.7" cy="13.6" r="1.9"/>
		<ellipse class="st72" cx="17.4" cy="15.1" rx="2.5" ry="3.4"/>
		<circle class="st73" cx="17.4" cy="13.6" r="1.9"/>
	</g>
</g>
</svg>
