<?xml version="1.0" encoding="utf-8"?>
<!-- Generator: Adobe Illustrator 25.2.3, SVG Export Plug-In . SVG Version: 6.00 Build 0)  -->
<svg version="1.1" xmlns="http://www.w3.org/2000/svg" xmlns:xlink="http://www.w3.org/1999/xlink" x="0px" y="0px"
	 viewBox="0 0 133.9 247.4" style="enable-background:new 0 0 133.9 247.4;" xml:space="preserve">
<style type="text/css">
	.st0{fill:#F9EEDB;stroke:#1A1A1A;stroke-width:0.75;stroke-miterlimit:10;}
	.st1{fill:none;stroke:#2F2F2F;stroke-width:4;stroke-linecap:round;stroke-miterlimit:10;}
	.st2{fill:#F0F0F0;}
	.st3{fill:#2F2F2F;stroke:#FFFFFF;stroke-width:0.5;stroke-miterlimit:10;}
	.st4{fill:#585957;stroke:#000000;stroke-width:0.5;stroke-miterlimit:10;}
	.st5{fill:#FF9A93;stroke:#000000;stroke-width:0.5;stroke-miterlimit:10;}
	.st6{fill:#ABBEBD;stroke:#000000;stroke-width:0.5;stroke-miterlimit:10;}
	.st7{fill:#FFFFFF;stroke:#000000;stroke-width:0.5;stroke-miterlimit:10;}
	.st8{fill:none;stroke:#000000;stroke-width:0.5;stroke-miterlimit:10;}
	.st9{fill:#EB7F7F;}
	.st10{fill:#AFDCDC;stroke:#000000;stroke-width:0.5;stroke-miterlimit:10;}
	.st11{fill:#75C9DF;}
	.st12{opacity:0.23;fill:#585957;}
	.st13{fill:#8DCBC3;}
	.st14{fill:#AFDCDC;}
	.st15{fill:#F9EEDB;}
	.st16{opacity:0.44;}
	.st17{fill:none;stroke:#FF0000;stroke-miterlimit:10;}
	.st18{fill:#002CA4;}
	.st19{fill:#0050E3;}
	.st20{fill:#FFA8A7;}
	.st21{fill:#FFCFD0;}
	.st22{fill:#0050E3;stroke:#1B1464;stroke-miterlimit:10;}
	.st23{fill:#00BAA5;}
	.st24{fill:#C7EAD7;}
	.st25{fill:#FF3627;}
	.st26{fill:#D80000;}
	.st27{fill:#1B9787;}
	.st28{fill:#FEFD87;}
	.st29{fill:#002D82;}
	.st30{fill:#00106A;}
	.st31{fill:#E492B8;}
	.st32{fill:#22B573;stroke:#000000;stroke-width:0.5;stroke-miterlimit:10;}
	.st33{fill:#FFD900;}
	.st34{fill:#DAB312;stroke:#000000;stroke-width:0.5;stroke-miterlimit:10;}
	.st35{fill:#FF9A93;}
	.st36{fill:#FEFEC3;}
	.st37{fill:#FFBECA;}
	.st38{fill:#FFA5AE;}
	.st39{fill:#FFFFFF;}
	.st40{fill:#8FBC9C;}
	.st41{fill:none;stroke:#000000;stroke-width:0.25;stroke-miterlimit:10;}
	.st42{opacity:0.32;fill:#585957;}
	.st43{fill:none;stroke:#000000;stroke-width:2;stroke-miterlimit:10;}
	.st44{fill:#FEFEC3;stroke:#000000;stroke-width:0.5;stroke-miterlimit:10;}
	.st45{fill:#FFBECA;stroke:#000000;stroke-width:0.5;stroke-miterlimit:10;}
	.st46{fill:#FCF6ED;stroke:#000000;stroke-miterlimit:10;}
	.st47{fill:#7F7F7F;stroke:#000000;stroke-miterlimit:10;}
	.st48{opacity:0.12;}
	.st49{fill:#008072;stroke:#000000;stroke-width:0.75;stroke-miterlimit:10;}
	.st50{fill:#FFE7A0;stroke:#000000;stroke-width:0.75;stroke-miterlimit:10;}
	.st51{fill:#FFA5AE;stroke:#000000;stroke-width:0.75;stroke-miterlimit:10;}
	.st52{fill:none;stroke:#000000;stroke-width:3;stroke-miterlimit:10;}
	.st53{fill:#FFA5AE;stroke:#000000;stroke-width:0.1;stroke-miterlimit:10;}
	.st54{fill:#FF0000;}
	.st55{fill:#ABBEBD;stroke:#000000;stroke-width:0.25;stroke-miterlimit:10;}
	.st56{opacity:0.6;fill:#FFFFFF;}
	.st57{fill:#FF4A3D;}
	.st58{fill:#7FA7F1;stroke:#7FA7F1;stroke-miterlimit:10;}
	.st59{fill:#ABBEBD;stroke:#000000;stroke-width:1.5;stroke-miterlimit:10;}
	.st60{fill:none;stroke:#000000;stroke-width:0.75;stroke-miterlimit:10;}
	.st61{fill:#FEF7EF;stroke:#000000;stroke-width:0.75;stroke-miterlimit:10;}
	.st62{fill:none;stroke:#000000;stroke-width:0.75;stroke-linecap:round;stroke-miterlimit:10;}
	.st63{fill:#FFFFFF;stroke:#000000;stroke-width:0.75;stroke-miterlimit:10;}
	.st64{fill:#DBDAD2;stroke:#000000;stroke-width:0.5;stroke-miterlimit:10;}
	.st65{fill:#FF4A3D;stroke:#000000;stroke-width:0.5;stroke-linecap:round;stroke-miterlimit:10;}
	.st66{fill:none;stroke:#000000;stroke-width:0.5;stroke-linecap:round;stroke-miterlimit:10;}
	.st67{fill:#F9EEDB;stroke:#000000;stroke-width:0.5;stroke-miterlimit:10;}
	.st68{fill:#7F7F7F;stroke:#000000;stroke-width:0.5;stroke-miterlimit:10;}
	.st69{fill:#7FDCD2;stroke:#000000;stroke-width:0.5;stroke-miterlimit:10;}
	.st70{fill:#FF7BAC;stroke:#2F2F2F;stroke-width:0.5;stroke-miterlimit:10;}
	.st71{fill:none;stroke:#2F2F2F;stroke-width:0.5;stroke-miterlimit:10;}
	.st72{fill:#F9EEDB;stroke:#2F2F2F;stroke-width:0.5;stroke-miterlimit:10;}
	.st73{fill:#2F2F2F;}
	.st74{fill:none;stroke:#F9EEDB;stroke-width:0.5;stroke-miterlimit:10;}
	.st75{fill:none;stroke:#000000;stroke-linejoin:round;stroke-miterlimit:10;}
	.st76{fill:#E3F4EB;stroke:#000000;stroke-width:1.5;stroke-miterlimit:10;}
	.st77{opacity:0.5;}
	.st78{fill:none;stroke:#000000;stroke-width:1.5;stroke-miterlimit:10;}
	.st79{opacity:0.52;fill:#FFFFFF;}
	.st80{opacity:0.47;fill:#2F2F2F;}
	.st81{fill:#FFCF0A;stroke:#2F2F2F;stroke-width:1.5;stroke-miterlimit:10;}
	.st82{fill:none;stroke:#2F2F2F;stroke-width:4;stroke-miterlimit:10;}
	.st83{fill:#F9EEDB;stroke:#7FA7F1;stroke-miterlimit:10;}
	.st84{fill:#F9EEDB;stroke:#2F2F2F;stroke-width:1.5;stroke-miterlimit:10;}
	.st85{fill:none;stroke:#2F2F2F;stroke-width:1.5;stroke-miterlimit:10;}
	.st86{fill:#DBDAD2;stroke:#000000;stroke-width:1.5;stroke-miterlimit:10;}
	.st87{opacity:0.56;fill:#7F7F7F;}
</style>
<g id="Ebene_2">
</g>
<g id="Ebene_1">
	<g>
		<circle class="st58" cx="66.9" cy="65.7" r="49.6"/>
		<path class="st12" d="M105.2,34.1c3,6.4,4.8,13.5,4.8,21.1c0,27.4-22.2,49.6-49.6,49.6c-15.4,0-29.1-7-38.2-18
			c7.9,16.8,25,28.5,44.8,28.5c27.4,0,49.6-22.2,49.6-49.6C116.5,53.7,112.3,42.7,105.2,34.1z"/>
		<path class="st59" d="M133.1,65.1c-1-36.5-31.5-65.3-68-64.3c-36.5,1-65.3,31.5-64.3,68c1,35.6,30,63.8,65.3,64.3l0.1,4.6
			l-2.2,0.1c-2.3,0.1-4.1,2-4,4.2l2,73.9l-0.3,0c-2.4,0.1-4.2,2-4.1,4.4c0.1,2.4,2,4.2,4.4,4.1c-2.4,0.1-4.2,2-4.1,4.4
			c0.1,2.4,2,4.2,4.4,4.2l0.3,0l0.1,2.1c0.2,5.7,4.2,11,9.8,11.6c6.9,0.8,12.6-4.7,12.4-11.4l-0.1-2.9l0.3,0c2.4-0.1,4.2-2,4.1-4.4
			c-0.1-2.4-2-4.2-4.4-4.1c2.4-0.1,4.2-2,4.1-4.4c-0.1-2.4-2-4.2-4.4-4.2l-0.3,0l-2-74.1c-0.1-2.1-1.8-3.8-4-3.8l-2.4,0.1l-0.1-4.8
			C108.9,128.1,134,99.3,133.1,65.1z M68.3,115.8C40.9,116.5,18.1,95,17.3,67.6c-0.8-27.4,20.8-50.2,48.2-50.9
			c27.4-0.8,50.2,20.8,50.9,48.2C117.2,92.2,95.7,115,68.3,115.8z"/>
		<ellipse transform="matrix(0.821 -0.5709 0.5709 0.821 -11.7315 30.7766)" class="st56" cx="43.2" cy="34.1" rx="9.4" ry="3.5"/>
	</g>
</g>
</svg>
