<?xml version="1.0" encoding="utf-8"?>
<!-- Generator: Adobe Illustrator 25.2.3, SVG Export Plug-In . SVG Version: 6.00 Build 0)  -->
<svg version="1.1" xmlns="http://www.w3.org/2000/svg" xmlns:xlink="http://www.w3.org/1999/xlink" x="0px" y="0px"
	 viewBox="0 0 59.1 60.6" style="enable-background:new 0 0 59.1 60.6;" xml:space="preserve">
<style type="text/css">
	.st0{fill:#1F1FFF;}
	.st1{fill:#585957;stroke:#000000;stroke-width:0.5;stroke-miterlimit:10;}
	.st2{fill:#FF9A93;stroke:#000000;stroke-width:0.5;stroke-miterlimit:10;}
	.st3{fill:#F0F0F0;}
	.st4{fill:#ABBEBD;stroke:#000000;stroke-width:0.5;stroke-miterlimit:10;}
	.st5{fill:#FFFFFF;stroke:#000000;stroke-width:0.5;stroke-miterlimit:10;}
	.st6{fill:none;stroke:#000000;stroke-width:0.5;stroke-miterlimit:10;}
	.st7{fill:#F14564;}
	.st8{fill:#AFDCDC;stroke:#000000;stroke-width:0.5;stroke-miterlimit:10;}
	.st9{fill:#75C9DF;}
	.st10{opacity:0.23;fill:#585957;}
	.st11{fill:#8DCBC3;}
	.st12{fill:#AFDCDC;}
	.st13{fill:#F9EEDB;}
	.st14{opacity:0.44;}
	.st15{fill:none;stroke:#FF0000;stroke-miterlimit:10;}
	.st16{fill:#002CA4;}
	.st17{fill:#0050E3;}
	.st18{fill:#FFA8A7;}
	.st19{fill:#FFCFD0;}
	.st20{fill:#0050E3;stroke:#1B1464;stroke-miterlimit:10;}
	.st21{fill:#00BAA5;}
	.st22{fill:#C7EAD7;}
	.st23{fill:#FF3627;}
	.st24{fill:#D80000;}
	.st25{fill:#1B9787;}
	.st26{fill:#FEFD87;}
	.st27{fill:#002D82;}
	.st28{fill:#00106A;}
	.st29{fill:#E492B8;}
	.st30{fill:#22B573;stroke:#000000;stroke-width:0.5;stroke-miterlimit:10;}
	.st31{fill:#FFD900;}
	.st32{fill:#DAB312;stroke:#000000;stroke-width:0.5;stroke-miterlimit:10;}
	.st33{fill:#FF9A93;}
	.st34{fill:#FEFEC3;}
	.st35{fill:#FFBECA;}
	.st36{fill:#FFA5AE;}
	.st37{fill:#FFFFFF;}
	.st38{fill:#8FBC9C;}
	.st39{fill:none;stroke:#000000;stroke-width:0.25;stroke-miterlimit:10;}
	.st40{opacity:0.32;fill:#585957;}
	.st41{fill:none;stroke:#000000;stroke-width:2;stroke-miterlimit:10;}
	.st42{fill:#FEFEC3;stroke:#000000;stroke-width:0.5;stroke-miterlimit:10;}
	.st43{opacity:0.84;}
	.st44{fill:#FF1D25;}
	.st45{opacity:0.53;fill:#FF0000;stroke:#1F1FFF;stroke-miterlimit:10;}
	.st46{fill:#FCF6ED;stroke:#000000;stroke-miterlimit:10;}
	.st47{fill:#7F7F7F;stroke:#000000;stroke-miterlimit:10;}
	.st48{opacity:0.12;}
	.st49{fill:#008072;stroke:#000000;stroke-width:0.75;stroke-miterlimit:10;}
	.st50{fill:#FFE7A0;stroke:#000000;stroke-width:0.75;stroke-miterlimit:10;}
	.st51{fill:#FFA5AE;stroke:#000000;stroke-width:0.75;stroke-miterlimit:10;}
	.st52{fill:none;stroke:#000000;stroke-width:3;stroke-miterlimit:10;}
	.st53{fill:#FFA5AE;stroke:#000000;stroke-width:0.1;stroke-miterlimit:10;}
	.st54{fill:#FF0000;}
	.st55{fill:#ABBEBD;stroke:#000000;stroke-width:0.25;stroke-miterlimit:10;}
	.st56{opacity:0.6;fill:#FFFFFF;}
	.st57{fill:#FF4A3D;}
	.st58{fill:none;stroke:#000000;stroke-width:0.75;stroke-miterlimit:10;}
	.st59{fill:#FEF7EF;stroke:#000000;stroke-width:0.75;stroke-miterlimit:10;}
	.st60{fill:none;stroke:#000000;stroke-width:0.75;stroke-linecap:round;stroke-miterlimit:10;}
	.st61{fill:#FFFFFF;stroke:#000000;stroke-width:0.75;stroke-miterlimit:10;}
	.st62{fill:#DBDAD2;stroke:#000000;stroke-width:0.5;stroke-miterlimit:10;}
	.st63{fill:#FF4A3D;stroke:#000000;stroke-width:0.5;stroke-linecap:round;stroke-miterlimit:10;}
	.st64{fill:none;stroke:#000000;stroke-width:0.5;stroke-linecap:round;stroke-miterlimit:10;}
</style>
<g id="Ebene_2">
</g>
<g id="Ebene_1">
	<g id="PU3Mxl.tif">
		<g>
			<path d="M59.1,21.3c-0.3,0.4-0.7,1-1.1,1.3c-1.7,1.4-3.4,2.6-5.1,4c-0.5,0.4-0.7,1.2-0.8,1.9c-0.1,0.8,0.2,1.8,0,2.6
				c-0.4,1.7,0.2,2.7,1.6,3.6c1.5,1,2.8,2.2,4.2,3.3c1,0.7,1.2,1.5,0.6,2.6c-1.9,3.3-3.8,6.5-5.6,9.8c-0.6,1-1.4,1.4-2.6,0.8
				c-0.6-0.3-1.3-0.5-1.9-0.8c-1.6-0.7-3.3-1.9-4.9-1.8c-1.6,0.1-3.1,1.5-4.6,2.5c-0.4,0.2-0.7,0.8-0.8,1.2c-0.4,2.2-0.7,4.4-1,6.5
				c-0.2,1.2-0.7,1.8-2,1.8c-3.8,0-7.5,0-11.3,0c-1.3,0-1.8-0.6-2-1.8c-0.3-2.2-0.6-4.4-1-6.5c-0.1-0.4-0.4-0.9-0.8-1.2
				c-1.2-0.8-2.5-1.5-3.8-2.2c-0.4-0.2-1.1-0.3-1.6-0.1c-2.1,0.8-4.2,1.6-6.3,2.5c-1.1,0.5-1.8,0.1-2.3-0.7c-2-3.3-3.9-6.7-5.8-10.1
				c-0.5-1-0.3-1.7,0.6-2.4c1.6-1.2,3.2-2.5,4.8-3.8c0.3-0.2,0.5-0.4,0.8-0.6c0.7-0.7,0.4-6.4-0.4-7c-1.6-1.3-3.3-2.6-5-3.9
				c-1.1-0.8-1.3-1.7-0.6-2.9c1.9-3.1,3.7-6.3,5.5-9.5c0.6-1.1,1.4-1.5,2.7-0.9c0.6,0.3,1.3,0.5,1.9,0.8c1.6,0.7,3.3,1.9,4.9,1.8
				c1.6-0.1,3.1-1.5,4.6-2.5c0.4-0.2,0.7-0.8,0.8-1.2c0.4-2.2,0.7-4.4,1-6.5C22,0.6,22.6,0,23.8,0c3.7,0,7.4,0,11.2,0
				c1.3,0,2,0.5,2.1,1.9c0.2,2.1,0.6,4.3,1,6.4c0.1,0.5,0.6,1.1,1,1.4c0.5,0.4,1.3,0.6,1.8,1c1.8,1.7,3.5,1.5,5.5,0.4
				c1.4-0.7,2.9-1.3,4.3-1.7c0.6-0.2,1.6,0.1,1.9,0.5c2.1,3.5,4.1,7,6.2,10.6C58.9,20.7,58.9,20.9,59.1,21.3z M18.8,30.3
				c0,5.9,4.6,10.6,10.5,10.6c5.9,0.1,10.7-4.7,10.7-10.6c0-5.9-4.6-10.6-10.5-10.6C23.6,19.6,18.8,24.4,18.8,30.3z"/>
		</g>
	</g>
</g>
</svg>
