<?xml version="1.0" encoding="utf-8"?>
<!-- Generator: Adobe Illustrator 25.2.3, SVG Export Plug-In . SVG Version: 6.00 Build 0)  -->
<svg version="1.1" xmlns="http://www.w3.org/2000/svg" xmlns:xlink="http://www.w3.org/1999/xlink" x="0px" y="0px"
	 viewBox="0 0 67.7 80.3" style="enable-background:new 0 0 67.7 80.3;" xml:space="preserve">
<style type="text/css">
	.st0{fill:#1F1FFF;}
	.st1{fill:#585957;stroke:#000000;stroke-width:0.5;stroke-miterlimit:10;}
	.st2{fill:#FF9A93;stroke:#000000;stroke-width:0.5;stroke-miterlimit:10;}
	.st3{fill:#F0F0F0;}
	.st4{fill:#ABBEBD;stroke:#000000;stroke-width:0.5;stroke-miterlimit:10;}
	.st5{fill:#FFFFFF;stroke:#000000;stroke-width:0.5;stroke-miterlimit:10;}
	.st6{fill:none;stroke:#000000;stroke-width:0.5;stroke-miterlimit:10;}
	.st7{fill:#F14564;}
	.st8{fill:#AFDCDC;stroke:#000000;stroke-width:0.5;stroke-miterlimit:10;}
	.st9{fill:#75C9DF;}
	.st10{opacity:0.23;fill:#585957;}
	.st11{fill:#8DCBC3;}
	.st12{fill:#AFDCDC;}
	.st13{fill:#F9EEDB;}
	.st14{opacity:0.44;}
	.st15{fill:none;stroke:#FF0000;stroke-miterlimit:10;}
	.st16{fill:#002CA4;}
	.st17{fill:#0050E3;}
	.st18{fill:#FFA8A7;}
	.st19{fill:#FFCFD0;}
	.st20{fill:#0050E3;stroke:#1B1464;stroke-miterlimit:10;}
	.st21{fill:#00BAA5;}
	.st22{fill:#C7EAD7;}
	.st23{fill:#FF3627;}
	.st24{fill:#D80000;}
	.st25{fill:#1B9787;}
	.st26{fill:#FEFD87;}
	.st27{fill:#002D82;}
	.st28{fill:#00106A;}
	.st29{fill:#E492B8;}
	.st30{fill:#22B573;stroke:#000000;stroke-width:0.5;stroke-miterlimit:10;}
	.st31{fill:#FFD900;}
	.st32{fill:#DAB312;stroke:#000000;stroke-width:0.5;stroke-miterlimit:10;}
	.st33{fill:#FF9A93;}
	.st34{fill:#FEFEC3;}
	.st35{fill:#FFBECA;}
	.st36{fill:#FFA5AE;}
	.st37{fill:#FFFFFF;}
	.st38{fill:#8FBC9C;}
	.st39{fill:none;stroke:#000000;stroke-width:0.25;stroke-miterlimit:10;}
	.st40{opacity:0.32;fill:#585957;}
	.st41{fill:none;stroke:#000000;stroke-width:2;stroke-miterlimit:10;}
	.st42{fill:#FEFEC3;stroke:#000000;stroke-width:0.5;stroke-miterlimit:10;}
	.st43{opacity:0.84;}
	.st44{fill:#FF1D25;}
	.st45{opacity:0.53;fill:#FF0000;stroke:#1F1FFF;stroke-miterlimit:10;}
	.st46{fill:#FCF6ED;stroke:#000000;stroke-miterlimit:10;}
	.st47{fill:#7F7F7F;stroke:#000000;stroke-miterlimit:10;}
	.st48{opacity:0.12;}
	.st49{fill:#008072;stroke:#000000;stroke-width:0.75;stroke-miterlimit:10;}
	.st50{fill:#FFE7A0;stroke:#000000;stroke-width:0.75;stroke-miterlimit:10;}
	.st51{fill:#FFA5AE;stroke:#000000;stroke-width:0.75;stroke-miterlimit:10;}
	.st52{fill:none;stroke:#000000;stroke-width:3;stroke-miterlimit:10;}
	.st53{fill:#FFA5AE;stroke:#000000;stroke-width:0.1;stroke-miterlimit:10;}
	.st54{fill:#FF0000;}
	.st55{fill:#ABBEBD;stroke:#000000;stroke-width:0.25;stroke-miterlimit:10;}
	.st56{opacity:0.6;fill:#FFFFFF;}
	.st57{fill:#FF4A3D;}
	.st58{fill:none;stroke:#000000;stroke-width:0.75;stroke-miterlimit:10;}
	.st59{fill:#FEF7EF;stroke:#000000;stroke-width:0.75;stroke-miterlimit:10;}
	.st60{fill:none;stroke:#000000;stroke-width:0.75;stroke-linecap:round;stroke-miterlimit:10;}
	.st61{fill:#FFFFFF;stroke:#000000;stroke-width:0.75;stroke-miterlimit:10;}
	.st62{fill:#DBDAD2;stroke:#000000;stroke-width:0.5;stroke-miterlimit:10;}
	.st63{fill:#FF4A3D;stroke:#000000;stroke-width:0.5;stroke-linecap:round;stroke-miterlimit:10;}
	.st64{fill:none;stroke:#000000;stroke-width:0.5;stroke-linecap:round;stroke-miterlimit:10;}
</style>
<g id="Ebene_2">
</g>
<g id="Ebene_1">
	<g>
		<path class="st5" d="M41.7,5.7L42,7.9c0.4,0,0.7,0.2,0.7,0.4c0,0.3-0.4,0.6-0.9,0.7c-0.6,0.1-1-0.1-1.1-0.4c0-0.3,0.3-0.5,0.8-0.6
			l-0.3-2.1l-2.5,0.3l0.3,2.1c0.4,0,0.7,0.2,0.7,0.4c0,0.3-0.4,0.6-0.9,0.7c-0.6,0.1-1-0.1-1.1-0.4c0-0.3,0.3-0.5,0.8-0.6l-0.3-2.1
			l-2.5,0.3l0.3,2.2c0.4,0,0.7,0.2,0.7,0.4c0,0.3-0.4,0.6-0.9,0.7c-0.6,0.1-1-0.1-1.1-0.4c0-0.3,0.3-0.5,0.8-0.6L35,6.5l-2.5,0.3
			L32.8,9c0.4,0,0.7,0.2,0.7,0.4c0,0.3-0.4,0.6-0.9,0.7c-0.6,0.1-1-0.1-1.1-0.4c0-0.3,0.3-0.5,0.8-0.6l-0.3-2.2l-2.5,0.3l0.3,2.2
			c0.4,0,0.7,0.2,0.7,0.4c0,0.3-0.4,0.6-0.9,0.7c-0.6,0.1-1-0.1-1.1-0.4c0-0.3,0.3-0.5,0.8-0.6l-0.3-2.2l-2.5,0.3l0.3,2.2
			c0.4,0,0.7,0.2,0.7,0.4c0,0.3-0.4,0.6-0.9,0.7c-0.6,0.1-1-0.1-1.1-0.4c0-0.3,0.3-0.5,0.8-0.6l-0.3-2.2l-2.5,0.3l0.3,2.2
			c0.4,0,0.7,0.2,0.7,0.4c0,0.3-0.4,0.6-0.9,0.7c-0.6,0.1-1-0.1-1.1-0.4c0-0.3,0.3-0.5,0.8-0.6l-0.3-2.2l-2.5,0.3l0.3,2.2
			c0.4,0,0.7,0.2,0.7,0.4c0,0.3-0.4,0.6-0.9,0.7c-0.6,0.1-1-0.1-1.1-0.4c0-0.3,0.3-0.5,0.8-0.6l-0.3-2.2L17,8.6l0.3,2.2
			c0.4,0,0.7,0.2,0.7,0.4c0,0.3-0.4,0.6-0.9,0.7c-0.6,0.1-1-0.1-1.1-0.4c0-0.3,0.3-0.5,0.8-0.6l-0.3-2.2l-2.5,0.3l0.3,2.3
			c0.4,0,0.7,0.2,0.7,0.4c0,0.3-0.4,0.6-0.9,0.7c-0.6,0.1-1-0.1-1.1-0.4c0-0.3,0.3-0.5,0.8-0.6L13.4,9l-2.5,0.3l0.3,2.3
			c0.4,0,0.7,0.2,0.7,0.4c0,0.3-0.4,0.6-0.9,0.7c-0.6,0.1-1-0.1-1.1-0.4c0-0.3,0.3-0.5,0.8-0.6l-0.3-2.3L7.8,9.7L8.1,12
			c0.4,0,0.7,0.2,0.7,0.4c0,0.3-0.4,0.6-0.9,0.7c-0.6,0.1-1-0.1-1.1-0.4c0-0.3,0.3-0.5,0.8-0.6L7.2,9.7L4.7,10L5,12.3
			c0.4,0,0.7,0.2,0.7,0.4c0,0.3-0.4,0.6-0.9,0.7c-0.6,0.1-1-0.1-1.1-0.4c0-0.3,0.3-0.5,0.8-0.6l-0.3-2.3l-3.8,0.4l7,60.5l45.8-5.3
			l-7-60.5L41.7,5.7z"/>
		<path class="st5" d="M63.1,4.6L63,6.8c0.4,0.1,0.6,0.3,0.6,0.5c0,0.3-0.5,0.5-1.1,0.5c-0.6,0-1-0.3-1-0.6c0-0.3,0.4-0.4,0.9-0.5
			l0.1-2.1L60,4.4l-0.1,2.2c0.4,0.1,0.6,0.3,0.6,0.5c0,0.3-0.5,0.5-1.1,0.5c-0.6,0-1-0.3-1-0.6c0-0.3,0.4-0.4,0.9-0.5l0.1-2.2
			l-2.5-0.2l-0.1,2.2c0.4,0.1,0.6,0.3,0.6,0.5c0,0.3-0.5,0.5-1.1,0.5c-0.6,0-1-0.3-1-0.6c0-0.3,0.4-0.4,0.9-0.5L56.4,4l-2.5-0.2
			L53.7,6c0.4,0.1,0.6,0.3,0.6,0.5c0,0.3-0.5,0.5-1.1,0.5c-0.6,0-1-0.3-1-0.6c0-0.3,0.4-0.4,0.9-0.5l0.1-2.2l-2.5-0.2l-0.1,2.2
			C51,5.8,51.2,6,51.2,6.3c0,0.3-0.5,0.5-1.1,0.5c-0.6,0-1-0.3-1-0.6c0-0.3,0.4-0.4,0.9-0.5l0.1-2.2l-2.5-0.2l-0.1,2.2
			c0.4,0.1,0.6,0.3,0.6,0.5c0,0.3-0.5,0.5-1.1,0.5c-0.6,0-1-0.3-1-0.6c0-0.3,0.4-0.4,0.9-0.5l0.1-2.2L44.5,3l-0.1,2.2
			C44.8,5.3,45,5.5,45,5.7C45,6,44.5,6.3,44,6.2c-0.6,0-1-0.3-1-0.6c0-0.3,0.4-0.4,0.9-0.5L44,2.9l-2.5-0.2l-0.1,2.2
			c0.4,0.1,0.6,0.3,0.6,0.5c0,0.3-0.5,0.5-1.1,0.5c-0.6,0-1-0.3-1-0.6c0-0.3,0.4-0.4,0.9-0.5l0.1-2.2l-2.5-0.2l-0.2,2.3
			c0.4,0.1,0.6,0.3,0.6,0.5c0,0.3-0.5,0.5-1.1,0.5c-0.6,0-1-0.3-1-0.6c0-0.3,0.4-0.4,0.9-0.5l0.2-2.3l-2.5-0.2l-0.2,2.3
			c0.4,0.1,0.6,0.3,0.6,0.5c0,0.3-0.5,0.5-1.1,0.5c-0.6,0-1-0.3-1-0.6c0-0.3,0.4-0.4,0.9-0.5l0.2-2.3l-2.5-0.2L32,4.2
			c0.4,0.1,0.6,0.3,0.6,0.5c0,0.3-0.5,0.5-1.1,0.5c-0.6,0-1-0.3-1-0.6c0-0.3,0.4-0.4,0.9-0.5l0.2-2.3l-2.5-0.2l-0.2,2.3
			c0.4,0.1,0.6,0.3,0.6,0.5c0,0.3-0.5,0.5-1.1,0.5c-0.6,0-1-0.3-1-0.6c0-0.3,0.4-0.4,0.9-0.5l0.2-2.3L26,1.3l-0.2,2.3
			c0.4,0.1,0.6,0.3,0.6,0.5c0,0.3-0.5,0.5-1.1,0.5c-0.6,0-1-0.3-1-0.6c0-0.3,0.4-0.4,0.9-0.5l0.2-2.3l-3.9-0.3l-5.4,60.7L62,65.7
			L67.5,5L63.1,4.6z"/>
		<path class="st5" d="M49.6,8.9l0.2,2.1c0.4,0,0.7,0.2,0.7,0.4c0,0.3-0.4,0.6-1,0.6s-1-0.1-1.1-0.4c0-0.3,0.3-0.5,0.8-0.6L49,9
			l-2.5,0.2l0.2,2.1c0.4,0,0.7,0.2,0.7,0.4c0,0.3-0.4,0.6-1,0.6c-0.6,0.1-1-0.1-1.1-0.4c0-0.3,0.3-0.5,0.8-0.6l-0.2-2.1l-2.5,0.2
			l0.2,2.2c0.4,0,0.7,0.2,0.7,0.4c0,0.3-0.4,0.6-1,0.6c-0.6,0.1-1-0.1-1.1-0.4c0-0.3,0.3-0.5,0.8-0.6l-0.2-2.2l-2.5,0.2l0.2,2.2
			c0.4,0,0.7,0.2,0.7,0.4c0,0.3-0.4,0.6-1,0.6c-0.6,0.1-1-0.1-1.1-0.4c0-0.3,0.3-0.5,0.8-0.6l-0.2-2.2L37.2,10l0.2,2.2
			c0.4,0,0.7,0.2,0.7,0.4c0,0.3-0.4,0.6-1,0.6c-0.6,0.1-1-0.1-1.1-0.4c0-0.3,0.3-0.5,0.8-0.6L36.6,10l-2.5,0.2l0.2,2.2
			c0.4,0,0.7,0.2,0.7,0.4c0,0.3-0.4,0.6-1,0.6c-0.6,0.1-1-0.1-1.1-0.4c0-0.3,0.3-0.5,0.8-0.6l-0.2-2.2L31,10.5l0.2,2.2
			c0.4,0,0.7,0.2,0.7,0.4c0,0.3-0.4,0.6-1,0.6c-0.6,0.1-1-0.1-1.1-0.4c0-0.3,0.3-0.5,0.8-0.6l-0.2-2.2l-2.5,0.2l0.2,2.2
			c0.4,0,0.7,0.2,0.7,0.4c0,0.3-0.4,0.6-1,0.6c-0.6,0.1-1-0.1-1.1-0.4c0-0.3,0.3-0.5,0.8-0.6l-0.2-2.2L24.8,11l0.2,2.3
			c0.4,0,0.7,0.2,0.7,0.4c0,0.3-0.4,0.6-1,0.6c-0.6,0.1-1-0.1-1.1-0.4c0-0.3,0.3-0.5,0.8-0.6L24.3,11l-2.5,0.2l0.2,2.3
			c0.4,0,0.7,0.2,0.7,0.4c0,0.3-0.4,0.6-1,0.6c-0.6,0.1-1-0.1-1.1-0.4c0-0.3,0.3-0.5,0.8-0.6l-0.2-2.3l-2.5,0.2l0.2,2.3
			c0.4,0,0.7,0.2,0.7,0.4c0,0.3-0.4,0.6-1,0.6c-0.6,0.1-1-0.1-1.1-0.4c0-0.3,0.3-0.5,0.8-0.6l-0.2-2.3l-2.5,0.2l0.2,2.3
			c0.4,0,0.7,0.2,0.7,0.4c0,0.3-0.4,0.6-1,0.6c-0.6,0.1-1-0.1-1.1-0.4c0-0.3,0.3-0.5,0.8-0.6L15,11.8L12.4,12l0.2,2.3
			c0.4,0,0.7,0.2,0.7,0.4c0,0.3-0.4,0.6-1,0.6c-0.6,0.1-1-0.1-1.1-0.4c0-0.3,0.3-0.5,0.8-0.6l-0.2-2.3L8,12.4l5.1,60.7L59,69.3
			L53.9,8.6L49.6,8.9z"/>
		<path class="st6" d="M49.4,31.4c-14.7,9.1-20.7,10.8-22.3,9.1C24.9,38,32.6,29,29.6,25.8c-1.6-1.8-6.3-1.4-8.3,1
			c-3,3.6,2.9,8.9,2.4,19.3c-0.4,8.8-4.9,12.2-2.8,14.7c3.1,3.9,17.9,0.9,20.5-6.3c2.9-8.2-10.9-18.1-8.7-20.8
			c2.3-2.8,19.3,4.2,18.7,9.7c-0.4,4.2-10.8,6.9-18.1,7c-5.9,0.1-10.6-1.4-13.5-2.7"/>
	</g>
</g>
</svg>
