<?xml version="1.0" encoding="utf-8"?>
<!-- Generator: Adobe Illustrator 25.2.3, SVG Export Plug-In . SVG Version: 6.00 Build 0)  -->
<svg version="1.1" xmlns="http://www.w3.org/2000/svg" xmlns:xlink="http://www.w3.org/1999/xlink" x="0px" y="0px"
	 viewBox="0 0 36.8 36.8" style="enable-background:new 0 0 36.8 36.8;" xml:space="preserve">
<style type="text/css">
	.st0{fill:#1F1FFF;}
	.st1{fill:#F0F0F0;}
	.st2{fill:#ABBEBD;stroke:#000000;stroke-width:0.5;stroke-miterlimit:10;}
	.st3{fill:#FFFFFF;stroke:#000000;stroke-width:0.5;stroke-miterlimit:10;}
	.st4{fill:none;stroke:#000000;stroke-width:0.5;stroke-miterlimit:10;}
	.st5{fill:#F14564;}
	.st6{fill:#AFDCDC;stroke:#000000;stroke-width:0.5;stroke-miterlimit:10;}
	.st7{fill:#75C9DF;}
	.st8{opacity:0.23;fill:#585957;}
	.st9{fill:#008072;}
	.st10{fill:#AFDCDC;}
	.st11{fill:#F9EEDB;}
	.st12{opacity:0.44;}
	.st13{fill:none;stroke:#FF0000;stroke-miterlimit:10;}
	.st14{fill:#002CA4;}
	.st15{fill:#0050E3;}
	.st16{fill:#FFA8A7;}
	.st17{fill:#FFCFD0;}
	.st18{fill:#0050E3;stroke:#1B1464;stroke-miterlimit:10;}
	.st19{fill:#00BAA5;}
	.st20{fill:#C7EAD7;}
	.st21{fill:#FF3627;}
	.st22{fill:#D80000;}
	.st23{fill:#1B9787;}
	.st24{fill:#FEFD87;}
	.st25{fill:#002D82;}
	.st26{fill:#00106A;}
	.st27{fill:#E492B8;}
	.st28{fill:#22B573;stroke:#000000;stroke-width:0.5;stroke-miterlimit:10;}
	.st29{fill:#FFD900;}
	.st30{fill:#DAB312;stroke:#000000;stroke-width:0.5;stroke-miterlimit:10;}
	.st31{fill:#FFBECA;}
	.st32{fill:#FFA5AE;}
	.st33{fill:#FFFFFF;}
	.st34{fill:#8FBC9C;}
	.st35{fill:none;stroke:#000000;stroke-width:0.25;stroke-miterlimit:10;}
	.st36{opacity:0.32;fill:#585957;}
	.st37{fill:none;stroke:#000000;stroke-width:2;stroke-miterlimit:10;}
	.st38{fill:#FFE7A0;stroke:#000000;stroke-width:0.5;stroke-miterlimit:10;}
	.st39{fill:#FFE7A0;}
	.st40{fill:#FF1D25;}
	.st41{opacity:0.67;fill:#FF0000;stroke:#1F1FFF;stroke-miterlimit:10;}
	.st42{fill:#DBDAD2;stroke:#000000;stroke-width:0.75;stroke-miterlimit:10;}
	.st43{fill:#ABBEBD;stroke:#000000;stroke-width:0.75;stroke-miterlimit:10;}
	.st44{opacity:0.12;}
	.st45{fill:#008072;stroke:#000000;stroke-width:0.75;stroke-miterlimit:10;}
	.st46{fill:#FFE7A0;stroke:#000000;stroke-width:0.75;stroke-miterlimit:10;}
	.st47{fill:#FFA5AE;stroke:#000000;stroke-width:0.75;stroke-miterlimit:10;}
	.st48{fill:none;stroke:#000000;stroke-width:3;stroke-miterlimit:10;}
	.st49{fill:#FFA5AE;stroke:#000000;stroke-width:0.1;stroke-miterlimit:10;}
	.st50{fill:#FF0000;}
	.st51{fill:#ABBEBD;stroke:#000000;stroke-width:0.25;stroke-miterlimit:10;}
	.st52{opacity:0.6;fill:#FFFFFF;}
	.st53{fill:#FF4A3D;}
	.st54{fill:none;stroke:#000000;stroke-width:0.75;stroke-miterlimit:10;}
	.st55{fill:#FEF7EF;stroke:#000000;stroke-width:0.75;stroke-miterlimit:10;}
	.st56{fill:none;stroke:#000000;stroke-width:0.75;stroke-linecap:round;stroke-miterlimit:10;}
</style>
<g id="Ebene_2">
</g>
<g id="Ebene_1">
	<path class="st1" d="M0,0v36.8h36.8V0H0z M36.3,35.4c0,0.5-0.4,0.9-0.9,0.9h-34c-0.5,0-0.9-0.4-0.9-0.9v-34c0-0.5,0.4-0.9,0.9-0.9
		h31l3.9,3.7V35.4z"/>
	<path class="st54" d="M35.4,36.3h-34c-0.5,0-0.9-0.4-0.9-0.9v-34c0-0.5,0.4-0.9,0.9-0.9h31l3.9,3.7v31.2
		C36.3,35.9,35.9,36.3,35.4,36.3z"/>
	<path class="st55" d="M28.2,13.4H8.6c-0.4,0-0.7-0.3-0.7-0.7V1.3c0-0.4,0.3-0.7,0.7-0.7h19.6c0.4,0,0.7,0.3,0.7,0.7v11.4
		C28.9,13,28.6,13.4,28.2,13.4z"/>
	<path class="st55" d="M30.2,35.9H6.6c-0.7,0-1.2-0.5-1.2-1.2V21.2c0-0.7,0.5-1.2,1.2-1.2h23.6c0.7,0,1.2,0.5,1.2,1.2v13.5
		C31.5,35.3,30.9,35.9,30.2,35.9z"/>
	<path class="st54" d="M24.4,11.3L24.4,11.3c-1.1,0-2.1-0.9-2.1-2.1v-3c0-1.1,0.9-2.1,2.1-2.1h0c1.1,0,2.1,0.9,2.1,2.1v3
		C26.4,10.4,25.5,11.3,24.4,11.3z"/>
</g>
</svg>
