<?xml version="1.0" encoding="utf-8"?>
<!-- Generator: Adobe Illustrator 25.2.3, SVG Export Plug-In . SVG Version: 6.00 Build 0)  -->
<svg version="1.1" xmlns="http://www.w3.org/2000/svg" xmlns:xlink="http://www.w3.org/1999/xlink" x="0px" y="0px"
	 viewBox="0 0 36.8 36.8" style="enable-background:new 0 0 36.8 36.8;" xml:space="preserve">
<style type="text/css">
	.st0{fill:#1F1FFF;}
	.st1{fill:#F0F0F0;}
	.st2{fill:#ABBEBD;stroke:#000000;stroke-width:0.5;stroke-miterlimit:10;}
	.st3{fill:#FFFFFF;stroke:#000000;stroke-width:0.5;stroke-miterlimit:10;}
	.st4{fill:none;stroke:#000000;stroke-width:0.5;stroke-miterlimit:10;}
	.st5{fill:#F14564;}
	.st6{fill:#AFDCDC;stroke:#000000;stroke-width:0.5;stroke-miterlimit:10;}
	.st7{fill:#75C9DF;}
	.st8{opacity:0.23;fill:#585957;}
	.st9{fill:#008072;}
	.st10{fill:#AFDCDC;}
	.st11{fill:#F9EEDB;}
	.st12{opacity:0.44;}
	.st13{fill:none;stroke:#FF0000;stroke-miterlimit:10;}
	.st14{fill:#002CA4;}
	.st15{fill:#0050E3;}
	.st16{fill:#FFA8A7;}
	.st17{fill:#FFCFD0;}
	.st18{fill:#0050E3;stroke:#1B1464;stroke-miterlimit:10;}
	.st19{fill:#00BAA5;}
	.st20{fill:#C7EAD7;}
	.st21{fill:#FF3627;}
	.st22{fill:#D80000;}
	.st23{fill:#1B9787;}
	.st24{fill:#FEFD87;}
	.st25{fill:#002D82;}
	.st26{fill:#00106A;}
	.st27{fill:#E492B8;}
	.st28{fill:#22B573;stroke:#000000;stroke-width:0.5;stroke-miterlimit:10;}
	.st29{fill:#FFD900;}
	.st30{fill:#DAB312;stroke:#000000;stroke-width:0.5;stroke-miterlimit:10;}
	.st31{fill:#FFBECA;}
	.st32{fill:#FFA5AE;}
	.st33{fill:#FFFFFF;}
	.st34{fill:#8FBC9C;}
	.st35{fill:none;stroke:#000000;stroke-width:0.25;stroke-miterlimit:10;}
	.st36{opacity:0.32;fill:#585957;}
	.st37{fill:none;stroke:#000000;stroke-width:2;stroke-miterlimit:10;}
	.st38{fill:#FFE7A0;stroke:#000000;stroke-width:0.5;stroke-miterlimit:10;}
	.st39{fill:#FFE7A0;}
	.st40{fill:#FF1D25;}
	.st41{opacity:0.67;fill:#FF0000;stroke:#1F1FFF;stroke-miterlimit:10;}
	.st42{fill:#DBDAD2;stroke:#000000;stroke-width:0.75;stroke-miterlimit:10;}
	.st43{fill:#ABBEBD;stroke:#000000;stroke-width:0.75;stroke-miterlimit:10;}
	.st44{opacity:0.12;}
	.st45{fill:#008072;stroke:#000000;stroke-width:0.75;stroke-miterlimit:10;}
	.st46{fill:#FFE7A0;stroke:#000000;stroke-width:0.75;stroke-miterlimit:10;}
	.st47{fill:#FFA5AE;stroke:#000000;stroke-width:0.75;stroke-miterlimit:10;}
	.st48{fill:none;stroke:#000000;stroke-width:3;stroke-miterlimit:10;}
	.st49{fill:#FFA5AE;stroke:#000000;stroke-width:0.1;stroke-miterlimit:10;}
	.st50{fill:#FF0000;}
	.st51{fill:#ABBEBD;stroke:#000000;stroke-width:0.25;stroke-miterlimit:10;}
	.st52{opacity:0.6;fill:#FFFFFF;}
	.st53{fill:#FF4A3D;}
	.st54{fill:none;stroke:#000000;stroke-width:0.75;stroke-miterlimit:10;}
	.st55{fill:#FEF7EF;stroke:#000000;stroke-width:0.75;stroke-miterlimit:10;}
	.st56{fill:none;stroke:#000000;stroke-width:0.75;stroke-linecap:round;stroke-miterlimit:10;}
	.st57{fill:#FFFFFF;stroke:#000000;stroke-width:0.75;stroke-miterlimit:10;}
</style>
<g id="Ebene_2">
</g>
<g id="Ebene_1">
	<g>
		<path d="M35.6,6.9c0.3,0,0.5,0.2,0.5,0.5v28.1c0,0.3-0.2,0.5-0.5,0.5H1.3c-0.3,0-0.5-0.2-0.5-0.5V7.5c0-0.3,0.2-0.5,0.5-0.5H35.6
			 M35.6,6.2H1.3C0.6,6.2,0,6.7,0,7.5v28.1c0,0.7,0.6,1.3,1.3,1.3h34.3c0.7,0,1.3-0.6,1.3-1.3V7.5C36.8,6.7,36.3,6.2,35.6,6.2
			L35.6,6.2z"/>
	</g>
	<g>
		<path d="M25.4,0.7c0.2,0,0.3,0.1,0.3,0.3v4.9c0,0.2-0.1,0.3-0.3,0.3h-14c-0.2,0-0.3-0.1-0.3-0.3V1c0-0.2,0.1-0.3,0.3-0.3H25.4
			 M25.4,0h-14c-0.6,0-1,0.5-1,1v4.9c0,0.6,0.5,1,1,1h14c0.6,0,1-0.5,1-1V1C26.5,0.5,26,0,25.4,0L25.4,0z"/>
	</g>
	<g>
		<path class="st33" d="M15,6.6c-0.3,0-0.5-0.2-0.5-0.5V3.6c0-0.3,0.2-0.5,0.5-0.5h6.9c0.3,0,0.5,0.2,0.5,0.5v2.5
			c0,0.3-0.2,0.5-0.5,0.5H15z"/>
		<path d="M21.9,3.5C21.9,3.5,22,3.5,21.9,3.5L22,6.1c0,0.1,0,0.1-0.1,0.1H15c-0.1,0-0.1,0-0.1-0.1V3.6c0-0.1,0-0.1,0.1-0.1H21.9
			 M21.9,2.7H15c-0.5,0-0.8,0.4-0.8,0.8v2.5c0,0.5,0.4,0.8,0.8,0.8h6.9c0.5,0,0.8-0.4,0.8-0.8V3.6C22.7,3.1,22.3,2.7,21.9,2.7
			L21.9,2.7z"/>
	</g>
	<g>
		<path d="M7.1,3.4v2.7H2.4V3.4H7.1 M7.5,2.7H2.1c-0.2,0-0.4,0.2-0.4,0.4v3.4c0,0.2,0.2,0.4,0.4,0.4h5.4c0.2,0,0.4-0.2,0.4-0.4V3.1
			C7.9,2.9,7.7,2.7,7.5,2.7L7.5,2.7z"/>
	</g>
	<g>
		<path class="st1" d="M1.3,6.2h0.4V3.1c0-0.2,0.2-0.4,0.4-0.4h5.4c0.2,0,0.4,0.2,0.4,0.4v3.1h2.5c0-0.1-0.1-0.2-0.1-0.3V1
			c0-0.5,0.4-0.9,0.9-1H0v7.4C0,6.7,0.6,6.2,1.3,6.2z"/>
		<path class="st1" d="M25.6,0c0.5,0.1,0.9,0.5,0.9,1v4.9c0,0.1,0,0.2-0.1,0.3h9.2c0.7,0,1.3,0.6,1.3,1.3V0H25.6z"/>
		<path class="st1" d="M35.6,36.8H1.3c-0.7,0-1.3-0.6-1.3-1.3v1.3h36.8v-1.3C36.8,36.3,36.3,36.8,35.6,36.8z"/>
	</g>
	<circle class="st54" cx="18.4" cy="22.6" r="10.6"/>
	<circle class="st57" cx="18.4" cy="22.6" r="7.9"/>
</g>
</svg>
