<?xml version="1.0" encoding="utf-8"?>
<!-- Generator: Adobe Illustrator 25.2.3, SVG Export Plug-In . SVG Version: 6.00 Build 0)  -->
<svg version="1.1" xmlns="http://www.w3.org/2000/svg" xmlns:xlink="http://www.w3.org/1999/xlink" x="0px" y="0px"
	 viewBox="0 0 56.5 50.8" style="enable-background:new 0 0 56.5 50.8;" xml:space="preserve">
<style type="text/css">
	.st0{fill:#1F1FFF;}
	.st1{fill:none;stroke:#000000;stroke-width:2;stroke-miterlimit:10;}
	.st2{fill:#F9EEDB;}
	.st3{opacity:0.44;}
	.st4{fill:none;stroke:#FF0000;stroke-miterlimit:10;}
	.st5{fill:#002CA4;}
	.st6{fill:#EEF2F3;}
	.st7{fill:none;stroke:#FFFFFF;stroke-miterlimit:10;}
	.st8{fill:#221F20;}
	.st9{fill:#E492B8;}
	.st10{fill:#F6E778;}
	.st11{fill:#94C9AD;}
	.st12{fill:#AEC4E3;}
	.st13{fill:#FFFFFF;stroke:#94C9AD;stroke-miterlimit:10;}
	.st14{fill:#94C9AD;stroke:#FFFFFF;stroke-miterlimit:10;}
	.st15{fill:#C6C5E0;}
	.st16{fill:#333333;}
	.st17{fill:none;stroke:#8AFF03;stroke-width:0.25;stroke-miterlimit:10;}
	.st18{fill:none;stroke:#8AFF03;stroke-miterlimit:10;}
	.st19{opacity:0.54;fill:#8AFF03;}
	.st20{opacity:0.7;}
	.st21{opacity:0.47;fill:#8AFF03;}
	.st22{opacity:0.24;fill:#8AFF03;}
	.st23{opacity:0.47;}
	.st24{fill:#8AFF03;}
	.st25{fill:#333333;stroke:#00FFFF;stroke-miterlimit:10;}
	.st26{fill:none;stroke:#00FFFF;stroke-miterlimit:10;}
	.st27{fill:#00FFFF;stroke:#00FFFF;stroke-miterlimit:10;}
	.st28{fill:#FFFFFF;}
	.st29{fill:#1168D9;}
	.st30{opacity:0.42;fill:#00FFFF;}
	.st31{fill:#1BCCC7;}
	.st32{fill:#D8E0F2;}
	.st33{fill:#020F59;}
	.st34{fill:#7787A6;}
	.st35{fill:#1168D9;stroke:#00FFFF;stroke-miterlimit:10;}
	.st36{fill:#0050E3;}
	.st37{fill:#FFA8A7;}
	.st38{fill:#FFCFD0;}
	.st39{fill:#0050E3;stroke:#1B1464;stroke-miterlimit:10;}
	.st40{fill:#00BAA5;}
	.st41{fill:#C7EAD7;}
	.st42{opacity:0.42;}
	.st43{fill:#00FFFF;}
	.st44{opacity:0.54;fill:#00FFFF;}
	.st45{opacity:0.54;fill:none;stroke:#00FFFF;stroke-miterlimit:10;}
	.st46{fill:#FF3627;}
	.st47{fill:#D80000;}
	.st48{fill:#1B9787;}
	.st49{fill:#FEFD87;}
	.st50{fill:#002D82;}
	.st51{fill:#00106A;}
	.st52{fill:#22B573;stroke:#000000;stroke-width:0.5;stroke-miterlimit:10;}
	.st53{fill:#FFFFFF;stroke:#000000;stroke-width:0.5;stroke-miterlimit:10;}
	.st54{fill:#FFD900;}
	.st55{fill:#DAB312;stroke:#000000;stroke-width:0.5;stroke-miterlimit:10;}
	.st56{fill:none;stroke:#000000;stroke-width:0.5;stroke-miterlimit:10;}
	.st57{fill:#ABBEBD;stroke:#000000;stroke-width:0.5;stroke-miterlimit:10;}
	.st58{fill:#AFDCDC;stroke:#000000;stroke-width:0.5;stroke-miterlimit:10;}
	.st59{fill:#FFBECA;}
	.st60{fill:#FFA5AE;}
	.st61{fill:#FFE7A0;stroke:#000000;stroke-width:0.5;stroke-miterlimit:10;}
	.st62{fill:#FFE7A0;}
	.st63{fill:#FF1D25;}
	.st64{opacity:0.67;fill:#FF0000;stroke:#1F1FFF;stroke-miterlimit:10;}
	.st65{fill:#DBDAD2;stroke:#000000;stroke-width:0.75;stroke-miterlimit:10;}
	.st66{fill:#ABBEBD;stroke:#000000;stroke-width:0.75;stroke-miterlimit:10;}
	.st67{opacity:0.12;}
	.st68{fill:#008072;stroke:#000000;stroke-width:0.75;stroke-miterlimit:10;}
	.st69{fill:#FFE7A0;stroke:#000000;stroke-width:0.75;stroke-miterlimit:10;}
	.st70{fill:#FFA5AE;stroke:#000000;stroke-width:0.75;stroke-miterlimit:10;}
	.st71{stroke:#000000;stroke-width:2;stroke-miterlimit:10;}
	.st72{fill:none;stroke:#000000;stroke-width:3;stroke-miterlimit:10;}
	.st73{fill:none;stroke:#FF0000;stroke-width:1.000000e-02;stroke-miterlimit:10;}
	.st74{fill:none;stroke:#000000;stroke-width:4;stroke-miterlimit:10;}
	.st75{fill:none;stroke:#000000;stroke-width:5;stroke-miterlimit:10;}
	.st76{fill:#FF0000;}
	.st77{fill:#C1272D;}
	.st78{fill:#75C9DF;}
</style>
<g id="Ebene_2">
</g>
<g id="Ebene_1">
	<g>
		<g>
			<path class="st67" d="M36.4,49.4l-24-10.6c-0.7-0.3-1.1-1.2-0.7-1.9L27.2,1.8c0.3-0.7,1.2-1.1,1.9-0.7l24,10.6
				c0.7,0.3,1.1,1.2,0.7,1.9L38.3,48.7C38,49.4,37.2,49.8,36.4,49.4z"/>
			<path class="st58" d="M38.7,49.1l-24-10.6c-0.7-0.3-1.1-1.2-0.7-1.9L29.5,1.4c0.3-0.7,1.2-1.1,1.9-0.7l24,10.6
				c0.7,0.3,1.1,1.2,0.7,1.9L40.6,48.3C40.2,49,39.4,49.4,38.7,49.1z"/>
			<g>
				<path class="st68" d="M29.9,26.6c1.4-3.2,2.8-4.2,6.1-4.9c2-0.5,3.8-0.7,4.8-3c0.8-1.8,0-3.3-1.5-4c-1.2-0.5-3.1-0.9-5.4-1
					l0.9-4.3c2.3,0.2,4.5,0.5,6.6,1.4c5.1,2.3,6,5.8,4.3,9.5c-1.7,3.9-4.5,4.7-7.8,5.5c-1.9,0.4-2.9,0.6-3.7,2.3l-2.1,4.7l-3.9-1.7
					C28.6,30.3,29.5,27.7,29.9,26.6z M24.8,36.2c0.7-1.5,2.4-2.3,4.1-1.5c1.9,0.8,2.4,2.5,1.7,4.1c-0.7,1.5-2.3,2.4-4.1,1.6
					C24.6,39.5,24.1,37.8,24.8,36.2z"/>
			</g>
		</g>
		<path class="st67" d="M32.4,47.4l-26,3.3c-0.8,0.1-1.5-0.5-1.6-1.2L0,11.2c-0.1-0.8,0.5-1.5,1.2-1.6l26-3.3
			c0.8-0.1,1.5,0.5,1.6,1.2l4.8,38.2C33.8,46.5,33.2,47.3,32.4,47.4z"/>
		<path class="st58" d="M34.1,45.9l-26,3.3c-0.8,0.1-1.5-0.5-1.6-1.2L1.7,9.7C1.6,8.9,2.2,8.2,3,8.1l26-3.3c0.8-0.1,1.5,0.5,1.6,1.2
			l4.8,38.2C35.5,45,34.9,45.8,34.1,45.9z"/>
		<g>
			<path class="st69" d="M15.1,31.1c-0.4-3.5,0.2-5,2.7-7.3c1.5-1.5,2.9-2.6,2.6-5c-0.2-2-1.7-2.8-3.4-2.6c-1.3,0.2-3.1,0.8-5.1,1.9
				l-1.4-4.1c2.1-1.1,4.1-1.9,6.4-2.2c5.6-0.7,8.1,1.9,8.6,5.9c0.5,4.2-1.4,6.4-3.9,8.7c-1.5,1.3-2.2,2-2,3.8l0.6,5L16,35.9
				C15.8,35,15.3,32.3,15.1,31.1z M15.6,42c-0.2-1.7,0.9-3.2,2.7-3.4c2-0.3,3.4,0.9,3.6,2.6c0.2,1.7-0.8,3.3-2.7,3.5
				C17.2,44.9,15.9,43.7,15.6,42z"/>
		</g>
		<path class="st67" d="M41.4,51.6l-26.1-2.5c-0.8-0.1-1.4-0.8-1.3-1.6l3.7-38.3c0.1-0.8,0.8-1.4,1.6-1.3l26.1,2.5
			c0.8,0.1,1.4,0.8,1.3,1.6L43,50.3C42.9,51.1,42.2,51.7,41.4,51.6z"/>
		<path class="st58" d="M43.2,50.1l-26.1-2.5c-0.8-0.1-1.4-0.8-1.3-1.6l3.7-38.3c0.1-0.8,0.8-1.4,1.6-1.3L47.2,9
			c0.8,0.1,1.4,0.8,1.3,1.6l-3.7,38.3C44.7,49.6,44,50.2,43.2,50.1z"/>
		<g>
			<path class="st70" d="M27.9,31.5c0.3-3.5,1.3-4.8,4.2-6.6c1.8-1.1,3.4-1.9,3.7-4.3c0.2-2-1-3.1-2.7-3.3c-1.3-0.1-3.2,0.1-5.4,0.7
				l-0.5-4.3c2.2-0.6,4.4-0.9,6.7-0.7c5.6,0.5,7.5,3.7,7.1,7.7c-0.4,4.2-2.8,5.9-5.7,7.7c-1.7,1-2.6,1.5-2.8,3.3L32,36.8l-4.2-0.4
				C27.7,35.5,27.8,32.7,27.9,31.5z M26,42.3c0.2-1.7,1.6-2.9,3.4-2.7c2,0.2,3.1,1.6,2.9,3.3c-0.2,1.7-1.5,3-3.4,2.8
				C26.8,45.5,25.8,44,26,42.3z"/>
		</g>
	</g>
</g>
</svg>
