<?xml version="1.0" encoding="utf-8"?>
<!-- Generator: Adobe Illustrator 25.2.3, SVG Export Plug-In . SVG Version: 6.00 Build 0)  -->
<svg version="1.1" xmlns="http://www.w3.org/2000/svg" xmlns:xlink="http://www.w3.org/1999/xlink" x="0px" y="0px"
	 viewBox="0 0 68.6 80.3" style="enable-background:new 0 0 68.6 80.3;" xml:space="preserve">
<style type="text/css">
	.st0{fill:#1F1FFF;}
	.st1{fill:#585957;stroke:#000000;stroke-width:0.5;stroke-miterlimit:10;}
	.st2{fill:#FF9A93;stroke:#000000;stroke-width:0.5;stroke-miterlimit:10;}
	.st3{fill:#F0F0F0;}
	.st4{fill:#ABBEBD;stroke:#000000;stroke-width:0.5;stroke-miterlimit:10;}
	.st5{fill:#FFFFFF;stroke:#000000;stroke-width:0.5;stroke-miterlimit:10;}
	.st6{fill:none;stroke:#000000;stroke-width:0.5;stroke-miterlimit:10;}
	.st7{fill:#F14564;}
	.st8{fill:#AFDCDC;stroke:#000000;stroke-width:0.5;stroke-miterlimit:10;}
	.st9{fill:#75C9DF;}
	.st10{opacity:0.23;fill:#585957;}
	.st11{fill:#8DCBC3;}
	.st12{fill:#AFDCDC;}
	.st13{fill:#F9EEDB;}
	.st14{opacity:0.44;}
	.st15{fill:none;stroke:#FF0000;stroke-miterlimit:10;}
	.st16{fill:#002CA4;}
	.st17{fill:#0050E3;}
	.st18{fill:#FFA8A7;}
	.st19{fill:#FFCFD0;}
	.st20{fill:#0050E3;stroke:#1B1464;stroke-miterlimit:10;}
	.st21{fill:#00BAA5;}
	.st22{fill:#C7EAD7;}
	.st23{fill:#FF3627;}
	.st24{fill:#D80000;}
	.st25{fill:#1B9787;}
	.st26{fill:#FEFD87;}
	.st27{fill:#002D82;}
	.st28{fill:#00106A;}
	.st29{fill:#E492B8;}
	.st30{fill:#22B573;stroke:#000000;stroke-width:0.5;stroke-miterlimit:10;}
	.st31{fill:#FFD900;}
	.st32{fill:#DAB312;stroke:#000000;stroke-width:0.5;stroke-miterlimit:10;}
	.st33{fill:#FF9A93;}
	.st34{fill:#FEFEC3;}
	.st35{fill:#FFBECA;}
	.st36{fill:#FFA5AE;}
	.st37{fill:#FFFFFF;}
	.st38{fill:#8FBC9C;}
	.st39{fill:none;stroke:#000000;stroke-width:0.25;stroke-miterlimit:10;}
	.st40{opacity:0.32;fill:#585957;}
	.st41{fill:none;stroke:#000000;stroke-width:2;stroke-miterlimit:10;}
	.st42{fill:#FEFEC3;stroke:#000000;stroke-width:0.5;stroke-miterlimit:10;}
	.st43{opacity:0.84;}
	.st44{fill:#FF1D25;}
	.st45{opacity:0.53;fill:#FF0000;stroke:#1F1FFF;stroke-miterlimit:10;}
	.st46{fill:#FCF6ED;stroke:#000000;stroke-miterlimit:10;}
	.st47{fill:#7F7F7F;stroke:#000000;stroke-miterlimit:10;}
	.st48{opacity:0.12;}
	.st49{fill:#008072;stroke:#000000;stroke-width:0.75;stroke-miterlimit:10;}
	.st50{fill:#FFE7A0;stroke:#000000;stroke-width:0.75;stroke-miterlimit:10;}
	.st51{fill:#FFA5AE;stroke:#000000;stroke-width:0.75;stroke-miterlimit:10;}
	.st52{fill:none;stroke:#000000;stroke-width:3;stroke-miterlimit:10;}
	.st53{fill:#FFA5AE;stroke:#000000;stroke-width:0.1;stroke-miterlimit:10;}
	.st54{fill:#FF0000;}
	.st55{fill:#ABBEBD;stroke:#000000;stroke-width:0.25;stroke-miterlimit:10;}
	.st56{opacity:0.6;fill:#FFFFFF;}
	.st57{fill:#FF4A3D;}
	.st58{fill:none;stroke:#000000;stroke-width:0.75;stroke-miterlimit:10;}
	.st59{fill:#FEF7EF;stroke:#000000;stroke-width:0.75;stroke-miterlimit:10;}
	.st60{fill:none;stroke:#000000;stroke-width:0.75;stroke-linecap:round;stroke-miterlimit:10;}
	.st61{fill:#FFFFFF;stroke:#000000;stroke-width:0.75;stroke-miterlimit:10;}
	.st62{fill:#DBDAD2;stroke:#000000;stroke-width:0.5;stroke-miterlimit:10;}
	.st63{fill:#FF4A3D;stroke:#000000;stroke-width:0.5;stroke-linecap:round;stroke-miterlimit:10;}
	.st64{fill:none;stroke:#000000;stroke-width:0.5;stroke-linecap:round;stroke-miterlimit:10;}
</style>
<g id="Ebene_2">
</g>
<g id="Ebene_1">
	<g>
		<path class="st5" d="M41.7,0.8L42,2.9c0.4,0,0.7,0.2,0.7,0.4c0,0.3-0.4,0.6-0.9,0.7s-1-0.1-1.1-0.4c0-0.3,0.3-0.5,0.8-0.6
			l-0.3-2.1l-2.5,0.3l0.3,2.1c0.4,0,0.7,0.2,0.7,0.4c0,0.3-0.4,0.6-0.9,0.7c-0.6,0.1-1-0.1-1.1-0.4c0-0.3,0.3-0.5,0.8-0.6l-0.3-2.1
			l-2.5,0.3l0.3,2.2c0.4,0,0.7,0.2,0.7,0.4c0,0.3-0.4,0.6-0.9,0.7c-0.6,0.1-1-0.1-1.1-0.4c0-0.3,0.3-0.5,0.8-0.6L35,1.6l-2.5,0.3
			L32.8,4c0.4,0,0.7,0.2,0.7,0.4c0,0.3-0.4,0.6-0.9,0.7c-0.6,0.1-1-0.1-1.1-0.4c0-0.3,0.3-0.5,0.8-0.6l-0.3-2.2l-2.5,0.3l0.3,2.2
			c0.4,0,0.7,0.2,0.7,0.4c0,0.3-0.4,0.6-0.9,0.7c-0.6,0.1-1-0.1-1.1-0.4c0-0.3,0.3-0.5,0.8-0.6l-0.3-2.2l-2.5,0.3l0.3,2.2
			c0.4,0,0.7,0.2,0.7,0.4c0,0.3-0.4,0.6-0.9,0.7c-0.6,0.1-1-0.1-1.1-0.4c0-0.3,0.3-0.5,0.8-0.6l-0.3-2.2l-2.5,0.3l0.3,2.2
			c0.4,0,0.7,0.2,0.7,0.4c0,0.3-0.4,0.6-0.9,0.7c-0.6,0.1-1-0.1-1.1-0.4c0-0.3,0.3-0.5,0.8-0.6L22.6,3l-2.5,0.3l0.3,2.2
			c0.4,0,0.7,0.2,0.7,0.4c0,0.3-0.4,0.6-0.9,0.7c-0.6,0.1-1-0.1-1.1-0.4c0-0.3,0.3-0.5,0.8-0.6l-0.3-2.2L17,3.6l0.3,2.2
			c0.4,0,0.7,0.2,0.7,0.4c0,0.3-0.4,0.6-0.9,0.7c-0.6,0.1-1-0.1-1.1-0.4c0-0.3,0.3-0.5,0.8-0.6l-0.3-2.2L13.9,4l0.3,2.3
			c0.4,0,0.7,0.2,0.7,0.4C15,7,14.6,7.3,14,7.3c-0.6,0.1-1-0.1-1.1-0.4c0-0.3,0.3-0.5,0.8-0.6l-0.3-2.3l-2.5,0.3l0.3,2.3
			c0.4,0,0.7,0.2,0.7,0.4c0,0.3-0.4,0.6-0.9,0.7c-0.6,0.1-1-0.1-1.1-0.4c0-0.3,0.3-0.5,0.8-0.6l-0.3-2.3L7.8,4.7L8.1,7
			c0.4,0,0.7,0.2,0.7,0.4c0,0.3-0.4,0.6-0.9,0.7C7.3,8.2,6.8,8,6.8,7.7c0-0.3,0.3-0.5,0.8-0.6L7.2,4.8L4.7,5.1L5,7.4
			c0.4,0,0.7,0.2,0.7,0.4c0,0.3-0.4,0.6-0.9,0.7c-0.6,0.1-1-0.1-1.1-0.4c0-0.3,0.3-0.5,0.8-0.6L4.1,5.1L0.3,5.6l7,60.5l45.8-5.3
			l-7-60.5L41.7,0.8z"/>
		<path class="st5" d="M51.4,11.8L51.2,14c0.4,0.1,0.6,0.3,0.6,0.5c0,0.3-0.5,0.5-1.1,0.5c-0.6,0-1-0.3-1-0.6c0-0.3,0.4-0.4,0.9-0.5
			l0.1-2.1l-2.5-0.2l-0.1,2.2c0.4,0.1,0.6,0.3,0.6,0.5c0,0.3-0.5,0.5-1.1,0.5c-0.6,0-1-0.3-1-0.6c0-0.3,0.4-0.4,0.9-0.5l0.1-2.2
			l-2.5-0.2l-0.1,2.2c0.4,0.1,0.6,0.3,0.6,0.5c0,0.3-0.5,0.5-1.1,0.5c-0.6,0-1-0.3-1-0.6c0-0.3,0.4-0.4,0.9-0.5l0.1-2.2L42.1,11
			L42,13.2c0.4,0.1,0.6,0.3,0.6,0.5c0,0.3-0.5,0.5-1.1,0.5c-0.6,0-1-0.3-1-0.6c0-0.3,0.4-0.4,0.9-0.5l0.1-2.2L39,10.7l-0.1,2.2
			c0.4,0.1,0.6,0.3,0.6,0.5c0,0.3-0.5,0.5-1.1,0.5c-0.6,0-1-0.3-1-0.6c0-0.3,0.4-0.4,0.9-0.5l0.1-2.2l-2.5-0.2l-0.1,2.2
			c0.4,0.1,0.6,0.3,0.6,0.5c0,0.3-0.5,0.5-1.1,0.5c-0.6,0-1-0.3-1-0.6c0-0.3,0.4-0.4,0.9-0.5l0.1-2.2l-2.5-0.2l-0.1,2.2
			c0.4,0.1,0.6,0.3,0.6,0.5c0,0.3-0.5,0.5-1.1,0.5c-0.6,0-1-0.3-1-0.6c0-0.3,0.4-0.4,0.9-0.5l0.1-2.2l-2.5-0.2l-0.1,2.2
			c0.4,0.1,0.6,0.3,0.6,0.5c0,0.3-0.5,0.5-1.1,0.5c-0.6,0-1-0.3-1-0.6c0-0.3,0.4-0.4,0.9-0.5l0.1-2.2l-2.5-0.2l-0.2,2.3
			c0.4,0.1,0.6,0.3,0.6,0.5c0,0.3-0.5,0.5-1.1,0.5c-0.6,0-1-0.3-1-0.6c0-0.3,0.4-0.4,0.9-0.5l0.2-2.3l-2.5-0.2l-0.2,2.3
			c0.4,0.1,0.6,0.3,0.6,0.5c0,0.3-0.5,0.5-1.1,0.5c-0.6,0-1-0.3-1-0.6c0-0.3,0.4-0.4,0.9-0.5L23,9.3l-2.5-0.2l-0.2,2.3
			c0.4,0.1,0.6,0.3,0.6,0.5c0,0.3-0.5,0.5-1.1,0.5c-0.6,0-1-0.3-1-0.6c0-0.3,0.4-0.4,0.9-0.5L19.9,9l-2.5-0.2l-0.2,2.3
			c0.4,0.1,0.6,0.3,0.6,0.5c0,0.3-0.5,0.5-1.1,0.5c-0.6,0-1-0.3-1-0.6c0-0.3,0.4-0.4,0.9-0.5l0.2-2.3l-2.5-0.2l-0.2,2.3
			c0.4,0.1,0.6,0.3,0.6,0.5c0,0.3-0.5,0.5-1.1,0.5c-0.6,0-1-0.3-1-0.6c0-0.3,0.4-0.4,0.9-0.5l0.2-2.3L9.8,8.1L4.4,68.8l45.9,4.1
			l5.4-60.7L51.4,11.8z"/>
		<path class="st5" d="M64.2,21.5l-0.7,2c0.3,0.2,0.5,0.5,0.4,0.7c-0.1,0.3-0.6,0.4-1.1,0.2c-0.5-0.2-0.9-0.6-0.8-0.9
			c0.1-0.2,0.5-0.3,1-0.2l0.7-2l-2.4-0.9l-0.7,2c0.3,0.2,0.5,0.5,0.4,0.7c-0.1,0.3-0.6,0.4-1.1,0.2c-0.5-0.2-0.9-0.6-0.8-0.9
			c0.1-0.2,0.5-0.3,1-0.2l0.7-2l-2.4-0.9l-0.7,2c0.3,0.2,0.5,0.5,0.4,0.7c-0.1,0.3-0.6,0.4-1.1,0.2c-0.5-0.2-0.9-0.6-0.8-0.9
			c0.1-0.2,0.5-0.3,1-0.2l0.7-2l-2.4-0.9l-0.7,2.1c0.3,0.2,0.5,0.5,0.4,0.7c-0.1,0.3-0.6,0.4-1.1,0.2c-0.5-0.2-0.9-0.6-0.8-0.9
			c0.1-0.2,0.5-0.3,1-0.2L55,18L52.6,17l-0.7,2.1c0.3,0.2,0.5,0.5,0.4,0.7c-0.1,0.3-0.6,0.4-1.1,0.2c-0.5-0.2-0.9-0.6-0.8-0.9
			c0.1-0.2,0.5-0.3,1-0.2l0.7-2.1l-2.4-0.9L48.9,18c0.3,0.2,0.5,0.5,0.4,0.7c-0.1,0.3-0.6,0.4-1.1,0.2c-0.5-0.2-0.9-0.6-0.8-0.9
			c0.1-0.2,0.5-0.3,1-0.2l0.8-2.1l-2.4-0.9L46,16.9c0.3,0.2,0.5,0.5,0.4,0.7c-0.1,0.3-0.6,0.4-1.1,0.2c-0.5-0.2-0.9-0.6-0.8-0.9
			c0.1-0.2,0.5-0.3,1-0.2l0.8-2.1l-2.4-0.9l-0.8,2.1c0.3,0.2,0.5,0.5,0.4,0.7c-0.1,0.3-0.6,0.4-1.1,0.2c-0.5-0.2-0.9-0.6-0.8-0.9
			c0.1-0.2,0.5-0.3,1-0.2l0.8-2.1L41,12.6l-0.8,2.1c0.3,0.2,0.5,0.5,0.4,0.7c-0.1,0.3-0.6,0.4-1.1,0.2c-0.5-0.2-0.9-0.6-0.8-0.9
			c0.1-0.2,0.5-0.3,1-0.2l0.8-2.1l-2.4-0.9l-0.8,2.1c0.3,0.2,0.5,0.5,0.4,0.7c-0.1,0.3-0.6,0.4-1.1,0.2c-0.5-0.2-0.9-0.6-0.8-0.9
			c0.1-0.2,0.5-0.3,1-0.2l0.8-2.1l-2.4-0.9l-0.8,2.2c0.3,0.2,0.5,0.5,0.4,0.7c-0.1,0.3-0.6,0.4-1.1,0.2c-0.5-0.2-0.9-0.6-0.8-0.9
			c0.1-0.2,0.5-0.3,1-0.2l0.8-2.2l-2.4-0.9l-0.8,2.2c0.3,0.2,0.5,0.5,0.4,0.7c-0.1,0.3-0.6,0.4-1.1,0.2c-0.5-0.2-0.9-0.6-0.8-0.9
			c0.1-0.2,0.5-0.3,1-0.2L31.8,9l-2.4-0.9l-0.8,2.2c0.3,0.2,0.5,0.5,0.4,0.7c-0.1,0.3-0.6,0.4-1.1,0.2c-0.5-0.2-0.9-0.6-0.8-0.9
			c0.1-0.2,0.5-0.3,1-0.2l0.8-2.2l-3.6-1.4L3.3,63.4l43,16.6l21.9-56.9L64.2,21.5z"/>
		<path class="st6" d="M54.8,40.7c-17.2,2.5-23.3,1.7-24-0.5c-1.1-3.2,9.5-8.4,8.1-12.5c-0.8-2.3-5.2-3.8-8-2.4
			c-4.2,2.1-0.9,9.3-5.5,18.7c-3.8,8-9.3,9.2-8.5,12.4c1.3,4.9,16.1,8,21.4,2.4c6-6.3-2.8-20.9,0.3-22.6c3.2-1.7,16,11.5,13.3,16.3
			c-2,3.7-12.7,2-19.4-0.8c-5.4-2.2-9.1-5.5-11.3-7.8"/>
	</g>
</g>
</svg>
