<?xml version="1.0" encoding="utf-8"?>
<!-- Generator: Adobe Illustrator 25.2.3, SVG Export Plug-In . SVG Version: 6.00 Build 0)  -->
<svg version="1.1" xmlns="http://www.w3.org/2000/svg" xmlns:xlink="http://www.w3.org/1999/xlink" x="0px" y="0px"
	 viewBox="0 0 59.1 60.6" style="enable-background:new 0 0 59.1 60.6;" xml:space="preserve">
<style type="text/css">
	.st0{fill:#1F1FFF;}
	.st1{fill:#F9EEDB;}
	.st2{opacity:0.44;}
	.st3{fill:none;stroke:#FF0000;stroke-miterlimit:10;}
	.st4{fill:#002CA4;}
	.st5{fill:#EEF2F3;}
	.st6{fill:none;stroke:#FFFFFF;stroke-miterlimit:10;}
	.st7{fill:#221F20;}
	.st8{fill:#E492B8;}
	.st9{fill:#F6E778;}
	.st10{fill:#94C9AD;}
	.st11{fill:#AEC4E3;}
	.st12{fill:#FFFFFF;stroke:#94C9AD;stroke-miterlimit:10;}
	.st13{fill:#94C9AD;stroke:#FFFFFF;stroke-miterlimit:10;}
	.st14{fill:#C6C5E0;}
	.st15{fill:#333333;}
	.st16{fill:none;stroke:#8AFF03;stroke-width:0.25;stroke-miterlimit:10;}
	.st17{fill:none;stroke:#8AFF03;stroke-miterlimit:10;}
	.st18{opacity:0.54;fill:#8AFF03;}
	.st19{opacity:0.7;}
	.st20{opacity:0.47;fill:#8AFF03;}
	.st21{opacity:0.24;fill:#8AFF03;}
	.st22{opacity:0.47;}
	.st23{fill:#8AFF03;}
	.st24{fill:#333333;stroke:#00FFFF;stroke-miterlimit:10;}
	.st25{fill:none;stroke:#00FFFF;stroke-miterlimit:10;}
	.st26{fill:#00FFFF;stroke:#00FFFF;stroke-miterlimit:10;}
	.st27{fill:#FFFFFF;}
	.st28{fill:#1168D9;}
	.st29{opacity:0.42;fill:#00FFFF;}
	.st30{fill:#1BCCC7;}
	.st31{fill:#D8E0F2;}
	.st32{fill:#020F59;}
	.st33{fill:#7787A6;}
	.st34{fill:#1168D9;stroke:#00FFFF;stroke-miterlimit:10;}
	.st35{fill:#0050E3;}
	.st36{fill:#FFA8A7;}
	.st37{fill:#FFCFD0;}
	.st38{fill:#0050E3;stroke:#1B1464;stroke-miterlimit:10;}
	.st39{fill:#00BAA5;}
	.st40{fill:#C7EAD7;}
	.st41{opacity:0.42;}
	.st42{fill:#00FFFF;}
	.st43{opacity:0.54;fill:#00FFFF;}
	.st44{opacity:0.54;fill:none;stroke:#00FFFF;stroke-miterlimit:10;}
	.st45{fill:#FF3627;}
	.st46{fill:#D80000;}
	.st47{fill:#1B9787;}
	.st48{fill:#FEFD87;}
	.st49{fill:#002D82;}
	.st50{fill:#00106A;}
	.st51{fill:#22B573;stroke:#000000;stroke-width:0.5;stroke-miterlimit:10;}
	.st52{fill:#FFFFFF;stroke:#000000;stroke-width:0.5;stroke-miterlimit:10;}
	.st53{fill:#FFD900;}
	.st54{fill:#DAB312;stroke:#000000;stroke-width:0.5;stroke-miterlimit:10;}
	.st55{fill:none;stroke:#000000;stroke-width:0.5;stroke-miterlimit:10;}
	.st56{fill:#ABBEBD;stroke:#000000;stroke-width:0.5;stroke-miterlimit:10;}
	.st57{fill:#AFDCDC;stroke:#000000;stroke-width:0.5;stroke-miterlimit:10;}
	.st58{fill:#FFBECA;}
	.st59{fill:#FFA5AE;}
	.st60{fill:#FFE7A0;stroke:#000000;stroke-width:0.5;stroke-miterlimit:10;}
	.st61{fill:#FFE7A0;}
	.st62{fill:#FF1D25;}
	.st63{opacity:0.67;fill:#FF0000;stroke:#1F1FFF;stroke-miterlimit:10;}
	.st64{fill:none;stroke:#000000;stroke-width:2;stroke-miterlimit:10;}
	.st65{fill:#DBDAD2;stroke:#000000;stroke-width:0.75;stroke-miterlimit:10;}
	.st66{fill:#ABBEBD;stroke:#000000;stroke-width:0.75;stroke-miterlimit:10;}
</style>
<g id="Ebene_2">
</g>
<g id="Ebene_1">
	<g id="PU3Mxl.tif">
		<g>
			<path class="st64" d="M59.1,21.3c-0.3,0.4-0.7,1-1.1,1.3c-1.7,1.4-3.4,2.6-5.1,4c-0.5,0.4-0.7,1.2-0.8,1.9
				c-0.1,0.8,0.2,1.8,0,2.6c-0.4,1.7,0.2,2.7,1.6,3.6c1.5,1,2.8,2.2,4.2,3.3c1,0.7,1.2,1.5,0.6,2.6c-1.9,3.3-3.8,6.5-5.6,9.8
				c-0.6,1-1.4,1.4-2.6,0.8c-0.6-0.3-1.3-0.5-1.9-0.8c-1.6-0.7-3.3-1.9-4.9-1.8c-1.6,0.1-3.1,1.5-4.6,2.5c-0.4,0.2-0.7,0.8-0.8,1.2
				c-0.4,2.2-0.7,4.4-1,6.5c-0.2,1.2-0.7,1.8-2,1.8c-3.8,0-7.5,0-11.3,0c-1.3,0-1.8-0.6-2-1.8c-0.3-2.2-0.6-4.4-1-6.5
				c-0.1-0.4-0.4-0.9-0.8-1.2c-1.2-0.8-2.5-1.5-3.8-2.2c-0.4-0.2-1.1-0.3-1.6-0.1c-2.1,0.8-4.2,1.6-6.3,2.5
				c-1.1,0.5-1.8,0.1-2.3-0.7c-2-3.3-3.9-6.7-5.8-10.1c-0.5-1-0.3-1.7,0.6-2.4c1.6-1.2,3.2-2.5,4.8-3.8c0.3-0.2,0.5-0.4,0.8-0.6
				c0.7-0.7,0.4-6.4-0.4-7c-1.6-1.3-3.3-2.6-5-3.9c-1.1-0.8-1.3-1.7-0.6-2.9c1.9-3.1,3.7-6.3,5.5-9.5c0.6-1.1,1.4-1.5,2.7-0.9
				c0.6,0.3,1.3,0.5,1.9,0.8c1.6,0.7,3.3,1.9,4.9,1.8c1.6-0.1,3.1-1.5,4.6-2.5c0.4-0.2,0.7-0.8,0.8-1.2c0.4-2.2,0.7-4.4,1-6.5
				C22,0.6,22.6,0,23.8,0c3.7,0,7.4,0,11.2,0c1.3,0,2,0.5,2.1,1.9c0.2,2.1,0.6,4.3,1,6.4c0.1,0.5,0.6,1.1,1,1.4
				c0.5,0.4,1.3,0.6,1.8,1c1.8,1.7,3.5,1.5,5.5,0.4c1.4-0.7,2.9-1.3,4.3-1.7c0.6-0.2,1.6,0.1,1.9,0.5c2.1,3.5,4.1,7,6.2,10.6
				C58.9,20.7,58.9,20.9,59.1,21.3z M18.8,30.3c0,5.9,4.6,10.6,10.5,10.6c5.9,0.1,10.7-4.7,10.7-10.6c0-5.9-4.6-10.6-10.5-10.6
				C23.6,19.6,18.8,24.4,18.8,30.3z"/>
		</g>
	</g>
</g>
</svg>
