<?xml version="1.0" encoding="utf-8"?>
<!-- Generator: Adobe Illustrator 25.2.3, SVG Export Plug-In . SVG Version: 6.00 Build 0)  -->
<svg version="1.1" id="Ebene_1" xmlns="http://www.w3.org/2000/svg" xmlns:xlink="http://www.w3.org/1999/xlink" x="0px" y="0px"
	 viewBox="0 0 53.4 70.4" style="enable-background:new 0 0 53.4 70.4;" xml:space="preserve">
<style type="text/css">
	.st0{fill:#F9EEDB;}
	.st1{opacity:0.44;}
	.st2{fill:none;stroke:#FF0000;stroke-miterlimit:10;}
	.st3{fill:#002CA4;}
	.st4{fill:#EEF2F3;}
	.st5{fill:none;stroke:#FFFFFF;stroke-miterlimit:10;}
	.st6{fill:#221F20;}
	.st7{fill:#E492B8;}
	.st8{fill:#F6E778;}
	.st9{fill:#94C9AD;}
	.st10{fill:#AEC4E3;}
	.st11{fill:#FFFFFF;stroke:#94C9AD;stroke-miterlimit:10;}
	.st12{fill:#94C9AD;stroke:#FFFFFF;stroke-miterlimit:10;}
	.st13{fill:#C6C5E0;}
	.st14{fill:#333333;}
	.st15{fill:none;stroke:#8AFF03;stroke-width:0.25;stroke-miterlimit:10;}
	.st16{fill:none;stroke:#8AFF03;stroke-miterlimit:10;}
	.st17{opacity:0.54;fill:#8AFF03;}
	.st18{opacity:0.7;}
	.st19{opacity:0.47;fill:#8AFF03;}
	.st20{opacity:0.24;fill:#8AFF03;}
	.st21{opacity:0.47;}
	.st22{fill:#8AFF03;}
	.st23{fill:#333333;stroke:#00FFFF;stroke-miterlimit:10;}
	.st24{fill:none;stroke:#00FFFF;stroke-miterlimit:10;}
	.st25{fill:#00FFFF;stroke:#00FFFF;stroke-miterlimit:10;}
	.st26{fill:#FFFFFF;}
	.st27{fill:#1168D9;}
	.st28{opacity:0.42;fill:#00FFFF;}
	.st29{fill:#1BCCC7;}
	.st30{fill:#D8E0F2;}
	.st31{fill:#020F59;}
	.st32{fill:#7787A6;}
	.st33{fill:#1168D9;stroke:#00FFFF;stroke-miterlimit:10;}
	.st34{fill:#0050E3;}
	.st35{fill:#FFA8A7;}
	.st36{fill:#FFCFD0;}
	.st37{fill:#0050E3;stroke:#1B1464;stroke-miterlimit:10;}
	.st38{fill:#00BAA5;}
	.st39{fill:#C7EAD7;}
	.st40{opacity:0.42;}
	.st41{fill:#00FFFF;}
	.st42{opacity:0.54;fill:#00FFFF;}
	.st43{opacity:0.54;fill:none;stroke:#00FFFF;stroke-miterlimit:10;}
	.st44{fill:#FF3627;}
	.st45{fill:#D80000;}
	.st46{fill:#1B9787;}
	.st47{fill:#FEFD87;}
	.st48{fill:#002D82;}
	.st49{fill:#00106A;}
	.st50{fill:#22B573;stroke:#000000;stroke-width:0.5;stroke-miterlimit:10;}
	.st51{fill:#FFFFFF;stroke:#000000;stroke-width:0.5;stroke-miterlimit:10;}
	.st52{fill:#FFD900;}
	.st53{fill:#DAB312;stroke:#000000;stroke-width:0.5;stroke-miterlimit:10;}
	.st54{fill:none;stroke:#000000;stroke-width:0.5;stroke-miterlimit:10;}
	.st55{fill:#ABBEBD;stroke:#000000;stroke-width:0.5;stroke-miterlimit:10;}
	.st56{fill:#AFDCDC;stroke:#000000;stroke-width:0.5;stroke-miterlimit:10;}
	.st57{fill:#FFBECA;}
	.st58{fill:#FFA5AE;}
	.st59{fill:#FFE7A0;stroke:#000000;stroke-width:0.5;stroke-miterlimit:10;}
	.st60{fill:#FFE7A0;}
</style>
<g>
	
		<rect x="4.5" y="7.3" transform="matrix(0.9964 8.486986e-02 -8.486986e-02 0.9964 3.3063 -2.2058)" class="st51" width="46.1" height="60.9"/>
	
		<rect x="3.7" y="6.4" transform="matrix(0.9964 8.486986e-02 -8.486986e-02 0.9964 3.223 -2.1414)" class="st51" width="46.1" height="60.9"/>
	
		<rect x="2.8" y="5.4" transform="matrix(0.9964 8.486986e-02 -8.486986e-02 0.9964 3.1379 -2.0623)" class="st51" width="46.1" height="60.9"/>
	<path class="st54" d="M14.4,4.5c0.4-1.1,0.3-2.3-0.4-3.2c-0.7-0.8-1.6-1-1.8-1C10,0.1,8.3,1.5,8,3.2C7.8,4.5,8.4,5.8,9.5,6.7"/>
	<path class="st54" d="M18.2,4.8c0.4-1.1,0.3-2.3-0.4-3.2c-0.7-0.8-1.6-1-1.8-1c-2.1-0.1-3.8,1.3-4.1,3c-0.2,1.3,0.4,2.6,1.5,3.5"/>
	<path class="st54" d="M22,5.1c0.4-1.1,0.3-2.3-0.4-3.2c-0.7-0.8-1.6-1-1.8-1c-2.1-0.1-3.8,1.3-4.1,3c-0.2,1.3,0.4,2.6,1.5,3.5"/>
	<path class="st54" d="M25.8,5.5c0.4-1.1,0.3-2.3-0.4-3.2c-0.7-0.8-1.6-1-1.8-1c-2.1-0.1-3.8,1.3-4.1,3c-0.2,1.3,0.4,2.6,1.5,3.5"/>
	<path class="st54" d="M29.6,5.8c0.4-1.1,0.3-2.3-0.4-3.2c-0.7-0.8-1.6-1-1.8-1c-2.1-0.1-3.8,1.3-4.1,3C23,5.8,23.6,7.1,24.7,8"/>
	<path class="st54" d="M33.4,6.1C33.9,5,33.7,3.8,33,2.9c-0.7-0.8-1.6-1-1.8-1c-2.1-0.1-3.8,1.3-4.1,3c-0.2,1.3,0.4,2.6,1.5,3.5"/>
	<path class="st54" d="M37.2,6.4c0.4-1.1,0.3-2.3-0.4-3.2c-0.7-0.8-1.6-1-1.8-1c-2.1-0.1-3.8,1.3-4.1,3c-0.2,1.3,0.4,2.6,1.5,3.5"/>
	<path class="st54" d="M41,6.8c0.4-1.1,0.3-2.3-0.4-3.2c-0.7-0.8-1.6-1-1.8-1c-2.1-0.1-3.8,1.3-4.1,3C34.4,6.8,35,8.1,36.1,9"/>
	<path class="st54" d="M44.8,7.1c0.4-1.1,0.3-2.3-0.4-3.2c-0.7-0.8-1.6-1-1.8-1c-2.1-0.1-3.8,1.3-4.1,3c-0.2,1.3,0.4,2.6,1.5,3.5"/>
	<path class="st54" d="M48.6,7.4c0.4-1.1,0.3-2.3-0.4-3.2c-0.7-0.8-1.6-1-1.8-1c-2.1-0.1-3.8,1.3-4.1,3c-0.2,1.3,0.4,2.6,1.5,3.5"/>
</g>
<path class="st54" d="M41.1,27.3C24.9,33.5,18.7,34,17.5,32c-1.7-2.9,7.5-10.2,5.2-13.9c-1.3-2.1-5.9-2.6-8.3-0.7
	c-3.7,3,1.1,9.3-1.3,19.4c-2.1,8.6-7.1,11-5.6,13.9c2.3,4.5,17.4,4.4,21.4-2.2c4.5-7.5-7.2-19.9-4.5-22.1
	c2.8-2.3,18.1,7.8,16.5,13.1c-1.2,4-12,4.7-19.1,3.4c-5.8-1-10.1-3.5-12.7-5.2"/>
</svg>
