<?xml version="1.0" encoding="utf-8"?>
<!-- Generator: Adobe Illustrator 25.2.3, SVG Export Plug-In . SVG Version: 6.00 Build 0)  -->
<svg version="1.1" xmlns="http://www.w3.org/2000/svg" xmlns:xlink="http://www.w3.org/1999/xlink" x="0px" y="0px"
	 viewBox="0 0 166 279.7" style="enable-background:new 0 0 166 279.7;" xml:space="preserve">
<style type="text/css">
	.st0{fill:#F9EEDB;stroke:#1A1A1A;stroke-width:0.75;stroke-miterlimit:10;}
	.st1{fill:none;stroke:#2F2F2F;stroke-width:4;stroke-linecap:round;stroke-miterlimit:10;}
	.st2{fill:#F0F0F0;}
	.st3{fill:#2F2F2F;stroke:#FFFFFF;stroke-width:0.5;stroke-miterlimit:10;}
	.st4{fill:#585957;stroke:#000000;stroke-width:0.5;stroke-miterlimit:10;}
	.st5{fill:#FF9A93;stroke:#000000;stroke-width:0.5;stroke-miterlimit:10;}
	.st6{fill:#ABBEBD;stroke:#000000;stroke-width:0.5;stroke-miterlimit:10;}
	.st7{fill:#FFFFFF;stroke:#000000;stroke-width:0.5;stroke-miterlimit:10;}
	.st8{fill:none;stroke:#000000;stroke-width:0.5;stroke-miterlimit:10;}
	.st9{fill:#EB7F7F;}
	.st10{fill:#AFDCDC;stroke:#000000;stroke-width:0.5;stroke-miterlimit:10;}
	.st11{fill:#75C9DF;}
	.st12{opacity:0.23;fill:#585957;}
	.st13{fill:#8DCBC3;}
	.st14{fill:#AFDCDC;}
	.st15{fill:#F9EEDB;}
	.st16{opacity:0.44;}
	.st17{fill:none;stroke:#FF0000;stroke-miterlimit:10;}
	.st18{fill:#002CA4;}
	.st19{fill:#0050E3;}
	.st20{fill:#FFA8A7;}
	.st21{fill:#FFCFD0;}
	.st22{fill:#0050E3;stroke:#1B1464;stroke-miterlimit:10;}
	.st23{fill:#00BAA5;}
	.st24{fill:#C7EAD7;}
	.st25{fill:#FF3627;}
	.st26{fill:#D80000;}
	.st27{fill:#1B9787;}
	.st28{fill:#FEFD87;}
	.st29{fill:#002D82;}
	.st30{fill:#00106A;}
	.st31{fill:#E492B8;}
	.st32{fill:#22B573;stroke:#000000;stroke-width:0.5;stroke-miterlimit:10;}
	.st33{fill:#FFD900;}
	.st34{fill:#DAB312;stroke:#000000;stroke-width:0.5;stroke-miterlimit:10;}
	.st35{fill:#FF9A93;}
	.st36{fill:#FEFEC3;}
	.st37{fill:#FFBECA;}
	.st38{fill:#FFA5AE;}
	.st39{fill:#FFFFFF;}
	.st40{fill:#8FBC9C;}
	.st41{fill:none;stroke:#000000;stroke-width:0.25;stroke-miterlimit:10;}
	.st42{opacity:0.32;fill:#585957;}
	.st43{fill:none;stroke:#000000;stroke-width:2;stroke-miterlimit:10;}
	.st44{fill:#FEFEC3;stroke:#000000;stroke-width:0.5;stroke-miterlimit:10;}
	.st45{fill:#FFBECA;stroke:#000000;stroke-width:0.5;stroke-miterlimit:10;}
	.st46{fill:#FCF6ED;stroke:#000000;stroke-miterlimit:10;}
	.st47{fill:#7F7F7F;stroke:#000000;stroke-miterlimit:10;}
	.st48{opacity:0.12;}
	.st49{fill:#008072;stroke:#000000;stroke-width:0.75;stroke-miterlimit:10;}
	.st50{fill:#FFE7A0;stroke:#000000;stroke-width:0.75;stroke-miterlimit:10;}
	.st51{fill:#FFA5AE;stroke:#000000;stroke-width:0.75;stroke-miterlimit:10;}
	.st52{fill:none;stroke:#000000;stroke-width:3;stroke-miterlimit:10;}
	.st53{fill:#FFA5AE;stroke:#000000;stroke-width:0.1;stroke-miterlimit:10;}
	.st54{fill:#FF0000;}
	.st55{fill:#ABBEBD;stroke:#000000;stroke-width:0.25;stroke-miterlimit:10;}
	.st56{opacity:0.6;fill:#FFFFFF;}
	.st57{fill:#FF4A3D;}
	.st58{fill:#7FA7F1;stroke:#7FA7F1;stroke-miterlimit:10;}
	.st59{fill:#ABBEBD;stroke:#000000;stroke-width:1.5;stroke-miterlimit:10;}
	.st60{fill:none;stroke:#000000;stroke-width:0.75;stroke-miterlimit:10;}
	.st61{fill:#FEF7EF;stroke:#000000;stroke-width:0.75;stroke-miterlimit:10;}
	.st62{fill:none;stroke:#000000;stroke-width:0.75;stroke-linecap:round;stroke-miterlimit:10;}
	.st63{fill:#FFFFFF;stroke:#000000;stroke-width:0.75;stroke-miterlimit:10;}
	.st64{fill:#DBDAD2;stroke:#000000;stroke-width:0.5;stroke-miterlimit:10;}
	.st65{fill:#FF4A3D;stroke:#000000;stroke-width:0.5;stroke-linecap:round;stroke-miterlimit:10;}
	.st66{fill:none;stroke:#000000;stroke-width:0.5;stroke-linecap:round;stroke-miterlimit:10;}
	.st67{fill:#F9EEDB;stroke:#000000;stroke-width:0.5;stroke-miterlimit:10;}
	.st68{fill:#7F7F7F;stroke:#000000;stroke-width:0.5;stroke-miterlimit:10;}
	.st69{fill:#7FDCD2;stroke:#000000;stroke-width:0.5;stroke-miterlimit:10;}
	.st70{fill:#FF7BAC;stroke:#2F2F2F;stroke-width:0.5;stroke-miterlimit:10;}
	.st71{fill:none;stroke:#2F2F2F;stroke-width:0.5;stroke-miterlimit:10;}
	.st72{fill:#F9EEDB;stroke:#2F2F2F;stroke-width:0.5;stroke-miterlimit:10;}
	.st73{fill:#2F2F2F;}
	.st74{fill:none;stroke:#F9EEDB;stroke-width:0.5;stroke-miterlimit:10;}
	.st75{fill:none;stroke:#000000;stroke-linejoin:round;stroke-miterlimit:10;}
	.st76{fill:#E3F4EB;stroke:#000000;stroke-width:1.5;stroke-miterlimit:10;}
	.st77{opacity:0.5;}
	.st78{fill:none;stroke:#000000;stroke-width:1.5;stroke-miterlimit:10;}
	.st79{opacity:0.52;fill:#FFFFFF;}
	.st80{opacity:0.47;fill:#2F2F2F;}
	.st81{fill:#FFCF0A;stroke:#2F2F2F;stroke-width:1.5;stroke-miterlimit:10;}
	.st82{fill:none;stroke:#2F2F2F;stroke-width:4;stroke-miterlimit:10;}
	.st83{fill:#F9EEDB;stroke:#7FA7F1;stroke-miterlimit:10;}
	.st84{fill:#F9EEDB;stroke:#2F2F2F;stroke-width:1.5;stroke-miterlimit:10;}
	.st85{fill:none;stroke:#2F2F2F;stroke-width:1.5;stroke-miterlimit:10;}
	.st86{fill:#DBDAD2;stroke:#000000;stroke-width:1.5;stroke-miterlimit:10;}
	.st87{opacity:0.56;fill:#7F7F7F;}
</style>
<g id="Ebene_2">
</g>
<g id="Ebene_1">
	<circle class="st0" cx="83.5" cy="196" r="77.3"/>
	<g>
		<path class="st1" d="M150.4,197.7c0,38.8-31.4,70.2-70.2,70.2S9.9,236.5,9.9,197.7"/>
		<path class="st1" d="M143.4,197.7c0,34.9-28.3,63.2-63.2,63.2S17,232.7,17,197.7"/>
		<path class="st1" d="M136.4,197.7c0,31.1-25.1,56.2-56.2,56.2S24,228.8,24,197.7"/>
		<path class="st1" d="M129.3,197.7c0,27.2-22,49.2-49.2,49.2S31,224.9,31,197.7"/>
		<path class="st1" d="M122.3,197.7c0,23.3-18.8,42.1-42.1,42.1S38,221,38,197.7"/>
		<path class="st1" d="M115.3,197.7c0,19.4-15.7,35.1-35.1,35.1s-35.1-15.7-35.1-35.1"/>
		<path class="st1" d="M108.3,197.7c0,15.5-12.6,28.1-28.1,28.1s-28.1-12.6-28.1-28.1"/>
		<path class="st1" d="M101.2,197.7c0,11.6-9.4,21.1-21.1,21.1s-21.1-9.4-21.1-21.1"/>
		<path class="st1" d="M94.2,197.7c0,7.8-6.3,14-14,14s-14-6.3-14-14"/>
		<path class="st1" d="M87.2,197.7c0,3.9-3.1,7-7,7c-3.9,0-7-3.1-7-7"/>
		<path class="st1" d="M157.4,197.7c0-40.8-33-73.8-73.8-73.8S9.9,157,9.9,197.7"/>
		<path class="st1" d="M150.4,197.7c0-36.9-29.8-66.7-66.7-66.7S17,160.8,17,197.7"/>
		<path class="st1" d="M143.4,197.7c0-33-26.7-59.7-59.7-59.7S24,164.7,24,197.7"/>
		<path class="st1" d="M136.4,197.7c0-29.1-23.6-52.7-52.7-52.7S31,168.6,31,197.7"/>
		<path class="st1" d="M129.3,197.7c0-25.2-20.4-45.7-45.7-45.7S38,172.5,38,197.7"/>
		<path class="st1" d="M122.3,197.7c0-21.4-17.3-38.6-38.6-38.6s-38.6,17.3-38.6,38.6"/>
		<path class="st1" d="M115.3,197.7c0-17.5-14.1-31.6-31.6-31.6s-31.6,14.1-31.6,31.6"/>
		<path class="st1" d="M108.3,197.7c0-13.6-11-24.6-24.6-24.6s-24.6,11-24.6,24.6"/>
		<path class="st1" d="M101.2,197.7c0-9.7-7.9-17.6-17.6-17.6s-17.6,7.9-17.6,17.6"/>
		<path class="st1" d="M94.2,197.7c0-5.8-4.7-10.5-10.5-10.5c-5.8,0-10.5,4.7-10.5,10.5"/>
		<path class="st1" d="M87.2,197.7c0-1.9-1.6-3.5-3.5-3.5s-3.5,1.6-3.5,3.5"/>
	</g>
	<path class="st79" d="M27.3,208.9c0-39.8,32.3-72,72-72c12.2,0,23.6,3,33.7,8.4c-12.8-11.7-29.9-18.9-48.6-18.9
		c-39.8,0-72,32.3-72,72c0,27.6,15.5,51.6,38.3,63.7C36.3,248.9,27.3,230,27.3,208.9z"/>
	<path class="st80" d="M139.6,186.3c0,39.8-32.3,72-72,72c-12.2,0-23.6-3-33.7-8.4c12.8,11.7,29.9,18.9,48.6,18.9
		c39.8,0,72-32.3,72-72c0-27.6-15.5-51.6-38.3-63.7C130.6,146.4,139.6,165.3,139.6,186.3z"/>
	<g>
		<path class="st81" d="M91.2,114.8c0.6-1.2,0.9-2.6,0.9-4v-2.4h0.2c1.9,0,3.5-1.6,3.5-3.5c0-1.9-1.6-3.5-3.5-3.5
			c1.9,0,3.5-1.6,3.5-3.5c0-1.9-1.6-3.5-3.5-3.5h-0.2l-0.7-27.1c-1.7-3.9-5.6-6.3-9.7-6.1c-3.8,0.2-7.1,2.7-8.5,6.3
			c0.2,9,0.5,17.9,0.7,26.9h-0.2c-1.9,0-3.5,1.6-3.5,3.5c0,1.9,1.6,3.5,3.5,3.5c-1.9,0-3.5,1.6-3.5,3.5c0,1.9,1.6,3.5,3.5,3.5h0.2
			v1.7c0,1.6,0.4,3.2,1.1,4.7c-41.6,4-74.2,39.2-74.2,81.9c0,45.4,36.9,82.3,82.3,82.3s82.3-36.9,82.3-82.3
			C165.3,154,132.8,118.9,91.2,114.8z M83,268.9c-39.9,0-72.3-32.4-72.3-72.3s32.4-72.3,72.3-72.3s72.3,32.4,72.3,72.3
			S122.9,268.9,83,268.9z"/>
	</g>
	<line class="st82" x1="81.7" y1="61.3" x2="80.9" y2="0.8"/>
</g>
</svg>
